<svg width="131" height="256" viewBox="0 0 131 256" fill="none" xmlns="http://www.w3.org/2000/svg">
<g clip-path="url(#clip0_5513_110494)">
<path d="M91.1967 74.4529C91.1967 75.3705 91.167 76.2804 91.1075 77.1827C90.7739 82.3863 89.4588 87.48 87.2314 92.1951C87.2141 92.2353 87.1939 92.2727 87.1768 92.3101C87.0731 92.5287 86.9666 92.7474 86.8573 92.9631C86.1948 94.2966 85.4599 95.593 84.6559 96.8464C80.9832 102.6 75.9493 107.361 69.999 110.708C64.0487 114.055 57.3652 115.886 50.539 116.038L50.9506 139.695L56.3173 136.87L57.2755 138.691L50.9909 141.999L51.7592 185.934L51.7678 186.521L47.6183 186.869L47.6269 186.855L48.9333 116.041C43.4389 115.962 38.0149 114.793 32.9763 112.602C27.9376 110.41 23.3847 107.24 19.5817 103.275C19.32 103.005 19.0609 102.726 18.8077 102.45C18.7962 102.438 18.7876 102.427 18.7789 102.418C15.6104 98.9641 13.0478 95.0002 11.1993 90.6935C11.2396 90.7396 11.2828 90.7827 11.3231 90.8287C7.14533 81.063 6.86198 70.0699 10.5311 60.1021C14.2002 50.1343 21.544 41.9465 31.0576 37.2167C31.2015 37.1448 31.3483 37.0757 31.4922 37.0038C40.9028 32.4727 51.6731 31.6413 61.6681 34.6744C71.6631 37.7075 80.1533 44.3837 85.4558 53.3797C85.7091 53.8054 85.9538 54.2398 86.1897 54.677C89.4835 60.748 91.2048 67.5465 91.1967 74.4529Z" fill="#E5E5E5"/>
<path d="M60.5591 186.966C67.4036 186.966 72.9522 181.42 72.9522 174.578C72.9522 167.736 67.4036 162.189 60.5591 162.189C53.7146 162.189 48.166 167.736 48.166 174.578C48.166 181.42 53.7146 186.966 60.5591 186.966Z" fill="#E0E0E0"/>
<path d="M75.2063 183.093H64.1035V186.857H75.2063V183.093Z" fill="#2F2E41"/>
<path d="M75.284 186.857C75.9338 186.857 76.4605 185.453 76.4605 183.721C76.4605 181.989 75.9338 180.584 75.284 180.584C74.6342 180.584 74.1074 181.989 74.1074 183.721C74.1074 185.453 74.6342 186.857 75.284 186.857Z" fill="#E0E0E0"/>
<path d="M72.6165 182.806H61.5137V186.569H72.6165V182.806Z" fill="#E0E0E0"/>
<path d="M72.6941 186.569C73.3439 186.569 73.8707 185.165 73.8707 183.433C73.8707 181.701 73.3439 180.297 72.6941 180.297C72.0443 180.297 71.5176 181.701 71.5176 183.433C71.5176 185.165 72.0443 186.569 72.6941 186.569Z" fill="#E0E0E0"/>
<g filter="url(#filter0_d_5513_110494)">
<path d="M48.5367 163.057C47.5361 158.577 50.7348 154.05 55.6814 152.946C60.628 151.842 65.4492 154.579 66.4499 159.059C67.4506 163.538 64.1723 165.191 59.2257 166.295C54.2791 167.399 49.5374 167.537 48.5367 163.057Z" fill="#2F2C9F"/>
</g>
<path d="M65.3224 173.872C64.6742 173.886 64.0383 173.695 63.5044 173.327C62.9705 172.96 62.5657 172.434 62.347 171.823C62.335 171.788 62.3301 171.75 62.3327 171.712C62.3353 171.674 62.3453 171.638 62.3621 171.604C62.379 171.57 62.4023 171.54 62.4308 171.515C62.4593 171.49 62.4924 171.471 62.5282 171.459C62.564 171.447 62.6019 171.442 62.6396 171.445C62.6773 171.448 62.7141 171.457 62.7479 171.474C62.7817 171.491 62.8119 171.514 62.8368 171.543C62.8616 171.571 62.8806 171.604 62.8926 171.64C63.3283 172.937 64.8201 173.615 66.2175 173.151C66.9114 172.926 67.4878 172.435 67.8211 171.786C67.9641 171.506 68.0501 171.201 68.0741 170.888C68.0981 170.575 68.0596 170.261 67.9608 169.963C67.9488 169.927 67.9439 169.889 67.9465 169.851C67.9491 169.814 67.9591 169.777 67.9759 169.743C67.9927 169.709 68.0161 169.679 68.0446 169.654C68.073 169.629 68.1062 169.61 68.142 169.598C68.1778 169.586 68.2156 169.582 68.2533 169.584C68.291 169.587 68.3279 169.597 68.3617 169.614C68.3955 169.63 68.4257 169.654 68.4506 169.682C68.4754 169.711 68.4944 169.744 68.5064 169.78C68.6295 170.149 68.6778 170.54 68.6485 170.928C68.6193 171.317 68.513 171.696 68.3359 172.043C67.9339 172.828 67.2376 173.423 66.3987 173.698C66.0516 173.813 65.6882 173.872 65.3224 173.872Z" fill="white"/>
<path d="M70.8414 175.556C71.174 176.206 71.2347 176.962 71.01 177.657C70.7853 178.352 70.2936 178.929 69.6432 179.261C68.9928 179.594 68.2368 179.655 67.5417 179.43C66.8465 179.205 66.2691 178.714 65.9365 178.064L65.934 178.059C65.2426 176.704 66.198 175.864 67.5531 175.172C68.9082 174.481 70.15 174.202 70.8414 175.556Z" fill="white"/>
<path d="M115.075 187.078H5.43815C5.36183 187.078 5.28863 187.047 5.23467 186.994C5.1807 186.94 5.15039 186.866 5.15039 186.79C5.15039 186.714 5.1807 186.641 5.23467 186.587C5.28863 186.533 5.36183 186.502 5.43815 186.502H115.075C115.151 186.502 115.224 186.533 115.278 186.587C115.332 186.641 115.363 186.714 115.363 186.79C115.363 186.866 115.332 186.94 115.278 186.994C115.224 187.047 115.151 187.078 115.075 187.078Z" fill="#3F3D56"/>
<path d="M57.7856 190.978C58.9398 190.68 59.1068 187.46 58.1586 183.784C57.2104 180.109 55.506 177.371 54.3517 177.668C53.1974 177.966 53.0304 181.187 53.9787 184.862C54.9269 188.537 56.6313 191.276 57.7856 190.978Z" fill="#E0E0E0"/>
<path d="M78.5957 159.81H73.8806C73.8357 159.81 73.7918 159.796 73.7548 159.771C73.7177 159.746 73.6893 159.71 73.6731 159.668C73.6569 159.626 73.6538 159.58 73.6642 159.536C73.6746 159.493 73.698 159.453 73.7313 159.423L78.019 155.541H74.0574C73.9984 155.541 73.9419 155.518 73.9002 155.476C73.8585 155.434 73.8351 155.378 73.8351 155.319C73.8351 155.26 73.8585 155.203 73.9002 155.162C73.9419 155.12 73.9984 155.097 74.0574 155.097H78.5957C78.6406 155.097 78.6845 155.11 78.7216 155.136C78.7586 155.161 78.7871 155.197 78.8032 155.239C78.8194 155.281 78.8225 155.327 78.8121 155.37C78.8017 155.414 78.7783 155.454 78.745 155.484L74.4573 159.365H78.5957C78.6547 159.365 78.7113 159.389 78.753 159.431C78.7947 159.472 78.8181 159.529 78.8181 159.588C78.8181 159.647 78.7947 159.703 78.753 159.745C78.7113 159.787 78.6547 159.81 78.5957 159.81Z" fill="#2F2C9F"/>
<path d="M84.5996 152.919H79.8845C79.8396 152.919 79.7957 152.906 79.7587 152.88C79.7216 152.855 79.6932 152.819 79.677 152.777C79.6608 152.735 79.6577 152.689 79.6681 152.646C79.6785 152.602 79.7019 152.562 79.7352 152.532L84.0229 148.651H80.0613C80.0023 148.651 79.9458 148.627 79.9041 148.586C79.8624 148.544 79.839 148.487 79.839 148.428C79.839 148.369 79.8624 148.313 79.9041 148.271C79.9458 148.229 80.0023 148.206 80.0613 148.206H84.5996C84.6446 148.206 84.6884 148.22 84.7255 148.245C84.7625 148.27 84.791 148.306 84.8071 148.348C84.8233 148.39 84.8264 148.436 84.816 148.48C84.8056 148.523 84.7822 148.563 84.7489 148.593L80.4613 152.475H84.5996C84.6586 152.475 84.7152 152.498 84.7569 152.54C84.7986 152.582 84.822 152.638 84.822 152.697C84.822 152.756 84.7986 152.813 84.7569 152.854C84.7152 152.896 84.6586 152.919 84.5996 152.919Z" fill="#2F2C9F"/>
<path d="M81.9317 145.362H77.2165C77.1716 145.362 77.1278 145.348 77.0907 145.323C77.0537 145.297 77.0252 145.261 77.009 145.219C76.9929 145.178 76.9898 145.132 77.0002 145.088C77.0106 145.044 77.034 145.005 77.0672 144.975L81.3549 141.093H77.3933C77.3344 141.093 77.2778 141.07 77.2361 141.028C77.1944 140.986 77.171 140.93 77.171 140.871C77.171 140.812 77.1944 140.755 77.2361 140.714C77.2778 140.672 77.3344 140.648 77.3933 140.648H81.9317C81.9766 140.648 82.0205 140.662 82.0575 140.687C82.0945 140.713 82.123 140.749 82.1392 140.791C82.1553 140.833 82.1584 140.878 82.148 140.922C82.1376 140.966 82.1143 141.005 82.081 141.035L77.7933 144.917H81.9317C81.9906 144.917 82.0472 144.941 82.0889 144.982C82.1306 145.024 82.154 145.081 82.154 145.139C82.154 145.198 82.1306 145.255 82.0889 145.297C82.0472 145.338 81.9906 145.362 81.9317 145.362Z" fill="#2F2C9F"/>
<path d="M114.609 81.0225L118.291 78.0788C115.431 77.7634 114.256 79.3227 113.775 80.5569C111.54 79.6294 109.107 80.845 109.107 80.845L116.474 83.5183C116.102 82.526 115.456 81.6603 114.609 81.0225Z" fill="#3F3D56"/>
<path d="M9.00176 32.9849L12.6836 30.0412C9.82333 29.7258 8.64811 31.2851 8.16713 32.5193C5.93258 31.5918 3.5 32.8074 3.5 32.8074L10.8667 35.4807C10.4951 34.4884 9.84813 33.6227 9.00176 32.9849Z" fill="#3F3D56"/>
<path d="M123.818 43.0527L127.5 40.1091C124.64 39.7937 123.465 41.353 122.984 42.5872C120.749 41.6597 118.316 42.8752 118.316 42.8752L125.683 45.5486C125.311 44.5563 124.665 43.6905 123.818 43.0527Z" fill="#3F3D56"/>
</g>
<path d="M1.43802 221V211.2H2.55802L3.04802 213.048V221H1.43802ZM8.22802 221L2.36202 213.342L2.55802 211.2L8.42402 218.858L8.22802 221ZM8.22802 221L7.73802 219.278V211.2H9.34802V221H8.22802ZM14.3432 221.14C13.6898 221.14 13.0972 220.986 12.5652 220.678C12.0332 220.361 11.6085 219.936 11.2912 219.404C10.9832 218.872 10.8292 218.279 10.8292 217.626C10.8292 216.973 10.9832 216.385 11.2912 215.862C11.6085 215.339 12.0332 214.924 12.5652 214.616C13.0972 214.299 13.6898 214.14 14.3432 214.14C15.0058 214.14 15.6032 214.294 16.1352 214.602C16.6672 214.91 17.0872 215.33 17.3952 215.862C17.7125 216.385 17.8712 216.973 17.8712 217.626C17.8712 218.279 17.7125 218.872 17.3952 219.404C17.0872 219.936 16.6672 220.361 16.1352 220.678C15.6032 220.986 15.0058 221.14 14.3432 221.14ZM14.3432 219.656C14.7258 219.656 15.0618 219.572 15.3512 219.404C15.6498 219.227 15.8785 218.984 16.0372 218.676C16.2052 218.368 16.2892 218.018 16.2892 217.626C16.2892 217.234 16.2052 216.889 16.0372 216.59C15.8692 216.291 15.6405 216.058 15.3512 215.89C15.0618 215.713 14.7258 215.624 14.3432 215.624C13.9698 215.624 13.6338 215.713 13.3352 215.89C13.0458 216.058 12.8172 216.291 12.6492 216.59C12.4905 216.889 12.4112 217.234 12.4112 217.626C12.4112 218.018 12.4905 218.368 12.6492 218.676C12.8172 218.984 13.0458 219.227 13.3352 219.404C13.6338 219.572 13.9698 219.656 14.3432 219.656ZM24.7686 221.14C24.1619 221.14 23.6113 220.986 23.1166 220.678C22.6313 220.37 22.2439 219.955 21.9546 219.432C21.6746 218.9 21.5346 218.307 21.5346 217.654C21.5346 216.991 21.6746 216.399 21.9546 215.876C22.2439 215.344 22.6313 214.924 23.1166 214.616C23.6113 214.299 24.1619 214.14 24.7686 214.14C25.2819 214.14 25.7346 214.252 26.1266 214.476C26.5279 214.691 26.8453 214.989 27.0786 215.372C27.3119 215.755 27.4286 216.189 27.4286 216.674V218.606C27.4286 219.091 27.3119 219.525 27.0786 219.908C26.8546 220.291 26.5419 220.594 26.1406 220.818C25.7393 221.033 25.2819 221.14 24.7686 221.14ZM25.0206 219.684C25.5899 219.684 26.0473 219.493 26.3926 219.11C26.7473 218.727 26.9246 218.237 26.9246 217.64C26.9246 217.239 26.8453 216.884 26.6866 216.576C26.5279 216.268 26.3039 216.03 26.0146 215.862C25.7346 215.685 25.4033 215.596 25.0206 215.596C24.6473 215.596 24.3159 215.685 24.0266 215.862C23.7466 216.03 23.5226 216.268 23.3546 216.576C23.1959 216.884 23.1166 217.239 23.1166 217.64C23.1166 218.041 23.1959 218.396 23.3546 218.704C23.5226 219.012 23.7466 219.255 24.0266 219.432C24.3159 219.6 24.6473 219.684 25.0206 219.684ZM26.8266 221V219.194L27.0926 217.556L26.8266 215.932V214.28H28.3666V221H26.8266ZM33.1697 221.14C32.507 221.14 31.905 220.986 31.3637 220.678C30.8317 220.37 30.4117 219.95 30.1037 219.418C29.7957 218.886 29.6417 218.293 29.6417 217.64C29.6417 216.977 29.7957 216.385 30.1037 215.862C30.4117 215.33 30.8317 214.91 31.3637 214.602C31.905 214.294 32.507 214.14 33.1697 214.14C33.6923 214.14 34.1777 214.243 34.6257 214.448C35.083 214.644 35.4703 214.929 35.7877 215.302L34.7797 216.324C34.5837 216.091 34.3457 215.918 34.0657 215.806C33.795 215.685 33.4963 215.624 33.1697 215.624C32.787 215.624 32.4463 215.713 32.1477 215.89C31.8583 216.058 31.6297 216.291 31.4617 216.59C31.303 216.889 31.2237 217.239 31.2237 217.64C31.2237 218.032 31.303 218.382 31.4617 218.69C31.6297 218.989 31.8583 219.227 32.1477 219.404C32.4463 219.572 32.787 219.656 33.1697 219.656C33.4963 219.656 33.795 219.6 34.0657 219.488C34.3457 219.367 34.5837 219.189 34.7797 218.956L35.7877 219.978C35.4703 220.351 35.083 220.641 34.6257 220.846C34.1777 221.042 33.6923 221.14 33.1697 221.14ZM37.8106 221V211.48H39.3506V221H37.8106ZM36.2006 215.68V214.28H40.9606V215.68H36.2006ZM42.0936 221V214.28H43.6336V221H42.0936ZM42.8636 213.048C42.6023 213.048 42.3829 212.959 42.2056 212.782C42.0376 212.605 41.9536 212.385 41.9536 212.124C41.9536 211.863 42.0376 211.643 42.2056 211.466C42.3829 211.289 42.6023 211.2 42.8636 211.2C43.1343 211.2 43.3536 211.289 43.5216 211.466C43.6896 211.643 43.7736 211.863 43.7736 212.124C43.7736 212.385 43.6896 212.605 43.5216 212.782C43.3536 212.959 43.1343 213.048 42.8636 213.048ZM47.6288 221L44.5628 214.28H46.2708L48.6088 219.754H47.6008L49.9528 214.28H51.5908L48.5248 221H47.6288ZM52.5116 221V214.28H54.0516V221H52.5116ZM53.2816 213.048C53.0202 213.048 52.8009 212.959 52.6236 212.782C52.4556 212.605 52.3716 212.385 52.3716 212.124C52.3716 211.863 52.4556 211.643 52.6236 211.466C52.8009 211.289 53.0202 211.2 53.2816 211.2C53.5522 211.2 53.7716 211.289 53.9396 211.466C54.1076 211.643 54.1916 211.863 54.1916 212.124C54.1916 212.385 54.1076 212.605 53.9396 212.782C53.7716 212.959 53.5522 213.048 53.2816 213.048ZM56.8008 221V211.48H58.3408V221H56.8008ZM55.1908 215.68V214.28H59.9508V215.68H55.1908ZM63.2398 221.07L60.3698 214.28H62.0638L64.0238 219.264H63.5338L65.6058 214.28H67.3138L64.1918 221.07H63.2398ZM61.2378 223.8L63.3238 219.502L64.1918 221.07L62.9458 223.8H61.2378ZM72.0426 221V213.398C72.0426 212.885 72.1546 212.432 72.3786 212.04C72.612 211.648 72.9293 211.34 73.3306 211.116C73.7413 210.892 74.2126 210.78 74.7446 210.78C75.1553 210.78 75.5053 210.85 75.7946 210.99C76.084 211.13 76.3546 211.331 76.6066 211.592L75.6126 212.586C75.5006 212.474 75.3793 212.385 75.2486 212.32C75.118 212.255 74.95 212.222 74.7446 212.222C74.3713 212.222 74.082 212.325 73.8766 212.53C73.6806 212.726 73.5826 213.011 73.5826 213.384V221H72.0426ZM70.4326 215.68V214.28H75.6126V215.68H70.4326ZM79.5453 221.14C78.8733 221.14 78.2667 220.991 77.7253 220.692C77.1933 220.384 76.7687 219.964 76.4513 219.432C76.1433 218.9 75.9893 218.303 75.9893 217.64C75.9893 216.977 76.1433 216.385 76.4513 215.862C76.7593 215.33 77.1747 214.91 77.6973 214.602C78.2293 214.294 78.8173 214.14 79.4613 214.14C80.0867 214.14 80.6373 214.285 81.1133 214.574C81.5987 214.863 81.9767 215.26 82.2473 215.764C82.5273 216.268 82.6673 216.842 82.6673 217.486C82.6673 217.598 82.658 217.715 82.6393 217.836C82.63 217.948 82.6113 218.074 82.5833 218.214H77.0673V216.954H81.7853L81.2113 217.458C81.1927 217.047 81.1133 216.702 80.9733 216.422C80.8333 216.142 80.6327 215.927 80.3713 215.778C80.1193 215.629 79.8067 215.554 79.4333 215.554C79.0413 215.554 78.7007 215.638 78.4113 215.806C78.122 215.974 77.898 216.212 77.7393 216.52C77.5807 216.819 77.5013 217.178 77.5013 217.598C77.5013 218.018 77.5853 218.387 77.7533 218.704C77.9213 219.021 78.1593 219.269 78.4673 219.446C78.7753 219.614 79.13 219.698 79.5313 219.698C79.8767 219.698 80.194 219.637 80.4833 219.516C80.782 219.395 81.034 219.217 81.2393 218.984L82.2193 219.978C81.8927 220.361 81.496 220.65 81.0293 220.846C80.5627 221.042 80.068 221.14 79.5453 221.14ZM87.0239 221.14C86.3519 221.14 85.7452 220.991 85.2039 220.692C84.6719 220.384 84.2472 219.964 83.9299 219.432C83.6219 218.9 83.4679 218.303 83.4679 217.64C83.4679 216.977 83.6219 216.385 83.9299 215.862C84.2379 215.33 84.6532 214.91 85.1759 214.602C85.7079 214.294 86.2959 214.14 86.9399 214.14C87.5652 214.14 88.1159 214.285 88.5919 214.574C89.0772 214.863 89.4552 215.26 89.7259 215.764C90.0059 216.268 90.1459 216.842 90.1459 217.486C90.1459 217.598 90.1365 217.715 90.1179 217.836C90.1085 217.948 90.0899 218.074 90.0619 218.214H84.5459V216.954H89.2639L88.6899 217.458C88.6712 217.047 88.5919 216.702 88.4519 216.422C88.3119 216.142 88.1112 215.927 87.8499 215.778C87.5979 215.629 87.2852 215.554 86.9119 215.554C86.5199 215.554 86.1792 215.638 85.8899 215.806C85.6005 215.974 85.3765 216.212 85.2179 216.52C85.0592 216.819 84.9799 217.178 84.9799 217.598C84.9799 218.018 85.0639 218.387 85.2319 218.704C85.3999 219.021 85.6379 219.269 85.9459 219.446C86.2539 219.614 86.6085 219.698 87.0099 219.698C87.3552 219.698 87.6725 219.637 87.9619 219.516C88.2605 219.395 88.5125 219.217 88.7179 218.984L89.6979 219.978C89.3712 220.361 88.9745 220.65 88.5079 220.846C88.0412 221.042 87.5465 221.14 87.0239 221.14ZM94.1944 221.14C93.5877 221.14 93.037 220.986 92.5424 220.678C92.057 220.37 91.6697 219.955 91.3804 219.432C91.1004 218.9 90.9604 218.307 90.9604 217.654C90.9604 216.991 91.1004 216.399 91.3804 215.876C91.6697 215.344 92.057 214.924 92.5424 214.616C93.037 214.299 93.5877 214.14 94.1944 214.14C94.7077 214.14 95.1604 214.252 95.5524 214.476C95.9537 214.691 96.271 214.989 96.5044 215.372C96.7377 215.755 96.8544 216.189 96.8544 216.674V218.606C96.8544 219.091 96.7377 219.525 96.5044 219.908C96.2804 220.291 95.9677 220.594 95.5664 220.818C95.165 221.033 94.7077 221.14 94.1944 221.14ZM94.4464 219.684C94.829 219.684 95.1604 219.6 95.4404 219.432C95.7297 219.255 95.9537 219.012 96.1124 218.704C96.271 218.396 96.3504 218.041 96.3504 217.64C96.3504 217.239 96.271 216.884 96.1124 216.576C95.9537 216.268 95.7297 216.03 95.4404 215.862C95.1604 215.685 94.829 215.596 94.4464 215.596C94.073 215.596 93.7417 215.685 93.4524 215.862C93.1724 216.03 92.9484 216.268 92.7804 216.576C92.6217 216.884 92.5424 217.239 92.5424 217.64C92.5424 218.041 92.6217 218.396 92.7804 218.704C92.9484 219.012 93.1724 219.255 93.4524 219.432C93.7417 219.6 94.073 219.684 94.4464 219.684ZM97.7924 221H96.2524V219.194L96.5184 217.556L96.2524 215.932V210.92H97.7924V221ZM101.699 221.14C101.326 221.14 100.967 221.093 100.621 221C100.276 220.897 99.9588 220.757 99.6695 220.58C99.3801 220.393 99.1281 220.169 98.9135 219.908L99.8935 218.928C100.127 219.199 100.393 219.404 100.691 219.544C100.999 219.675 101.345 219.74 101.727 219.74C102.073 219.74 102.334 219.689 102.511 219.586C102.689 219.483 102.777 219.334 102.777 219.138C102.777 218.933 102.693 218.774 102.525 218.662C102.357 218.55 102.138 218.457 101.867 218.382C101.606 218.298 101.326 218.214 101.027 218.13C100.738 218.046 100.458 217.934 100.187 217.794C99.9261 217.645 99.7115 217.444 99.5435 217.192C99.3755 216.94 99.2915 216.613 99.2915 216.212C99.2915 215.783 99.3895 215.414 99.5855 215.106C99.7908 214.798 100.075 214.56 100.439 214.392C100.813 214.224 101.256 214.14 101.769 214.14C102.311 214.14 102.787 214.238 103.197 214.434C103.617 214.621 103.967 214.905 104.247 215.288L103.267 216.268C103.071 216.025 102.847 215.843 102.595 215.722C102.343 215.601 102.054 215.54 101.727 215.54C101.419 215.54 101.181 215.587 101.013 215.68C100.845 215.773 100.761 215.909 100.761 216.086C100.761 216.273 100.845 216.417 101.013 216.52C101.181 216.623 101.396 216.711 101.657 216.786C101.928 216.861 102.208 216.945 102.497 217.038C102.796 217.122 103.076 217.243 103.337 217.402C103.608 217.551 103.827 217.757 103.995 218.018C104.163 218.27 104.247 218.601 104.247 219.012C104.247 219.665 104.019 220.183 103.561 220.566C103.104 220.949 102.483 221.14 101.699 221.14ZM110.49 221.07L107.62 214.28H109.314L111.274 219.264H110.784L112.856 214.28H114.564L111.442 221.07H110.49ZM108.488 223.8L110.574 219.502L111.442 221.07L110.196 223.8H108.488ZM118.346 221.14C117.674 221.14 117.067 220.991 116.526 220.692C115.994 220.384 115.569 219.964 115.252 219.432C114.944 218.9 114.79 218.303 114.79 217.64C114.79 216.977 114.944 216.385 115.252 215.862C115.56 215.33 115.975 214.91 116.498 214.602C117.03 214.294 117.618 214.14 118.262 214.14C118.887 214.14 119.438 214.285 119.914 214.574C120.399 214.863 120.777 215.26 121.048 215.764C121.328 216.268 121.468 216.842 121.468 217.486C121.468 217.598 121.459 217.715 121.44 217.836C121.431 217.948 121.412 218.074 121.384 218.214H115.868V216.954H120.586L120.012 217.458C119.993 217.047 119.914 216.702 119.774 216.422C119.634 216.142 119.433 215.927 119.172 215.778C118.92 215.629 118.607 215.554 118.234 215.554C117.842 215.554 117.501 215.638 117.212 215.806C116.923 215.974 116.699 216.212 116.54 216.52C116.381 216.819 116.302 217.178 116.302 217.598C116.302 218.018 116.386 218.387 116.554 218.704C116.722 219.021 116.96 219.269 117.268 219.446C117.576 219.614 117.931 219.698 118.332 219.698C118.677 219.698 118.995 219.637 119.284 219.516C119.583 219.395 119.835 219.217 120.04 218.984L121.02 219.978C120.693 220.361 120.297 220.65 119.83 220.846C119.363 221.042 118.869 221.14 118.346 221.14ZM123.547 221V211.48H125.087V221H123.547ZM121.937 215.68V214.28H126.697V215.68H121.937ZM128.152 217.752L127.942 210.92H129.552L129.342 217.752H128.152ZM128.74 221.14C128.441 221.14 128.194 221.042 127.998 220.846C127.811 220.641 127.718 220.393 127.718 220.104C127.718 219.805 127.811 219.558 127.998 219.362C128.194 219.166 128.441 219.068 128.74 219.068C129.039 219.068 129.281 219.166 129.468 219.362C129.664 219.558 129.762 219.805 129.762 220.104C129.762 220.393 129.664 220.641 129.468 220.846C129.281 221.042 129.039 221.14 128.74 221.14Z" fill="#999999"/>
<defs>
<filter id="filter0_d_5513_110494" x="44.3535" y="152.702" width="26.2754" height="22.2407" filterUnits="userSpaceOnUse" color-interpolation-filters="sRGB">
<feFlood flood-opacity="0" result="BackgroundImageFix"/>
<feColorMatrix in="SourceAlpha" type="matrix" values="0 0 0 0 0 0 0 0 0 0 0 0 0 0 0 0 0 0 127 0" result="hardAlpha"/>
<feOffset dy="4"/>
<feGaussianBlur stdDeviation="2"/>
<feComposite in2="hardAlpha" operator="out"/>
<feColorMatrix type="matrix" values="0 0 0 0 0 0 0 0 0 0 0 0 0 0 0 0 0 0 0.25 0"/>
<feBlend mode="normal" in2="BackgroundImageFix" result="effect1_dropShadow_5513_110494"/>
<feBlend mode="normal" in="SourceGraphic" in2="effect1_dropShadow_5513_110494" result="shape"/>
</filter>
<clipPath id="clip0_5513_110494">
<rect width="124" height="161" fill="white" transform="translate(3.5 30)"/>
</clipPath>
</defs>
</svg>
