<svg width="19" height="19" viewBox="0 0 19 19" fill="none" xmlns="http://www.w3.org/2000/svg">
<rect width="19" height="19" fill="#C7C7C7"/>
<path d="M-10918 -8079C-10918 -8080.1 -10917.1 -8081 -10916 -8081H64728C64729.1 -8081 64730 -8080.1 64730 -8079V7725C64730 7726.1 64729.1 7727 64728 7727H-10916C-10917.1 7727 -10918 7726.1 -10918 7725V-8079Z" fill="#BDB5B5"/>
<path d="M-5537 -4397C-5537 -4398.1 -5536.1 -4399 -5535 -4399H659C660.104 -4399 661 -4398.1 661 -4397V4043C661 4044.1 660.105 4045 659 4045H-5535C-5536.1 4045 -5537 4044.1 -5537 4043V-4397Z" fill="#E5E5E5"/>
<rect width="1440" height="769" transform="translate(-1314 -466)" fill="white"/>
<path d="M8.625 10.375V13C8.625 13.2479 8.709 13.4559 8.877 13.6239C9.045 13.7919 9.25267 13.8756 9.5 13.875C9.74792 13.875 9.95587 13.791 10.1239 13.623C10.2919 13.455 10.3756 13.2473 10.375 13V10.375H13C13.2479 10.375 13.4559 10.291 13.6239 10.123C13.7919 9.955 13.8756 9.74733 13.875 9.5C13.875 9.25208 13.791 9.04412 13.623 8.87612C13.455 8.70812 13.2473 8.62442 13 8.625H10.375V6C10.375 5.75208 10.291 5.54412 10.123 5.37612C9.955 5.20812 9.74733 5.12442 9.5 5.125C9.25208 5.125 9.04412 5.209 8.87612 5.377C8.70812 5.545 8.62442 5.75267 8.625 6V8.625H6C5.75208 8.625 5.54412 8.709 5.37612 8.877C5.20812 9.045 5.12442 9.25267 5.125 9.5C5.125 9.74792 5.209 9.95587 5.377 10.1239C5.545 10.2919 5.75267 10.3756 6 10.375H8.625ZM9.5 18.25C8.28958 18.25 7.15208 18.0202 6.0875 17.5605C5.02292 17.1008 4.09687 16.4775 3.30938 15.6906C2.52188 14.9031 1.89858 13.9771 1.4395 12.9125C0.980417 11.8479 0.750583 10.7104 0.75 9.5C0.75 8.28958 0.979833 7.15208 1.4395 6.0875C1.89917 5.02292 2.52246 4.09687 3.30938 3.30938C4.09687 2.52188 5.02292 1.89858 6.0875 1.4395C7.15208 0.980417 8.28958 0.750583 9.5 0.75C10.7104 0.75 11.8479 0.979833 12.9125 1.4395C13.9771 1.89917 14.9031 2.52246 15.6906 3.30938C16.4781 4.09687 17.1017 5.02292 17.5614 6.0875C18.021 7.15208 18.2506 8.28958 18.25 9.5C18.25 10.7104 18.0202 11.8479 17.5605 12.9125C17.1008 13.9771 16.4775 14.9031 15.6906 15.6906C14.9031 16.4781 13.9771 17.1017 12.9125 17.5614C11.8479 18.021 10.7104 18.2506 9.5 18.25ZM9.5 16.5C11.4542 16.5 13.1094 15.8219 14.4656 14.4656C15.8219 13.1094 16.5 11.4542 16.5 9.5C16.5 7.54583 15.8219 5.89062 14.4656 4.53437C13.1094 3.17812 11.4542 2.5 9.5 2.5C7.54583 2.5 5.89062 3.17812 4.53437 4.53437C3.17812 5.89062 2.5 7.54583 2.5 9.5C2.5 11.4542 3.17812 13.1094 4.53437 14.4656C5.89062 15.8219 7.54583 16.5 9.5 16.5Z" fill="#B4B4B4"/>
<path d="M-5535 -4398H659V-4400H-5535V-4398ZM660 -4397V4043H662V-4397H660ZM659 4044H-5535V4046H659V4044ZM-5536 4043V-4397H-5538V4043H-5536ZM-5535 4044C-5535.55 4044 -5536 4043.55 -5536 4043H-5538C-5538 4044.66 -5536.66 4046 -5535 4046V4044ZM660 4043C660 4043.55 659.552 4044 659 4044V4046C660.657 4046 662 4044.66 662 4043H660ZM659 -4398C659.552 -4398 660 -4397.55 660 -4397H662C662 -4398.66 660.657 -4400 659 -4400V-4398ZM-5535 -4400C-5536.66 -4400 -5538 -4398.66 -5538 -4397H-5536C-5536 -4397.55 -5535.55 -4398 -5535 -4398V-4400Z" fill="black" fill-opacity="0.1"/>
<path d="M-10916 -8080H64728V-8082H-10916V-8080ZM64729 -8079V7725H64731V-8079H64729ZM64728 7726H-10916V7728H64728V7726ZM-10917 7725V-8079H-10919V7725H-10917ZM-10916 7726C-10916.6 7726 -10917 7725.55 -10917 7725H-10919C-10919 7726.66 -10917.7 7728 -10916 7728V7726ZM64729 7725C64729 7725.55 64728.6 7726 64728 7726V7728C64729.7 7728 64731 7726.66 64731 7725H64729ZM64728 -8080C64728.6 -8080 64729 -8079.55 64729 -8079H64731C64731 -8080.66 64729.7 -8082 64728 -8082V-8080ZM-10916 -8082C-10917.7 -8082 -10919 -8080.66 -10919 -8079H-10917C-10917 -8079.55 -10916.6 -8080 -10916 -8080V-8082Z" fill="black" fill-opacity="0.1"/>
</svg>
