<svg width="40" height="40" viewBox="0 0 40 40" fill="none" xmlns="http://www.w3.org/2000/svg">
<path d="M18.515 25.4917C18.8 24.6111 19.1971 23.7708 19.6967 22.9917H6.74667C6.25443 22.9919 5.76705 23.0891 5.31237 23.2776C4.85768 23.4662 4.44459 23.7425 4.09668 24.0907C3.74877 24.4389 3.47286 24.8523 3.28469 25.3071C3.09652 25.762 2.99978 26.2494 3 26.7417V27.7033C3 29.19 3.53 30.63 4.49667 31.7617C7.10667 34.8183 11.0833 36.3283 16.3267 36.3283C17.8783 36.3283 19.32 36.195 20.6483 35.9283C20.0465 35.2368 19.5347 34.4718 19.125 33.6517C18.1971 33.7718 17.2623 33.8303 16.3267 33.8267C11.7633 33.8267 8.48667 32.585 6.39833 30.1383C5.818 29.4597 5.49886 28.5963 5.49833 27.7033V26.74C5.49878 26.4088 5.63067 26.0913 5.86504 25.8572C6.09941 25.6231 6.4171 25.4917 6.74833 25.4917H18.515ZM16.3267 3C17.421 3 18.5046 3.21555 19.5157 3.63434C20.5267 4.05313 21.4454 4.66695 22.2192 5.44078C22.993 6.2146 23.6069 7.13326 24.0257 8.1443C24.4445 9.15535 24.66 10.239 24.66 11.3333C24.66 12.4277 24.4445 13.5113 24.0257 14.5224C23.6069 15.5334 22.993 16.4521 22.2192 17.2259C21.4454 17.9997 20.5267 18.6135 19.5157 19.0323C18.5046 19.4511 17.421 19.6667 16.3267 19.6667C14.1165 19.6667 11.9969 18.7887 10.4341 17.2259C8.87131 15.6631 7.99333 13.5435 7.99333 11.3333C7.99333 9.1232 8.87131 7.00358 10.4341 5.44078C11.9969 3.87797 14.1165 3 16.3267 3ZM16.3267 5.5C15.5606 5.5 14.8021 5.65088 14.0943 5.94404C13.3866 6.23719 12.7436 6.66687 12.2019 7.20854C11.6602 7.75022 11.2305 8.39328 10.9374 9.10101C10.6442 9.80875 10.4933 10.5673 10.4933 11.3333C10.4933 12.0994 10.6442 12.8579 10.9374 13.5657C11.2305 14.2734 11.6602 14.9164 12.2019 15.4581C12.7436 15.9998 13.3866 16.4295 14.0943 16.7226C14.8021 17.0158 15.5606 17.1667 16.3267 17.1667C17.8738 17.1667 19.3575 16.5521 20.4515 15.4581C21.5454 14.3642 22.16 12.8804 22.16 11.3333C22.16 9.78624 21.5454 8.30251 20.4515 7.20854C19.3575 6.11458 17.8738 5.5 16.3267 5.5ZM28.8267 19.6583C31.2578 19.6583 33.5894 20.6241 35.3085 22.3432C37.0276 24.0623 37.9933 26.3938 37.9933 28.825C37.9933 31.2561 37.0276 33.5877 35.3085 35.3068C33.5894 37.0259 31.2578 37.9917 28.8267 37.9917C26.3955 37.9917 24.0639 37.0259 22.3449 35.3068C20.6258 33.5877 19.66 31.2561 19.66 28.825C19.66 26.3938 20.6258 24.0623 22.3449 22.3432C24.0639 20.6241 26.3955 19.6583 28.8267 19.6583ZM32.16 28.825H28.8267V24.6583C28.8267 24.4373 28.7389 24.2254 28.5826 24.0691C28.4263 23.9128 28.2143 23.825 27.9933 23.825C27.7723 23.825 27.5604 23.9128 27.4041 24.0691C27.2478 24.2254 27.16 24.4373 27.16 24.6583V29.6583C27.16 29.8793 27.2478 30.0913 27.4041 30.2476C27.5604 30.4039 27.7723 30.4917 27.9933 30.4917H32.16C32.381 30.4917 32.593 30.4039 32.7493 30.2476C32.9055 30.0913 32.9933 29.8793 32.9933 29.6583C32.9933 29.4373 32.9055 29.2254 32.7493 29.0691C32.593 28.9128 32.381 28.825 32.16 28.825Z" fill="#FBB642"/>
</svg>
