<svg width="146" height="31" viewBox="0 0 146 31" fill="none" xmlns="http://www.w3.org/2000/svg">
<g clip-path="url(#clip0_5208_85943)">
<path d="M17.2823 18.6548C17.058 18.1712 16.9901 17.6432 16.7344 17.1639C16.0558 15.8894 15.0239 14.9627 13.5857 14.4476C10.7092 13.4167 7.45876 14.5464 6.13082 17.0496C5.71561 17.8323 5.4887 18.6579 5.48658 19.527C5.47979 22.8497 5.47838 26.1725 5.48234 29.4955C5.48234 29.9884 5.48234 29.9935 4.94243 29.9946C3.62934 29.9983 2.31625 29.9983 1.00316 29.9946C0.50609 29.9946 0.506514 29.9907 0.506514 29.5484V4.42001C0.506514 3.07742 0.520085 1.7356 0.500151 0.391455C0.495062 0.0673814 0.618059 -0.00692612 0.939969 -0.00381376C2.31328 0.00824661 3.68702 0.0121371 5.06033 -0.00381376C5.41109 -0.0049809 5.48955 0.110954 5.48955 0.411297C5.47824 3.71999 5.47456 7.02881 5.47852 10.3378C5.47852 10.407 5.47513 10.4767 5.47852 10.5455C5.49591 10.9283 5.56589 10.9735 5.92724 10.7894C7.62374 9.93083 9.43984 9.47059 11.3734 9.44958C12.6958 9.43557 13.986 9.66433 15.2266 10.0864C16.9719 10.6801 18.4347 11.6543 19.671 12.923C19.7076 12.967 19.7404 13.0135 19.769 13.0622C19.707 13.1556 19.6515 13.2533 19.5819 13.342C18.6968 14.4702 17.9809 15.6762 17.6335 17.0422C17.4974 17.5756 17.3981 18.1171 17.2823 18.6548Z" fill="#8BAFFF"/>
<path d="M17.2812 18.6573C17.397 18.1196 17.4963 17.5781 17.632 17.0447C17.9794 15.6791 18.6953 14.4735 19.5804 13.3445C19.65 13.2558 19.7077 13.1581 19.7675 13.0648C20.3642 12.559 20.9126 12.0046 21.5636 11.5525C23.2406 10.3893 25.1144 9.70614 27.2151 9.52952C28.2012 9.44704 29.1711 9.5089 30.1415 9.64001C30.3587 9.66957 30.5004 9.71159 30.4982 9.96174C30.4864 11.4148 30.4902 12.8679 30.4868 14.321C30.4868 14.3447 30.4626 14.3688 30.4338 14.4221C29.9401 14.291 29.443 14.1518 28.9209 14.0907C25.4325 13.6826 22.3016 16.1705 22.2863 19.4039C22.2706 22.7804 22.2821 26.1573 22.2808 29.5342C22.2808 29.9975 22.2787 29.9971 21.7596 29.9971H17.6426C17.5383 29.9971 17.4305 30.0205 17.2812 29.9419V18.6573Z" fill="#2F2C9F"/>
<path d="M22.2796 7.22828C22.2796 8.45921 21.1768 9.49174 19.851 9.49719C18.4349 9.50302 17.3063 8.51212 17.2969 7.2524C17.2863 6.00279 18.4302 4.9547 19.8022 4.95704C21.1578 4.95859 22.2791 5.98684 22.2796 7.22828Z" fill="#2F2C9F"/>
</g>
<path d="M51.828 13.2H54.756V30H51.828V22.464H44.868V30H41.94V13.2H44.868V19.536H51.828V13.2ZM57.6431 30V13.2H64.0871C64.9991 13.2 65.8231 13.428 66.5591 13.884C67.2951 14.34 67.8791 14.952 68.3111 15.72C68.7431 16.48 68.9591 17.324 68.9591 18.252C68.9591 19.012 68.8191 19.712 68.5391 20.352C68.2671 20.984 67.8831 21.532 67.3871 21.996C66.8991 22.46 66.3351 22.812 65.6951 23.052L69.7151 30H66.3431L62.4551 23.316H60.5711V30H57.6431ZM60.5711 20.388H63.7511C64.1671 20.388 64.5471 20.284 64.8911 20.076C65.2351 19.868 65.5111 19.588 65.7191 19.236C65.9271 18.884 66.0311 18.492 66.0311 18.06C66.0311 17.62 65.9271 17.224 65.7191 16.872C65.5111 16.52 65.2351 16.24 64.8911 16.032C64.5471 15.824 64.1671 15.72 63.7511 15.72H60.5711V20.388ZM72.1978 30V18H75.1258V19.068C75.5338 18.636 76.0218 18.296 76.5898 18.048C77.1578 17.792 77.7698 17.664 78.4258 17.664C79.2578 17.664 80.0218 17.86 80.7178 18.252C81.4218 18.644 81.9818 19.168 82.3978 19.824C82.8218 19.168 83.3818 18.644 84.0778 18.252C84.7738 17.86 85.5378 17.664 86.3698 17.664C87.2498 17.664 88.0458 17.88 88.7578 18.312C89.4778 18.736 90.0498 19.308 90.4738 20.028C90.9058 20.74 91.1218 21.536 91.1218 22.416V30H88.1938V23.196C88.1938 22.732 88.0778 22.308 87.8458 21.924C87.6218 21.532 87.3178 21.22 86.9338 20.988C86.5578 20.748 86.1338 20.628 85.6618 20.628C85.1898 20.628 84.7618 20.744 84.3778 20.976C84.0018 21.2 83.6978 21.504 83.4658 21.888C83.2338 22.272 83.1178 22.708 83.1178 23.196V30H80.1898V23.196C80.1898 22.708 80.0778 22.272 79.8538 21.888C79.6298 21.504 79.3258 21.2 78.9418 20.976C78.5578 20.744 78.1298 20.628 77.6578 20.628C77.1938 20.628 76.7698 20.748 76.3858 20.988C76.0018 21.22 75.6938 21.532 75.4618 21.924C75.2378 22.308 75.1258 22.732 75.1258 23.196V30H72.1978ZM102.34 18H105.268V30H102.34L102.208 28.512C101.88 29.048 101.444 29.484 100.9 29.82C100.364 30.148 99.7276 30.312 98.9916 30.312C98.1036 30.312 97.2716 30.144 96.4956 29.808C95.7196 29.472 95.0356 29.008 94.4436 28.416C93.8596 27.824 93.3996 27.14 93.0636 26.364C92.7356 25.588 92.5716 24.756 92.5716 23.868C92.5716 23.012 92.7276 22.208 93.0396 21.456C93.3596 20.704 93.8036 20.044 94.3716 19.476C94.9396 18.908 95.5956 18.464 96.3396 18.144C97.0836 17.824 97.8836 17.664 98.7396 17.664C99.5316 17.664 100.24 17.84 100.864 18.192C101.496 18.544 102.032 18.992 102.472 19.536L102.34 18ZM98.9196 27.492C99.5436 27.492 100.096 27.336 100.576 27.024C101.056 26.712 101.432 26.292 101.704 25.764C101.976 25.228 102.112 24.64 102.112 24C102.112 23.352 101.976 22.764 101.704 22.236C101.432 21.7 101.052 21.276 100.564 20.964C100.084 20.652 99.5356 20.496 98.9196 20.496C98.3036 20.496 97.7396 20.656 97.2276 20.976C96.7236 21.288 96.3196 21.708 96.0156 22.236C95.7196 22.764 95.5716 23.352 95.5716 24C95.5716 24.648 95.7236 25.236 96.0276 25.764C96.3316 26.292 96.7356 26.712 97.2396 27.024C97.7516 27.336 98.3116 27.492 98.9196 27.492ZM114.548 30H110.768L106.4 17.988H109.52L112.664 26.628L115.796 17.988H118.916L114.548 30ZM125.501 30.312C124.397 30.312 123.389 30.028 122.477 29.46C121.573 28.892 120.849 28.128 120.305 27.168C119.769 26.208 119.501 25.148 119.501 23.988C119.501 23.116 119.657 22.3 119.969 21.54C120.281 20.772 120.709 20.1 121.253 19.524C121.805 18.94 122.445 18.484 123.173 18.156C123.901 17.828 124.677 17.664 125.501 17.664C126.437 17.664 127.293 17.864 128.069 18.264C128.853 18.656 129.517 19.196 130.061 19.884C130.605 20.572 131.001 21.356 131.249 22.236C131.497 23.116 131.553 24.036 131.417 24.996H122.645C122.757 25.444 122.941 25.848 123.197 26.208C123.453 26.56 123.777 26.844 124.169 27.06C124.561 27.268 125.005 27.376 125.501 27.384C126.013 27.392 126.477 27.272 126.893 27.024C127.317 26.768 127.669 26.424 127.949 25.992L130.937 26.688C130.449 27.752 129.721 28.624 128.753 29.304C127.785 29.976 126.701 30.312 125.501 30.312ZM122.549 22.8H128.453C128.365 22.32 128.177 21.888 127.889 21.504C127.609 21.112 127.261 20.8 126.845 20.568C126.429 20.336 125.981 20.22 125.501 20.22C125.021 20.22 124.577 20.336 124.169 20.568C123.761 20.792 123.413 21.1 123.125 21.492C122.845 21.876 122.653 22.312 122.549 22.8ZM144.362 22.416V30H141.434V23.184C141.434 22.712 141.318 22.284 141.086 21.9C140.854 21.508 140.542 21.2 140.15 20.976C139.766 20.744 139.338 20.628 138.866 20.628C138.394 20.628 137.962 20.744 137.57 20.976C137.186 21.2 136.878 21.508 136.646 21.9C136.422 22.284 136.31 22.712 136.31 23.184V30H133.382L133.37 18H136.298L136.31 19.068C136.718 18.636 137.206 18.296 137.774 18.048C138.342 17.792 138.954 17.664 139.61 17.664C140.482 17.664 141.278 17.88 141.998 18.312C142.718 18.736 143.29 19.308 143.714 20.028C144.146 20.74 144.362 21.536 144.362 22.416Z" fill="#2F2C9F"/>
<defs>
<clipPath id="clip0_5208_85943">
<rect width="30" height="30" fill="white" transform="translate(0.5)"/>
</clipPath>
</defs>
</svg>
