<svg width="100" height="100" viewBox="0 0 100 100" fill="none" xmlns="http://www.w3.org/2000/svg">
<rect width="100" height="100" rx="50" fill="#222222" fill-opacity="0.5"/>
<path fill-rule="evenodd" clip-rule="evenodd" d="M43 36.9998C43 36.7346 43.1054 36.4802 43.2929 36.2927C43.4804 36.1051 43.7348 35.9998 44 35.9998H56C56.2652 35.9998 56.5196 36.1051 56.7071 36.2927C56.8946 36.4802 57 36.7346 57 36.9998C57 37.265 56.8946 37.5194 56.7071 37.7069C56.5196 37.8944 56.2652 37.9998 56 37.9998H44C43.7348 37.9998 43.4804 37.8944 43.2929 37.7069C43.1054 37.5194 43 37.265 43 36.9998ZM46.293 26.7068C46.1055 26.5193 46.0002 26.265 46.0002 25.9998C46.0002 25.7346 46.1055 25.4803 46.293 25.2928L49.293 22.2928C49.4805 22.1053 49.7348 22 50 22C50.2652 22 50.5195 22.1053 50.707 22.2928L53.707 25.2928C53.8892 25.4814 53.99 25.734 53.9877 25.9962C53.9854 26.2584 53.8802 26.5092 53.6948 26.6946C53.5094 26.88 53.2586 26.9852 52.9964 26.9875C52.7342 26.9897 52.4816 26.8889 52.293 26.7068L51 25.4138V32.9998C51 33.265 50.8946 33.5194 50.7071 33.7069C50.5196 33.8944 50.2652 33.9998 50 33.9998C49.7348 33.9998 49.4804 33.8944 49.2929 33.7069C49.1054 33.5194 49 33.265 49 32.9998V25.4138L47.707 26.7068C47.5195 26.8943 47.2652 26.9996 47 26.9996C46.7348 26.9996 46.4805 26.8943 46.293 26.7068Z" fill="#FAFAFA"/>
<path d="M35.0487 54.09C34.5507 54.09 34.1067 53.982 33.7167 53.766C33.3327 53.544 33.0297 53.241 32.8077 52.857C32.5857 52.473 32.4747 52.038 32.4747 51.552V47.673H33.6987V51.588C33.6987 51.87 33.7557 52.113 33.8697 52.317C33.9897 52.521 34.1517 52.68 34.3557 52.794C34.5657 52.902 34.7967 52.956 35.0487 52.956C35.3067 52.956 35.5347 52.902 35.7327 52.794C35.9307 52.68 36.0867 52.521 36.2007 52.317C36.3207 52.113 36.3807 51.873 36.3807 51.597V47.673H37.6137V51.561C37.6137 52.047 37.5027 52.482 37.2807 52.866C37.0587 53.244 36.7557 53.544 36.3717 53.766C35.9937 53.982 35.5527 54.09 35.0487 54.09ZM39.7223 51.651V50.652H41.1893C41.3813 50.652 41.5553 50.613 41.7113 50.535C41.8673 50.457 41.9903 50.346 42.0803 50.202C42.1703 50.052 42.2153 49.872 42.2153 49.662C42.2153 49.458 42.1703 49.281 42.0803 49.131C41.9903 48.981 41.8673 48.867 41.7113 48.789C41.5553 48.711 41.3813 48.672 41.1893 48.672H39.7223V47.673H41.3153C41.7173 47.673 42.0773 47.754 42.3953 47.916C42.7193 48.078 42.9743 48.309 43.1603 48.609C43.3463 48.903 43.4393 49.254 43.4393 49.662C43.4393 50.07 43.3463 50.424 43.1603 50.724C42.9743 51.018 42.7193 51.246 42.3953 51.408C42.0773 51.57 41.7173 51.651 41.3153 51.651H39.7223ZM38.8223 54V47.673H40.0463V54H38.8223ZM44.3067 54V47.673H45.5307V54H44.3067ZM45.2067 54V52.911H48.4287V54H45.2067ZM51.8468 54.099C51.3848 54.099 50.9528 54.015 50.5508 53.847C50.1548 53.679 49.8068 53.448 49.5068 53.154C49.2128 52.854 48.9818 52.506 48.8138 52.11C48.6458 51.708 48.5618 51.279 48.5618 50.823C48.5618 50.367 48.6428 49.944 48.8048 49.554C48.9728 49.158 49.2038 48.813 49.4978 48.519C49.7978 48.219 50.1458 47.988 50.5418 47.826C50.9378 47.658 51.3668 47.574 51.8288 47.574C52.2968 47.574 52.7288 47.658 53.1248 47.826C53.5208 47.988 53.8658 48.219 54.1598 48.519C54.4598 48.813 54.6938 49.158 54.8618 49.554C55.0298 49.95 55.1138 50.376 55.1138 50.832C55.1138 51.288 55.0298 51.714 54.8618 52.11C54.6938 52.506 54.4598 52.854 54.1598 53.154C53.8658 53.448 53.5208 53.679 53.1248 53.847C52.7348 54.015 52.3088 54.099 51.8468 54.099ZM51.8288 52.956C52.2368 52.956 52.5908 52.866 52.8908 52.686C53.1908 52.506 53.4248 52.257 53.5928 51.939C53.7668 51.621 53.8538 51.249 53.8538 50.823C53.8538 50.511 53.8058 50.226 53.7098 49.968C53.6138 49.71 53.4758 49.488 53.2958 49.302C53.1158 49.11 52.9028 48.963 52.6568 48.861C52.4108 48.759 52.1348 48.708 51.8288 48.708C51.4328 48.708 51.0818 48.798 50.7758 48.978C50.4758 49.152 50.2388 49.398 50.0648 49.716C49.8968 50.034 49.8128 50.403 49.8128 50.823C49.8128 51.141 49.8608 51.432 49.9568 51.696C50.0588 51.96 50.1968 52.185 50.3708 52.371C50.5508 52.557 50.7638 52.701 51.0098 52.803C51.2618 52.905 51.5348 52.956 51.8288 52.956ZM55.1854 54L57.7324 47.673H58.7314L61.2694 54H59.9644L58.0024 48.807H58.4524L56.4634 54H55.1854ZM56.5354 52.821V51.795H59.9374V52.821H56.5354ZM62.8537 54V52.911H64.4647C64.8727 52.911 65.2297 52.827 65.5357 52.659C65.8417 52.485 66.0787 52.242 66.2467 51.93C66.4207 51.618 66.5077 51.249 66.5077 50.823C66.5077 50.409 66.4207 50.049 66.2467 49.743C66.0727 49.431 65.8327 49.191 65.5267 49.023C65.2207 48.849 64.8667 48.762 64.4647 48.762H62.8267V47.673H64.4827C64.9507 47.673 65.3827 47.751 65.7787 47.907C66.1807 48.063 66.5287 48.285 66.8227 48.573C67.1227 48.855 67.3537 49.188 67.5157 49.572C67.6837 49.956 67.7677 50.376 67.7677 50.832C67.7677 51.288 67.6837 51.711 67.5157 52.101C67.3537 52.485 67.1257 52.821 66.8317 53.109C66.5377 53.391 66.1897 53.61 65.7877 53.766C65.3917 53.922 64.9627 54 64.5007 54H62.8537ZM62.0167 54V47.673H63.2407V54H62.0167ZM13.9792 64.651V63.652H15.4462C15.6382 63.652 15.8122 63.613 15.9682 63.535C16.1242 63.457 16.2472 63.346 16.3372 63.202C16.4272 63.052 16.4722 62.872 16.4722 62.662C16.4722 62.458 16.4272 62.281 16.3372 62.131C16.2472 61.981 16.1242 61.867 15.9682 61.789C15.8122 61.711 15.6382 61.672 15.4462 61.672H13.9792V60.673H15.5722C15.9742 60.673 16.3342 60.754 16.6522 60.916C16.9762 61.078 17.2312 61.309 17.4172 61.609C17.6032 61.903 17.6962 62.254 17.6962 62.662C17.6962 63.07 17.6032 63.424 17.4172 63.724C17.2312 64.018 16.9762 64.246 16.6522 64.408C16.3342 64.57 15.9742 64.651 15.5722 64.651H13.9792ZM13.0792 67V60.673H14.3032V67H13.0792ZM19.4635 64.354V63.4H20.9305C21.2305 63.4 21.4615 63.325 21.6235 63.175C21.7915 63.019 21.8755 62.806 21.8755 62.536C21.8755 62.29 21.7915 62.086 21.6235 61.924C21.4615 61.756 21.2305 61.672 20.9305 61.672H19.4635V60.673H21.0385C21.4465 60.673 21.8035 60.754 22.1095 60.916C22.4215 61.072 22.6615 61.288 22.8295 61.564C23.0035 61.84 23.0905 62.158 23.0905 62.518C23.0905 62.89 23.0035 63.214 22.8295 63.49C22.6615 63.76 22.4215 63.973 22.1095 64.129C21.7975 64.279 21.4345 64.354 21.0205 64.354H19.4635ZM18.5635 67V60.673H19.7875V67H18.5635ZM22.0195 67L19.9315 64.264L21.0565 63.913L23.5045 67H22.0195ZM27.1056 67.099C26.6436 67.099 26.2116 67.015 25.8096 66.847C25.4136 66.679 25.0656 66.448 24.7656 66.154C24.4716 65.854 24.2406 65.506 24.0726 65.11C23.9046 64.708 23.8206 64.279 23.8206 63.823C23.8206 63.367 23.9016 62.944 24.0636 62.554C24.2316 62.158 24.4626 61.813 24.7566 61.519C25.0566 61.219 25.4046 60.988 25.8006 60.826C26.1966 60.658 26.6256 60.574 27.0876 60.574C27.5556 60.574 27.9876 60.658 28.3836 60.826C28.7796 60.988 29.1246 61.219 29.4186 61.519C29.7186 61.813 29.9526 62.158 30.1206 62.554C30.2886 62.95 30.3726 63.376 30.3726 63.832C30.3726 64.288 30.2886 64.714 30.1206 65.11C29.9526 65.506 29.7186 65.854 29.4186 66.154C29.1246 66.448 28.7796 66.679 28.3836 66.847C27.9936 67.015 27.5676 67.099 27.1056 67.099ZM27.0876 65.956C27.4956 65.956 27.8496 65.866 28.1496 65.686C28.4496 65.506 28.6836 65.257 28.8516 64.939C29.0256 64.621 29.1126 64.249 29.1126 63.823C29.1126 63.511 29.0646 63.226 28.9686 62.968C28.8726 62.71 28.7346 62.488 28.5546 62.302C28.3746 62.11 28.1616 61.963 27.9156 61.861C27.6696 61.759 27.3936 61.708 27.0876 61.708C26.6916 61.708 26.3406 61.798 26.0346 61.978C25.7346 62.152 25.4976 62.398 25.3236 62.716C25.1556 63.034 25.0716 63.403 25.0716 63.823C25.0716 64.141 25.1196 64.432 25.2156 64.696C25.3176 64.96 25.4556 65.185 25.6296 65.371C25.8096 65.557 26.0226 65.701 26.2686 65.803C26.5206 65.905 26.7936 65.956 27.0876 65.956ZM31.3428 67V60.673H32.5668V67H31.3428ZM32.2428 64.408V63.319H35.4288V64.408H32.2428ZM32.2428 61.753V60.673H35.5818V61.753H32.2428ZM36.5459 67V60.673H37.7699V67H36.5459ZM39.0684 67V60.673H40.2924V67H39.0684ZM39.9684 67V65.911H43.1904V67H39.9684ZM44.0694 67V60.673H45.2934V67H44.0694ZM44.9694 67V65.92H48.4704V67H44.9694ZM44.9694 64.291V63.247H48.1554V64.291H44.9694ZM44.9694 61.753V60.673H48.4254V61.753H44.9694ZM52.1413 64.651V63.652H53.6083C53.8003 63.652 53.9743 63.613 54.1303 63.535C54.2863 63.457 54.4093 63.346 54.4993 63.202C54.5893 63.052 54.6343 62.872 54.6343 62.662C54.6343 62.458 54.5893 62.281 54.4993 62.131C54.4093 61.981 54.2863 61.867 54.1303 61.789C53.9743 61.711 53.8003 61.672 53.6083 61.672H52.1413V60.673H53.7343C54.1363 60.673 54.4963 60.754 54.8143 60.916C55.1383 61.078 55.3933 61.309 55.5793 61.609C55.7653 61.903 55.8583 62.254 55.8583 62.662C55.8583 63.07 55.7653 63.424 55.5793 63.724C55.3933 64.018 55.1383 64.246 54.8143 64.408C54.4963 64.57 54.1363 64.651 53.7343 64.651H52.1413ZM51.2413 67V60.673H52.4653V67H51.2413ZM56.7256 67V60.673H57.9496V67H56.7256ZM62.1821 67.09C61.7201 67.09 61.2911 67.009 60.8951 66.847C60.4991 66.679 60.1511 66.448 59.8511 66.154C59.5571 65.854 59.3291 65.506 59.1671 65.11C59.0111 64.714 58.9331 64.288 58.9331 63.832C58.9331 63.376 59.0111 62.95 59.1671 62.554C59.3291 62.158 59.5571 61.813 59.8511 61.519C60.1511 61.225 60.4961 60.994 60.8861 60.826C61.2821 60.658 61.7141 60.574 62.1821 60.574C62.6861 60.574 63.1301 60.658 63.5141 60.826C63.8981 60.988 64.2371 61.213 64.5311 61.501L63.7031 62.329C63.5291 62.137 63.3161 61.987 63.0641 61.879C62.8121 61.771 62.5181 61.717 62.1821 61.717C61.8881 61.717 61.6181 61.768 61.3721 61.87C61.1321 61.966 60.9221 62.11 60.7421 62.302C60.5621 62.488 60.4241 62.713 60.3281 62.977C60.2321 63.235 60.1841 63.52 60.1841 63.832C60.1841 64.15 60.2321 64.438 60.3281 64.696C60.4241 64.954 60.5621 65.179 60.7421 65.371C60.9221 65.557 61.1321 65.701 61.3721 65.803C61.6181 65.905 61.8881 65.956 62.1821 65.956C62.5361 65.956 62.8391 65.902 63.0911 65.794C63.3491 65.686 63.5651 65.533 63.7391 65.335L64.5671 66.163C64.2731 66.457 63.9311 66.685 63.5411 66.847C63.1511 67.009 62.6981 67.09 62.1821 67.09ZM66.8698 67V60.808H68.1028V67H66.8698ZM64.8538 61.762V60.673H70.1188V61.762H64.8538ZM73.3954 67.09C72.8974 67.09 72.4534 66.982 72.0634 66.766C71.6794 66.544 71.3764 66.241 71.1544 65.857C70.9324 65.473 70.8214 65.038 70.8214 64.552V60.673H72.0454V64.588C72.0454 64.87 72.1024 65.113 72.2164 65.317C72.3364 65.521 72.4984 65.68 72.7024 65.794C72.9124 65.902 73.1434 65.956 73.3954 65.956C73.6534 65.956 73.8814 65.902 74.0794 65.794C74.2774 65.68 74.4334 65.521 74.5474 65.317C74.6674 65.113 74.7274 64.873 74.7274 64.597V60.673H75.9604V64.561C75.9604 65.047 75.8494 65.482 75.6274 65.866C75.4054 66.244 75.1024 66.544 74.7184 66.766C74.3404 66.982 73.8994 67.09 73.3954 67.09ZM78.069 64.354V63.4H79.536C79.836 63.4 80.067 63.325 80.229 63.175C80.397 63.019 80.481 62.806 80.481 62.536C80.481 62.29 80.397 62.086 80.229 61.924C80.067 61.756 79.836 61.672 79.536 61.672H78.069V60.673H79.644C80.052 60.673 80.409 60.754 80.715 60.916C81.027 61.072 81.267 61.288 81.435 61.564C81.609 61.84 81.696 62.158 81.696 62.518C81.696 62.89 81.609 63.214 81.435 63.49C81.267 63.76 81.027 63.973 80.715 64.129C80.403 64.279 80.04 64.354 79.626 64.354H78.069ZM77.169 67V60.673H78.393V67H77.169ZM80.625 67L78.537 64.264L79.662 63.913L82.11 67H80.625ZM82.8028 67V60.673H84.0268V67H82.8028ZM83.7028 67V65.92H87.2038V67H83.7028ZM83.7028 64.291V63.247H86.8888V64.291H83.7028ZM83.7028 61.753V60.673H87.1588V61.753H83.7028Z" fill="#FAFAFA"/>
</svg>
