<svg width="24" height="24" viewBox="0 0 24 24" fill="none" xmlns="http://www.w3.org/2000/svg">
<path d="M8.57175 12.0002C9.41952 12.0002 10.2483 11.7488 10.9531 11.2778C11.658 10.8068 12.2074 10.1373 12.5318 9.35409C12.8562 8.57084 12.941 7.70898 12.7756 6.8775C12.6101 6.04603 12.2018 5.2823 11.6023 4.68288C11.0028 4.08347 10.239 3.67531 9.4075 3.51C8.576 3.3447 7.71415 3.42969 6.93095 3.75422C6.14776 4.07875 5.47839 4.62825 5.0075 5.33322C4.53661 6.03819 4.28535 6.86696 4.2855 7.71474C4.28669 8.85109 4.73868 9.94054 5.54227 10.744C6.34587 11.5474 7.4354 11.9992 8.57175 12.0002ZM8.57175 4.92849C9.12282 4.92849 9.66151 5.0919 10.1197 5.39805C10.5779 5.70421 10.935 6.13936 11.1459 6.64848C11.3568 7.15761 11.412 7.71783 11.3045 8.25831C11.197 8.79879 10.9316 9.29525 10.5419 9.68491C10.1523 10.0746 9.6558 10.3399 9.11532 10.4474C8.57484 10.555 8.01462 10.4998 7.5055 10.2889C6.99638 10.078 6.56122 9.72089 6.25507 9.26269C5.94891 8.8045 5.7855 8.2658 5.7855 7.71474C5.7861 6.97596 6.07984 6.26761 6.60223 5.74522C7.12463 5.22282 7.83297 4.92908 8.57175 4.92849ZM17.625 12.3752C18.2554 12.3752 18.8717 12.1883 19.3959 11.838C19.9201 11.4878 20.3286 10.99 20.5699 10.4075C20.8111 9.8251 20.8742 9.1842 20.7513 8.56589C20.6283 7.94757 20.3247 7.37961 19.8789 6.93383C19.4331 6.48805 18.8652 6.18447 18.2469 6.06148C17.6285 5.93849 16.9876 6.00162 16.4052 6.24287C15.8228 6.48412 15.3249 6.89267 14.9747 7.41686C14.6244 7.94104 14.4375 8.55731 14.4375 9.18774C14.4385 10.0328 14.7746 10.843 15.3722 11.4405C15.9698 12.0381 16.7799 12.3742 17.625 12.3752ZM17.625 7.50024C17.9588 7.50024 18.285 7.59921 18.5625 7.78463C18.84 7.97006 19.0563 8.23361 19.184 8.54196C19.3118 8.85031 19.3452 9.18961 19.2801 9.51695C19.215 9.84429 19.0542 10.145 18.8182 10.381C18.5822 10.617 18.2816 10.7777 17.9542 10.8428C17.6269 10.9079 17.2876 10.8745 16.9792 10.7468C16.6709 10.6191 16.4073 10.4028 16.2219 10.1253C16.0365 9.84775 15.9375 9.52149 15.9375 9.18774C15.9379 8.74031 16.1158 8.31131 16.4322 7.99493C16.7486 7.67855 17.1776 7.50063 17.625 7.50024ZM17.625 13.2527C16.8682 13.255 16.1197 13.4096 15.4239 13.7072C14.7281 14.0049 14.0993 14.4395 13.575 14.9852C12.4322 14.0354 11.0424 13.4306 9.56845 13.2417C8.09446 13.0529 6.59716 13.2877 5.25174 13.9187C3.90633 14.5497 2.76843 15.5508 1.97121 16.8049C1.17398 18.059 0.750391 19.5142 0.75 21.0002C0.75 21.1991 0.829018 21.3899 0.96967 21.5306C1.11032 21.6712 1.30109 21.7502 1.5 21.7502H15.645C15.8439 21.7502 16.0347 21.6712 16.1753 21.5306C16.316 21.3899 16.395 21.1991 16.395 21.0002C16.3937 20.5399 16.3518 20.0807 16.2698 19.6277H22.5C22.6989 19.6277 22.8897 19.5487 23.0303 19.4081C23.171 19.2674 23.25 19.0766 23.25 18.8777C23.2484 17.3864 22.6553 15.9566 21.6007 14.902C20.5462 13.8475 19.1164 13.2543 17.625 13.2527ZM2.29425 20.2502C2.46306 18.8124 3.1205 17.4762 4.15659 16.4652C5.19268 15.4541 6.54457 14.8295 7.98605 14.6959C9.42754 14.5623 10.8712 14.9278 12.0755 15.7312C13.2797 16.5346 14.1716 17.7272 14.6017 19.1095C14.7216 19.4807 14.8047 19.8628 14.85 20.2502H2.29425ZM15.8333 18.1277C15.5398 17.379 15.1322 16.6803 14.625 16.0562C15.1463 15.4998 15.8118 15.0989 16.5475 14.8983C17.2831 14.6977 18.06 14.7052 18.7916 14.9199C19.5232 15.1346 20.1809 15.5482 20.6915 16.1145C21.202 16.6809 21.5453 17.3778 21.6833 18.1277H15.8333Z" fill="white"/>
</svg>
