<svg width="24" height="24" viewBox="0 0 24 24" fill="none" xmlns="http://www.w3.org/2000/svg">
<path d="M22.2667 15.9402C21.7661 15.6978 21.2234 15.5544 20.6683 15.5178C20.9104 14.9192 21.0422 14.2818 21.0571 13.6362C21.1699 10.2402 18.4795 7.77543 17.3347 6.71943L17.2147 6.61143C17.0491 6.45783 16.8979 6.30663 16.7563 6.15543C16.9025 6.03237 17.02 5.87878 17.1004 5.70547C17.1808 5.53215 17.2223 5.34331 17.2219 5.15223V5.12823C17.221 4.8644 17.141 4.60691 16.992 4.38911C16.8431 4.17131 16.6323 4.00323 16.3867 3.90663C16.6617 3.1397 16.854 2.3456 16.9603 1.53783C16.977 1.40006 16.9545 1.26038 16.8955 1.13478C16.8365 1.00917 16.7433 0.902721 16.6266 0.8276C16.5099 0.752479 16.3745 0.711723 16.2357 0.709996C16.0969 0.708269 15.9605 0.74564 15.8419 0.817834C15.4743 1.02148 15.0812 1.17561 14.6731 1.27623C14.2797 1.37859 13.8666 1.37859 13.4731 1.27623C13.0624 1.17559 12.6669 1.02063 12.2971 0.815434C12.1779 0.743418 12.0407 0.70656 11.9015 0.709108C11.7622 0.711656 11.6265 0.753506 11.5099 0.829834C11.3941 0.903699 11.3019 1.00915 11.244 1.13375C11.1862 1.25835 11.1652 1.3969 11.1835 1.53303C11.2915 2.34386 11.4845 3.14107 11.7595 3.91143C11.5134 4.00737 11.3018 4.17522 11.1524 4.39311C11.003 4.61101 10.9227 4.86884 10.9219 5.13303V5.15703C10.9219 5.37032 10.9739 5.58039 11.0734 5.76902C11.173 5.95764 11.317 6.11912 11.4931 6.23943C11.3851 6.35463 11.2531 6.47943 11.1139 6.61143L10.9987 6.71943C9.83955 7.77543 7.16355 10.2378 7.27395 13.6338C7.27395 13.8114 7.29555 13.9818 7.31475 14.1522H5.44515V13.3818C5.44515 13.2545 5.39458 13.1324 5.30456 13.0424C5.21454 12.9524 5.09245 12.9018 4.96515 12.9018H1.55715C1.42984 12.9018 1.30775 12.9524 1.21774 13.0424C1.12772 13.1324 1.07715 13.2545 1.07715 13.3818V21.5658C1.07715 21.6931 1.12772 21.8152 1.21774 21.9052C1.30775 21.9953 1.42984 22.0458 1.55715 22.0458H4.96515C5.09245 22.0458 5.21454 21.9953 5.30456 21.9052C5.39458 21.8152 5.44515 21.6931 5.44515 21.5658V20.9418L10.6723 23.0514C11.0762 23.2034 11.5033 23.2845 11.9347 23.2914C12.8947 23.2914 13.7347 22.8762 14.7163 22.3866L14.8267 22.3314H14.8507L22.2907 18.057C22.4845 17.9555 22.6462 17.802 22.7576 17.6138C22.8691 17.4256 22.926 17.2101 22.9219 16.9914C22.9236 16.7721 22.8629 16.5569 22.7469 16.3708C22.6309 16.1846 22.4644 16.0353 22.2667 15.9402ZM12.3883 5.51943H12.2395C12.1458 5.51944 12.0558 5.48234 11.9892 5.41625C11.9227 5.35015 11.885 5.26042 11.8843 5.16663V5.14263C11.8834 5.09539 11.8919 5.04842 11.9093 5.00449C11.9267 4.96056 11.9527 4.92055 11.9858 4.8868C12.0189 4.85305 12.0584 4.82624 12.1019 4.80794C12.1455 4.78965 12.1923 4.78022 12.2395 4.78023H15.9091C16.0027 4.78023 16.0925 4.8174 16.1586 4.88357C16.2248 4.94973 16.2619 5.03947 16.2619 5.13303V5.15703C16.2632 5.20417 16.2551 5.25108 16.2379 5.295C16.2207 5.33891 16.195 5.37895 16.1621 5.41273C16.1292 5.44652 16.0899 5.47336 16.0464 5.49169C16.003 5.51002 15.9563 5.51945 15.9091 5.51943H12.3883ZM13.2187 2.21223C13.777 2.36107 14.3645 2.36107 14.9227 2.21223C15.2725 2.12041 15.6144 2.00083 15.9451 1.85463C15.8187 2.5239 15.6365 3.1814 15.4003 3.82023H12.7363C12.5019 3.18104 12.3205 2.52362 12.1939 1.85463C12.5257 2.00044 12.8683 2.12001 13.2187 2.21223ZM11.6467 7.43943L11.7643 7.33143C12.0548 7.06719 12.3259 6.78246 12.5755 6.47943H15.7555C16.0041 6.77813 16.2728 7.05958 16.5595 7.32183L16.6819 7.43223C17.7307 8.39223 20.1907 10.6482 20.0923 13.6026C20.0855 14.2976 19.9031 14.9795 19.5619 15.585C19.1939 15.6623 18.8367 15.7849 18.4987 15.9498L15.9115 17.1954C15.8421 16.8181 15.6438 16.4767 15.3505 16.2293C15.0572 15.982 14.6872 15.8442 14.3035 15.8394H11.5195C10.6566 14.9508 9.52112 14.3763 8.29395 14.2074C8.26137 14.0073 8.24134 13.8053 8.23395 13.6026C8.13795 10.6482 10.5955 8.39943 11.6467 7.43943ZM2.04675 21.0954V13.8618H4.49475V21.0858L2.04675 21.0954ZM21.8395 17.1906L14.3995 21.4674L14.3035 21.5154C12.9907 22.1706 12.1963 22.5666 11.0275 22.1538L5.44515 19.9194V15.1194H7.51875C8.16491 15.1197 8.8037 15.2567 9.39314 15.5214C9.98259 15.7861 10.5093 16.1726 10.9387 16.6554C10.9837 16.7059 11.0388 16.7463 11.1004 16.774C11.162 16.8017 11.2288 16.8161 11.2963 16.8162H14.3035C14.4634 16.8186 14.6174 16.8772 14.7385 16.9816C14.8595 17.086 14.9401 17.2297 14.9659 17.3874C14.9703 17.5201 14.9316 17.6506 14.8555 17.7594C14.8555 17.7594 14.8555 17.7594 14.8411 17.7786C14.7836 17.8513 14.7108 17.9105 14.6278 17.952C14.5449 17.9934 14.4538 18.0162 14.3611 18.0186H8.99235C8.86504 18.0186 8.74295 18.0692 8.65294 18.1592C8.56292 18.2492 8.51235 18.3713 8.51235 18.4986C8.51235 18.6259 8.56292 18.748 8.65294 18.838C8.74295 18.9281 8.86504 18.9786 8.99235 18.9786H14.3563C14.5623 18.9793 14.7663 18.9392 14.9567 18.8605C15.147 18.7818 15.3198 18.6662 15.4651 18.5202C15.4963 18.489 15.5275 18.4554 15.5563 18.4218L18.9163 16.8042C19.2184 16.6509 19.5421 16.5449 19.8763 16.4898C20.547 16.3927 21.2313 16.5006 21.8395 16.7994C21.8736 16.8148 21.9024 16.8399 21.9224 16.8714C21.9425 16.903 21.9529 16.9397 21.9523 16.977C21.9557 17.0197 21.9469 17.0624 21.9269 17.1002C21.907 17.138 21.8767 17.1694 21.8395 17.1906Z" fill="white"/>
<path d="M14.8796 13.2841H13.7756C13.7398 13.2844 13.7043 13.2776 13.6711 13.2642C13.6379 13.2507 13.6077 13.2307 13.5823 13.2055C13.5568 13.1803 13.5366 13.1503 13.5229 13.1172C13.5091 13.0842 13.502 13.0487 13.502 13.0129C13.502 12.8856 13.4514 12.7635 13.3614 12.6735C13.2714 12.5835 13.1493 12.5329 13.022 12.5329C12.8947 12.5329 12.7726 12.5835 12.6826 12.6735C12.5926 12.7635 12.542 12.8856 12.542 13.0129C12.5426 13.3397 12.6729 13.6528 12.9042 13.8836C13.1354 14.1145 13.4488 14.2441 13.7756 14.2441H13.8476V14.6041C13.8476 14.7314 13.8982 14.8535 13.9882 14.9435C14.0782 15.0335 14.2003 15.0841 14.3276 15.0841C14.4549 15.0841 14.577 15.0335 14.667 14.9435C14.757 14.8535 14.8076 14.7314 14.8076 14.6041V14.2441H14.8796C15.0413 14.2441 15.2014 14.2123 15.3508 14.1504C15.5001 14.0885 15.6359 13.9978 15.7502 13.8835C15.8645 13.7692 15.9552 13.6334 16.0171 13.4841C16.0789 13.3347 16.1108 13.1746 16.1108 13.0129V12.2161C16.1102 11.8898 15.9802 11.577 15.7495 11.3462C15.5187 11.1155 15.2059 10.9855 14.8796 10.9849H13.7756C13.7398 10.9852 13.7043 10.9784 13.6711 10.965C13.6379 10.9515 13.6077 10.9315 13.5823 10.9063C13.5568 10.8811 13.5366 10.8511 13.5229 10.818C13.5091 10.785 13.502 10.7495 13.502 10.7137V9.9169C13.5026 9.84476 13.5317 9.77578 13.583 9.72499C13.6342 9.6742 13.7034 9.6457 13.7756 9.6457H14.8796C14.9513 9.64633 15.0199 9.6751 15.0707 9.72583C15.1214 9.77655 15.1502 9.84517 15.1508 9.9169C15.1508 10.0442 15.2014 10.1663 15.2914 10.2563C15.3814 10.3463 15.5035 10.3969 15.6308 10.3969C15.7581 10.3969 15.8802 10.3463 15.9702 10.2563C16.0602 10.1663 16.1108 10.0442 16.1108 9.9169C16.1108 9.75522 16.0789 9.59512 16.0171 9.44574C15.9552 9.29637 15.8645 9.16064 15.7502 9.04631C15.6359 8.93199 15.5001 8.8413 15.3508 8.77942C15.2014 8.71755 15.0413 8.6857 14.8796 8.6857H14.8076V8.3257C14.8076 8.1984 14.757 8.07631 14.667 7.98629C14.577 7.89627 14.4549 7.8457 14.3276 7.8457C14.2003 7.8457 14.0782 7.89627 13.9882 7.98629C13.8982 8.07631 13.8476 8.1984 13.8476 8.3257V8.6857H13.7756C13.4488 8.6857 13.1354 8.81534 12.9042 9.04617C12.6729 9.27699 12.5426 9.59015 12.542 9.9169V10.7137C12.5426 11.0405 12.6729 11.3536 12.9042 11.5844C13.1354 11.8153 13.4488 11.9449 13.7756 11.9449H14.8796C14.9513 11.9455 15.0199 11.9743 15.0707 12.025C15.1214 12.0758 15.1502 12.1444 15.1508 12.2161V13.0129C15.1508 13.0848 15.1222 13.1538 15.0714 13.2047C15.0205 13.2555 14.9515 13.2841 14.8796 13.2841Z" fill="white"/>
</svg>
