<svg width="26" height="26" viewBox="0 0 26 26" fill="none" xmlns="http://www.w3.org/2000/svg">
<circle cx="13" cy="13" r="13" fill="white"/>
<path d="M14.6512 11.7332C15.0888 11.2957 15.3346 10.7022 15.3346 10.0833C15.3346 9.46449 15.0888 8.871 14.6512 8.43342C14.2136 7.99583 13.6201 7.75 13.0013 7.75C12.3825 7.75 11.789 7.99583 11.3514 8.43342C10.9138 8.871 10.668 9.46449 10.668 10.0833C10.668 10.7022 10.9138 11.2957 11.3514 11.7332C11.789 12.1708 12.3825 12.4167 13.0013 12.4167C13.6201 12.4167 14.2136 12.1708 14.6512 11.7332Z" stroke="#8BAFFF" stroke-linecap="round" stroke-linejoin="round"/>
<path d="M10.1139 15.3626C10.8797 14.5969 11.9183 14.1667 13.0013 14.1667C14.0843 14.1667 15.1229 14.5969 15.8887 15.3626C16.6544 16.1284 17.0846 17.167 17.0846 18.25H8.91797C8.91797 17.167 9.34818 16.1284 10.1139 15.3626Z" stroke="#8BAFFF" stroke-linecap="round" stroke-linejoin="round"/>
</svg>
