<svg width="24" height="24" viewBox="0 0 24 24" fill="none" xmlns="http://www.w3.org/2000/svg">
<circle cx="12" cy="12" r="12" fill="#F7F7FB"/>
<rect width="10.1053" height="10.1053" transform="translate(6.94727 7)" fill="#F7F7FB"/>
<path d="M13.3155 15.8845L9.76814 12.3477C9.72603 12.3056 9.69614 12.26 9.67846 12.2108C9.66077 12.1617 9.65207 12.1091 9.65235 12.053C9.65235 11.9968 9.66105 11.9442 9.67846 11.8951C9.69586 11.8459 9.72575 11.8003 9.76814 11.7582L13.3155 8.21084C13.4138 8.1126 13.5366 8.06348 13.6839 8.06348C13.8313 8.06348 13.9576 8.11611 14.0629 8.22137C14.1681 8.32663 14.2208 8.44944 14.2208 8.58979C14.2208 8.73014 14.1681 8.85295 14.0629 8.95821L10.9681 12.053L14.0629 15.1477C14.1611 15.2459 14.2102 15.3671 14.2102 15.5111C14.2102 15.6551 14.1576 15.7795 14.0524 15.8845C13.9471 15.9898 13.8243 16.0424 13.6839 16.0424C13.5436 16.0424 13.4208 15.9898 13.3155 15.8845Z" fill="#444444"/>
</svg>
