<svg width="21" height="20" viewBox="0 0 21 20" fill="none" xmlns="http://www.w3.org/2000/svg">
<path d="M10.45 16C10.8 16 11.096 15.879 11.338 15.637C11.58 15.395 11.7007 15.0993 11.7 14.75C11.7 14.4 11.5793 14.104 11.338 13.862C11.0967 13.62 10.8007 13.4993 10.45 13.5C10.1 13.5 9.80433 13.621 9.563 13.863C9.32167 14.105 9.20067 14.4007 9.2 14.75C9.2 15.1 9.321 15.396 9.563 15.638C9.805 15.88 10.1007 16.0007 10.45 16ZM9.55 12.15H11.4C11.4 11.6 11.4627 11.1667 11.588 10.85C11.7133 10.5333 12.0673 10.1 12.65 9.55C13.0833 9.11667 13.425 8.704 13.675 8.312C13.925 7.92 14.05 7.44933 14.05 6.9C14.05 5.96667 13.7083 5.25 13.025 4.75C12.3417 4.25 11.5333 4 10.6 4C9.65 4 8.879 4.25 8.287 4.75C7.695 5.25 7.28267 5.85 7.05 6.55L8.7 7.2C8.78333 6.9 8.971 6.575 9.263 6.225C9.555 5.875 10.0007 5.7 10.6 5.7C11.1333 5.7 11.5333 5.846 11.8 6.138C12.0667 6.43 12.2 6.75067 12.2 7.1C12.2 7.43333 12.1 7.746 11.9 8.038C11.7 8.33 11.45 8.60067 11.15 8.85C10.4167 9.5 9.96667 9.99167 9.8 10.325C9.63333 10.6583 9.55 11.2667 9.55 12.15ZM10.5 20C9.11667 20 7.81667 19.7373 6.6 19.212C5.38333 18.6867 4.325 17.9743 3.425 17.075C2.525 16.175 1.81267 15.1167 1.288 13.9C0.763333 12.6833 0.500667 11.3833 0.5 10C0.5 8.61667 0.762667 7.31667 1.288 6.1C1.81333 4.88333 2.52567 3.825 3.425 2.925C4.325 2.025 5.38333 1.31267 6.6 0.788C7.81667 0.263333 9.11667 0.000666667 10.5 0C11.8833 0 13.1833 0.262667 14.4 0.788C15.6167 1.31333 16.675 2.02567 17.575 2.925C18.475 3.825 19.1877 4.88333 19.713 6.1C20.2383 7.31667 20.5007 8.61667 20.5 10C20.5 11.3833 20.2373 12.6833 19.712 13.9C19.1867 15.1167 18.4743 16.175 17.575 17.075C16.675 17.975 15.6167 18.6877 14.4 19.213C13.1833 19.7383 11.8833 20.0007 10.5 20Z" fill="white"/>
</svg>
