<svg width="40" height="40" viewBox="0 0 40 40" fill="none" xmlns="http://www.w3.org/2000/svg">
<g clip-path="url(#clip0_3210_46611)">
<path d="M22.3745 24.8755C22.0753 24.2308 21.9848 23.5268 21.6439 22.8878C20.7391 21.1884 19.3632 19.9528 17.4456 19.266C13.6104 17.8914 9.27639 19.3978 7.50581 22.7353C6.95219 23.7789 6.64965 24.8797 6.64682 26.0385C6.63777 30.4688 6.63589 34.8992 6.64116 39.3298C6.64116 39.9871 6.64116 39.9938 5.92128 39.9954C4.1705 40.0002 2.41972 40.0002 0.668931 39.9954C0.00616622 39.9954 0.00673223 39.9902 0.00673223 39.4004L0.00673223 5.89587C0.00673223 4.10575 0.0248268 2.31666 -0.00175163 0.524463C-0.00853762 0.0923646 0.155458 -0.00671204 0.584672 -0.00256223C2.41576 0.0135183 4.24741 0.0187055 6.07849 -0.00256223C6.54616 -0.00411841 6.65078 0.150462 6.65078 0.550918C6.6357 4.96251 6.6308 9.37427 6.63607 13.7862C6.63607 13.8785 6.63155 13.9714 6.63607 14.0632C6.65926 14.5736 6.75257 14.6338 7.23437 14.3885C9.49637 13.2436 11.9178 12.63 14.4959 12.602C16.2592 12.5833 17.9794 12.8883 19.6335 13.4511C21.9605 14.2427 23.9109 15.5416 25.5594 17.2331C25.6082 17.2918 25.6519 17.3539 25.69 17.4188C25.6074 17.5433 25.5334 17.6735 25.4406 17.7918C24.2604 19.2961 23.3059 20.9042 22.8427 22.7254C22.6612 23.4366 22.5289 24.1587 22.3745 24.8755Z" fill="white"/>
<path d="M22.375 24.8761C22.5294 24.1592 22.6617 23.4372 22.8427 22.726C23.3058 20.9053 24.2604 19.2977 25.4406 17.7924C25.5333 17.6741 25.6102 17.5439 25.69 17.4194C26.4856 16.7451 27.2168 16.0059 28.0848 15.4032C30.3208 13.8522 32.8192 12.9413 35.6201 12.7058C36.9349 12.5958 38.2282 12.6783 39.5221 12.8531C39.8116 12.8925 40.0005 12.9485 39.9976 13.2821C39.9818 15.2195 39.9869 17.157 39.9824 19.0944C39.9824 19.126 39.9501 19.1582 39.9117 19.2293C39.2534 19.0545 38.5907 18.8688 37.8945 18.7873C33.2433 18.2432 29.0688 21.5604 29.0485 25.8716C29.0275 30.3736 29.0428 34.8761 29.0411 39.3787C29.0411 39.9965 29.0383 39.9959 28.3461 39.9959H22.8568C22.7177 39.9959 22.5741 40.0271 22.375 39.9223V24.8761Z" fill="white"/>
<path d="M29.0362 9.63746C29.0362 11.2787 27.5659 12.6554 25.7981 12.6627C23.9099 12.6704 22.4051 11.3493 22.3927 9.66962C22.3785 8.00347 23.9037 6.60602 25.7331 6.60914C27.5404 6.61121 29.0356 7.9822 29.0362 9.63746Z" fill="white"/>
</g>
<defs>
<clipPath id="clip0_3210_46611">
<rect width="40" height="40" fill="white"/>
</clipPath>
</defs>
</svg>
