<svg width="24" height="24" viewBox="0 0 24 24" fill="none" xmlns="http://www.w3.org/2000/svg">
<path d="M12 22C13.3135 22.0017 14.6143 21.7438 15.8278 21.2412C17.0413 20.7385 18.1435 20.001 19.071 19.071C20.001 18.1435 20.7385 17.0413 21.2412 15.8278C21.7438 14.6143 22.0017 13.3135 22 12C22.0017 10.6865 21.7438 9.3857 21.2411 8.17222C20.7385 6.95875 20.001 5.85656 19.071 4.92901C18.1435 3.99902 17.0413 3.26151 15.8278 2.75885C14.6143 2.25619 13.3135 1.99831 12 2.00001C10.6865 1.99833 9.3857 2.25623 8.17222 2.75889C6.95875 3.26154 5.85656 3.99904 4.92901 4.92901C3.99904 5.85656 3.26154 6.95875 2.75889 8.17222C2.25623 9.3857 1.99833 10.6865 2.00001 12C1.99831 13.3135 2.25619 14.6143 2.75885 15.8278C3.26151 17.0413 3.99902 18.1435 4.92901 19.071C5.85656 20.001 6.95875 20.7385 8.17222 21.2411C9.3857 21.7438 10.6865 22.0017 12 22Z" stroke="white" stroke-width="2" stroke-linejoin="round"/>
<path d="M12 14.3125V12.3125C12.5933 12.3125 13.1734 12.1366 13.6667 11.8069C14.1601 11.4773 14.5446 11.0087 14.7716 10.4606C14.9987 9.91237 15.0581 9.30917 14.9424 8.72723C14.8266 8.14529 14.5409 7.61074 14.1213 7.19118C13.7018 6.77162 13.1672 6.4859 12.5853 6.37015C12.0033 6.25439 11.4001 6.3138 10.8519 6.54086C10.3038 6.76793 9.83524 7.15244 9.50559 7.64579C9.17595 8.13914 9 8.71916 9 9.3125" stroke="white" stroke-width="2" stroke-linecap="round" stroke-linejoin="round"/>
<path fill-rule="evenodd" clip-rule="evenodd" d="M12 18.8125C12.3315 18.8125 12.6495 18.6808 12.8839 18.4464C13.1183 18.212 13.25 17.894 13.25 17.5625C13.25 17.231 13.1183 16.913 12.8839 16.6786C12.6495 16.4442 12.3315 16.3125 12 16.3125C11.6685 16.3125 11.3505 16.4442 11.1161 16.6786C10.8817 16.913 10.75 17.231 10.75 17.5625C10.75 17.894 10.8817 18.212 11.1161 18.4464C11.3505 18.6808 11.6685 18.8125 12 18.8125Z" fill="white"/>
</svg>
