<svg width="12" height="11" viewBox="0 0 12 11" fill="none" xmlns="http://www.w3.org/2000/svg">
<rect width="12" height="11" fill="#C7C7C7"/>
<path d="M-2328 -3029C-2328 -3030.1 -2327.1 -3031 -2326 -3031H9639C9640.1 -3031 9641 -3030.1 9641 -3029V8203C9641 8204.1 9640.1 8205 9639 8205H-2326C-2327.1 8205 -2328 8204.1 -2328 8203V-3029Z" fill="#E5E5E5"/>
<g clip-path="url(#clip0_732_2312)">
<rect width="1440" height="1825" transform="translate(-292 -128)" fill="#F9F9F9"/>
<g filter="url(#filter0_d_732_2312)">
<rect x="-39" y="-28" width="1157" height="1705" rx="12" fill="white"/>
</g>
<circle cx="6" cy="5" r="12" fill="#F7F7FB"/>
<rect width="10.1053" height="10.1053" transform="translate(0.947266)" fill="#F7F7FB"/>
<path d="M7.31551 8.88453L3.76814 5.34769C3.72603 5.30558 3.69614 5.25997 3.67846 5.21084C3.66077 5.16172 3.65207 5.10909 3.65235 5.05295C3.65235 4.99681 3.66105 4.94418 3.67846 4.89506C3.69586 4.84593 3.72575 4.80032 3.76814 4.75821L7.31551 1.21084C7.41375 1.1126 7.53656 1.06348 7.68393 1.06348C7.8313 1.06348 7.95761 1.11611 8.06288 1.22137C8.16814 1.32663 8.22077 1.44944 8.22077 1.58979C8.22077 1.73014 8.16814 1.85295 8.06288 1.95821L4.96814 5.05295L8.06288 8.14769C8.16112 8.24593 8.21025 8.36706 8.21025 8.51106C8.21025 8.65506 8.15761 8.77955 8.05235 8.88453C7.94709 8.98979 7.82428 9.04242 7.68393 9.04242C7.54358 9.04242 7.42077 8.98979 7.31551 8.88453Z" fill="#444444"/>
</g>
<path d="M-2326 -3030H9639V-3032H-2326V-3030ZM9640 -3029V8203H9642V-3029H9640ZM9639 8204H-2326V8206H9639V8204ZM-2327 8203V-3029H-2329V8203H-2327ZM-2326 8204C-2326.55 8204 -2327 8203.55 -2327 8203H-2329C-2329 8204.66 -2327.66 8206 -2326 8206V8204ZM9640 8203C9640 8203.55 9639.55 8204 9639 8204V8206C9640.66 8206 9642 8204.66 9642 8203H9640ZM9639 -3030C9639.55 -3030 9640 -3029.55 9640 -3029H9642C9642 -3030.66 9640.66 -3032 9639 -3032V-3030ZM-2326 -3032C-2327.66 -3032 -2329 -3030.66 -2329 -3029H-2327C-2327 -3029.55 -2326.55 -3030 -2326 -3030V-3032Z" fill="black" fill-opacity="0.1"/>
<defs>
<filter id="filter0_d_732_2312" x="-50" y="-35" width="1179" height="1727" filterUnits="userSpaceOnUse" color-interpolation-filters="sRGB">
<feFlood flood-opacity="0" result="BackgroundImageFix"/>
<feColorMatrix in="SourceAlpha" type="matrix" values="0 0 0 0 0 0 0 0 0 0 0 0 0 0 0 0 0 0 127 0" result="hardAlpha"/>
<feMorphology radius="7" operator="erode" in="SourceAlpha" result="effect1_dropShadow_732_2312"/>
<feOffset dy="4"/>
<feGaussianBlur stdDeviation="9"/>
<feComposite in2="hardAlpha" operator="out"/>
<feColorMatrix type="matrix" values="0 0 0 0 0 0 0 0 0 0 0 0 0 0 0 0 0 0 0.1 0"/>
<feBlend mode="normal" in2="BackgroundImageFix" result="effect1_dropShadow_732_2312"/>
<feBlend mode="normal" in="SourceGraphic" in2="effect1_dropShadow_732_2312" result="shape"/>
</filter>
<clipPath id="clip0_732_2312">
<rect width="1440" height="1825" fill="white" transform="translate(-292 -128)"/>
</clipPath>
</defs>
</svg>
