<svg width="87" height="108" viewBox="0 0 87 108" fill="none" xmlns="http://www.w3.org/2000/svg">
<rect width="87" height="108" fill="#C7C7C7"/>
<path d="M-10631 -6694C-10631 -6695.1 -10630.1 -6696 -10629 -6696H65015C65016.1 -6696 65017 -6695.1 65017 -6694V9110C65017 9111.1 65016.1 9112 65015 9112H-10629C-10630.1 9112 -10631 9111.1 -10631 9110V-6694Z" fill="#BDB5B5"/>
<path d="M-5250 -3012C-5250 -3013.1 -5249.1 -3014 -5248 -3014H946C947.104 -3014 948 -3013.1 948 -3012V5428C948 5429.1 947.105 5430 946 5430H-5248C-5249.1 5430 -5250 5429.1 -5250 5428V-3012Z" fill="#E5E5E5"/>
<rect width="1440" height="769" transform="translate(-1027 -63)" fill="white"/>
<rect x="-1005" y="-41" width="1396" height="180" rx="20" fill="#2F2C9F"/>
<text transform="translate(-19 -17.0254) rotate(-22)" fill="white" fill-opacity="0.05" xml:space="preserve" style="white-space: pre" font-family="Outfit" font-size="126" font-weight="600" letter-spacing="0em"><tspan x="0" y="134.62">?</tspan></text>
<path d="M-5248 -3013H946V-3015H-5248V-3013ZM947 -3012V5428H949V-3012H947ZM946 5429H-5248V5431H946V5429ZM-5249 5428V-3012H-5251V5428H-5249ZM-5248 5429C-5248.55 5429 -5249 5428.55 -5249 5428H-5251C-5251 5429.66 -5249.66 5431 -5248 5431V5429ZM947 5428C947 5428.55 946.552 5429 946 5429V5431C947.657 5431 949 5429.66 949 5428H947ZM946 -3013C946.552 -3013 947 -3012.55 947 -3012H949C949 -3013.66 947.657 -3015 946 -3015V-3013ZM-5248 -3015C-5249.66 -3015 -5251 -3013.66 -5251 -3012H-5249C-5249 -3012.55 -5248.55 -3013 -5248 -3013V-3015Z" fill="black" fill-opacity="0.1"/>
<path d="M-10629 -6695H65015V-6697H-10629V-6695ZM65016 -6694V9110H65018V-6694H65016ZM65015 9111H-10629V9113H65015V9111ZM-10630 9110V-6694H-10632V9110H-10630ZM-10629 9111C-10629.6 9111 -10630 9110.55 -10630 9110H-10632C-10632 9111.66 -10630.7 9113 -10629 9113V9111ZM65016 9110C65016 9110.55 65015.6 9111 65015 9111V9113C65016.7 9113 65018 9111.66 65018 9110H65016ZM65015 -6695C65015.6 -6695 65016 -6694.55 65016 -6694H65018C65018 -6695.66 65016.7 -6697 65015 -6697V-6695ZM-10629 -6697C-10630.7 -6697 -10632 -6695.66 -10632 -6694H-10630C-10630 -6694.55 -10629.6 -6695 -10629 -6695V-6697Z" fill="black" fill-opacity="0.1"/>
</svg>
