<svg width="19" height="19" viewBox="0 0 19 19" fill="none" xmlns="http://www.w3.org/2000/svg">
<rect width="19" height="19" fill="#C7C7C7"/>
<path d="M-10918 -6969C-10918 -6970.1 -10917.1 -6971 -10916 -6971H64728C64729.1 -6971 64730 -6970.1 64730 -6969V8835C64730 8836.1 64729.1 8837 64728 8837H-10916C-10917.1 8837 -10918 8836.1 -10918 8835V-6969Z" fill="#BDB5B5"/>
<path d="M-5537 -3287C-5537 -3288.1 -5536.1 -3289 -5535 -3289H659C660.104 -3289 661 -3288.1 661 -3287V5153C661 5154.1 660.105 5155 659 5155H-5535C-5536.1 5155 -5537 5154.1 -5537 5153V-3287Z" fill="#E5E5E5"/>
<rect width="1440" height="769" transform="translate(-1314 -338)" fill="white"/>
<path d="M9.5 16.5C5.64125 16.5 2.5 13.3587 2.5 9.5C2.5 5.64125 5.64125 2.5 9.5 2.5C13.3587 2.5 16.5 5.64125 16.5 9.5C16.5 13.3587 13.3587 16.5 9.5 16.5ZM9.5 0.75C8.35093 0.75 7.21312 0.976325 6.15152 1.41605C5.08992 1.85578 4.12533 2.5003 3.31282 3.31282C1.67187 4.95376 0.75 7.17935 0.75 9.5C0.75 11.8206 1.67187 14.0462 3.31282 15.6872C4.12533 16.4997 5.08992 17.1442 6.15152 17.5839C7.21312 18.0237 8.35093 18.25 9.5 18.25C11.8206 18.25 14.0462 17.3281 15.6872 15.6872C17.3281 14.0462 18.25 11.8206 18.25 9.5C18.25 8.35093 18.0237 7.21312 17.5839 6.15152C17.1442 5.08992 16.4997 4.12533 15.6872 3.31282C14.8747 2.5003 13.9101 1.85578 12.8485 1.41605C11.7869 0.976325 10.6491 0.75 9.5 0.75ZM5.125 10.375H13.875V8.625H5.125" fill="#B4B4B4"/>
<path d="M-5535 -3288H659V-3290H-5535V-3288ZM660 -3287V5153H662V-3287H660ZM659 5154H-5535V5156H659V5154ZM-5536 5153V-3287H-5538V5153H-5536ZM-5535 5154C-5535.55 5154 -5536 5153.55 -5536 5153H-5538C-5538 5154.66 -5536.66 5156 -5535 5156V5154ZM660 5153C660 5153.55 659.552 5154 659 5154V5156C660.657 5156 662 5154.66 662 5153H660ZM659 -3288C659.552 -3288 660 -3287.55 660 -3287H662C662 -3288.66 660.657 -3290 659 -3290V-3288ZM-5535 -3290C-5536.66 -3290 -5538 -3288.66 -5538 -3287H-5536C-5536 -3287.55 -5535.55 -3288 -5535 -3288V-3290Z" fill="black" fill-opacity="0.1"/>
<path d="M-10916 -6970H64728V-6972H-10916V-6970ZM64729 -6969V8835H64731V-6969H64729ZM64728 8836H-10916V8838H64728V8836ZM-10917 8835V-6969H-10919V8835H-10917ZM-10916 8836C-10916.6 8836 -10917 8835.55 -10917 8835H-10919C-10919 8836.66 -10917.7 8838 -10916 8838V8836ZM64729 8835C64729 8835.55 64728.6 8836 64728 8836V8838C64729.7 8838 64731 8836.66 64731 8835H64729ZM64728 -6970C64728.6 -6970 64729 -6969.55 64729 -6969H64731C64731 -6970.66 64729.7 -6972 64728 -6972V-6970ZM-10916 -6972C-10917.7 -6972 -10919 -6970.66 -10919 -6969H-10917C-10917 -6969.55 -10916.6 -6970 -10916 -6970V-6972Z" fill="black" fill-opacity="0.1"/>
</svg>
