<svg width="19" height="19" viewBox="0 0 19 19" fill="none" xmlns="http://www.w3.org/2000/svg">
<rect width="19" height="19" fill="#C7C7C7"/>
<path d="M-10918 -7951C-10918 -7952.1 -10917.1 -7953 -10916 -7953H64728C64729.1 -7953 64730 -7952.1 64730 -7951V7853C64730 7854.1 64729.1 7855 64728 7855H-10916C-10917.1 7855 -10918 7854.1 -10918 7853V-7951Z" fill="#BDB5B5"/>
<path d="M-5537 -4269C-5537 -4270.1 -5536.1 -4271 -5535 -4271H659C660.104 -4271 661 -4270.1 661 -4269V4171C661 4172.1 660.105 4173 659 4173H-5535C-5536.1 4173 -5537 4172.1 -5537 4171V-4269Z" fill="#E5E5E5"/>
<rect width="1440" height="769" transform="translate(-1314 -338)" fill="white"/>
<path d="M9.5 16.5C5.64125 16.5 2.5 13.3587 2.5 9.5C2.5 5.64125 5.64125 2.5 9.5 2.5C13.3587 2.5 16.5 5.64125 16.5 9.5C16.5 13.3587 13.3587 16.5 9.5 16.5ZM9.5 0.75C8.35093 0.75 7.21312 0.976325 6.15152 1.41605C5.08992 1.85578 4.12533 2.5003 3.31282 3.31282C1.67187 4.95376 0.75 7.17935 0.75 9.5C0.75 11.8206 1.67187 14.0462 3.31282 15.6872C4.12533 16.4997 5.08992 17.1442 6.15152 17.5839C7.21312 18.0237 8.35093 18.25 9.5 18.25C11.8206 18.25 14.0462 17.3281 15.6872 15.6872C17.3281 14.0462 18.25 11.8206 18.25 9.5C18.25 8.35093 18.0237 7.21312 17.5839 6.15152C17.1442 5.08992 16.4997 4.12533 15.6872 3.31282C14.8747 2.5003 13.9101 1.85578 12.8485 1.41605C11.7869 0.976325 10.6491 0.75 9.5 0.75ZM5.125 10.375H13.875V8.625H5.125" fill="#B4B4B4"/>
<path d="M-5535 -4270H659V-4272H-5535V-4270ZM660 -4269V4171H662V-4269H660ZM659 4172H-5535V4174H659V4172ZM-5536 4171V-4269H-5538V4171H-5536ZM-5535 4172C-5535.55 4172 -5536 4171.55 -5536 4171H-5538C-5538 4172.66 -5536.66 4174 -5535 4174V4172ZM660 4171C660 4171.55 659.552 4172 659 4172V4174C660.657 4174 662 4172.66 662 4171H660ZM659 -4270C659.552 -4270 660 -4269.55 660 -4269H662C662 -4270.66 660.657 -4272 659 -4272V-4270ZM-5535 -4272C-5536.66 -4272 -5538 -4270.66 -5538 -4269H-5536C-5536 -4269.55 -5535.55 -4270 -5535 -4270V-4272Z" fill="black" fill-opacity="0.1"/>
<path d="M-10916 -7952H64728V-7954H-10916V-7952ZM64729 -7951V7853H64731V-7951H64729ZM64728 7854H-10916V7856H64728V7854ZM-10917 7853V-7951H-10919V7853H-10917ZM-10916 7854C-10916.6 7854 -10917 7853.55 -10917 7853H-10919C-10919 7854.66 -10917.7 7856 -10916 7856V7854ZM64729 7853C64729 7853.55 64728.6 7854 64728 7854V7856C64729.7 7856 64731 7854.66 64731 7853H64729ZM64728 -7952C64728.6 -7952 64729 -7951.55 64729 -7951H64731C64731 -7952.66 64729.7 -7954 64728 -7954V-7952ZM-10916 -7954C-10917.7 -7954 -10919 -7952.66 -10919 -7951H-10917C-10917 -7951.55 -10916.6 -7952 -10916 -7952V-7954Z" fill="black" fill-opacity="0.1"/>
</svg>
