<svg width="24" height="25" viewBox="0 0 24 25" fill="none" xmlns="http://www.w3.org/2000/svg">
<path d="M18.075 2.05396L22.248 6.40396V22.946H6.65924V23H22.3012V6.4587L18.075 2.05396Z" fill="#909090"/>
<path d="M18.0233 2H6.60602V22.946H22.248V6.40475L18.0233 2Z" fill="#F4F4F4"/>
<path d="M6.49123 3.125H1.69873V8.24525H16.7737V3.125H6.49123Z" fill="#7A7B7C"/>
<path d="M16.854 8.15818H1.79626V3.03418H16.854V8.15818Z" fill="#DD2025"/>
<path d="M6.78903 3.90052H5.80878V7.50052H6.57978V6.28627L6.75003 6.29602C6.91545 6.29317 7.07933 6.26354 7.23528 6.20827C7.372 6.16124 7.49779 6.087 7.60503 5.99002C7.71415 5.89763 7.80019 5.78103 7.85628 5.64952C7.9315 5.43089 7.95837 5.19854 7.93503 4.96852C7.93034 4.8042 7.90154 4.64146 7.84953 4.48552C7.80218 4.37295 7.73192 4.27147 7.64321 4.18754C7.5545 4.10361 7.44929 4.03906 7.33428 3.99802C7.23483 3.96202 7.13209 3.93589 7.02753 3.92002C6.94835 3.9078 6.86839 3.90128 6.78828 3.90052M6.64653 5.62102H6.57978V4.51102H6.72453C6.78841 4.50641 6.85252 4.51622 6.9121 4.53971C6.97169 4.56321 7.02523 4.5998 7.06878 4.64677C7.15902 4.76753 7.20722 4.91452 7.20603 5.06527C7.20603 5.24977 7.20603 5.41702 7.03953 5.53477C6.91958 5.60074 6.78304 5.63119 6.64653 5.62102ZM9.39978 3.89077C9.31653 3.89077 9.23553 3.89677 9.17853 3.89902L9.00003 3.90352H8.41503V7.50352H9.10353C9.36665 7.51073 9.62862 7.46613 9.87453 7.37227C10.0725 7.29376 10.2477 7.1672 10.3845 7.00402C10.5175 6.83936 10.613 6.64764 10.6643 6.44227C10.7232 6.20967 10.7519 5.97045 10.7498 5.73052C10.7643 5.44713 10.7424 5.16306 10.6845 4.88527C10.6296 4.68079 10.5268 4.49234 10.3845 4.33552C10.2729 4.20889 10.1363 4.10674 9.98328 4.03552C9.85186 3.9747 9.71362 3.92988 9.57153 3.90202C9.51502 3.89268 9.45779 3.88842 9.40053 3.88927M9.26403 6.84202H9.18903V4.54402H9.19878C9.3534 4.52623 9.50984 4.55413 9.64878 4.62427C9.75052 4.70551 9.83343 4.80787 9.89178 4.92427C9.95474 5.04677 9.99104 5.18122 9.99828 5.31877C10.005 5.48377 9.99828 5.61877 9.99828 5.73052C10.0013 5.85924 9.99305 5.98799 9.97353 6.11527C9.95041 6.24594 9.90768 6.37237 9.84678 6.49027C9.77784 6.59988 9.68471 6.69225 9.57453 6.76027C9.48199 6.82011 9.37242 6.84804 9.26253 6.83977M13.0725 3.90352H11.25V7.50352H12.021V6.07552H12.996V5.40652H12.021V4.57252H13.071V3.90352" fill="#464648"/>
<path d="M16.3358 15.6911C16.3358 15.6911 18.7268 15.2576 18.7268 16.0744C18.7268 16.8911 17.2455 16.5589 16.3358 15.6911ZM14.568 15.7534C14.1881 15.8373 13.8179 15.9602 13.4633 16.1201L13.7633 15.4451C14.0633 14.7701 14.3745 13.8499 14.3745 13.8499C14.7325 14.4524 15.149 15.0181 15.618 15.5389C15.2643 15.5916 14.9138 15.6637 14.568 15.7549V15.7534ZM13.6215 10.8784C13.6215 10.1666 13.8518 9.97239 14.031 9.97239C14.2103 9.97239 14.412 10.0586 14.4188 10.6766C14.3604 11.2981 14.2302 11.9106 14.031 12.5021C13.7581 12.0055 13.6169 11.4473 13.6208 10.8806L13.6215 10.8784ZM10.1348 18.7654C9.40126 18.3266 11.673 16.9759 12.0848 16.9324C12.0825 16.9331 10.9028 19.2244 10.1348 18.7654ZM19.425 16.1711C19.4175 16.0961 19.35 15.2659 17.8725 15.3011C17.2567 15.2912 16.6411 15.3346 16.0328 15.4309C15.4435 14.8372 14.936 14.1675 14.5238 13.4396C14.7835 12.6892 14.9406 11.9071 14.991 11.1146C14.9693 10.2146 14.754 9.69864 14.064 9.70614C13.374 9.71364 13.2735 10.3174 13.3643 11.2159C13.4532 11.8197 13.6208 12.4092 13.863 12.9694C13.863 12.9694 13.5443 13.9616 13.1228 14.9486C12.7013 15.9356 12.4133 16.4531 12.4133 16.4531C11.6803 16.6917 10.9903 17.0462 10.3695 17.5031C9.75151 18.0784 9.50026 18.5201 9.82576 18.9619C10.1063 19.3429 11.088 19.4291 11.9655 18.2794C12.4318 17.6855 12.8577 17.0611 13.2405 16.4104C13.2405 16.4104 14.5785 16.0436 14.9948 15.9431C15.411 15.8426 15.9143 15.7631 15.9143 15.7631C15.9143 15.7631 17.136 16.9924 18.3143 16.9489C19.4925 16.9054 19.4355 16.2446 19.428 16.1726" fill="#DD2025"/>
<path d="M17.9655 2.05786V6.46261H22.1903L17.9655 2.05786Z" fill="#909090"/>
<path d="M18.0233 2V6.40475H22.248L18.0233 2Z" fill="#F4F4F4"/>
<path d="M6.73123 3.84265H5.75098V7.44266H6.52498V6.22916L6.69598 6.2389C6.8614 6.23606 7.02528 6.20642 7.18123 6.15115C7.31794 6.10411 7.44372 6.02987 7.55098 5.93291C7.65928 5.84027 7.74453 5.72369 7.79998 5.59241C7.8752 5.37378 7.90207 5.14143 7.87873 4.91141C7.87404 4.74709 7.84523 4.58435 7.79323 4.42841C7.74588 4.31584 7.67562 4.21436 7.58691 4.13042C7.4982 4.04649 7.39299 3.98195 7.27798 3.9409C7.17808 3.90455 7.07482 3.87817 6.96973 3.86215C6.89055 3.84994 6.81059 3.84342 6.73048 3.84265M6.58873 5.56316H6.52198V4.45316H6.66748C6.73136 4.44855 6.79547 4.45836 6.85505 4.48185C6.91464 4.50535 6.96818 4.54193 7.01173 4.58891C7.10197 4.70967 7.15017 4.85666 7.14898 5.00741C7.14898 5.19191 7.14898 5.35916 6.98248 5.47691C6.86253 5.54288 6.72599 5.57258 6.58948 5.56241M9.34198 3.8329C9.25873 3.8329 9.17773 3.83891 9.12073 3.84116L8.94448 3.84566H8.35948V7.44565H9.04798C9.3111 7.45287 9.57306 7.40827 9.81898 7.31441C10.0169 7.2359 10.1922 7.10934 10.329 6.94616C10.462 6.7815 10.5575 6.58978 10.6087 6.38441C10.6676 6.15181 10.6964 5.91259 10.6942 5.67265C10.7088 5.38927 10.6868 5.1052 10.629 4.82741C10.5741 4.62293 10.4712 4.43447 10.329 4.27766C10.2174 4.15103 10.0808 4.04888 9.92773 3.97766C9.79631 3.91684 9.65807 3.87202 9.51598 3.84416C9.45947 3.83482 9.40224 3.83055 9.34498 3.83141M9.20848 6.78415H9.13348V4.48616H9.14323C9.29785 4.46836 9.45429 4.49626 9.59323 4.56641C9.69497 4.64765 9.77788 4.75 9.83623 4.86641C9.89919 4.98891 9.93549 5.12336 9.94273 5.26091C9.94948 5.42591 9.94273 5.5609 9.94273 5.67265C9.94578 5.80138 9.9375 5.93013 9.91798 6.0574C9.89486 6.18808 9.85213 6.3145 9.79123 6.4324C9.72229 6.54202 9.62916 6.63439 9.51898 6.70241C9.42644 6.76225 9.31687 6.79017 9.20698 6.78191M13.0147 3.84566H11.1922V7.44565H11.9632V6.01765H12.9382V5.34866H11.9632V4.51466H13.0132V3.84566" fill="white"/>
</svg>
