<svg width="50" height="50" viewBox="0 0 50 50" fill="none" xmlns="http://www.w3.org/2000/svg">
<path d="M25.3075 22.4126C25.2709 22.3659 25.2243 22.3281 25.171 22.3022C25.1177 22.2762 25.0591 22.2627 24.9999 22.2627C24.9406 22.2627 24.8821 22.2762 24.8288 22.3022C24.7755 22.3281 24.7288 22.3659 24.6922 22.4126L19.2235 29.3315C19.1784 29.3891 19.1504 29.4582 19.1428 29.5309C19.1351 29.6036 19.1481 29.677 19.1801 29.7427C19.2122 29.8085 19.2622 29.8638 19.3242 29.9025C19.3863 29.9411 19.458 29.9616 19.5311 29.9614H23.1395V41.7973C23.1395 42.0122 23.3153 42.188 23.5301 42.188H26.4598C26.6747 42.188 26.8505 42.0122 26.8505 41.7973V29.9663H30.4686C30.7958 29.9663 30.9764 29.5903 30.7762 29.3364L25.3075 22.4126Z" fill="#666666"/>
<path d="M39.6191 17.9053C37.3828 12.0068 31.6846 7.8125 25.0098 7.8125C18.335 7.8125 12.6367 12.002 10.4004 17.9004C6.21582 18.999 3.125 22.8125 3.125 27.3438C3.125 32.7393 7.49512 37.1094 12.8857 37.1094H14.8438C15.0586 37.1094 15.2344 36.9336 15.2344 36.7188V33.7891C15.2344 33.5742 15.0586 33.3984 14.8438 33.3984H12.8857C11.2402 33.3984 9.69238 32.7441 8.54004 31.5576C7.39258 30.376 6.78223 28.7842 6.83594 27.1338C6.87988 25.8447 7.31934 24.6338 8.11523 23.6133C8.93066 22.5732 10.0732 21.8164 11.3428 21.4795L13.1934 20.9961L13.8721 19.209C14.292 18.0957 14.8779 17.0557 15.6152 16.1133C16.3431 15.1792 17.2053 14.3582 18.1738 13.6768C20.1807 12.2656 22.5439 11.5186 25.0098 11.5186C27.4756 11.5186 29.8389 12.2656 31.8457 13.6768C32.8174 14.3604 33.6768 15.1807 34.4043 16.1133C35.1416 17.0557 35.7275 18.1006 36.1475 19.209L36.8213 20.9912L38.667 21.4795C41.3135 22.1924 43.1641 24.5996 43.1641 27.3438C43.1641 28.96 42.5342 30.4834 41.3916 31.626C40.8313 32.1896 40.1647 32.6364 39.4305 32.9407C38.6963 33.2449 37.909 33.4005 37.1143 33.3984H35.1562C34.9414 33.3984 34.7656 33.5742 34.7656 33.7891V36.7188C34.7656 36.9336 34.9414 37.1094 35.1562 37.1094H37.1143C42.5049 37.1094 46.875 32.7393 46.875 27.3438C46.875 22.8174 43.7939 19.0088 39.6191 17.9053Z" fill="#666666"/>
</svg>
