<svg width="18" height="20" viewBox="0 0 18 20" fill="none" xmlns="http://www.w3.org/2000/svg">
<path d="M5 3H4.2C3.08 3 2.52 3 2.092 3.218C1.71565 3.40969 1.40969 3.71565 1.218 4.092C1 4.52 1 5.08 1 6.2V7M5 3H13M5 3V1M1 7V15.8C1 16.92 1 17.48 1.218 17.908C1.40974 18.2843 1.71569 18.5903 2.092 18.782C2.519 19 3.079 19 4.197 19H13.803C14.921 19 15.48 19 15.907 18.782C16.284 18.59 16.59 18.284 16.782 17.908C17 17.48 17 16.922 17 15.804V7M1 7H17M13 3H13.8C14.92 3 15.48 3 15.907 3.218C16.284 3.41 16.59 3.715 16.782 4.092C17 4.519 17 5.079 17 6.197V7M13 3V1M13 15H13.002V15.002H13V15ZM9 15H9.002V15.002H9V15ZM5 15H5.002V15.002H5V15ZM13.002 11V11.002H13V11H13.002ZM9 11H9.002V11.002H9V11ZM5 11H5.002V11.002H5V11Z" stroke="#2F2C9F" stroke-width="2" stroke-linecap="round" stroke-linejoin="round"/>
</svg>
