<svg width="24" height="24" viewBox="0 0 24 24" fill="none" xmlns="http://www.w3.org/2000/svg">
<path d="M11.4983 19.2933C13.7739 19.2933 15.6253 17.4419 15.6253 15.1661C15.6253 12.8904 13.7739 11.0391 11.4983 11.0391C9.22252 11.0391 7.37109 12.8904 7.37109 15.1661C7.37109 17.4419 9.22247 19.2933 11.4983 19.2933ZM9.06703 14.5166C9.33839 14.2451 9.77841 14.2451 10.05 14.5166L10.957 15.4237L12.9466 13.4341C13.2182 13.1627 13.6582 13.1627 13.9296 13.4341C14.2009 13.7055 14.2009 14.1455 13.9296 14.417L11.4485 16.8981C11.3181 17.0284 11.1414 17.1015 10.957 17.1015C10.7726 17.1015 10.596 17.0284 10.4656 16.8981L9.06703 15.4994C8.79562 15.228 8.79562 14.788 9.06703 14.5166Z" fill="white"/>
<path d="M0 21.7526C0 22.9919 1.00838 24.0002 2.24766 24.0002H20.7482C21.9875 24.0002 22.9959 22.9919 22.9959 21.7526V7.72197H0V21.7526ZM11.4981 9.64919C14.5402 9.64919 17.0151 12.124 17.0151 15.1661C17.0151 18.2083 14.5402 20.6833 11.4981 20.6833C8.45602 20.6833 5.98092 18.2083 5.98092 15.1661C5.98092 12.124 8.45602 9.64919 11.4981 9.64919ZM22.9957 6.33203V4.19097C22.9957 2.95155 21.9875 1.94336 20.748 1.94336H19.481V3.19159C19.481 3.57573 19.1695 3.88647 18.7859 3.88647C18.4019 3.88647 18.091 3.57573 18.091 3.19159V1.94336H16.725V3.19159C16.725 3.57573 16.4143 3.88647 16.0302 3.88647C15.6465 3.88647 15.3351 3.57573 15.3351 3.19159V1.94336H7.66116V3.19159C7.66116 3.57573 7.34986 3.88647 6.96623 3.88647C6.58209 3.88647 6.27117 3.57573 6.27117 3.19159V1.94336H4.90538V3.19159C4.90538 3.57573 4.59394 3.88647 4.21031 3.88647C3.82673 3.88647 3.51544 3.57573 3.51544 3.19159V1.94336H2.2478C1.00837 1.94336 0.000140625 2.95155 0.000140625 4.19102V6.33203H22.9957Z" fill="white"/>
<path d="M19.4812 0.694875C19.4812 0.311297 19.1697 0 18.7861 0C18.4021 0 18.0912 0.31125 18.0912 0.694875V1.94316H19.4812V0.694875ZM16.7252 0.694875C16.7252 0.311297 16.4145 0 16.0304 0C15.6468 0 15.3353 0.31125 15.3353 0.694875V1.94316H16.7253L16.7252 0.694875ZM7.66134 0.694875C7.66134 0.311297 7.35005 0 6.96642 0C6.58228 0 6.27136 0.31125 6.27136 0.694875V1.94316H7.66134V0.694875ZM4.90556 0.694875C4.90556 0.311297 4.59412 0 4.2105 0C3.82692 0 3.51562 0.31125 3.51562 0.694875V1.94316H4.90556V0.694875Z" fill="white"/>
</svg>
