<svg width="44" height="31" viewBox="0 0 44 31" fill="none" xmlns="http://www.w3.org/2000/svg">
<path d="M36.6191 10.9053C34.3828 5.00684 28.6846 0.8125 22.0098 0.8125C15.335 0.8125 9.63672 5.00195 7.40039 10.9004C3.21582 11.999 0.125 15.8125 0.125 20.3438C0.125 25.7393 4.49512 30.1094 9.88574 30.1094H11.8438C12.0586 30.1094 12.2344 29.9336 12.2344 29.7188V26.7891C12.2344 26.5742 12.0586 26.3984 11.8438 26.3984H9.88574C8.24023 26.3984 6.69238 25.7441 5.54004 24.5576C4.39258 23.376 3.78223 21.7842 3.83594 20.1338C3.87988 18.8447 4.31934 17.6338 5.11523 16.6133C5.93066 15.5732 7.07324 14.8164 8.34277 14.4795L10.1934 13.9961L10.8721 12.209C11.292 11.0957 11.8779 10.0557 12.6152 9.11328C13.3431 8.17924 14.2053 7.35815 15.1738 6.67676C17.1807 5.26563 19.5439 4.51855 22.0098 4.51855C24.4756 4.51855 26.8389 5.26563 28.8457 6.67676C29.8174 7.36035 30.6768 8.18066 31.4043 9.11328C32.1416 10.0557 32.7275 11.1006 33.1475 12.209L33.8213 13.9912L35.667 14.4795C38.3135 15.1924 40.1641 17.5996 40.1641 20.3438C40.1641 21.96 39.5342 23.4834 38.3916 24.626C37.8313 25.1896 37.1647 25.6364 36.4305 25.9407C35.6963 26.2449 34.909 26.4005 34.1143 26.3984H32.1562C31.9414 26.3984 31.7656 26.5742 31.7656 26.7891V29.7188C31.7656 29.9336 31.9414 30.1094 32.1562 30.1094H34.1143C39.5049 30.1094 43.875 25.7393 43.875 20.3438C43.875 15.8174 40.7939 12.0088 36.6191 10.9053Z" fill="#666666"/>
</svg>
