<svg width="34" height="34" viewBox="0 0 34 34" fill="none" xmlns="http://www.w3.org/2000/svg">
<path d="M6 8C6 5.87827 6.84285 3.84344 8.34315 2.34315C9.84344 0.842855 11.8783 0 14 0C16.1217 0 18.1566 0.842855 19.6569 2.34315C21.1571 3.84344 22 5.87827 22 8C22 10.1217 21.1571 12.1566 19.6569 13.6569C18.1566 15.1571 16.1217 16 14 16C11.8783 16 9.84344 15.1571 8.34315 13.6569C6.84285 12.1566 6 10.1217 6 8ZM14 2C12.4087 2 10.8826 2.63214 9.75736 3.75736C8.63214 4.88258 8 6.4087 8 8C8 9.5913 8.63214 11.1174 9.75736 12.2426C10.8826 13.3679 12.4087 14 14 14C15.5913 14 17.1174 13.3679 18.2426 12.2426C19.3679 11.1174 20 9.5913 20 8C20 6.4087 19.3679 4.88258 18.2426 3.75736C17.1174 2.63214 15.5913 2 14 2ZM0 22C0 19.774 1.806 18 4.018 18H16.514C16.0046 18.6169 15.564 19.2876 15.2 20H4.018C2.896 20 2 20.894 2 22C2 24.618 3.244 26.568 5.346 27.906C7.486 29.272 10.53 30 14 30C14.4 30 14.796 29.99 15.184 29.97C15.53 30.654 15.946 31.294 16.42 31.886C15.63 31.962 14.82 32 14 32C10.29 32 6.834 31.228 4.27 29.594C1.666 27.934 0 25.38 0 22ZM34 25C34 27.387 33.0518 29.6761 31.364 31.364C29.6761 33.0518 27.387 34 25 34C22.6131 34 20.3239 33.0518 18.636 31.364C16.9482 29.6761 16 27.387 16 25C16 22.6131 16.9482 20.3239 18.636 18.636C20.3239 16.9482 22.6131 16 25 16C27.387 16 29.6761 16.9482 31.364 18.636C33.0518 20.3239 34 22.6131 34 25ZM28.708 22.708C28.8958 22.5202 29.0013 22.2656 29.0013 22C29.0013 21.7345 28.8958 21.4798 28.708 21.292C28.5202 21.1042 28.2656 20.9987 28 20.9987C27.7345 20.9987 27.4798 21.1042 27.292 21.292L25 23.586L22.708 21.292C22.5202 21.1042 22.2656 20.9987 22 20.9987C21.7345 20.9987 21.4798 21.1042 21.292 21.292C21.1042 21.4798 20.9987 21.7345 20.9987 22C20.9987 22.2656 21.1042 22.5202 21.292 22.708L23.586 25L21.292 27.292C21.199 27.385 21.1253 27.4954 21.075 27.6168C21.0246 27.7383 20.9987 27.8685 20.9987 28C20.9987 28.1315 21.0246 28.2617 21.075 28.3832C21.1253 28.5047 21.199 28.615 21.292 28.708C21.385 28.801 21.4954 28.8747 21.6168 28.925C21.7383 28.9754 21.8685 29.0013 22 29.0013C22.1315 29.0013 22.2617 28.9754 22.3832 28.925C22.5046 28.8747 22.615 28.801 22.708 28.708L25 26.414L27.292 28.708C27.385 28.801 27.4954 28.8747 27.6168 28.925C27.7383 28.9754 27.8685 29.0013 28 29.0013C28.1315 29.0013 28.2617 28.9754 28.3832 28.925C28.5047 28.8747 28.615 28.801 28.708 28.708C28.801 28.615 28.8747 28.5047 28.925 28.3832C28.9754 28.2617 29.0013 28.1315 29.0013 28C29.0013 27.8685 28.9754 27.7383 28.925 27.6168C28.8747 27.4954 28.801 27.385 28.708 27.292L26.414 25L28.708 22.708Z" fill="#EA6565"/>
</svg>
