<svg width="24" height="24" viewBox="0 0 24 24" fill="none" xmlns="http://www.w3.org/2000/svg">
<g clip-path="url(#clip0_3210_50428)">
<path d="M20.4624 5.01708L15.5592 0.201422C15.4277 0.0722972 15.2508 -3.29233e-05 15.0665 1.12423e-08L2.67037 1.12423e-08C1.22391 1.12423e-08 0.046875 1.1768 0.046875 2.62355V21.3764C0.046875 22.823 1.22367 24 2.67042 24H18.0492C19.4958 24 20.6728 22.8232 20.6728 21.3765V5.51878C20.6728 5.42537 20.6542 5.33289 20.618 5.24675C20.5819 5.16061 20.529 5.08253 20.4624 5.01708ZM15.7696 2.37928L18.2503 4.81566H15.9931C15.9339 4.81557 15.8771 4.79198 15.8351 4.75007C15.7932 4.70815 15.7697 4.65133 15.7696 4.59206V2.37928ZM18.0493 22.5938H2.67042C1.99931 22.5938 1.45312 22.0478 1.45312 21.3765V2.62359C1.45312 1.9523 1.99913 1.40625 2.67042 1.40625H14.3635V4.59211C14.3635 5.4908 15.0947 6.22195 15.9934 6.22195H19.2666V21.3764C19.2666 22.0477 18.7206 22.5938 18.0493 22.5938Z" fill="white"/>
<path d="M15.2411 11.1562H5.3291C4.94074 11.1562 4.62598 11.471 4.62598 11.8594C4.62598 12.2477 4.94074 12.5625 5.3291 12.5625H15.241C15.6294 12.5625 15.9441 12.2477 15.9441 11.8594C15.9441 11.471 15.6294 11.1562 15.2411 11.1562ZM5.32915 15.375H13.4111C13.7995 15.375 14.1142 15.0602 14.1142 14.6719C14.1142 14.2835 13.7995 13.9688 13.4111 13.9688H5.32915C4.94079 13.9688 4.62602 14.2835 4.62602 14.6719C4.62602 15.0602 4.94079 15.375 5.32915 15.375ZM14.3861 16.7812H5.32915C4.94079 16.7812 4.62602 17.096 4.62602 17.4844C4.62602 17.8727 4.94079 18.1875 5.32915 18.1875H14.3861C14.7743 18.1875 15.0892 17.8727 15.0892 17.4844C15.0892 17.096 14.7743 16.7812 14.3861 16.7812Z" fill="white"/>
</g>
<defs>
<clipPath id="clip0_3210_50428">
<rect width="24" height="24" fill="white"/>
</clipPath>
</defs>
</svg>
