<svg width="24" height="24" viewBox="0 0 24 24" fill="none" xmlns="http://www.w3.org/2000/svg">
<g clip-path="url(#clip0_3210_50446)">
<path d="M21.4286 2.57143H18.8571V0.857159C18.8571 0.383755 18.4734 0 18 0C17.5266 0 17.1428 0.383755 17.1428 0.857159V2.57143H6.85712V0.857159C6.85712 0.383755 6.47337 0 6.00001 0C5.52666 0 5.14285 0.383755 5.14285 0.857159V2.57143H2.57143C1.15127 2.57143 0 3.72269 0 5.14285V21.4286C0 22.8487 1.15127 24 2.57143 24H21.4286C22.8487 24 24 22.8487 24 21.4286V5.14285C24 3.72269 22.8487 2.57143 21.4286 2.57143ZM22.2857 21.4286C22.2857 21.902 21.9019 22.2857 21.4285 22.2857H2.57143C2.09802 22.2857 1.71427 21.902 1.71427 21.4286V10.2857H22.2857V21.4286ZM22.2857 8.57144H1.71427V5.14285C1.71427 4.66945 2.09802 4.28569 2.57143 4.28569H5.14285V5.99996C5.14285 6.47337 5.52661 6.85712 6.00001 6.85712C6.47342 6.85712 6.85717 6.47337 6.85717 5.99996V4.28569H17.1429V5.99996C17.1429 6.47337 17.5266 6.85712 18 6.85712C18.4734 6.85712 18.8572 6.47337 18.8572 5.99996V4.28569H21.4286C21.902 4.28569 22.2858 4.66945 22.2858 5.14285V8.57144H22.2857Z" fill="white"/>
<path d="M9.208 19V13.328H10.624V19H9.208ZM8.128 14.52V13.328H10.544V14.52H8.128ZM13.8132 19.088C13.3385 19.088 12.9145 18.9653 12.5412 18.72C12.1679 18.4693 11.8719 18.1227 11.6532 17.68C11.4399 17.2373 11.3332 16.728 11.3332 16.152C11.3332 15.5813 11.4399 15.0773 11.6532 14.64C11.8665 14.1973 12.1572 13.8533 12.5252 13.608C12.8985 13.3573 13.3199 13.232 13.7892 13.232C14.2692 13.232 14.6959 13.3573 15.0692 13.608C15.4425 13.8533 15.7359 14.1973 15.9492 14.64C16.1625 15.0773 16.2692 15.5867 16.2692 16.168C16.2692 16.744 16.1625 17.2533 15.9492 17.696C15.7359 18.1333 15.4425 18.4747 15.0692 18.72C14.7012 18.9653 14.2825 19.088 13.8132 19.088ZM13.7972 17.856C14.0159 17.856 14.2025 17.792 14.3572 17.664C14.5119 17.5307 14.6292 17.3387 14.7092 17.088C14.7945 16.8373 14.8372 16.528 14.8372 16.16C14.8372 15.7973 14.7945 15.4907 14.7092 15.24C14.6292 14.9893 14.5119 14.8 14.3572 14.672C14.2025 14.5387 14.0132 14.472 13.7892 14.472C13.5812 14.472 13.3999 14.536 13.2452 14.664C13.0905 14.792 12.9705 14.9813 12.8852 15.232C12.8052 15.4827 12.7652 15.7893 12.7652 16.152C12.7652 16.52 12.8052 16.832 12.8852 17.088C12.9705 17.3387 13.0905 17.5307 13.2452 17.664C13.3999 17.792 13.5839 17.856 13.7972 17.856Z" fill="white"/>
</g>
<defs>
<clipPath id="clip0_3210_50446">
<rect width="24" height="24" fill="white"/>
</clipPath>
</defs>
</svg>
