<svg width="24" height="24" viewBox="0 0 24 24" fill="none" xmlns="http://www.w3.org/2000/svg">
<path d="M12.9907 13.1504H11.0096C10.9457 13.1505 10.8844 13.1759 10.8392 13.2211C10.7941 13.2663 10.7686 13.3276 10.7686 13.3915V15.3814C10.7686 15.4453 10.7941 15.5066 10.8392 15.5518C10.8844 15.597 10.9457 15.6224 11.0096 15.6225H12.9907C13.0546 15.6224 13.1159 15.597 13.1611 15.5518C13.2062 15.5066 13.2317 15.4453 13.2317 15.3814V13.3915C13.2317 13.3276 13.2062 13.2663 13.1611 13.2211C13.1159 13.1759 13.0546 13.1505 12.9907 13.1504Z" fill="white"/>
<path d="M20.2975 5.01541H16.2116V3.30573C16.2116 2.41234 15.4778 1.68555 14.5759 1.68555H9.42413C8.52216 1.68555 7.78837 2.41234 7.78837 3.30573V5.01545H3.70252C1.66097 5.01541 0 6.67637 0 8.71797V10.9371C0.137437 11.6063 0.620625 12.1571 1.2893 12.3711L9.35789 14.343V13.3921C9.35789 12.4814 10.0988 11.7405 11.0095 11.7405H12.9905C13.9012 11.7405 14.6421 12.4814 14.6421 13.3921V14.343L22.7107 12.3711C23.3794 12.1571 23.8626 11.6063 24 10.9371V8.71797C24 6.67637 22.339 5.01541 20.2975 5.01541ZM14.8011 5.01545H9.19894V3.30573C9.19894 3.1862 9.29573 3.09606 9.42413 3.09606H14.5759C14.7043 3.09606 14.8011 3.1862 14.8011 3.30573V5.01545Z" fill="white"/>
<path d="M23.1085 13.7251C23.095 13.7293 23.0814 13.733 23.0677 13.7363L14.5859 15.8092C14.3973 16.5137 13.7536 17.034 12.9905 17.034H11.0095C10.2464 17.034 9.60272 16.5137 9.41409 15.8092L0.932297 13.7363C0.918603 13.733 0.905004 13.7292 0.891516 13.7251C0.57476 13.6273 0.274302 13.483 0 13.2969L0 19.2919C0 20.9595 1.3567 22.3162 3.02437 22.3162H20.9756C22.6433 22.3162 24 20.9595 24 19.2919V13.2969C23.7257 13.483 23.4252 13.6273 23.1085 13.7251Z" fill="white"/>
</svg>
