<svg width="24" height="24" viewBox="0 0 24 24" fill="none" xmlns="http://www.w3.org/2000/svg">
<g clip-path="url(#clip0_3210_50417)">
<path fill-rule="evenodd" clip-rule="evenodd" d="M2.02098 17.1934C1.9427 17.1934 1.87238 17.2252 1.82176 17.2759C1.77113 17.3279 1.73926 17.3982 1.73926 17.4751C1.73926 17.552 1.77113 17.6227 1.82176 17.6743C1.87238 17.7249 1.9427 17.7554 2.02098 17.7554C2.09785 17.7554 2.16863 17.7249 2.21879 17.6743C2.27082 17.6223 2.30129 17.552 2.30129 17.4751C2.30129 17.3982 2.27082 17.3274 2.21879 17.2759C2.1929 17.2497 2.16209 17.229 2.12814 17.2148C2.09419 17.2007 2.05776 17.1934 2.02098 17.1934Z" fill="white"/>
<path fill-rule="evenodd" clip-rule="evenodd" d="M3.93563 15.8971H0.105C0.076875 15.8971 0.050625 15.9093 0.031875 15.929C0.0117188 15.9478 0 15.974 0 16.0021V23.3475C0 23.3765 0.0117188 23.4032 0.031875 23.422C0.050625 23.4417 0.076875 23.4539 0.105 23.4539H3.93563C3.96469 23.4539 3.99 23.4417 4.01016 23.422C4.02891 23.4032 4.04062 23.377 4.04062 23.3475V16.0021C4.04062 15.974 4.02844 15.9478 4.01016 15.929C3.99 15.9089 3.96469 15.8971 3.93563 15.8971ZM2.78484 18.2395C2.58938 18.435 2.31844 18.5568 2.02078 18.5568C1.72172 18.5568 1.45219 18.4345 1.25531 18.2395C1.05984 18.044 0.938906 17.7745 0.938906 17.4754C0.938906 17.1764 1.05984 16.9068 1.25531 16.7114C1.45219 16.5145 1.72172 16.394 2.02078 16.394C2.31844 16.394 2.58938 16.515 2.78484 16.7114C2.98031 16.9068 3.10125 17.1764 3.10125 17.4754C3.10125 17.7745 2.98031 18.044 2.78484 18.2395ZM12.0661 4.47137C12.3173 4.53512 12.5883 4.58574 12.878 4.62418C13.23 4.66918 13.6153 4.69449 14.0245 4.69449C14.4338 4.69449 14.8177 4.66918 15.1711 4.62418C15.4594 4.58574 15.7317 4.53512 15.983 4.47137L17.1684 1.7273C17.3569 1.29137 17.2444 0.799648 16.9012 0.490273C16.6275 0.244648 16.237 0.211367 15.9258 0.410586L15.6295 0.60043C15.3586 0.773398 15.0305 0.773398 14.7591 0.60043L14.4586 0.407773C14.1877 0.233867 13.8605 0.233867 13.5895 0.407773L13.2877 0.60043C13.0167 0.773398 12.6895 0.773398 12.4186 0.60043L12.1209 0.410586C11.8116 0.211367 11.4192 0.244648 11.1455 0.490273C10.8038 0.799648 10.6912 1.29137 10.8797 1.7273L12.0661 4.47137ZM6.50297 16.0762C7.08891 15.9421 7.68141 15.8742 8.28234 15.8929C8.88281 15.9117 9.46875 16.0153 10.0444 16.184L16.433 18.0614C16.7573 18.1556 17.063 18.3164 17.2955 18.5596L21.3084 17.5832C21.9689 16.455 22.3463 15.1584 22.3463 13.7779C22.3463 10.2553 19.8577 6.93512 16.4958 5.14355C16.4677 5.1609 16.4386 5.17262 16.4067 5.18199C16.0664 5.28184 15.6839 5.36012 15.2719 5.41449C14.872 5.46652 14.4534 5.49418 14.0255 5.49418C13.5975 5.49418 13.178 5.46605 12.7777 5.41449C12.367 5.36012 11.9845 5.28184 11.6442 5.18199C11.6123 5.17262 11.5819 5.1609 11.5538 5.14355C8.19328 6.93465 5.70469 10.2553 5.70469 13.7779C5.70469 14.6123 5.84156 15.4148 6.09656 16.1695L6.50297 16.0762ZM12.2869 14.2265C12.4917 14.1417 12.7242 14.2387 12.8091 14.4417C12.8569 14.5546 12.9113 14.6568 12.9727 14.7511C13.192 15.0848 13.4883 15.2798 13.7963 15.3637C14.1056 15.4462 14.4248 15.4209 14.685 15.3117C14.7473 15.285 14.8073 15.2531 14.8631 15.2175C14.9152 15.1842 14.9602 15.1471 14.9986 15.1073C15.1102 14.9915 15.1833 14.8467 15.2034 14.6967C15.2231 14.5546 15.1941 14.4032 15.105 14.2673C15.0745 14.2209 15.0384 14.1782 14.9972 14.137C14.8406 13.9856 14.5111 13.9073 14.16 13.8248C13.6364 13.7011 13.0786 13.5698 12.6572 13.1367C12.5072 12.9811 12.3966 12.7964 12.3291 12.5957C12.2386 12.3314 12.2227 12.0417 12.2827 11.7651C12.345 11.4848 12.4847 11.2162 12.7064 10.9996C12.8686 10.8431 13.0706 10.7151 13.3162 10.6317C13.3734 10.6115 13.4344 10.5946 13.4981 10.5787C13.5408 10.5693 13.582 10.56 13.6242 10.552V9.84512C13.6242 9.62434 13.8038 9.44527 14.0241 9.44527C14.2444 9.44527 14.4239 9.6248 14.4239 9.84512V10.5346C14.5725 10.5557 14.7188 10.5918 14.8584 10.6434C15.3197 10.8136 15.7059 11.1431 15.8817 11.6601C15.8962 11.7042 15.9098 11.7492 15.9216 11.7984C15.9745 12.0136 15.8433 12.2287 15.6291 12.2821C15.4153 12.3342 15.1988 12.2039 15.1467 11.9896C15.1402 11.9657 15.1336 11.9418 15.1242 11.9165C15.0366 11.655 14.8308 11.4848 14.5833 11.3943C14.4173 11.332 14.2327 11.3039 14.0503 11.3067C14.0409 11.3081 14.0316 11.3081 14.0236 11.3081H14.0184C13.9069 11.3118 13.7953 11.3278 13.6889 11.3531C13.6505 11.3639 13.6106 11.3742 13.5708 11.3878C13.4433 11.4318 13.3411 11.4956 13.2623 11.5725C13.1587 11.6732 13.0922 11.7998 13.0631 11.9339C13.0341 12.0707 13.0406 12.2128 13.0842 12.3393C13.1147 12.4312 13.1625 12.5132 13.2291 12.5798C13.4855 12.8442 13.9266 12.9492 14.34 13.0462C14.8013 13.155 15.2367 13.2576 15.5531 13.5656C15.6356 13.6455 15.7092 13.7341 15.7725 13.83C15.9731 14.1356 16.0383 14.4759 15.9933 14.8026C15.9506 15.1228 15.8006 15.4256 15.5695 15.6623C15.4884 15.7471 15.398 15.8217 15.3 15.8854C15.2058 15.9478 15.1022 16.0021 14.9916 16.049C14.8102 16.124 14.6193 16.1732 14.4244 16.1953V16.875C14.4244 17.0957 14.2448 17.2748 14.0245 17.2748C13.8042 17.2748 13.6247 17.0953 13.6247 16.875V16.1442C13.6125 16.1414 13.6008 16.139 13.59 16.1362C13.1048 16.0045 12.6398 15.7031 12.3038 15.1889C12.2125 15.0495 12.1347 14.9018 12.0712 14.7478C11.9864 14.5443 12.0834 14.3104 12.2869 14.2265Z" fill="white"/>
<path fill-rule="evenodd" clip-rule="evenodd" d="M23.9789 18.3951C23.9516 18.3073 23.8977 18.2302 23.8247 18.1743C23.6067 18.0056 23.1989 17.9456 22.5638 18.0998L17.6686 19.2918C17.6991 19.4648 17.6939 19.6415 17.6578 19.8112C17.6166 19.9973 17.5369 20.1768 17.4225 20.3376C17.3081 20.497 17.1619 20.6367 16.9852 20.7483C16.8605 20.8251 16.7222 20.8889 16.5708 20.9329C16.2717 21.022 15.9225 21.0393 15.5316 20.954H15.5302L9.08156 19.5576C8.86641 19.5112 8.72953 19.2984 8.77594 19.0818C8.82234 18.8667 9.03516 18.7298 9.25031 18.7762L15.6998 20.174C15.7027 20.174 15.7064 20.1754 15.7092 20.1754C15.7809 20.1914 15.8513 20.2008 15.9178 20.2059C15.9244 20.2059 15.9309 20.2073 15.938 20.2073C16.193 20.2233 16.4044 20.1689 16.5623 20.069C16.6486 20.0161 16.7194 19.9495 16.7709 19.875C16.823 19.8047 16.8572 19.725 16.8759 19.6425C16.905 19.5018 16.8839 19.3528 16.8014 19.2211L16.7934 19.2093C16.6898 19.0528 16.4986 18.9145 16.2061 18.8278L9.8175 16.9514C9.28219 16.7948 8.76891 16.7081 8.2575 16.6922C7.74328 16.6762 7.22484 16.7306 6.68016 16.8558L4.83984 17.2758V21.8189L10.4977 23.4614C11.2219 23.6714 11.9273 23.7548 12.6248 23.7112C13.3209 23.6672 14.0109 23.4961 14.7028 23.1956L23.2627 19.4868C23.6639 19.3129 23.9109 19.0059 23.9803 18.7068C24.008 18.5958 24.0066 18.4879 23.9789 18.3951Z" fill="white"/>
</g>
<defs>
<clipPath id="clip0_3210_50417">
<rect width="24" height="24" fill="white"/>
</clipPath>
</defs>
</svg>
