<svg width="24" height="24" viewBox="0 0 24 24" fill="none" xmlns="http://www.w3.org/2000/svg">
<path d="M8.57175 12.0002C9.41952 12.0002 10.2483 11.7488 10.9531 11.2778C11.658 10.8068 12.2074 10.1373 12.5318 9.35409C12.8562 8.57084 12.941 7.70898 12.7756 6.8775C12.6101 6.04603 12.2018 5.2823 11.6023 4.68288C11.0028 4.08347 10.239 3.67531 9.4075 3.51C8.576 3.3447 7.71415 3.42969 6.93095 3.75422C6.14776 4.07875 5.47839 4.62825 5.0075 5.33322C4.53661 6.03819 4.28535 6.86696 4.2855 7.71474C4.28669 8.85109 4.73868 9.94054 5.54227 10.744C6.34587 11.5474 7.4354 11.9992 8.57175 12.0002ZM14.1788 15.541C13.0926 14.4269 11.699 13.6619 10.176 13.3437C8.65303 13.0255 7.06973 13.1685 5.62839 13.7544C4.18705 14.3404 2.95309 15.3427 2.08414 16.6333C1.21519 17.924 0.750703 19.4443 0.75 21.0002C0.75 21.1991 0.829018 21.3899 0.96967 21.5306C1.11032 21.6712 1.30109 21.7502 1.5 21.7502H15.645C15.8439 21.7502 16.0347 21.6712 16.1753 21.5306C16.316 21.3899 16.395 21.1991 16.395 21.0002C16.3979 20.205 16.2751 19.4142 16.0312 18.6572C15.6681 17.4869 15.0333 16.4191 14.1788 15.541Z" fill="white"/>
<path d="M17.625 12.375C19.3854 12.375 20.8125 10.9479 20.8125 9.1875C20.8125 7.42709 19.3854 6 17.625 6C15.8646 6 14.4375 7.42709 14.4375 9.1875C14.4375 10.9479 15.8646 12.375 17.625 12.375Z" fill="white"/>
<path d="M17.625 13.252C16.6197 13.2557 15.6338 13.5295 14.7705 14.0447C14.9333 14.1902 15.0975 14.3335 15.2513 14.491C16.2725 15.5406 17.0311 16.8168 17.4653 18.2155C17.6139 18.6759 17.7236 19.1481 17.793 19.627H22.5C22.6989 19.627 22.8897 19.5479 23.0303 19.4073C23.171 19.2666 23.25 19.0759 23.25 18.877C23.2484 17.3856 22.6553 15.9558 21.6007 14.9012C20.5462 13.8467 19.1164 13.2535 17.625 13.252Z" fill="white"/>
</svg>
