<svg width="317" height="249" viewBox="0 0 317 249" fill="none" xmlns="http://www.w3.org/2000/svg">
<g clip-path="url(#clip0_5614_111372)">
<path d="M95.9534 100.01C94.257 97.8128 91.8596 95.7798 91.7078 93.0686C91.5686 90.582 93.4236 88.1131 92.6413 85.7341C92.0397 83.905 90.0553 82.8013 88.1161 82.2168C84.4036 81.1139 80.4306 81.2668 76.8139 82.6517L77.0102 82.5133C74.8028 81.7274 72.2225 82.5388 70.4858 84.0416C68.7489 85.5444 67.7167 87.6275 66.9159 89.715C66.1148 91.8025 65.4943 93.9663 64.3815 95.9234C63.2685 97.8804 61.5646 99.6602 59.3164 100.337C60.069 101.837 62.4218 102.352 63.8016 101.318C64.1541 101.032 64.471 100.704 64.7454 100.343C65.6657 99.2241 66.586 98.1055 67.5064 96.9869C68.4533 98.6704 67.0386 100.994 68.2027 102.552C68.8028 103.356 69.899 103.661 70.9172 103.88C78.8745 105.577 87.129 105.271 94.9387 102.99C95.5664 102.805 96.2589 102.55 96.5192 101.982C96.8199 101.327 96.3994 100.588 95.9534 100.01Z" fill="#2F2E41"/>
<path d="M118.516 104.585C118.467 104.803 118.434 105.025 118.419 105.248L101.027 115.278L96.7997 112.845L92.293 118.742L99.3581 123.776C99.9289 124.183 100.616 124.393 101.317 124.376C102.018 124.359 102.694 124.115 103.244 123.681L121.179 109.539C121.988 109.838 122.869 109.884 123.706 109.671C124.542 109.457 125.293 108.995 125.86 108.344C126.426 107.693 126.781 106.885 126.878 106.028C126.974 105.171 126.806 104.304 126.398 103.544C125.99 102.785 125.359 102.167 124.591 101.774C123.823 101.38 122.953 101.23 122.098 101.343C121.242 101.456 120.441 101.827 119.801 102.406C119.162 102.985 118.713 103.745 118.516 104.585Z" fill="#FFB7B7"/>
<path d="M100.446 115.752L94.8248 123.034C94.6649 123.242 94.4622 123.412 94.2304 123.534C93.9987 123.655 93.7435 123.726 93.482 123.74C93.2206 123.755 92.9592 123.712 92.7155 123.617C92.4719 123.521 92.2518 123.374 92.0701 123.185L85.7066 116.58C84.6505 115.756 83.9643 114.547 83.7986 113.218C83.6329 111.89 84.0012 110.549 84.8227 109.492C85.6442 108.434 86.8518 107.745 88.1808 107.576C89.5098 107.407 90.8516 107.771 91.912 108.59L99.8932 113.051C100.122 113.178 100.32 113.354 100.474 113.565C100.629 113.776 100.736 114.018 100.788 114.275C100.841 114.531 100.838 114.796 100.778 115.051C100.719 115.306 100.606 115.545 100.446 115.752Z" fill="#2F2C9F"/>
<path d="M92.7082 242.636L97.6716 242.635L100.033 223.498L92.707 223.498L92.7082 242.636Z" fill="#FFB7B7"/>
<path d="M91.4434 241.016L101.219 241.016H101.219C102.871 241.016 104.456 241.672 105.624 242.839C106.792 244.007 107.448 245.591 107.449 247.242V247.445L91.4436 247.445L91.4434 241.016Z" fill="#2F2E41"/>
<path d="M58.7 242.636L63.6638 242.635L66.0251 223.498L58.6992 223.498L58.7 242.636Z" fill="#FFB7B7"/>
<path d="M57.4336 241.016L67.2089 241.016H67.2092C68.8614 241.016 70.4458 241.672 71.6141 242.84C72.7823 244.007 73.4387 245.591 73.4388 247.242V247.445L57.4339 247.445L57.4336 241.016Z" fill="#2F2E41"/>
<path d="M89.7286 97.3048C90.2456 92.5974 86.847 88.3625 82.1375 87.8457C77.4281 87.329 73.1913 90.7262 72.6743 95.4335C72.1574 100.141 75.556 104.376 80.2654 104.893C84.9749 105.409 89.2117 102.012 89.7286 97.3048Z" fill="#FFB7B7"/>
<path d="M86.2211 105.225L91.2749 107.727C91.2749 107.727 96.9214 117.536 93.6825 126.844C92.1099 131.363 96.5382 145.769 96.5382 145.769C96.5382 145.769 103.399 211.021 103.421 231.16C94.8971 232.47 86.7996 234.089 86.3948 230.042C85.9899 225.995 81.5579 178.145 81.5579 178.145C81.5579 178.145 75.4632 231.256 70.6047 232.065C65.7462 232.875 56.0293 231.661 56.0293 231.661C56.0293 231.661 63.7435 153.863 69.0069 149.006L69.8166 144.959L69.795 108.632L75.859 105.74L86.2211 105.225Z" fill="#2F2E41"/>
<path d="M68.141 160.372C68.7003 160.07 69.1864 159.649 69.5651 159.138C69.9438 158.627 70.2059 158.04 70.3329 157.417C70.46 156.795 70.4488 156.152 70.3004 155.533C70.1519 154.915 69.8696 154.338 69.4735 153.84L75.3509 114.681L67.6722 114.312L63.0906 153.31C62.2991 154.03 61.7996 155.016 61.6865 156.08C61.5735 157.144 61.855 158.213 62.4775 159.083C63.1 159.954 64.0204 160.566 65.0642 160.804C66.1081 161.041 67.2028 160.888 68.141 160.372Z" fill="#FFB7B7"/>
<path d="M75.1836 124.493L66.0001 123.914C65.7388 123.897 65.4841 123.825 65.2534 123.701C65.0227 123.577 64.8214 123.405 64.6632 123.197C64.505 122.988 64.3936 122.748 64.3366 122.493C64.2797 122.237 64.2784 121.972 64.333 121.716L66.2465 112.748C66.3383 111.412 66.9564 110.167 67.9653 109.286C68.9741 108.405 70.2913 107.96 71.6281 108.048C72.9649 108.136 74.2121 108.751 75.0961 109.757C75.9802 110.763 76.4291 112.079 76.3442 113.415L77.1138 122.523C77.1358 122.784 77.1013 123.046 77.0126 123.292C76.9239 123.539 76.7832 123.763 76.6 123.95C76.4168 124.137 76.1955 124.282 75.9511 124.376C75.7066 124.47 75.4449 124.51 75.1836 124.493Z" fill="#2F2C9F"/>
<path d="M90.1908 90.7942C89.8565 89.2785 88.7708 88.0226 87.52 87.1029C85.4581 85.5867 82.9295 84.8414 80.3745 84.9967C77.8194 85.152 75.3998 86.1981 73.5369 87.9528C72.4959 88.8718 71.7455 90.0741 71.3773 91.4127C71.2017 92.0817 71.1923 92.7835 71.35 93.457C71.5077 94.1304 71.8277 94.7552 72.2821 95.2768L72.4535 95.3841C72.2981 94.7252 72.8102 94.0669 73.4218 93.7762C74.058 93.5428 74.722 93.394 75.397 93.3336C76.4181 93.1407 77.386 92.7309 78.2351 92.132C79.0842 91.5331 79.7948 90.7589 80.3189 89.8619C80.7072 90.9659 81.3275 91.9741 82.1382 92.8185C82.9488 93.6629 83.9309 94.324 85.0184 94.7574C86.1522 95.2006 89.2662 95.81 90.3456 95.2473C91.7226 94.5296 90.5251 92.31 90.1908 90.7942Z" fill="#2F2E41"/>
<path d="M27.0716 230.814C28.5559 231.336 30.1495 231.466 31.699 231.193C33.2485 230.921 34.7016 230.254 35.9182 229.256C39.0168 226.657 39.9884 222.375 40.7787 218.41L43.1168 206.68L38.2219 210.049C34.7015 212.471 31.1021 214.972 28.6649 218.481C26.2277 221.99 25.1644 226.781 27.122 230.578" fill="#E6E6E6"/>
<path d="M27.8287 245.832C27.2126 241.345 26.5787 236.801 27.0119 232.266C27.3958 228.239 28.625 224.306 31.1276 221.08C32.456 219.371 34.0724 217.907 35.9041 216.753C36.3816 216.452 36.8212 217.208 36.3457 217.508C33.1763 219.51 30.7248 222.467 29.3447 225.951C27.8205 229.826 27.5758 234.05 27.8383 238.167C27.997 240.656 28.3342 243.129 28.6729 245.599C28.6996 245.711 28.6829 245.828 28.6262 245.928C28.5694 246.028 28.4769 246.103 28.3672 246.137C28.2553 246.167 28.136 246.152 28.0353 246.095C27.9345 246.037 27.8604 245.943 27.829 245.831L27.8287 245.832Z" fill="#F2F2F2"/>
<path d="M32.2617 238.632C32.8982 239.599 33.7732 240.386 34.8024 240.917C35.8317 241.449 36.9804 241.706 38.1379 241.664C41.1134 241.523 43.5929 239.448 45.8247 237.478L52.4276 231.651L48.0578 231.441C44.9152 231.291 41.6915 231.15 38.6983 232.12C35.7051 233.089 32.9446 235.42 32.3974 238.517" fill="#E6E6E6"/>
<path d="M26.0869 248.411C29.053 243.166 32.4931 237.335 38.6406 235.472C40.3497 234.955 42.1419 234.771 43.9205 234.927C44.4812 234.975 44.3411 235.839 43.7817 235.791C40.8001 235.543 37.8244 236.33 35.3553 238.019C32.9794 239.636 31.1293 241.883 29.5637 244.266C28.6046 245.726 27.7455 247.248 26.8864 248.768C26.6119 249.254 25.8092 248.903 26.0869 248.411Z" fill="#F2F2F2"/>
<path d="M226.518 151.427C220.952 143.982 210.766 142.185 205.703 145.966C200.641 149.747 199.479 160.022 205.044 167.467C210.196 174.359 219.53 176.238 224.671 173.656C224.655 173.737 224.654 173.82 224.668 173.901L224.958 175.333C224.98 175.442 225.03 175.544 225.103 175.629C225.175 175.713 225.268 175.778 225.373 175.817C225.477 175.855 225.59 175.866 225.7 175.849C225.81 175.832 225.914 175.787 226.002 175.719L228.456 173.802C228.544 173.733 228.613 173.643 228.656 173.541C228.699 173.438 228.716 173.326 228.704 173.215C228.691 173.105 228.651 172.999 228.587 172.908C228.522 172.817 228.435 172.744 228.335 172.697L227.014 172.069C226.968 172.048 226.919 172.033 226.869 172.023C230.832 167.836 231.681 158.334 226.518 151.427Z" fill="#FF8D27"/>
<path d="M214.343 148.617C217.066 149.05 219.518 150.51 221.195 152.698C222.871 154.885 223.643 157.633 223.352 160.373C223.292 161.001 224.273 160.997 224.333 160.373C224.614 157.42 223.767 154.469 221.962 152.114C220.158 149.758 217.529 148.172 214.604 147.672C213.986 147.567 213.721 148.512 214.343 148.617Z" fill="white"/>
<path d="M233.707 10.3829C234.311 13.0716 233.859 15.8894 232.444 18.2546C231.03 20.6198 228.761 22.3518 226.106 23.0933C225.5 23.2695 225.866 24.1794 226.468 24.0043C229.317 23.1741 231.747 21.2979 233.271 18.7518C234.794 16.2057 235.299 13.178 234.682 10.2759C234.552 9.66374 233.576 9.76616 233.707 10.3829Z" fill="white"/>
<path d="M142.193 77.4998C141.787 68.2143 134.379 60.9969 128.066 61.2733C121.753 61.5497 115.005 69.3869 115.412 78.6723C115.789 87.2672 122.445 94.0729 128.148 94.8321C128.089 94.8893 128.041 94.9574 128.007 95.0326L127.44 96.3795C127.397 96.4822 127.381 96.5942 127.393 96.7049C127.405 96.8156 127.446 96.9214 127.51 97.0121C127.575 97.1029 127.662 97.1756 127.762 97.2234C127.863 97.2712 127.974 97.2924 128.086 97.2852L131.194 97.0822C131.305 97.075 131.412 97.0394 131.506 96.979C131.6 96.9185 131.676 96.8351 131.728 96.7367C131.781 96.6383 131.807 96.5282 131.805 96.4168C131.803 96.3055 131.772 96.1965 131.716 96.1003L130.978 94.8386C130.951 94.7952 130.92 94.7551 130.884 94.7192C136.517 93.4881 142.571 86.1132 142.193 77.4998Z" fill="#2F2C9F"/>
<path d="M140.873 51.1339C142.88 53.0233 144.085 55.6107 144.238 58.362C144.392 61.1133 143.483 63.8186 141.698 65.9193C141.296 66.4044 142.109 66.9532 142.509 66.4712C144.404 64.1882 145.366 61.2733 145.202 58.3111C145.037 55.3489 143.758 52.5585 141.621 50.4994C141.17 50.0653 140.419 50.6966 140.873 51.1339Z" fill="white"/>
<path d="M178.301 121.907C175.867 121.754 173.505 121.027 171.407 119.785C169.309 118.542 167.535 116.821 166.231 114.761C165.866 114.178 165.389 113.536 165.642 112.817C165.73 112.542 165.909 112.304 166.15 112.143C166.39 111.983 166.679 111.909 166.967 111.933C167.713 112.023 168.194 112.753 168.286 113.451C168.39 114.244 167.831 114.866 167.14 115.161C165.452 115.88 163.749 114.768 162.375 113.881C159.242 111.858 155.796 110.029 152.001 109.799C148.489 109.586 144.723 110.962 142.769 114.006C142.427 114.539 143.276 115.031 143.616 114.501C145.553 111.482 149.47 110.398 152.875 110.864C154.904 111.184 156.864 111.849 158.669 112.83C159.605 113.316 160.512 113.854 161.402 114.42C162.248 115.01 163.145 115.524 164.083 115.956C165.646 116.598 167.715 116.548 168.807 115.07C169.826 113.691 169.038 111.396 167.335 111.009C166.961 110.935 166.575 110.955 166.211 111.067C165.847 111.18 165.516 111.38 165.249 111.652C164.982 111.923 164.786 112.256 164.679 112.622C164.573 112.987 164.558 113.374 164.638 113.746C164.808 114.558 165.419 115.352 165.893 116.016C167.315 118.016 169.168 119.672 171.316 120.861C173.463 122.05 175.85 122.743 178.301 122.888C178.931 122.919 178.93 121.939 178.301 121.907Z" fill="#CCCCCC"/>
<path d="M266.848 58.3864C269.333 56.7763 272.541 55.9121 275.408 56.6808C278.275 57.4495 280.533 60.1352 280.025 62.8644C279.794 64.1018 279.054 65.3908 279.574 66.5348C279.974 67.4153 281.004 67.8889 281.993 68.1897C282.982 68.4905 284.048 68.7104 284.821 69.3433C285.595 69.9763 285.911 71.2087 285.151 71.8905C284.901 72.1152 284.568 72.2518 284.328 72.4853C284.126 72.7028 283.996 72.9779 283.958 73.2723C283.92 73.5668 283.974 73.8658 284.114 74.1278C284.415 74.6521 284.852 75.0855 285.379 75.3823C286.447 76.069 287.837 76.8313 287.705 78.0376C287.639 78.3643 287.495 78.6703 287.286 78.9297C287.076 79.189 286.807 79.394 286.502 79.5273C285.868 79.8105 285.195 79.9973 284.506 80.0813L256.543 84.913C255.626 85.113 254.686 85.1919 253.749 85.1479C253.293 85.1294 252.846 85.0171 252.436 84.8181C252.026 84.6192 251.662 84.3378 251.365 83.9916C250.687 83.072 250.868 81.7966 251.402 80.774C251.936 79.7514 252.773 78.8862 253.429 77.9238C254.086 76.9614 254.572 75.8069 254.28 74.7233C254.047 73.8559 253.357 73.1748 252.826 72.4314C252.295 71.688 251.911 70.7198 252.349 69.9057C252.966 68.7586 254.811 68.5952 255.543 67.5043C256.095 66.681 255.821 65.6461 255.753 64.694C255.591 62.4038 256.861 60.041 258.958 58.7319C260.026 58.0842 261.234 57.6997 262.48 57.6102C263.727 57.5207 264.976 57.7288 266.127 58.2174L266.848 58.3864Z" fill="#2F2E41"/>
<path d="M307.03 167.714V172.35L289.139 174.556L289.139 167.713L307.03 167.714Z" fill="#9E616A"/>
<path d="M311.527 166.532L311.526 181.481H311.337C309.793 181.481 308.312 180.868 307.221 179.777C306.129 178.686 305.516 177.206 305.516 175.662V175.662L305.516 166.531L311.527 166.532Z" fill="#2F2E41"/>
<path d="M284.913 175.602L283.774 180.096L265.889 177.844L267.57 171.211L284.913 175.602Z" fill="#9E616A"/>
<path d="M289.562 175.557L285.89 190.049L285.707 190.003C284.21 189.624 282.925 188.666 282.135 187.341C281.345 186.015 281.114 184.43 281.493 182.934L283.735 174.082L289.562 175.557Z" fill="#2F2E41"/>
<path d="M280.346 123.605L281.311 124.611C281.311 124.611 287.615 129.552 282.951 142.567L275.322 164.536L300.894 165.533L300.346 175.571C300.346 175.571 263.262 177.633 263.586 171.524C263.911 165.415 265.279 142.796 265.279 142.796L257.574 136.611L259.432 126.151L280.346 123.605Z" fill="#2F2E41"/>
<path d="M260.537 133.576L257.574 136.612L247.642 163.903C247.642 163.903 246.128 170.711 249.533 172.223C252.939 173.736 274.848 182.198 274.848 182.198L277.085 174.149L260.204 164.021L268.072 153.693L269.256 137.414L260.537 133.576Z" fill="#2F2E41"/>
<path d="M260.694 85.4314L285.905 80.3926L286.453 94.2184L279.922 108.132L281.311 124.613L258.716 128.559L259.423 106.887C259.423 106.887 253.356 98.3311 256.93 89.7067L260.694 85.4314Z" fill="#E4E4E4"/>
<path d="M316.91 52.6326C317.036 53.213 317.034 53.814 316.903 54.3932C316.771 54.9725 316.515 55.516 316.151 55.9854C315.787 56.4549 315.324 56.8388 314.796 57.1102C314.267 57.3816 313.685 57.5338 313.092 57.5562L288.916 85.5783L283.295 78.7598L308.827 53.3591C308.855 52.3595 309.249 51.4051 309.935 50.6767C310.62 49.9484 311.549 49.4966 312.545 49.407C313.542 49.3175 314.536 49.5964 315.341 50.1909C316.145 50.7854 316.704 51.6542 316.91 52.6326Z" fill="#9E616A"/>
<path d="M294.18 82.5219C294.185 82.7836 294.134 83.0435 294.031 83.2838C293.927 83.524 293.772 83.7391 293.577 83.9142L286.779 90.0312C285.926 91.0635 284.698 91.7156 283.364 91.8444C282.031 91.9732 280.701 91.5682 279.665 90.7182C278.63 89.8683 277.974 88.6427 277.841 87.3101C277.709 85.9775 278.11 84.6467 278.957 83.6093L283.702 75.7585C283.838 75.5344 284.02 75.3422 284.236 75.1948C284.453 75.0475 284.699 74.9485 284.957 74.9047C285.215 74.8608 285.479 74.8731 285.733 74.9406C285.986 75.0082 286.221 75.1295 286.423 75.2962L293.518 81.1564C293.72 81.3231 293.884 81.5313 293.998 81.767C294.112 82.0027 294.174 82.2602 294.18 82.5219Z" fill="#E4E4E4"/>
<path d="M221.163 118.487C221.125 117.895 221.217 117.301 221.434 116.748C221.651 116.195 221.986 115.696 222.416 115.286C222.847 114.877 223.362 114.567 223.925 114.378C224.488 114.188 225.086 114.125 225.677 114.192L253.785 90.1133L258.319 97.6977L229.263 118.981C229.085 119.965 228.552 120.85 227.765 121.467C226.978 122.085 225.992 122.392 224.993 122.331C223.995 122.27 223.053 121.845 222.347 121.137C221.641 120.428 221.22 119.486 221.163 118.487Z" fill="#9E616A"/>
<path d="M248.123 92.3468C248.156 92.0872 248.246 91.8379 248.385 91.6159C248.523 91.394 248.708 91.2046 248.927 91.0607L256.566 86.0325C257.565 85.1396 258.877 84.679 260.215 84.7516C261.553 84.8242 262.807 85.4241 263.704 86.4198C264.6 87.4155 265.064 88.7258 264.995 90.0633C264.926 91.4008 264.33 92.6564 263.336 93.5549L257.466 100.605C257.299 100.806 257.09 100.969 256.854 101.082C256.617 101.195 256.36 101.256 256.098 101.261C255.836 101.266 255.576 101.214 255.336 101.109C255.096 101.004 254.882 100.849 254.707 100.654L248.571 93.796C248.397 93.601 248.266 93.3705 248.189 93.1204C248.111 92.8703 248.089 92.6064 248.123 92.3468Z" fill="#E4E4E4"/>
<path d="M268.733 82.892C273.815 82.1777 277.356 77.4806 276.642 72.4006C275.928 67.3207 271.23 63.7815 266.147 64.4958C261.065 65.21 257.524 69.9072 258.238 74.9871C258.952 80.0671 263.651 83.6062 268.733 82.892Z" fill="#9E616A"/>
<path d="M277.946 72.3695C275.011 72.1339 272.575 69.2036 272.88 66.2767C272.914 67.4831 272.504 68.6601 271.726 69.5837C270.949 70.5073 269.859 71.1131 268.665 71.2859C267.318 71.4342 265.843 71.0271 264.671 71.7059C263.373 72.4577 262.958 74.2835 261.606 74.9328C260.3 75.5602 258.641 74.7046 257.995 73.4075C257.35 72.1105 257.508 70.5522 257.936 69.1681C258.546 67.1943 259.657 65.4118 261.16 63.9941C262.663 62.5764 264.508 61.5717 266.515 61.0777C268.522 60.5837 270.622 60.6173 272.612 61.1752C274.602 61.733 276.414 62.7962 277.871 64.2612C279.105 65.5018 280.084 67.083 280.243 68.8251C280.402 70.5673 279.594 72.4577 278.029 73.2403L277.946 72.3695Z" fill="#2F2E41"/>
<path d="M144.527 248.047H0.378342C0.278 248.047 0.181772 248.008 0.110819 247.937C0.0398665 247.866 0 247.769 0 247.669C0 247.569 0.0398665 247.473 0.110819 247.402C0.181772 247.331 0.278 247.291 0.378342 247.291H144.527C144.627 247.291 144.723 247.331 144.794 247.402C144.865 247.473 144.905 247.569 144.905 247.669C144.905 247.769 144.865 247.866 144.794 247.937C144.723 248.008 144.627 248.047 144.527 248.047Z" fill="#CACACA"/>
<path d="M120.076 95.4851C120.153 96.0143 120.019 96.5526 119.701 96.9831C119.383 97.4135 118.909 97.7012 118.38 97.7836C118.118 97.8154 117.852 97.795 117.598 97.7235C117.344 97.6521 117.107 97.531 116.9 97.3673C116.693 97.2036 116.52 97.0005 116.392 96.7698C116.264 96.539 116.183 96.2853 116.154 96.0231C116.081 95.4933 116.219 94.9561 116.537 94.5265C116.856 94.0969 117.33 93.809 117.858 93.7245C118.119 93.6939 118.384 93.7152 118.637 93.7872C118.891 93.8592 119.127 93.9805 119.333 94.1441C119.539 94.3077 119.711 94.5103 119.838 94.7405C119.966 94.9706 120.047 95.2237 120.076 95.4851Z" fill="#263238"/>
<path d="M275.921 103.952C275.996 104.482 275.859 105.02 275.54 105.45C275.221 105.881 274.746 106.168 274.217 106.25C273.955 106.282 273.69 106.262 273.436 106.19C273.183 106.119 272.946 105.997 272.74 105.834C272.533 105.67 272.361 105.467 272.234 105.236C272.107 105.005 272.027 104.752 271.999 104.49C271.924 103.961 272.059 103.424 272.377 102.994C272.694 102.564 273.167 102.276 273.695 102.191C273.957 102.161 274.222 102.182 274.476 102.254C274.729 102.326 274.966 102.447 275.173 102.61C275.38 102.774 275.552 102.977 275.681 103.207C275.809 103.437 275.891 103.69 275.921 103.952Z" fill="#263238"/>
<path d="M231.136 88.0007C231.171 88.265 231.101 88.5326 230.941 88.746C230.781 88.9593 230.544 89.1014 230.28 89.1418C230.15 89.1588 230.017 89.1497 229.891 89.1148C229.764 89.08 229.645 89.0202 229.542 88.939C229.439 88.8577 229.353 88.7567 229.289 88.6417C229.225 88.5268 229.185 88.4003 229.171 88.2696C229.133 88.01 229.196 87.7455 229.348 87.5314C229.5 87.3173 229.729 87.1701 229.987 87.1204C230.12 87.0986 230.257 87.1043 230.389 87.1374C230.52 87.1704 230.644 87.2299 230.752 87.3124C230.859 87.3948 230.949 87.4984 231.015 87.6168C231.081 87.7351 231.122 87.8658 231.136 88.0007Z" fill="#FF8D27"/>
<path d="M107.029 88.0047C107.067 88.2634 107.004 88.5268 106.852 88.7396C106.7 88.9524 106.471 89.098 106.214 89.1458C106.083 89.1629 105.951 89.1537 105.824 89.1189C105.697 89.0841 105.579 89.0243 105.476 88.943C105.372 88.8618 105.286 88.7607 105.223 88.6458C105.159 88.5308 105.119 88.4043 105.105 88.2737C105.066 88.014 105.13 87.7496 105.282 87.5355C105.434 87.3214 105.662 87.1741 105.92 87.1244C106.051 87.1086 106.184 87.1188 106.31 87.1546C106.437 87.1904 106.556 87.251 106.659 87.3329C106.762 87.4148 106.848 87.5163 106.911 87.6317C106.975 87.747 107.015 87.8738 107.029 88.0047Z" fill="#FF8D27"/>
<path d="M255.087 23.4989C255.123 23.7573 255.058 24.0197 254.907 24.232C254.755 24.4443 254.528 24.5903 254.271 24.64C254.141 24.6582 254.008 24.6499 253.881 24.6155C253.754 24.5811 253.635 24.5214 253.531 24.44C253.428 24.3585 253.342 24.257 253.278 24.1415C253.215 24.026 253.175 23.8989 253.162 23.7678C253.122 23.5079 253.184 23.2424 253.337 23.0278C253.489 22.8132 253.719 22.6664 253.978 22.6186C254.109 22.6027 254.241 22.613 254.368 22.6487C254.495 22.6845 254.613 22.7451 254.716 22.827C254.82 22.9089 254.905 23.0105 254.969 23.1258C255.033 23.2411 255.073 23.3679 255.087 23.4989Z" fill="#263238"/>
<path d="M202.839 152.548C202.879 152.808 202.816 153.073 202.664 153.288C202.512 153.502 202.282 153.649 202.023 153.697C201.892 153.713 201.76 153.702 201.633 153.667C201.506 153.631 201.388 153.57 201.284 153.488C201.181 153.406 201.095 153.305 201.032 153.19C200.968 153.074 200.928 152.947 200.914 152.817C200.878 152.558 200.942 152.296 201.094 152.083C201.246 151.871 201.473 151.725 201.73 151.675C201.86 151.657 201.993 151.666 202.12 151.7C202.247 151.734 202.366 151.794 202.47 151.875C202.573 151.957 202.659 152.058 202.723 152.174C202.786 152.289 202.825 152.416 202.839 152.548Z" fill="#263238"/>
<path d="M186.387 8.6727C186.425 8.93237 186.362 9.19682 186.21 9.41093C186.058 9.62504 185.829 9.77228 185.571 9.82196C185.44 9.83784 185.308 9.82758 185.181 9.7918C185.054 9.75603 184.936 9.69543 184.833 9.61354C184.729 9.53164 184.643 9.43008 184.58 9.31474C184.516 9.19941 184.476 9.0726 184.462 8.94167C184.424 8.682 184.487 8.41755 184.639 8.20344C184.791 7.98933 185.02 7.84209 185.278 7.79241C185.408 7.77653 185.541 7.78678 185.668 7.82256C185.795 7.85834 185.913 7.91893 186.016 8.00083C186.119 8.08272 186.205 8.18429 186.269 8.29962C186.332 8.41496 186.372 8.54177 186.387 8.6727Z" fill="#263238"/>
<path d="M75.9373 113.159C75.9757 113.419 75.9123 113.683 75.7604 113.897C75.6085 114.111 75.3797 114.259 75.1219 114.308C74.9911 114.324 74.8585 114.314 74.7317 114.278C74.6049 114.242 74.4865 114.182 74.3833 114.1C74.2801 114.018 74.1943 113.916 74.1307 113.801C74.0671 113.686 74.027 113.559 74.0129 113.428C73.9745 113.168 74.0379 112.904 74.1898 112.69C74.3417 112.476 74.5705 112.328 74.8283 112.279C74.9591 112.263 75.0917 112.273 75.2185 112.309C75.3453 112.345 75.4637 112.405 75.5669 112.487C75.6701 112.569 75.756 112.671 75.8195 112.786C75.8831 112.901 75.9232 113.028 75.9373 113.159Z" fill="#FF8D27"/>
<path d="M244.569 193.904C244.61 194.164 244.547 194.429 244.395 194.644C244.243 194.858 244.013 195.005 243.754 195.053C243.623 195.069 243.49 195.059 243.363 195.023C243.237 194.987 243.118 194.926 243.015 194.844C242.912 194.763 242.826 194.661 242.762 194.546C242.699 194.43 242.659 194.304 242.645 194.173C242.607 193.907 242.676 193.637 242.837 193.422C242.997 193.207 243.236 193.064 243.501 193.023C243.759 193.001 244.016 193.08 244.215 193.245C244.415 193.409 244.542 193.646 244.569 193.904Z" fill="#455A64"/>
<path d="M110.44 176.278C110.479 176.538 110.415 176.802 110.263 177.016C110.111 177.231 109.883 177.378 109.625 177.427C109.494 177.444 109.361 177.435 109.234 177.4C109.106 177.364 108.988 177.304 108.884 177.222C108.781 177.14 108.695 177.038 108.632 176.922C108.568 176.806 108.529 176.679 108.516 176.547C108.475 176.287 108.538 176.022 108.69 175.807C108.843 175.592 109.073 175.446 109.331 175.398C109.462 175.382 109.595 175.392 109.722 175.428C109.848 175.464 109.967 175.524 110.07 175.606C110.173 175.688 110.259 175.79 110.323 175.905C110.386 176.02 110.426 176.147 110.44 176.278Z" fill="#FF8D27"/>
<path d="M124.497 137.026C124.574 137.555 124.439 138.093 124.122 138.524C123.804 138.954 123.329 139.242 122.801 139.324C122.539 139.357 122.272 139.338 122.018 139.267C121.763 139.196 121.526 139.075 121.318 138.911C121.111 138.747 120.939 138.543 120.811 138.312C120.683 138.081 120.603 137.826 120.575 137.564C120.5 137.035 120.637 136.497 120.956 136.068C121.275 135.64 121.75 135.354 122.279 135.273C122.54 135.24 122.805 135.26 123.059 135.33C123.312 135.401 123.549 135.521 123.756 135.685C123.962 135.848 124.134 136.05 124.261 136.281C124.389 136.511 124.469 136.764 124.497 137.026Z" fill="#FF8D27"/>
<path d="M141.274 31.2227C141.349 31.7418 141.222 32.2697 140.918 32.6974C140.615 33.1251 140.158 33.4201 139.644 33.5213C139.382 33.5519 139.117 33.5306 138.864 33.4586C138.611 33.3866 138.375 33.2653 138.169 33.1017C137.962 32.9381 137.791 32.7355 137.663 32.5053C137.536 32.2752 137.455 32.0221 137.426 31.7607C137.348 31.2315 137.483 30.6932 137.801 30.2627C138.118 29.8323 138.593 29.5446 139.122 29.4622C139.639 29.4185 140.153 29.5778 140.555 29.9065C140.957 30.2351 141.215 30.7072 141.274 31.2227Z" fill="#455A64"/>
<path d="M114.365 157.049C114.44 157.579 114.304 158.118 113.985 158.548C113.666 158.978 113.19 159.265 112.661 159.348C112.4 159.381 112.135 159.361 111.881 159.291C111.628 159.22 111.391 159.1 111.184 158.937C110.978 158.773 110.806 158.571 110.679 158.341C110.552 158.11 110.471 157.857 110.443 157.595C110.366 157.066 110.501 156.528 110.818 156.097C111.136 155.667 111.611 155.379 112.139 155.297C112.401 155.264 112.666 155.283 112.92 155.354C113.174 155.424 113.412 155.545 113.619 155.708C113.826 155.871 113.999 156.073 114.127 156.304C114.255 156.534 114.336 156.787 114.365 157.049Z" fill="#455A64"/>
<path d="M214.851 15.9596C214.929 16.4879 214.794 17.0252 214.476 17.4544C214.158 17.8835 213.683 18.1695 213.155 18.25C212.894 18.2829 212.629 18.2635 212.376 18.1929C212.122 18.1223 211.885 18.0019 211.679 17.8388C211.472 17.6756 211.3 17.473 211.173 17.2427C211.046 17.0125 210.966 16.7591 210.937 16.4976C210.86 15.9684 210.995 15.43 211.312 14.9996C211.63 14.5692 212.105 14.2815 212.633 14.1991C212.895 14.1662 213.161 14.1859 213.415 14.257C213.669 14.3281 213.906 14.4492 214.113 14.6132C214.319 14.7772 214.491 14.9807 214.618 15.2119C214.745 15.4431 214.824 15.6973 214.851 15.9596Z" fill="#263238"/>
<path d="M213.238 82.3874L216.043 81.4174C216.043 81.4174 214.127 80.3986 214.135 77.2279C214.143 74.0572 216.752 72.8102 215.619 69.9492L212.504 70.8295C212.859 71.5922 213.055 72.4194 213.079 73.2604C213.103 74.1015 212.954 74.9385 212.643 75.72C211.819 77.4969 211.077 79.6568 213.238 82.3874Z" fill="#263238"/>
<path d="M144.624 94.7589L141.859 93.6504C141.859 93.6504 142.724 95.6881 140.791 98.1415C138.859 100.595 136.07 99.8613 135.197 102.828L138.149 104.189C138.332 103.385 138.679 102.628 139.169 101.964C139.658 101.301 140.28 100.746 140.995 100.334C142.748 99.4864 144.648 98.2964 144.624 94.7589Z" fill="#455A64"/>
<path d="M80.7093 148.99L77.9531 147.914C77.9531 147.914 78.7685 149.952 76.8767 152.405C74.9849 154.859 72.1554 154.125 71.291 157.092L74.2347 158.453C74.4172 157.649 74.7643 156.891 75.2541 156.228C75.7439 155.564 76.3658 155.009 77.0806 154.598C78.8338 153.709 80.7337 152.519 80.7093 148.99Z" fill="#263238"/>
<path d="M292.672 143.37L289.916 142.303C289.916 142.303 290.772 144.332 288.84 146.794C286.907 149.255 284.118 148.514 283.254 151.472L286.198 152.842C286.381 152.037 286.728 151.278 287.218 150.614C287.708 149.949 288.329 149.392 289.043 148.978C290.797 148.065 292.697 146.875 292.672 143.37Z" fill="#FF8D27"/>
<path d="M92.1626 67.3594L92.5622 64.3355C92.5622 64.3355 90.8335 65.6559 88.0936 64.254C85.3538 62.852 85.4272 59.8607 82.4427 59.6406L81.8066 62.9009C82.622 62.9133 83.4252 63.1 84.1623 63.4487C84.8993 63.7974 85.5531 64.2999 86.0795 64.9224C87.2945 66.5118 88.8357 68.1664 92.1626 67.3594Z" fill="#263238"/>
<path d="M74.9829 189.314L75.3825 186.291C75.3825 186.291 73.6538 187.611 70.9139 186.209C68.1741 184.807 68.2475 181.824 65.263 181.596L64.627 184.856C65.4423 184.868 66.2455 185.055 66.9826 185.404C67.7196 185.752 68.3734 186.255 68.8998 186.877C70.1148 188.467 71.656 190.121 74.9829 189.314Z" fill="#FF8D27"/>
<path d="M174.653 181.18L175.052 178.156C175.052 178.156 173.324 179.476 170.584 178.074C167.844 176.672 167.917 173.689 164.933 173.461L164.297 176.721C165.111 176.735 165.912 176.922 166.648 177.271C167.384 177.619 168.036 178.121 168.562 178.743C169.817 180.332 171.326 181.987 174.653 181.18Z" fill="#455A64"/>
<path d="M293.602 75.0274L294.001 72.0035C294.001 72.0035 292.281 73.3239 289.533 71.9138C286.785 70.5037 286.866 67.5287 283.882 67.3086L283.254 70.5689C284.068 70.5824 284.87 70.7697 285.605 71.1184C286.341 71.467 286.993 71.9689 287.519 72.5903C288.734 74.1797 290.275 75.8262 293.602 75.0274Z" fill="#FF8D27"/>
<path d="M116.584 192.834L117.147 195.833C117.147 195.833 118.37 194.008 121.403 194.431C124.437 194.855 125.285 197.692 128.179 196.917L127.764 193.6C126.997 193.86 126.183 193.951 125.378 193.867C124.573 193.783 123.795 193.525 123.099 193.111C121.46 192.019 119.487 190.967 116.584 192.834Z" fill="#455A64"/>
<path d="M165.968 130.334L162.853 128.59C162.853 128.59 160.342 132.519 163.367 134.499C163.367 134.467 162.739 131.915 165.968 130.334Z" fill="#FF8D27"/>
<path d="M163.447 139.249L166.709 137.986C166.709 137.986 166.896 135.084 163.357 134.465C163.366 134.465 165.584 137.089 163.447 139.249Z" fill="#FF8D27"/>
<path d="M78.9793 7.74427L75.8725 6C75.8725 6 73.3528 9.92869 76.3862 11.9093C76.3862 11.9093 75.7583 9.35813 78.9793 7.74427Z" fill="#455A64"/>
<path d="M76.4647 16.6927L79.7264 15.4294C79.7264 15.4294 79.914 12.5277 76.375 11.9082C76.3832 11.9082 78.6011 14.5328 76.4647 16.6927Z" fill="#455A64"/>
<path d="M186.844 80.9595C186.769 80.4294 186.906 79.8911 187.225 79.461C187.544 79.0309 188.019 78.7435 188.549 78.661C188.81 78.6292 189.075 78.6497 189.329 78.7213C189.583 78.7929 189.819 78.914 190.026 79.0778C190.232 79.2416 190.404 79.4448 190.531 79.6754C190.658 79.9061 190.738 80.1597 190.767 80.4216C190.839 80.9513 190.702 81.4885 190.383 81.9181C190.065 82.3477 189.591 82.6356 189.062 82.7201C188.801 82.7507 188.536 82.7294 188.283 82.6574C188.03 82.5854 187.793 82.4642 187.587 82.3006C187.381 82.137 187.209 81.9343 187.082 81.7041C186.954 81.474 186.874 81.2209 186.844 80.9595Z" fill="#263238"/>
<path d="M250.586 120.433C250.512 119.904 250.649 119.366 250.968 118.938C251.287 118.509 251.762 118.223 252.291 118.143C252.552 118.11 252.817 118.129 253.07 118.2C253.324 118.27 253.561 118.391 253.767 118.554C253.974 118.717 254.146 118.92 254.273 119.15C254.4 119.38 254.48 119.633 254.509 119.895C254.586 120.424 254.451 120.962 254.134 121.393C253.816 121.823 253.341 122.111 252.813 122.193C252.551 122.225 252.285 122.205 252.031 122.133C251.777 122.062 251.539 121.941 251.332 121.777C251.125 121.613 250.953 121.41 250.825 121.18C250.697 120.949 250.616 120.695 250.586 120.433Z" fill="#FF8D27"/>
<path d="M208.958 192.083C208.883 191.552 209.019 191.014 209.338 190.584C209.657 190.154 210.133 189.867 210.662 189.784C210.923 189.752 211.189 189.773 211.442 189.844C211.696 189.916 211.933 190.037 212.139 190.201C212.345 190.365 212.517 190.568 212.644 190.798C212.771 191.029 212.851 191.283 212.88 191.545C212.955 192.073 212.819 192.611 212.502 193.041C212.185 193.471 211.711 193.759 211.184 193.843C210.922 193.874 210.657 193.853 210.403 193.781C210.149 193.709 209.912 193.588 209.706 193.424C209.499 193.261 209.326 193.058 209.198 192.828C209.07 192.598 208.988 192.344 208.958 192.083Z" fill="#FF8D27"/>
<path d="M44.012 158.592C43.9716 158.332 44.0341 158.067 44.1864 157.852C44.3386 157.637 44.5686 157.491 44.8275 157.443C44.9582 157.427 45.0909 157.437 45.2177 157.473C45.3445 157.509 45.4629 157.569 45.566 157.651C45.6692 157.733 45.7551 157.835 45.8187 157.95C45.8823 158.065 45.9223 158.192 45.9364 158.323C45.9717 158.588 45.9019 158.857 45.742 159.072C45.5821 159.286 45.3446 159.43 45.0802 159.472C44.8222 159.495 44.5656 159.416 44.3657 159.251C44.1659 159.086 44.0388 158.85 44.012 158.592Z" fill="#FF8D27"/>
<path d="M203.986 136.582C203.947 136.323 204.011 136.058 204.162 135.844C204.314 135.63 204.543 135.483 204.801 135.433C204.932 135.417 205.064 135.427 205.191 135.463C205.318 135.499 205.436 135.56 205.54 135.641C205.643 135.723 205.729 135.825 205.792 135.94C205.856 136.056 205.896 136.182 205.91 136.313C205.948 136.573 205.885 136.837 205.733 137.052C205.581 137.266 205.352 137.413 205.095 137.463C204.831 137.492 204.566 137.417 204.358 137.252C204.15 137.087 204.016 136.846 203.986 136.582Z" fill="#FF8D27"/>
<path d="M177.247 54.6819C177.209 54.4222 177.272 54.1578 177.424 53.9437C177.576 53.7296 177.805 53.5823 178.063 53.5326C178.193 53.5168 178.326 53.527 178.453 53.5628C178.58 53.5986 178.698 53.6592 178.801 53.7411C178.904 53.823 178.99 53.9245 179.054 54.0399C179.118 54.1552 179.158 54.282 179.172 54.4129C179.21 54.6726 179.147 54.9371 178.995 55.1512C178.843 55.3653 178.614 55.5125 178.356 55.5622C178.225 55.5781 178.093 55.5678 177.966 55.532C177.839 55.4963 177.721 55.4357 177.618 55.3538C177.515 55.2719 177.429 55.1703 177.365 55.055C177.301 54.9396 177.261 54.8128 177.247 54.6819Z" fill="#37474F"/>
<path d="M251.848 63.8775C251.773 63.3474 251.91 62.8091 252.229 62.379C252.548 61.9489 253.023 61.6615 253.552 61.579C253.814 61.5472 254.079 61.5677 254.333 61.6393C254.586 61.7108 254.823 61.832 255.03 61.9958C255.236 62.1596 255.408 62.3627 255.535 62.5934C255.662 62.8241 255.742 63.0777 255.77 63.3395C255.845 63.8687 255.708 64.406 255.389 64.8348C255.07 65.2636 254.595 65.5493 254.066 65.6299C253.805 65.6617 253.541 65.6415 253.287 65.5704C253.034 65.4994 252.798 65.3789 252.592 65.216C252.385 65.053 252.214 64.8508 252.086 64.6211C251.958 64.3914 251.878 64.1386 251.848 63.8775Z" fill="#FF8D27"/>
<path d="M48.5963 137.058C48.5214 136.53 48.6572 135.994 48.9746 135.565C49.292 135.137 49.7654 134.85 50.2924 134.768C50.554 134.735 50.8195 134.754 51.0736 134.824C51.3276 134.895 51.5651 135.015 51.7722 135.178C51.9794 135.341 52.152 135.544 52.2801 135.774C52.4083 136.005 52.4893 136.258 52.5186 136.52C52.5935 137.05 52.4568 137.588 52.1379 138.018C51.819 138.449 51.3435 138.736 50.8143 138.819C50.5526 138.851 50.2869 138.832 50.0329 138.761C49.7788 138.689 49.5416 138.568 49.335 138.404C49.1284 138.24 48.9566 138.037 48.8298 137.806C48.703 137.574 48.6236 137.32 48.5963 137.058Z" fill="#455A64"/>
<path d="M131.247 64.847L126.534 66.2326C126.534 66.2326 124.292 60.1358 128.98 58.416C128.956 58.416 127.366 61.66 131.247 64.847Z" fill="#455A64"/>
<path d="M130.471 51.9844L134.548 54.7067C134.548 54.7067 133.953 58.6843 128.987 58.4154C128.954 58.4154 132.729 55.5626 130.471 51.9844Z" fill="#455A64"/>
<path d="M281.913 181.874L277.208 183.26C277.208 183.26 274.965 177.163 279.654 175.443C279.63 175.443 278.04 178.687 281.913 181.874Z" fill="#455A64"/>
<path d="M281.146 169.008L285.224 171.73C285.224 171.73 284.628 175.708 279.662 175.439C279.63 175.439 283.397 172.586 281.146 169.008Z" fill="#455A64"/>
<path d="M250.212 140.871L249.576 135.842C249.576 135.842 255.725 134.432 256.687 139.461C256.687 139.461 253.808 137.366 250.212 140.871Z" fill="#263238"/>
<path d="M262.622 141.943L259.425 145.692C259.425 145.692 255.707 144.502 256.686 139.457C256.686 139.457 258.871 143.736 262.622 141.943Z" fill="#263238"/>
<path d="M136.083 175.031L131.37 176.408C131.37 176.408 129.128 170.319 133.816 168.6C133.8 168.64 132.21 171.844 136.083 175.031Z" fill="#263238"/>
<path d="M135.314 162.164L139.392 164.895C139.392 164.895 138.796 168.872 133.83 168.603C133.798 168.644 137.565 165.75 135.314 162.164Z" fill="#263238"/>
<path d="M220.602 50.7136L223.708 52.466C223.708 52.466 226.228 48.5373 223.203 46.5566C223.203 46.5566 223.823 49.1078 220.602 50.7136Z" fill="#455A64"/>
<path d="M223.121 41.7715L219.859 43.0267C219.859 43.0267 219.664 45.9284 223.211 46.556C223.203 46.556 220.976 43.9314 223.121 41.7715Z" fill="#455A64"/>
<path d="M215.016 151.714L215.529 155.333C215.529 155.333 220.079 155.056 219.786 151.363C219.786 151.363 218.196 153.409 215.016 151.714Z" fill="#FF8D27"/>
<path d="M223.44 148.421L220.504 146.473C220.504 146.473 218.148 148.054 219.787 151.363C219.787 151.363 220.488 147.94 223.44 148.421Z" fill="#FF8D27"/>
</g>
<defs>
<clipPath id="clip0_5614_111372">
<rect width="317" height="249" fill="white"/>
</clipPath>
</defs>
</svg>
