<svg width="50" height="50" viewBox="0 0 50 50" fill="none" xmlns="http://www.w3.org/2000/svg">
<rect width="50" height="50.0001" rx="25" fill="#8DDC80" fill-opacity="0.2"/>
<path d="M19.0004 20.1999C19.0004 18.9269 19.5061 17.706 20.4063 16.8058C21.3065 15.9056 22.5274 15.3999 23.8004 15.3999C25.0734 15.3999 26.2943 15.9056 27.1945 16.8058C28.0947 17.706 28.6004 18.9269 28.6004 20.1999C28.6004 21.4729 28.0947 22.6938 27.1945 23.594C26.2943 24.4942 25.0734 24.9999 23.8004 24.9999C22.5274 24.9999 21.3065 24.4942 20.4063 23.594C19.5061 22.6938 19.0004 21.4729 19.0004 20.1999ZM15.4004 28.5999C15.4004 27.2643 16.484 26.1999 17.8112 26.1999H25.3088C24.3315 27.3811 23.798 28.8668 23.8004 30.3999C23.8004 31.9635 24.344 33.3999 25.2524 34.5315C24.7784 34.5771 24.2924 34.5999 23.8004 34.5999C21.5744 34.5999 19.5008 34.1367 17.9624 33.1563C16.4 32.1603 15.4004 30.6279 15.4004 28.5999ZM35.8004 30.3999C35.8004 31.8321 35.2315 33.2056 34.2188 34.2183C33.2061 35.231 31.8326 35.7999 30.4004 35.7999C28.9682 35.7999 27.5947 35.231 26.582 34.2183C25.5693 33.2056 25.0004 31.8321 25.0004 30.3999C25.0004 28.9677 25.5693 27.5942 26.582 26.5815C27.5947 25.5688 28.9682 24.9999 30.4004 24.9999C31.8326 24.9999 33.2061 25.5688 34.2188 26.5815C35.2315 27.5942 35.8004 28.9677 35.8004 30.3999ZM33.2252 28.1751C33.1695 28.1192 33.1032 28.0749 33.0304 28.0446C32.9575 28.0144 32.8793 27.9988 32.8004 27.9988C32.7215 27.9988 32.6433 28.0144 32.5704 28.0446C32.4975 28.0749 32.4313 28.1192 32.3756 28.1751L29.2004 31.3515L28.4252 30.5751C28.3125 30.4624 28.1597 30.3991 28.0004 30.3991C27.8411 30.3991 27.6883 30.4624 27.5756 30.5751C27.4629 30.6878 27.3996 30.8406 27.3996 30.9999C27.3996 31.1592 27.4629 31.312 27.5756 31.4247L28.7756 32.6247C28.8313 32.6806 28.8975 32.7249 28.9704 32.7552C29.0433 32.7854 29.1215 32.801 29.2004 32.801C29.2793 32.801 29.3575 32.7854 29.4304 32.7552C29.5032 32.7249 29.5695 32.6806 29.6252 32.6247L33.2252 29.0247C33.2811 28.969 33.3254 28.9028 33.3556 28.8299C33.3859 28.757 33.4015 28.6788 33.4015 28.5999C33.4015 28.521 33.3859 28.4428 33.3556 28.3699C33.3254 28.297 33.2811 28.2308 33.2252 28.1751Z" fill="#7BD36D"/>
</svg>
