<svg width="24" height="24" viewBox="0 0 24 24" fill="none" xmlns="http://www.w3.org/2000/svg">
<g clip-path="url(#clip0_3210_50413)">
<path d="M5.64723 0.705078C5.29429 0.705078 4.94135 0.987431 4.94135 1.41096V2.11684H2.8237C1.69429 2.11684 0.706055 3.03449 0.706055 4.23449V21.1757C0.706055 22.3757 1.6237 23.2933 2.8237 23.2933H21.1766C22.3766 23.2933 23.2943 22.3757 23.2943 21.1757V4.23449C23.2943 3.03449 22.3766 2.11684 21.1766 2.11684H19.059V1.41096C19.059 0.987431 18.7766 0.705078 18.3531 0.705078C17.9296 0.705078 17.6472 0.987431 17.6472 1.41096V2.11684H6.35311V1.41096C6.35311 0.987431 6.07076 0.705078 5.64723 0.705078ZM21.8825 21.1757C21.8825 21.5992 21.6002 21.8815 21.1766 21.8815H2.8237C2.40017 21.8815 2.11782 21.5992 2.11782 21.1757V7.7639H21.8825V21.1757ZM17.6472 3.52861V4.23449C17.6472 4.65802 17.9296 4.94037 18.3531 4.94037C18.7766 4.94037 19.059 4.65802 19.059 4.23449V3.52861H21.1766C21.6002 3.52861 21.8825 3.81096 21.8825 4.23449V6.35214H2.11782V4.23449C2.11782 3.81096 2.40017 3.52861 2.8237 3.52861H4.94135V4.23449C4.94135 4.65802 5.2237 4.94037 5.64723 4.94037C6.07076 4.94037 6.35311 4.65802 6.35311 4.23449V3.52861H17.6472Z" fill="white"/>
<path d="M5.01155 13.7646H7.83508C8.25861 13.7646 8.54096 13.4822 8.54096 13.0587V10.2352C8.54096 9.81165 8.25861 9.5293 7.83508 9.5293H5.01155C4.58802 9.5293 4.30566 9.81165 4.30566 10.2352V13.0587C4.30566 13.4822 4.58802 13.7646 5.01155 13.7646ZM5.71743 10.9411H7.12919V12.3528H5.71743V10.9411ZM10.6586 13.7646H13.4821C13.9057 13.7646 14.188 13.4822 14.188 13.0587V10.2352C14.188 9.81165 13.9057 9.5293 13.4821 9.5293H10.6586C10.2351 9.5293 9.95272 9.81165 9.95272 10.2352V13.0587C9.95272 13.4822 10.2351 13.7646 10.6586 13.7646ZM11.3645 10.9411H12.7763V12.3528H11.3645V10.9411ZM16.3057 13.7646H19.1292C19.5527 13.7646 19.8351 13.4822 19.8351 13.0587V10.2352C19.8351 9.81165 19.5527 9.5293 19.1292 9.5293H16.3057C15.8821 9.5293 15.5998 9.81165 15.5998 10.2352V13.0587C15.5998 13.4822 15.8821 13.7646 16.3057 13.7646ZM17.0115 10.9411H18.4233V12.3528H17.0115V10.9411ZM5.01155 20.1175H7.83508C8.25861 20.1175 8.54096 19.8352 8.54096 19.4116V16.5881C8.54096 16.1646 8.25861 15.8822 7.83508 15.8822H5.01155C4.58802 15.8822 4.30566 16.1646 4.30566 16.5881V19.4116C4.30566 19.8352 4.58802 20.1175 5.01155 20.1175ZM5.71743 17.294H7.12919V18.7058H5.71743V17.294ZM10.6586 20.1175H13.4821C13.9057 20.1175 14.188 19.8352 14.188 19.4116V16.5881C14.188 16.1646 13.9057 15.8822 13.4821 15.8822H10.6586C10.2351 15.8822 9.95272 16.1646 9.95272 16.5881V19.4116C9.95272 19.8352 10.2351 20.1175 10.6586 20.1175ZM11.3645 17.294H12.7763V18.7058H11.3645V17.294ZM16.3057 20.1175H19.1292C19.5527 20.1175 19.8351 19.8352 19.8351 19.4116V16.5881C19.8351 16.1646 19.5527 15.8822 19.1292 15.8822H16.3057C15.8821 15.8822 15.5998 16.1646 15.5998 16.5881V19.4116C15.5998 19.8352 15.8821 20.1175 16.3057 20.1175ZM17.0115 17.294H18.4233V18.7058H17.0115V17.294Z" fill="white"/>
</g>
<defs>
<clipPath id="clip0_3210_50413">
<rect width="24" height="24" fill="white"/>
</clipPath>
</defs>
</svg>
