<svg width="24" height="24" viewBox="0 0 24 24" fill="none" xmlns="http://www.w3.org/2000/svg">
<path d="M20.2974 5.32646H16.8208V3.15409C16.8208 2.17305 16.0145 1.375 15.0234 1.375H8.97664C7.98556 1.375 7.17927 2.17314 7.17927 3.15409V5.32646H3.70256C1.66097 5.32646 0 6.98743 0 9.02902V19.6024C0 21.2701 1.3567 22.6268 3.02437 22.6268H20.9756C22.6433 22.6268 24 21.2701 24 19.6024V9.02902C24 6.98743 22.339 5.32646 20.2974 5.32646ZM8.58978 3.15409C8.58978 2.94395 8.75609 2.78551 8.97664 2.78551H15.0234C15.2439 2.78551 15.4102 2.94395 15.4102 3.15409V5.32646H8.58978V3.15409ZM22.5894 19.6024C22.5894 20.4923 21.8655 21.2163 20.9756 21.2163H3.02437C2.13445 21.2163 1.41051 20.4923 1.41051 19.6024V13.0147C1.63556 13.156 1.87812 13.2673 2.13201 13.3457C2.14551 13.3499 2.15911 13.3536 2.17279 13.357L9.35787 15.113V15.693C9.35787 16.6037 10.0988 17.3446 11.0095 17.3446H12.9905C13.9012 17.3446 14.6421 16.6037 14.6421 15.693V15.113L21.8272 13.357C21.8409 13.3537 21.8545 13.3499 21.8679 13.3457C22.1218 13.2673 22.3644 13.156 22.5894 13.0147V19.6024H22.5894ZM10.7684 15.693V13.7031C10.7685 13.6392 10.7939 13.5779 10.8391 13.5327C10.8843 13.4875 10.9456 13.4621 11.0095 13.462H12.9905C13.0545 13.4621 13.1157 13.4875 13.1609 13.5327C13.2061 13.5779 13.2316 13.6392 13.2316 13.7031V15.693C13.2315 15.757 13.2061 15.8182 13.1609 15.8634C13.1157 15.9086 13.0545 15.934 12.9905 15.9341H11.0095C10.9456 15.934 10.8843 15.9086 10.8391 15.8634C10.7939 15.8182 10.7685 15.7569 10.7684 15.693ZM22.5895 10.4503C22.5895 11.1593 22.1405 11.7765 21.47 11.9923L14.6411 13.6611C14.6187 12.7698 13.8872 12.0514 12.9905 12.0514H11.0095C10.1129 12.0514 9.38136 12.7698 9.35895 13.6611L2.53003 11.9923C1.85957 11.7765 1.41051 11.1593 1.41051 10.4503V9.02902C1.41051 7.76518 2.43871 6.73697 3.70256 6.73697H20.2974C21.5612 6.73697 22.5894 7.76518 22.5894 9.02902V10.4503H22.5895Z" fill="white"/>
</svg>
