<svg width="24" height="24" viewBox="0 0 24 24" fill="none" xmlns="http://www.w3.org/2000/svg">
<g clip-path="url(#clip0_3210_50432)">
<path d="M14.8671 4.5149H18.8643L14.6572 0.382812V4.30533C14.6572 4.42082 14.7513 4.5149 14.8671 4.5149Z" fill="white"/>
<path d="M14.8672 5.83305C14.0247 5.83305 13.3391 5.14765 13.3391 4.30513V0H2.37753C1.02128 0 -0.0820312 1.10331 -0.0820312 2.45953V20.0405C-0.0820312 21.3967 1.02128 22.5 2.37753 22.5H16.7943C18.1507 22.5 19.2539 21.3967 19.2539 20.0405V5.83302L14.8672 5.83305ZM13.3604 17.0508H4.87004C4.506 17.0508 4.21086 16.7556 4.21086 16.3916C4.21086 16.0275 4.506 15.7324 4.87004 15.7324H13.3604C13.7246 15.7324 14.0196 16.0275 14.0196 16.3916C14.0196 16.7556 13.7246 17.0508 13.3604 17.0508ZM4.21086 13.7549C4.21086 13.3908 4.506 13.0957 4.87004 13.0957H12.4465C12.8107 13.0957 13.1057 13.3908 13.1057 13.7549C13.1057 14.1189 12.8104 14.4141 12.4465 14.4141H4.87004C4.506 14.4141 4.21086 14.1189 4.21086 13.7549ZM14.162 11.7773H4.87004C4.506 11.7773 4.21086 11.4822 4.21086 11.1182C4.21086 10.7541 4.506 10.459 4.87004 10.459H14.162C14.5261 10.459 14.8212 10.7541 14.8212 11.1182C14.8212 11.4822 14.5261 11.7773 14.162 11.7773Z" fill="white"/>
</g>
<defs>
<clipPath id="clip0_3210_50432">
<rect width="24" height="24" fill="white"/>
</clipPath>
</defs>
</svg>
