<svg width="383" height="320" viewBox="0 0 383 320" fill="none" xmlns="http://www.w3.org/2000/svg">
<rect width="383" height="320" rx="8" fill="white"/>
<g opacity="0.7" clip-path="url(#clip0_5450_87054)">
<path d="M341.5 229.441H41.5V229.591H341.5V229.441Z" fill="#EBEBEB"/>
<path d="M311.44 239.094H291.568V239.244H311.44V239.094Z" fill="#EBEBEB"/>
<path d="M240.232 240.727H235.018V240.877H240.232V240.727Z" fill="#EBEBEB"/>
<path d="M290.967 233.527H279.453V233.677H290.967V233.527Z" fill="#EBEBEB"/>
<path d="M98.8906 234.535H72.9766V234.685H98.8906V234.535Z" fill="#EBEBEB"/>
<path d="M108.034 234.535H104.236V234.685H108.034V234.535Z" fill="#EBEBEB"/>
<path d="M176.591 237.066H120.383V237.216H176.591V237.066Z" fill="#EBEBEB"/>
<path d="M183.7 202.68H67.8458C66.9382 202.678 66.0683 202.317 65.4271 201.674C64.7859 201.032 64.4258 200.162 64.4258 199.254V36.396C64.4337 35.4936 64.7973 34.6308 65.4376 33.9949C66.078 33.3591 66.9434 33.0015 67.8458 33H183.7C184.608 33 185.48 33.361 186.122 34.0035C186.765 34.646 187.126 35.5174 187.126 36.426V199.254C187.126 200.163 186.765 201.034 186.122 201.677C185.48 202.319 184.608 202.68 183.7 202.68ZM67.8458 33.12C66.978 33.1216 66.1463 33.4674 65.5332 34.0816C64.9201 34.6958 64.5758 35.5282 64.5758 36.396V199.254C64.5758 200.122 64.9201 200.954 65.5332 201.568C66.1463 202.183 66.978 202.528 67.8458 202.53H183.7C184.568 202.528 185.4 202.183 186.015 201.569C186.629 200.955 186.974 200.122 186.976 199.254V36.396C186.974 35.5276 186.629 34.6953 186.015 34.0813C185.4 33.4672 184.568 33.1216 183.7 33.12H67.8458Z" fill="#EBEBEB"/>
<path d="M313.485 202.68H197.625C196.717 202.678 195.847 202.317 195.204 201.675C194.562 201.033 194.201 200.162 194.199 199.254V36.396C194.209 35.4931 194.574 34.6302 195.215 33.9946C195.856 33.3589 196.722 33.0015 197.625 33H313.485C314.387 33.0031 315.25 33.3613 315.889 33.997C316.529 34.6327 316.891 35.4947 316.899 36.396V199.254C316.899 200.161 316.54 201.03 315.9 201.672C315.26 202.314 314.392 202.677 313.485 202.68ZM197.625 33.12C196.757 33.1216 195.925 33.4672 195.31 34.0813C194.696 34.6953 194.351 35.5276 194.349 36.396V199.254C194.351 200.122 194.696 200.955 195.31 201.569C195.925 202.183 196.757 202.528 197.625 202.53H313.485C314.354 202.528 315.186 202.183 315.8 201.569C316.414 200.955 316.76 200.122 316.761 199.254V36.396C316.76 35.5276 316.414 34.6953 315.8 34.0813C315.186 33.4672 314.354 33.1216 313.485 33.12H197.625Z" fill="#EBEBEB"/>
<path d="M172.571 171.523H96.7188V176.875H172.571V171.523Z" fill="#EBEBEB"/>
<path d="M172.57 171.523H139.588V176.875H172.57V171.523Z" fill="#E0E0E0"/>
<path d="M107.927 176.875H96.7188V229.441H107.927V176.875Z" fill="#EBEBEB"/>
<path d="M107.927 182.299L96.7188 178.483V176.875H107.927V182.299Z" fill="#E0E0E0"/>
<path d="M172.569 176.875H161.361V229.441H172.569V176.875Z" fill="#E0E0E0"/>
<path d="M150.796 176.875H139.588V229.441H150.796V176.875Z" fill="#EBEBEB"/>
<path d="M150.79 182.299L139.588 178.483V176.875H150.79V182.299Z" fill="#E0E0E0"/>
<path d="M129.7 176.875H118.492V229.441H129.7V176.875Z" fill="#E0E0E0"/>
<path d="M179.698 52.3008H84.0996V133.703H179.698V52.3008Z" fill="#EBEBEB"/>
<path d="M179.698 133.699H180.766V52.2972H179.698V133.699Z" fill="#E0E0E0"/>
<path d="M176.104 130.097V55.8945L87.7055 55.8945V130.097H176.104Z" fill="#F5F5F5"/>
<path d="M130.834 118.837C136.234 100.837 137.734 74.2872 149.218 77.9472C160.702 81.6072 145.66 120.865 145.66 120.865L130.834 118.837Z" fill="white"/>
<path d="M140.109 119.73C134.613 93.6424 135.999 59.0104 118.923 59.8024C101.847 60.5944 118.923 120.864 118.923 120.864L140.109 119.73Z" fill="white"/>
<path d="M152.177 116.802H114.791C114.028 116.778 113.286 117.054 112.725 117.571C112.164 118.089 111.828 118.806 111.791 119.568C111.029 136.788 113.849 154.368 119.099 171.522H147.725C152.975 154.338 155.795 136.788 155.033 119.568C155.004 118.829 154.691 118.128 154.159 117.613C153.627 117.098 152.917 116.808 152.177 116.802Z" fill="#EBEBEB"/>
<path d="M237.219 61.3789H235.113V229.439H237.219V61.3789Z" fill="#E0E0E0"/>
<path d="M286.713 61.3789H284.607V229.439H286.713V61.3789Z" fill="#E0E0E0"/>
<path d="M222.286 61.3789H220.18V229.439H222.286V61.3789Z" fill="#EBEBEB"/>
<path d="M271.78 61.3789H269.674V229.439H271.78V61.3789Z" fill="#EBEBEB"/>
<path d="M286.714 60.2266H220.18V62.5246H286.714V60.2266Z" fill="#EBEBEB"/>
<path d="M286.714 101.383H220.18V103.681H286.714V101.383Z" fill="#EBEBEB"/>
<path d="M286.714 142.535H220.18V144.833H286.714V142.535Z" fill="#EBEBEB"/>
<path d="M286.714 183.691H220.18V185.989H286.714V183.691Z" fill="#EBEBEB"/>
<path d="M286.714 224.844H220.18V227.142H286.714V224.844Z" fill="#EBEBEB"/>
<path d="M286.713 60.2266H271.779V62.5246H286.713V60.2266Z" fill="#E0E0E0"/>
<path d="M286.713 101.383H271.779V103.681H286.713V101.383Z" fill="#E0E0E0"/>
<path d="M286.713 142.535H271.779V144.833H286.713V142.535Z" fill="#E0E0E0"/>
<path d="M286.713 183.691H271.779V185.989H286.713V183.691Z" fill="#E0E0E0"/>
<path d="M286.713 224.844H271.779V227.142H286.713V224.844Z" fill="#E0E0E0"/>
<path d="M247.017 74.2244V70.9844H239.019V74.2244C239.019 75.2402 238.616 76.2145 237.899 76.9333C237.181 77.6521 236.207 78.0568 235.191 78.0584C234.176 78.0584 233.201 78.4615 232.482 79.1792C231.764 79.8969 231.359 80.8706 231.357 81.8864V101.398H254.685V81.8864C254.684 80.8706 254.279 79.8969 253.56 79.1792C252.842 78.4615 251.867 78.0584 250.851 78.0584C249.835 78.0584 248.859 77.6544 248.14 76.9354C247.421 76.2164 247.017 75.2412 247.017 74.2244Z" fill="#F0F0F0"/>
<path d="M263.572 129.156H228.52V142.542H263.572V129.156Z" fill="#F0F0F0"/>
<path d="M263.572 142.535H269.674V129.149H263.572V142.535Z" fill="#E6E6E6"/>
<path d="M263.572 136.586H269.674V135.11H263.572V136.586Z" fill="#EBEBEB"/>
<path d="M263.572 135.109H228.52V136.585H263.572V135.109Z" fill="#F5F5F5"/>
<path d="M254.183 201.18H226.805V224.844H254.183V201.18Z" fill="#F0F0F0"/>
<path d="M254.181 224.852H258.945V201.188H254.181V224.852Z" fill="#E6E6E6"/>
<path d="M254.181 214.32H258.945V211.71H254.181V214.32Z" fill="#EBEBEB"/>
<path d="M254.183 211.711H226.805V214.321H254.183V211.711Z" fill="#F5F5F5"/>
<path d="M254.181 209.879H258.945V208.949H254.181V209.879Z" fill="#EBEBEB"/>
<path d="M254.183 208.949H226.805V209.879H254.183V208.949Z" fill="#F5F5F5"/>
<path d="M233.476 159.629H228.52V183.689H233.476V159.629Z" fill="#F0F0F0"/>
<path d="M233.476 168.203H228.52V175.115H233.476V168.203Z" fill="#FAFAFA"/>
<path d="M233.476 183.695H250.336V159.635H233.476V183.695Z" fill="#E6E6E6"/>
<path d="M241.131 156.523H235.533V183.691H241.131V156.523Z" fill="#EBEBEB"/>
<path d="M241.131 165.156H235.533V169.338H241.131V165.156Z" fill="#FAFAFA"/>
<path d="M241.131 172.141H235.533V176.323H241.131V172.141Z" fill="#FAFAFA"/>
<path d="M241.138 183.691H260.176V156.523H241.138V183.691Z" fill="#E0E0E0"/>
<path d="M247.366 159.629H244.348V183.689H247.366V159.629Z" fill="#F0F0F0"/>
<path d="M246.843 162.68H244.863V180.644H246.843V162.68Z" fill="#FAFAFA"/>
<path d="M247.359 183.695H257.613V159.635H247.359V183.695Z" fill="#E6E6E6"/>
<path d="M255.424 158.363H252.016V183.689H255.424V158.363Z" fill="#EBEBEB"/>
<path d="M255.424 166.41H252.016V170.31H255.424V166.41Z" fill="#FAFAFA"/>
<path d="M255.424 172.926H252.016V176.826H255.424V172.926Z" fill="#FAFAFA"/>
<path d="M255.424 183.691H267.004V158.365H255.424V183.691Z" fill="#E0E0E0"/>
<path d="M253.875 126.969C256.789 124.054 256.789 119.328 253.875 116.414C250.96 113.499 246.234 113.499 243.319 116.414C240.404 119.328 240.404 124.054 243.319 126.969C246.234 129.884 250.96 129.884 253.875 126.969Z" fill="#F5F5F5"/>
<path d="M257.686 129.073C260.506 128.615 262.421 125.959 261.963 123.139C261.505 120.32 258.849 118.405 256.029 118.863C253.21 119.32 251.295 121.977 251.753 124.797C252.21 127.616 254.867 129.531 257.686 129.073Z" fill="#EBEBEB"/>
<path d="M191.5 256.537C255.749 256.537 307.834 253.496 307.834 249.745C307.834 245.994 255.749 242.953 191.5 242.953C127.251 242.953 75.166 245.994 75.166 249.745C75.166 253.496 127.251 256.537 191.5 256.537Z" fill="#F5F5F5"/>
<path d="M117.166 203.215H194.23V243.001C194.23 243.511 194.13 244.015 193.935 244.486C193.739 244.957 193.453 245.385 193.093 245.746C192.733 246.106 192.305 246.392 191.834 246.587C191.363 246.782 190.858 246.883 190.348 246.883H121.048C120.538 246.883 120.033 246.782 119.562 246.587C119.091 246.392 118.664 246.106 118.303 245.746C117.943 245.385 117.657 244.957 117.462 244.486C117.266 244.015 117.166 243.511 117.166 243.001V203.215Z" fill="#2F2C9F"/>
<path d="M117.166 203.216H171.7L164.992 194.63C164.254 193.688 162.43 192.926 160.912 192.926H111.868C110.356 192.926 109.72 193.688 110.458 194.63L117.166 203.216Z" fill="#2F2C9F"/>
<path opacity="0.2" d="M117.166 203.216H171.7L164.992 194.63C164.254 193.688 162.43 192.926 160.912 192.926H111.868C110.356 192.926 109.72 193.688 110.458 194.63L117.166 203.216Z" fill="black"/>
<path d="M194.229 203.216H139.701L146.409 197.618C147.147 197.018 148.971 196.508 150.489 196.508H199.527C201.045 196.508 201.675 197.006 200.937 197.618L194.229 203.216Z" fill="#2F2C9F"/>
<path opacity="0.2" d="M139.701 203.215H194.229V243.001C194.229 243.511 194.129 244.015 193.934 244.486C193.739 244.957 193.453 245.385 193.092 245.746C192.732 246.106 192.304 246.392 191.833 246.587C191.362 246.782 190.857 246.883 190.347 246.883H143.583C143.073 246.883 142.569 246.782 142.098 246.587C141.627 246.392 141.199 246.106 140.838 245.746C140.478 245.385 140.192 244.957 139.997 244.486C139.802 244.015 139.701 243.511 139.701 243.001V203.215Z" fill="white"/>
<path opacity="0.5" d="M123.934 203.215V230.503L125.818 229.015L127.144 230.503L128.296 228.847L129.478 230.503L131.122 229.261L132.934 230.503V203.215H123.934Z" fill="white"/>
<path d="M136.131 143.687L126.441 135.551" stroke="#2F2C9F" stroke-miterlimit="10"/>
<path d="M141.153 147.906L138.201 145.422" stroke="#2F2C9F" stroke-miterlimit="10"/>
<path d="M170.183 164.932L202.151 124.978L159.587 89.2422L131.387 121.6L127.187 129.694C126.978 129.924 126.82 130.194 126.72 130.488C126.621 130.782 126.583 131.094 126.61 131.403C126.636 131.712 126.726 132.012 126.874 132.285C127.022 132.558 127.224 132.797 127.469 132.988L165.869 165.232C166.493 165.735 167.285 165.984 168.085 165.928C168.885 165.873 169.634 165.517 170.183 164.932Z" fill="#2F2C9F"/>
<path opacity="0.5" d="M148.258 135.469L143.656 142.879L145.51 143.281L146.14 144.997L147.37 145.069L147.94 146.539L149.446 146.977L150.604 148.819L155.206 141.409L148.258 135.469Z" fill="white"/>
<path opacity="0.1" d="M200.757 123.808L172.089 155.788L131.367 121.6L159.585 89.2422L200.757 123.808Z" fill="black"/>
<path d="M200.758 123.809L172.09 155.789L183.958 156.665L212.182 124.307L200.758 123.809Z" fill="#2F2C9F"/>
<path opacity="0.3" d="M200.758 123.809L172.09 155.789L183.958 156.665L212.182 124.307L200.758 123.809Z" fill="black"/>
<path d="M148.168 88.7383L119.494 120.724L131.368 121.6L159.586 89.2423L148.168 88.7383Z" fill="#2F2C9F"/>
<path opacity="0.4" d="M148.168 88.7383L119.494 120.724L131.368 121.6L159.586 89.2423L148.168 88.7383Z" fill="black"/>
<path opacity="0.1" d="M191.932 133.654L200.758 123.808L159.586 89.2422L154.318 101.938L191.932 133.654Z" fill="black"/>
<path opacity="0.2" d="M131.367 121.6L159.585 89.2422L154.317 101.938L134.445 124.186L131.367 121.6Z" fill="black"/>
<path d="M210.7 63.5993C210.814 63.9833 210.7 64.3613 210.448 64.4333C210.196 64.5053 209.902 64.2533 209.788 63.8693C209.674 63.4853 209.788 63.1073 210.04 63.0293C210.292 62.9513 210.592 63.2153 210.7 63.5993Z" fill="#263238"/>
<path d="M210.741 64.3555C210.628 65.6756 210.333 66.9739 209.865 68.2135C210.186 68.3247 210.527 68.3647 210.865 68.3305C211.203 68.2963 211.529 68.1888 211.821 68.0155L210.741 64.3555Z" fill="#ED847E"/>
<path d="M211.497 61.0364C211.548 61.0071 211.587 60.9601 211.605 60.9044C211.617 60.8753 211.622 60.8442 211.621 60.813C211.619 60.7819 211.612 60.7513 211.598 60.7232C211.585 60.695 211.566 60.67 211.542 60.6496C211.519 60.6291 211.491 60.6137 211.461 60.6044C211.11 60.4696 210.731 60.4216 210.357 60.4644C209.983 60.5072 209.625 60.6396 209.313 60.8504C209.273 60.8915 209.248 60.9459 209.245 61.0036C209.241 61.0613 209.258 61.1184 209.293 61.1643C209.328 61.2103 209.379 61.2421 209.435 61.2539C209.492 61.2656 209.551 61.2566 209.601 61.2284C209.85 61.0649 210.135 60.9633 210.431 60.932C210.728 60.9007 211.027 60.9406 211.305 61.0484C211.336 61.0597 211.369 61.0645 211.403 61.0624C211.436 61.0604 211.468 61.0515 211.497 61.0364Z" fill="#263238"/>
<path d="M224.043 66.1657C224.307 69.3457 225.093 75.1657 226.971 76.5097C226.971 76.5097 226.527 80.3317 219.771 81.3097C212.367 82.4017 215.691 78.1536 215.691 78.1536C219.585 76.5936 219.039 73.6117 217.923 70.8997L220.779 67.6237C221.877 66.4117 223.899 64.5397 224.043 66.1657Z" fill="#FFC3BD"/>
<path d="M229.39 78.0645C229.99 77.5185 228.79 75.3345 228.052 75.0285C226.12 74.2185 218.218 75.0285 215.248 77.5785C215.001 78.0004 214.853 78.4721 214.812 78.959C214.772 79.4459 214.84 79.9357 215.014 80.3925L229.39 78.0645Z" fill="white"/>
<path d="M254.554 238.447C254.359 238.536 254.148 238.585 253.934 238.591C253.719 238.597 253.506 238.56 253.306 238.483C253.227 238.42 253.169 238.335 253.14 238.238C253.111 238.142 253.112 238.039 253.144 237.943C253.16 237.864 253.193 237.79 253.241 237.726C253.288 237.662 253.349 237.609 253.42 237.571C254.068 237.193 255.67 237.691 255.736 237.715C255.758 237.721 255.778 237.733 255.793 237.75C255.808 237.767 255.817 237.788 255.82 237.811C255.823 237.835 255.819 237.859 255.808 237.88C255.798 237.901 255.781 237.919 255.76 237.931C255.376 238.143 254.972 238.316 254.554 238.447ZM253.678 237.715L253.54 237.775C253.499 237.797 253.463 237.828 253.435 237.865C253.407 237.902 253.388 237.945 253.378 237.991C253.336 238.207 253.42 238.273 253.444 238.291C253.732 238.495 254.71 238.201 255.388 237.859C254.835 237.685 254.252 237.636 253.678 237.715Z" fill="#2F2C9F"/>
<path d="M255.736 237.933C255.717 237.939 255.696 237.939 255.676 237.933C255.076 237.813 253.822 237.063 253.756 236.499C253.747 236.411 253.768 236.321 253.818 236.247C253.867 236.172 253.941 236.117 254.026 236.091C254.109 236.054 254.199 236.035 254.29 236.035C254.381 236.035 254.471 236.054 254.554 236.091C255.25 236.379 255.79 237.723 255.808 237.777C255.82 237.795 255.826 237.816 255.826 237.837C255.826 237.859 255.82 237.88 255.808 237.897C255.8 237.909 255.789 237.918 255.776 237.924C255.764 237.93 255.75 237.933 255.736 237.933ZM254.176 236.295C254.158 236.29 254.14 236.29 254.122 236.295C253.984 236.355 253.99 236.427 253.996 236.457C254.032 236.793 254.884 237.399 255.49 237.621C255.31 237.231 254.89 236.475 254.464 236.295C254.371 236.26 254.269 236.26 254.176 236.295Z" fill="#2F2C9F"/>
<path d="M219.389 244.888C218.747 244.888 218.129 244.798 217.919 244.51C217.865 244.435 217.836 244.344 217.836 244.252C217.836 244.159 217.865 244.069 217.919 243.994C217.959 243.924 218.012 243.864 218.076 243.815C218.14 243.767 218.213 243.732 218.291 243.712C219.125 243.49 220.877 244.486 220.949 244.528C220.971 244.539 220.989 244.556 221 244.578C221.012 244.6 221.016 244.625 221.012 244.649C221.008 244.674 220.996 244.696 220.978 244.713C220.96 244.73 220.937 244.741 220.913 244.744C220.41 244.838 219.9 244.886 219.389 244.888ZM218.597 243.916C218.519 243.913 218.442 243.923 218.369 243.946C218.272 243.967 218.189 244.025 218.135 244.108C218.051 244.258 218.081 244.33 218.135 244.372C218.369 244.696 219.635 244.702 220.535 244.57C219.937 244.229 219.279 244.007 218.597 243.916Z" fill="#2F2C9F"/>
<path d="M220.9 244.751H220.852C220.252 244.481 219.052 243.395 219.142 242.831C219.142 242.699 219.262 242.531 219.586 242.501C219.703 242.488 219.821 242.5 219.934 242.535C220.046 242.57 220.151 242.628 220.24 242.705C220.882 243.227 221.014 244.577 221.02 244.631C221.023 244.652 221.02 244.673 221.012 244.693C221.003 244.712 220.989 244.728 220.972 244.739C220.949 244.751 220.924 244.755 220.9 244.751ZM219.7 242.723H219.628C219.412 242.723 219.4 242.831 219.394 242.855C219.34 243.197 220.156 244.055 220.768 244.421C220.715 243.849 220.484 243.307 220.108 242.873C219.995 242.774 219.849 242.721 219.7 242.723Z" fill="#2F2C9F"/>
<path d="M226.408 244.631H221.398L220.9 233.039H225.91L226.408 244.631Z" fill="#FFC3BD"/>
<path d="M261.597 236.719L256.983 238.309L252.195 227.383L256.809 225.793L261.597 236.719Z" fill="#FFC3BD"/>
<path d="M255.886 237.161L261.286 235.511C261.382 235.482 261.485 235.486 261.577 235.524C261.67 235.561 261.747 235.628 261.796 235.715L264.046 239.675C264.1 239.772 264.132 239.88 264.139 239.991C264.145 240.102 264.127 240.212 264.085 240.315C264.043 240.418 263.978 240.509 263.895 240.584C263.813 240.658 263.715 240.712 263.608 240.743C261.718 241.289 260.776 241.457 258.412 242.183C256.954 242.627 253.282 244.019 251.212 244.433C249.142 244.847 248.476 242.867 249.28 242.513C252.88 240.923 254.356 239.117 255.214 237.713C255.364 237.454 255.603 237.258 255.886 237.161Z" fill="#263238"/>
<path d="M221.434 244.051H226.9C226.999 244.052 227.095 244.087 227.172 244.149C227.249 244.21 227.303 244.296 227.326 244.393L228.316 248.845C228.341 248.952 228.341 249.064 228.316 249.171C228.291 249.278 228.242 249.379 228.172 249.464C228.103 249.55 228.015 249.618 227.915 249.665C227.815 249.711 227.706 249.735 227.596 249.733C225.622 249.703 222.796 249.583 220.294 249.583C217.396 249.583 216.178 249.745 212.776 249.745C210.724 249.745 210.154 247.669 211.012 247.477C214.93 246.619 216.844 246.529 220.228 244.441C220.587 244.203 221.004 244.068 221.434 244.051Z" fill="#263238"/>
<path d="M235.984 79.7031C237.442 81.0411 238.702 82.3791 240.01 83.7771C241.318 85.1751 242.53 86.6211 243.706 88.1631C244.935 89.7297 246.049 91.3819 247.042 93.1071C247.585 94.0581 248.054 95.0489 248.446 96.0711C248.548 96.3531 248.65 96.6231 248.734 96.9291C248.833 97.2386 248.915 97.5531 248.98 97.8711L249.082 98.3691L249.154 98.9211C249.222 99.4269 249.222 99.9393 249.154 100.445C249.017 101.4 248.664 102.311 248.122 103.109C247.727 103.692 247.264 104.226 246.742 104.699C245.904 105.46 244.987 106.13 244.006 106.697C242.28 107.685 240.474 108.526 238.606 109.211C235.064 110.526 231.415 111.53 227.698 112.211L226.648 108.611C229.906 107.201 233.206 105.677 236.248 104.051C237.729 103.274 239.155 102.396 240.514 101.423C241.081 101.021 241.602 100.558 242.068 100.043C242.21 99.8909 242.329 99.7192 242.422 99.5331C242.47 99.4311 242.422 99.4431 242.362 99.6591C242.32 100.061 242.326 99.7491 242.23 99.5331C242.2 99.4311 242.146 99.2931 242.092 99.1611C242.038 99.0291 241.972 98.8791 241.906 98.7351C241.581 98.0808 241.219 97.4457 240.82 96.8331C239.894 95.4573 238.892 94.1333 237.82 92.8671C236.716 91.5591 235.552 90.2571 234.358 88.9791C233.164 87.7011 231.91 86.4111 230.758 85.2231L235.984 79.7031Z" fill="#FFC3BD"/>
<path d="M228.023 108.043L223.301 109.471L226.337 114.463C226.337 114.463 229.127 113.311 229.745 110.941L228.023 108.043Z" fill="#FFC3BD"/>
<path d="M221.393 111.239L223.253 115.355L226.307 114.467L223.271 109.469L221.393 111.239Z" fill="#FFC3BD"/>
<path d="M224.921 81.0586C224.471 85.8586 234.623 93.2866 234.623 93.2866L244.397 86.5966C242.699 83.4663 240.219 80.8303 237.197 78.9466C231.593 75.3586 225.485 75.0946 224.921 81.0586Z" fill="#2F2C9F"/>
<g opacity="0.3">
<path d="M224.921 81.0586C224.471 85.8586 234.623 93.2866 234.623 93.2866L244.397 86.5966C242.699 83.4663 240.219 80.8303 237.197 78.9466C231.593 75.3586 225.485 75.0946 224.921 81.0586Z" fill="white"/>
</g>
<path d="M208.299 80.6746C208.299 80.6746 203.913 87.4066 214.329 123.515L240.813 119.603C240.441 115.943 236.013 99.9765 235.863 82.5225C235.857 81.6797 235.68 80.8468 235.344 80.0741C235.007 79.3014 234.517 78.6051 233.903 78.027C233.29 77.4489 232.566 77.001 231.774 76.7105C230.983 76.42 230.141 76.2928 229.299 76.3366C228.531 76.3786 227.739 76.4325 226.953 76.5105C223.173 76.8476 219.414 77.4026 215.697 78.1725C213.171 78.8154 210.698 79.6519 208.299 80.6746Z" fill="#2F2C9F"/>
<g opacity="0.3">
<path d="M208.299 80.6746C208.299 80.6746 203.913 87.4066 214.329 123.515L240.813 119.603C240.441 115.943 236.013 99.9765 235.863 82.5225C235.857 81.6797 235.68 80.8468 235.344 80.0741C235.007 79.3014 234.517 78.6051 233.903 78.027C233.29 77.4489 232.566 77.001 231.774 76.7105C230.983 76.42 230.141 76.2928 229.299 76.3366C228.531 76.3786 227.739 76.4325 226.953 76.5105C223.173 76.8476 219.414 77.4026 215.697 78.1725C213.171 78.8154 210.698 79.6519 208.299 80.6746Z" fill="white"/>
</g>
<path opacity="0.2" d="M207.652 92.2778L207.742 92.1758L213.97 92.7278C214.918 96.7478 211.45 102.232 209.62 104.776C208.739 100.648 208.082 96.4762 207.652 92.2778Z" fill="black"/>
<path opacity="0.2" d="M220.9 233.047L221.158 239.023H226.168L225.91 233.047H220.9Z" fill="black"/>
<path opacity="0.2" d="M256.809 225.793L252.195 227.383L254.667 233.017L259.281 231.427L256.809 225.793Z" fill="black"/>
<path d="M223.39 58.9931C224.494 63.8351 225.382 66.6131 223.696 69.7931C221.164 74.5271 214.648 74.0711 212.122 69.6551C209.848 65.6771 208.42 58.4291 212.524 55.1651C213.423 54.443 214.492 53.9622 215.629 53.7684C216.766 53.5745 217.934 53.6739 219.022 54.0571C220.109 54.4403 221.082 55.0948 221.846 55.9585C222.61 56.8222 223.142 57.8667 223.39 58.9931Z" fill="#FFC3BD"/>
<path d="M213.664 63.7352L211.822 64.8632L211.996 58.5632C210.808 58.6142 209.637 58.2749 208.66 57.5972C209.326 56.9612 219.694 53.3312 222.928 53.9612C223.264 53.8232 223.672 53.1992 223.672 53.1992C223.672 53.1992 223.798 53.9852 223.252 54.2852C223.648 54.2072 224.638 54.3992 224.914 54.9812C224.46 54.8572 223.977 54.8845 223.54 55.0592C223.54 55.0592 227.14 55.6052 225.862 60.5972C224.428 66.0992 224.902 69.2612 224.902 69.2612C224.902 69.2612 222.226 71.3312 219.898 70.9472C217.414 68.2112 213.826 64.9232 213.664 63.7352Z" fill="#263238"/>
<path d="M210.136 57.0998C207.214 57.0998 206.164 55.6718 205.414 54.4718C207.514 54.2498 211.888 52.8998 215.134 52.6718C218.38 52.4438 221.938 53.0498 220.864 54.4718C219.79 55.8938 210.136 57.0998 210.136 57.0998Z" fill="#263238"/>
<path d="M210.779 55.7992C208.379 55.4632 206.039 53.2012 207.839 51.0352C208.505 52.6252 212.999 52.4392 216.191 51.7732C220.391 50.8972 223.301 52.3132 221.813 55.1752C220.997 56.7412 210.779 55.7992 210.779 55.7992Z" fill="#263238"/>
<path d="M216.257 62.3043C216.6 63.4891 216.546 64.7538 216.101 65.9043C215.501 67.4103 214.169 67.1043 213.473 65.8023C212.873 64.6023 212.417 62.4244 213.437 61.3384C214.457 60.2524 215.825 60.8823 216.257 62.3043Z" fill="#FFC3BD"/>
<path d="M223.727 122.128C223.727 122.128 228.023 158.698 231.143 173.026C234.557 188.722 251.399 231.514 251.399 231.514L259.799 228.61C259.799 228.61 248.999 196.39 246.131 174.448C243.929 157.6 240.791 119.602 240.791 119.602L223.727 122.128Z" fill="#263238"/>
<path d="M249.251 228.827C249.209 228.827 250.973 232.427 250.973 232.427L260.783 229.241L259.631 226.312L249.251 228.827Z" fill="#2F2C9F"/>
<path opacity="0.3" d="M226.096 140.891C227.44 151.055 229.162 163.091 230.674 170.777C232.9 158.999 233.422 144.125 226.096 140.891Z" fill="black"/>
<path d="M214.33 123.513C214.33 123.513 210.766 157.869 211.33 173.133C211.894 189.009 219.31 237.861 219.31 237.861H227.788C227.788 237.861 226.228 189.933 226.588 174.345C227.002 157.347 233.374 120.699 233.374 120.699L214.33 123.513Z" fill="#263238"/>
<path d="M217.66 234.484C217.624 234.484 218.14 238 218.14 238H228.454L228.736 234.862L217.66 234.484Z" fill="#2F2C9F"/>
<path d="M212.686 89.1115C211.75 90.5995 210.802 91.9375 209.818 93.3115C208.834 94.6855 207.802 96.0115 206.752 97.3315C204.612 100.009 202.292 102.539 199.81 104.904C199.138 105.504 198.52 106.104 197.794 106.65L197.266 107.076L197.002 107.286C196.906 107.364 196.864 107.406 196.666 107.55C196.072 107.974 195.419 108.309 194.728 108.546C193.658 108.911 192.54 109.113 191.41 109.146C190.454 109.178 189.497 109.135 188.548 109.02C185.078 108.565 181.692 107.606 178.498 106.176L179.536 102.576C182.606 102.94 185.697 103.088 188.788 103.02C189.472 102.984 190.153 102.91 190.828 102.798C191.337 102.723 191.831 102.569 192.292 102.342C192.436 102.264 192.514 102.186 192.496 102.168C192.478 102.15 192.574 102.09 192.628 102.036L192.832 101.85L193.234 101.472C193.774 100.992 194.284 100.41 194.812 99.8815C195.85 98.7655 196.882 97.6195 197.86 96.4015C198.838 95.1835 199.828 93.9595 200.788 92.6995C201.748 91.4395 202.678 90.1615 203.614 88.8835C204.55 87.6055 205.462 86.2615 206.326 85.0195L212.686 89.1115Z" fill="#FFC3BD"/>
<path d="M216.173 87.5221C218.189 94.1221 206.483 101.436 206.483 101.436L198.875 91.7461C200.59 88.551 202.707 85.5889 205.175 82.9321C210.353 77.2981 214.637 82.5001 216.173 87.5221Z" fill="#2F2C9F"/>
<g opacity="0.3">
<path d="M216.173 87.5221C218.189 94.1221 206.483 101.436 206.483 101.436L198.875 91.7461C200.59 88.551 202.707 85.5889 205.175 82.9321C210.353 77.2981 214.637 82.5001 216.173 87.5221Z" fill="white"/>
</g>
<path d="M181.301 102.796L175.139 101.668L175.787 106.996C175.787 106.996 178.991 108.796 181.313 105.982L181.301 102.796Z" fill="#FFC3BD"/>
<path d="M172.762 102.868L174.094 106.714L175.774 106.996L175.126 101.668L172.762 102.868Z" fill="#FFC3BD"/>
</g>
<path d="M1.48101 315V305.284H2.40501L2.79701 306.81V315H1.48101ZM8.20101 315L2.23701 307.034L2.40501 305.284L8.38301 313.236L8.20101 315ZM8.20101 315L7.80901 313.558V305.284H9.12501V315H8.20101ZM14.2345 315.14C13.5811 315.14 12.9931 314.986 12.4705 314.678C11.9478 314.37 11.5325 313.955 11.2245 313.432C10.9165 312.9 10.7625 312.307 10.7625 311.654C10.7625 311.01 10.9165 310.431 11.2245 309.918C11.5325 309.395 11.9478 308.98 12.4705 308.672C12.9931 308.364 13.5811 308.21 14.2345 308.21C14.8785 308.21 15.4618 308.364 15.9845 308.672C16.5165 308.971 16.9365 309.381 17.2445 309.904C17.5525 310.427 17.7065 311.01 17.7065 311.654C17.7065 312.307 17.5525 312.9 17.2445 313.432C16.9365 313.955 16.5165 314.37 15.9845 314.678C15.4618 314.986 14.8785 315.14 14.2345 315.14ZM14.2345 313.922C14.6545 313.922 15.0278 313.824 15.3545 313.628C15.6811 313.432 15.9378 313.166 16.1245 312.83C16.3111 312.485 16.4045 312.093 16.4045 311.654C16.4045 311.225 16.3065 310.842 16.1105 310.506C15.9238 310.17 15.6671 309.909 15.3405 309.722C15.0231 309.526 14.6545 309.428 14.2345 309.428C13.8145 309.428 13.4411 309.526 13.1145 309.722C12.7878 309.909 12.5311 310.17 12.3445 310.506C12.1578 310.842 12.0645 311.225 12.0645 311.654C12.0645 312.093 12.1578 312.485 12.3445 312.83C12.5311 313.166 12.7878 313.432 13.1145 313.628C13.4411 313.824 13.8145 313.922 14.2345 313.922ZM21.1983 317.926C20.7689 317.926 20.4096 317.856 20.1203 317.716C19.8216 317.576 19.5556 317.375 19.3223 317.114L20.1343 316.288C20.2649 316.447 20.4096 316.563 20.5683 316.638C20.7176 316.713 20.8996 316.75 21.1143 316.75C21.3943 316.75 21.6369 316.661 21.8423 316.484C22.0476 316.316 22.1503 316.059 22.1503 315.714V308.35H23.4103V315.7C23.4103 316.185 23.3076 316.591 23.1023 316.918C22.8969 317.245 22.6263 317.492 22.2903 317.66C21.9543 317.837 21.5903 317.926 21.1983 317.926ZM22.7943 307.02C22.5703 307.02 22.3836 306.945 22.2343 306.796C22.0849 306.637 22.0103 306.441 22.0103 306.208C22.0103 305.984 22.0849 305.797 22.2343 305.648C22.3836 305.489 22.5703 305.41 22.7943 305.41C23.0276 305.41 23.2189 305.489 23.3683 305.648C23.5176 305.797 23.5923 305.984 23.5923 306.208C23.5923 306.441 23.5176 306.637 23.3683 306.796C23.2189 306.945 23.0276 307.02 22.7943 307.02ZM28.3028 315.14C27.6495 315.14 27.0615 314.986 26.5388 314.678C26.0162 314.37 25.6008 313.955 25.2928 313.432C24.9848 312.9 24.8308 312.307 24.8308 311.654C24.8308 311.01 24.9848 310.431 25.2928 309.918C25.6008 309.395 26.0162 308.98 26.5388 308.672C27.0615 308.364 27.6495 308.21 28.3028 308.21C28.9468 308.21 29.5302 308.364 30.0528 308.672C30.5848 308.971 31.0048 309.381 31.3128 309.904C31.6208 310.427 31.7748 311.01 31.7748 311.654C31.7748 312.307 31.6208 312.9 31.3128 313.432C31.0048 313.955 30.5848 314.37 30.0528 314.678C29.5302 314.986 28.9468 315.14 28.3028 315.14ZM28.3028 313.922C28.7228 313.922 29.0962 313.824 29.4228 313.628C29.7495 313.432 30.0062 313.166 30.1928 312.83C30.3795 312.485 30.4728 312.093 30.4728 311.654C30.4728 311.225 30.3748 310.842 30.1788 310.506C29.9922 310.17 29.7355 309.909 29.4088 309.722C29.0915 309.526 28.7228 309.428 28.3028 309.428C27.8828 309.428 27.5095 309.526 27.1828 309.722C26.8562 309.909 26.5995 310.17 26.4128 310.506C26.2262 310.842 26.1328 311.225 26.1328 311.654C26.1328 312.093 26.2262 312.485 26.4128 312.83C26.5995 313.166 26.8562 313.432 27.1828 313.628C27.5095 313.824 27.8828 313.922 28.3028 313.922ZM36.6945 315.14C36.1905 315.14 35.7332 315.037 35.3225 314.832C34.9212 314.617 34.5992 314.323 34.3565 313.95C34.1138 313.577 33.9785 313.152 33.9505 312.676V310.674C33.9785 310.189 34.1138 309.764 34.3565 309.4C34.6085 309.027 34.9352 308.737 35.3365 308.532C35.7472 308.317 36.1998 308.21 36.6945 308.21C37.3012 308.21 37.8472 308.364 38.3325 308.672C38.8272 308.98 39.2145 309.395 39.4945 309.918C39.7745 310.441 39.9145 311.029 39.9145 311.682C39.9145 312.335 39.7745 312.923 39.4945 313.446C39.2145 313.969 38.8272 314.384 38.3325 314.692C37.8472 314.991 37.3012 315.14 36.6945 315.14ZM36.4845 313.95C36.9045 313.95 37.2732 313.852 37.5905 313.656C37.9078 313.46 38.1598 313.194 38.3465 312.858C38.5332 312.513 38.6265 312.116 38.6265 311.668C38.6265 311.229 38.5332 310.837 38.3465 310.492C38.1598 310.147 37.9078 309.881 37.5905 309.694C37.2732 309.498 36.9092 309.4 36.4985 309.4C36.0785 309.4 35.7098 309.498 35.3925 309.694C35.0752 309.881 34.8278 310.147 34.6505 310.492C34.4732 310.837 34.3845 311.234 34.3845 311.682C34.3845 312.121 34.4685 312.513 34.6365 312.858C34.8138 313.194 35.0612 313.46 35.3785 313.656C35.7052 313.852 36.0738 313.95 36.4845 313.95ZM33.1945 315V305.004H34.4545V309.974L34.2165 311.584L34.4545 313.208V315H33.1945ZM43.4569 315.14C43.0836 315.14 42.7289 315.093 42.3929 315C42.0663 314.897 41.7629 314.757 41.4829 314.58C41.2029 314.393 40.9603 314.174 40.7549 313.922L41.5669 313.11C41.8096 313.409 42.0896 313.633 42.4069 313.782C42.7243 313.922 43.0789 313.992 43.4709 313.992C43.8629 313.992 44.1663 313.927 44.3809 313.796C44.5956 313.656 44.7029 313.465 44.7029 313.222C44.7029 312.979 44.6143 312.793 44.4369 312.662C44.2689 312.522 44.0496 312.41 43.7789 312.326C43.5083 312.233 43.2189 312.144 42.9109 312.06C42.6123 311.967 42.3276 311.85 42.0569 311.71C41.7863 311.57 41.5623 311.379 41.3849 311.136C41.2169 310.893 41.1329 310.571 41.1329 310.17C41.1329 309.769 41.2309 309.423 41.4269 309.134C41.6229 308.835 41.8936 308.607 42.2389 308.448C42.5936 308.289 43.0183 308.21 43.5129 308.21C44.0356 308.21 44.4976 308.303 44.8989 308.49C45.3096 308.667 45.6456 308.938 45.9069 309.302L45.0949 310.114C44.9083 309.871 44.6749 309.685 44.3949 309.554C44.1243 309.423 43.8163 309.358 43.4709 309.358C43.1069 309.358 42.8269 309.423 42.6309 309.554C42.4443 309.675 42.3509 309.848 42.3509 310.072C42.3509 310.296 42.4349 310.469 42.6029 310.59C42.7709 310.711 42.9903 310.814 43.2609 310.898C43.5409 310.982 43.8303 311.071 44.1289 311.164C44.4276 311.248 44.7123 311.365 44.9829 311.514C45.2536 311.663 45.4729 311.864 45.6409 312.116C45.8183 312.368 45.9069 312.699 45.9069 313.11C45.9069 313.735 45.6829 314.23 45.2349 314.594C44.7963 314.958 44.2036 315.14 43.4569 315.14ZM51.2517 315V305.564H52.5117V315H51.2517ZM49.6137 309.498V308.35H54.1497V309.498H49.6137ZM58.2169 315.14C57.5635 315.14 56.9755 314.986 56.4529 314.678C55.9302 314.37 55.5149 313.955 55.2069 313.432C54.8989 312.9 54.7449 312.307 54.7449 311.654C54.7449 311.01 54.8989 310.431 55.2069 309.918C55.5149 309.395 55.9302 308.98 56.4529 308.672C56.9755 308.364 57.5635 308.21 58.2169 308.21C58.8609 308.21 59.4442 308.364 59.9669 308.672C60.4989 308.971 60.9189 309.381 61.2269 309.904C61.5349 310.427 61.6889 311.01 61.6889 311.654C61.6889 312.307 61.5349 312.9 61.2269 313.432C60.9189 313.955 60.4989 314.37 59.9669 314.678C59.4442 314.986 58.8609 315.14 58.2169 315.14ZM58.2169 313.922C58.6369 313.922 59.0102 313.824 59.3369 313.628C59.6635 313.432 59.9202 313.166 60.1069 312.83C60.2935 312.485 60.3869 312.093 60.3869 311.654C60.3869 311.225 60.2889 310.842 60.0929 310.506C59.9062 310.17 59.6495 309.909 59.3229 309.722C59.0055 309.526 58.6369 309.428 58.2169 309.428C57.7969 309.428 57.4235 309.526 57.0969 309.722C56.7702 309.909 56.5135 310.17 56.3269 310.506C56.1402 310.842 56.0469 311.225 56.0469 311.654C56.0469 312.093 56.1402 312.485 56.3269 312.83C56.5135 313.166 56.7702 313.432 57.0969 313.628C57.4235 313.824 57.7969 313.922 58.2169 313.922ZM68.8347 315.14C68.2187 315.14 67.668 314.991 67.1827 314.692C66.6973 314.384 66.31 313.969 66.0207 313.446C65.7407 312.923 65.6007 312.335 65.6007 311.682C65.6007 311.029 65.7407 310.441 66.0207 309.918C66.31 309.395 66.6973 308.98 67.1827 308.672C67.668 308.364 68.2187 308.21 68.8347 308.21C69.3293 308.21 69.7773 308.317 70.1787 308.532C70.58 308.737 70.902 309.027 71.1447 309.4C71.3967 309.764 71.5367 310.189 71.5647 310.674V312.676C71.5367 313.152 71.4013 313.577 71.1587 313.95C70.916 314.323 70.594 314.617 70.1927 314.832C69.7913 315.037 69.3387 315.14 68.8347 315.14ZM69.0447 313.95C69.4647 313.95 69.8287 313.852 70.1367 313.656C70.454 313.46 70.7013 313.194 70.8787 312.858C71.056 312.513 71.1447 312.121 71.1447 311.682C71.1447 311.225 71.0513 310.828 70.8647 310.492C70.6873 310.156 70.44 309.89 70.1227 309.694C69.8147 309.498 69.4507 309.4 69.0307 309.4C68.6107 309.4 68.242 309.498 67.9247 309.694C67.6073 309.89 67.3553 310.161 67.1687 310.506C66.9913 310.842 66.9027 311.229 66.9027 311.668C66.9027 312.116 66.9913 312.513 67.1687 312.858C67.3553 313.194 67.6073 313.46 67.9247 313.656C68.2513 313.852 68.6247 313.95 69.0447 313.95ZM72.3347 315H71.0607V313.208L71.2987 311.584L71.0607 309.974V305.004H72.3347V315ZM74.1831 315V308.35H75.4431V315H74.1831ZM74.8131 307.02C74.5798 307.02 74.3885 306.945 74.2391 306.796C74.0898 306.637 74.0151 306.441 74.0151 306.208C74.0151 305.984 74.0898 305.797 74.2391 305.648C74.3885 305.489 74.5798 305.41 74.8131 305.41C75.0465 305.41 75.2378 305.489 75.3871 305.648C75.5365 305.797 75.6111 305.984 75.6111 306.208C75.6111 306.441 75.5365 306.637 75.3871 306.796C75.2378 306.945 75.0465 307.02 74.8131 307.02ZM79.414 315.14C79.0406 315.14 78.686 315.093 78.35 315C78.0233 314.897 77.72 314.757 77.44 314.58C77.16 314.393 76.9173 314.174 76.712 313.922L77.524 313.11C77.7666 313.409 78.0466 313.633 78.364 313.782C78.6813 313.922 79.036 313.992 79.428 313.992C79.82 313.992 80.1233 313.927 80.338 313.796C80.5526 313.656 80.66 313.465 80.66 313.222C80.66 312.979 80.5713 312.793 80.394 312.662C80.226 312.522 80.0066 312.41 79.736 312.326C79.4653 312.233 79.176 312.144 78.868 312.06C78.5693 311.967 78.2846 311.85 78.014 311.71C77.7433 311.57 77.5193 311.379 77.342 311.136C77.174 310.893 77.09 310.571 77.09 310.17C77.09 309.769 77.188 309.423 77.384 309.134C77.58 308.835 77.8506 308.607 78.196 308.448C78.5506 308.289 78.9753 308.21 79.47 308.21C79.9926 308.21 80.4546 308.303 80.856 308.49C81.2666 308.667 81.6026 308.938 81.864 309.302L81.052 310.114C80.8653 309.871 80.632 309.685 80.352 309.554C80.0813 309.423 79.7733 309.358 79.428 309.358C79.064 309.358 78.784 309.423 78.588 309.554C78.4013 309.675 78.308 309.848 78.308 310.072C78.308 310.296 78.392 310.469 78.56 310.59C78.728 310.711 78.9473 310.814 79.218 310.898C79.498 310.982 79.7873 311.071 80.086 311.164C80.3846 311.248 80.6693 311.365 80.94 311.514C81.2106 311.663 81.43 311.864 81.598 312.116C81.7753 312.368 81.864 312.699 81.864 313.11C81.864 313.735 81.64 314.23 81.192 314.594C80.7533 314.958 80.1606 315.14 79.414 315.14ZM86.7746 315.14C86.2706 315.14 85.8133 315.037 85.4026 314.832C85.0013 314.617 84.6793 314.323 84.4366 313.95C84.1939 313.577 84.0586 313.152 84.0306 312.676V310.674C84.0586 310.189 84.1939 309.764 84.4366 309.4C84.6886 309.027 85.0153 308.737 85.4166 308.532C85.8273 308.317 86.2799 308.21 86.7746 308.21C87.3813 308.21 87.9273 308.364 88.4126 308.672C88.9073 308.98 89.2946 309.395 89.5746 309.918C89.8546 310.441 89.9946 311.029 89.9946 311.682C89.9946 312.335 89.8546 312.923 89.5746 313.446C89.2946 313.969 88.9073 314.384 88.4126 314.692C87.9273 314.991 87.3813 315.14 86.7746 315.14ZM86.5646 313.95C86.9846 313.95 87.3533 313.852 87.6706 313.656C87.9879 313.46 88.2399 313.194 88.4266 312.858C88.6133 312.513 88.7066 312.116 88.7066 311.668C88.7066 311.229 88.6133 310.837 88.4266 310.492C88.2399 310.147 87.9879 309.881 87.6706 309.694C87.3533 309.498 86.9893 309.4 86.5786 309.4C86.1586 309.4 85.7899 309.498 85.4726 309.694C85.1553 309.881 84.9079 310.147 84.7306 310.492C84.5533 310.837 84.4646 311.234 84.4646 311.682C84.4646 312.121 84.5486 312.513 84.7166 312.858C84.8939 313.194 85.1413 313.46 85.4586 313.656C85.7853 313.852 86.1539 313.95 86.5646 313.95ZM83.2746 317.786V308.35H84.5346V310.1L84.2966 311.71L84.5346 313.334V317.786H83.2746ZM91.423 315V305.004H92.683V315H91.423ZM97.3545 315.14C96.7479 315.14 96.1972 314.991 95.7025 314.692C95.2079 314.384 94.8159 313.969 94.5265 313.446C94.2465 312.923 94.1065 312.335 94.1065 311.682C94.1065 311.029 94.2465 310.441 94.5265 309.918C94.8159 309.395 95.2032 308.98 95.6885 308.672C96.1832 308.364 96.7385 308.21 97.3545 308.21C97.8585 308.21 98.3065 308.317 98.6985 308.532C99.0999 308.737 99.4219 309.027 99.6645 309.4C99.9072 309.764 100.043 310.189 100.071 310.674V312.676C100.043 313.152 99.9072 313.577 99.6645 313.95C99.4312 314.323 99.1139 314.617 98.7125 314.832C98.3205 315.037 97.8679 315.14 97.3545 315.14ZM97.5645 313.95C98.1899 313.95 98.6939 313.74 99.0765 313.32C99.4592 312.891 99.6505 312.345 99.6505 311.682C99.6505 311.225 99.5619 310.828 99.3845 310.492C99.2165 310.147 98.9739 309.881 98.6565 309.694C98.3392 309.498 97.9705 309.4 97.5505 309.4C97.1305 309.4 96.7572 309.498 96.4305 309.694C96.1132 309.89 95.8612 310.161 95.6745 310.506C95.4972 310.842 95.4085 311.229 95.4085 311.668C95.4085 312.116 95.4972 312.513 95.6745 312.858C95.8612 313.194 96.1179 313.46 96.4445 313.656C96.7712 313.852 97.1445 313.95 97.5645 313.95ZM99.5665 315V313.208L99.8045 311.584L99.5665 309.974V308.35H100.841V315H99.5665ZM104.859 315.056L101.975 308.35H103.375L105.517 313.6H105.069L107.323 308.35H108.723L105.615 315.056H104.859ZM102.955 317.786L104.915 313.768L105.615 315.056L104.355 317.786H102.955ZM110.244 311.92L110.062 305.004H111.406L111.224 311.92H110.244ZM110.72 315.14C110.459 315.14 110.244 315.051 110.076 314.874C109.908 314.697 109.824 314.477 109.824 314.216C109.824 313.955 109.908 313.74 110.076 313.572C110.244 313.395 110.459 313.306 110.72 313.306C110.991 313.306 111.21 313.395 111.378 313.572C111.546 313.74 111.63 313.955 111.63 314.216C111.63 314.477 111.546 314.697 111.378 314.874C111.21 315.051 110.991 315.14 110.72 315.14ZM119.131 315L115.953 305.284H117.269L119.789 313.208H119.411L121.889 305.284H122.841L125.319 313.208H124.955L127.475 305.284H128.777L125.613 315H124.675L122.183 307.09H122.547L120.069 315H119.131ZM134.873 315V311.122C134.873 310.618 134.714 310.203 134.397 309.876C134.08 309.549 133.669 309.386 133.165 309.386C132.829 309.386 132.53 309.461 132.269 309.61C132.008 309.759 131.802 309.965 131.653 310.226C131.504 310.487 131.429 310.786 131.429 311.122L130.911 310.828C130.911 310.324 131.023 309.876 131.247 309.484C131.471 309.092 131.784 308.784 132.185 308.56C132.586 308.327 133.039 308.21 133.543 308.21C134.047 308.21 134.49 308.322 134.873 308.546C135.265 308.77 135.573 309.083 135.797 309.484C136.021 309.885 136.133 310.347 136.133 310.87V315H134.873ZM130.169 315V305.004H131.429V315H130.169ZM140.919 315.14C140.256 315.14 139.659 314.991 139.127 314.692C138.595 314.384 138.175 313.969 137.867 313.446C137.559 312.923 137.405 312.331 137.405 311.668C137.405 311.015 137.554 310.427 137.853 309.904C138.161 309.381 138.572 308.971 139.085 308.672C139.608 308.364 140.191 308.21 140.835 308.21C141.451 308.21 141.992 308.35 142.459 308.63C142.935 308.91 143.304 309.297 143.565 309.792C143.836 310.287 143.971 310.847 143.971 311.472C143.971 311.565 143.966 311.668 143.957 311.78C143.948 311.883 143.929 312.004 143.901 312.144H138.287V311.094H143.229L142.767 311.5C142.767 311.052 142.688 310.674 142.529 310.366C142.37 310.049 142.146 309.806 141.857 309.638C141.568 309.461 141.218 309.372 140.807 309.372C140.378 309.372 140 309.465 139.673 309.652C139.346 309.839 139.094 310.1 138.917 310.436C138.74 310.772 138.651 311.169 138.651 311.626C138.651 312.093 138.744 312.503 138.931 312.858C139.118 313.203 139.384 313.474 139.729 313.67C140.074 313.857 140.471 313.95 140.919 313.95C141.292 313.95 141.633 313.885 141.941 313.754C142.258 313.623 142.529 313.427 142.753 313.166L143.565 313.992C143.248 314.365 142.856 314.65 142.389 314.846C141.932 315.042 141.442 315.14 140.919 315.14ZM150.049 315V311.122C150.049 310.618 149.89 310.203 149.573 309.876C149.256 309.549 148.845 309.386 148.341 309.386C148.005 309.386 147.706 309.461 147.445 309.61C147.184 309.759 146.978 309.965 146.829 310.226C146.68 310.487 146.605 310.786 146.605 311.122L146.087 310.828C146.087 310.324 146.199 309.876 146.423 309.484C146.647 309.092 146.96 308.784 147.361 308.56C147.762 308.327 148.215 308.21 148.719 308.21C149.223 308.21 149.666 308.336 150.049 308.588C150.441 308.84 150.749 309.171 150.973 309.582C151.197 309.983 151.309 310.413 151.309 310.87V315H150.049ZM145.345 315V308.35H146.605V315H145.345ZM158.755 315.14C158.148 315.14 157.598 314.991 157.103 314.692C156.608 314.384 156.216 313.969 155.927 313.446C155.647 312.923 155.507 312.335 155.507 311.682C155.507 311.029 155.647 310.441 155.927 309.918C156.216 309.395 156.604 308.98 157.089 308.672C157.584 308.364 158.139 308.21 158.755 308.21C159.259 308.21 159.707 308.317 160.099 308.532C160.5 308.737 160.822 309.027 161.065 309.4C161.308 309.764 161.443 310.189 161.471 310.674V312.676C161.443 313.152 161.308 313.577 161.065 313.95C160.832 314.323 160.514 314.617 160.113 314.832C159.721 315.037 159.268 315.14 158.755 315.14ZM158.965 313.95C159.59 313.95 160.094 313.74 160.477 313.32C160.86 312.891 161.051 312.345 161.051 311.682C161.051 311.225 160.962 310.828 160.785 310.492C160.617 310.147 160.374 309.881 160.057 309.694C159.74 309.498 159.371 309.4 158.951 309.4C158.531 309.4 158.158 309.498 157.831 309.694C157.514 309.89 157.262 310.161 157.075 310.506C156.898 310.842 156.809 311.229 156.809 311.668C156.809 312.116 156.898 312.513 157.075 312.858C157.262 313.194 157.518 313.46 157.845 313.656C158.172 313.852 158.545 313.95 158.965 313.95ZM160.967 315V313.208L161.205 311.584L160.967 309.974V308.35H162.241V315H160.967ZM168.779 315V311.122C168.779 310.618 168.621 310.203 168.303 309.876C167.986 309.549 167.575 309.386 167.071 309.386C166.735 309.386 166.437 309.461 166.175 309.61C165.914 309.759 165.709 309.965 165.559 310.226C165.41 310.487 165.335 310.786 165.335 311.122L164.817 310.828C164.817 310.324 164.929 309.876 165.153 309.484C165.377 309.092 165.69 308.784 166.091 308.56C166.493 308.327 166.945 308.21 167.449 308.21C167.953 308.21 168.397 308.336 168.779 308.588C169.171 308.84 169.479 309.171 169.703 309.582C169.927 309.983 170.039 310.413 170.039 310.87V315H168.779ZM164.075 315V308.35H165.335V315H164.075ZM173.929 315.056L171.045 308.35H172.445L174.587 313.6H174.139L176.393 308.35H177.793L174.685 315.056H173.929ZM172.025 317.786L173.985 313.768L174.685 315.056L173.425 317.786H172.025ZM181.009 317.926C180.579 317.926 180.22 317.856 179.931 317.716C179.632 317.576 179.366 317.375 179.133 317.114L179.945 316.288C180.075 316.447 180.22 316.563 180.379 316.638C180.528 316.713 180.71 316.75 180.925 316.75C181.205 316.75 181.447 316.661 181.653 316.484C181.858 316.316 181.961 316.059 181.961 315.714V308.35H183.221V315.7C183.221 316.185 183.118 316.591 182.913 316.918C182.707 317.245 182.437 317.492 182.101 317.66C181.765 317.837 181.401 317.926 181.009 317.926ZM182.605 307.02C182.381 307.02 182.194 306.945 182.045 306.796C181.895 306.637 181.821 306.441 181.821 306.208C181.821 305.984 181.895 305.797 182.045 305.648C182.194 305.489 182.381 305.41 182.605 305.41C182.838 305.41 183.029 305.489 183.179 305.648C183.328 305.797 183.403 305.984 183.403 306.208C183.403 306.441 183.328 306.637 183.179 306.796C183.029 306.945 182.838 307.02 182.605 307.02ZM188.113 315.14C187.46 315.14 186.872 314.986 186.349 314.678C185.827 314.37 185.411 313.955 185.103 313.432C184.795 312.9 184.641 312.307 184.641 311.654C184.641 311.01 184.795 310.431 185.103 309.918C185.411 309.395 185.827 308.98 186.349 308.672C186.872 308.364 187.46 308.21 188.113 308.21C188.757 308.21 189.341 308.364 189.863 308.672C190.395 308.971 190.815 309.381 191.123 309.904C191.431 310.427 191.585 311.01 191.585 311.654C191.585 312.307 191.431 312.9 191.123 313.432C190.815 313.955 190.395 314.37 189.863 314.678C189.341 314.986 188.757 315.14 188.113 315.14ZM188.113 313.922C188.533 313.922 188.907 313.824 189.233 313.628C189.56 313.432 189.817 313.166 190.003 312.83C190.19 312.485 190.283 312.093 190.283 311.654C190.283 311.225 190.185 310.842 189.989 310.506C189.803 310.17 189.546 309.909 189.219 309.722C188.902 309.526 188.533 309.428 188.113 309.428C187.693 309.428 187.32 309.526 186.993 309.722C186.667 309.909 186.41 310.17 186.223 310.506C186.037 310.842 185.943 311.225 185.943 311.654C185.943 312.093 186.037 312.485 186.223 312.83C186.41 313.166 186.667 313.432 186.993 313.628C187.32 313.824 187.693 313.922 188.113 313.922ZM196.505 315.14C196.001 315.14 195.544 315.037 195.133 314.832C194.732 314.617 194.41 314.323 194.167 313.95C193.924 313.577 193.789 313.152 193.761 312.676V310.674C193.789 310.189 193.924 309.764 194.167 309.4C194.419 309.027 194.746 308.737 195.147 308.532C195.558 308.317 196.01 308.21 196.505 308.21C197.112 308.21 197.658 308.364 198.143 308.672C198.638 308.98 199.025 309.395 199.305 309.918C199.585 310.441 199.725 311.029 199.725 311.682C199.725 312.335 199.585 312.923 199.305 313.446C199.025 313.969 198.638 314.384 198.143 314.692C197.658 314.991 197.112 315.14 196.505 315.14ZM196.295 313.95C196.715 313.95 197.084 313.852 197.401 313.656C197.718 313.46 197.97 313.194 198.157 312.858C198.344 312.513 198.437 312.116 198.437 311.668C198.437 311.229 198.344 310.837 198.157 310.492C197.97 310.147 197.718 309.881 197.401 309.694C197.084 309.498 196.72 309.4 196.309 309.4C195.889 309.4 195.52 309.498 195.203 309.694C194.886 309.881 194.638 310.147 194.461 310.492C194.284 310.837 194.195 311.234 194.195 311.682C194.195 312.121 194.279 312.513 194.447 312.858C194.624 313.194 194.872 313.46 195.189 313.656C195.516 313.852 195.884 313.95 196.295 313.95ZM193.005 315V305.004H194.265V309.974L194.027 311.584L194.265 313.208V315H193.005ZM207.566 315.14C207.062 315.14 206.604 315.037 206.194 314.832C205.792 314.617 205.47 314.323 205.228 313.95C204.985 313.577 204.85 313.152 204.822 312.676V310.674C204.85 310.189 204.985 309.764 205.228 309.4C205.48 309.027 205.806 308.737 206.208 308.532C206.618 308.317 207.071 308.21 207.566 308.21C208.172 308.21 208.718 308.364 209.204 308.672C209.698 308.98 210.086 309.395 210.366 309.918C210.646 310.441 210.786 311.029 210.786 311.682C210.786 312.335 210.646 312.923 210.366 313.446C210.086 313.969 209.698 314.384 209.204 314.692C208.718 314.991 208.172 315.14 207.566 315.14ZM207.356 313.95C207.776 313.95 208.144 313.852 208.462 313.656C208.779 313.46 209.031 313.194 209.218 312.858C209.404 312.513 209.498 312.116 209.498 311.668C209.498 311.229 209.404 310.837 209.218 310.492C209.031 310.147 208.779 309.881 208.462 309.694C208.144 309.498 207.78 309.4 207.37 309.4C206.95 309.4 206.581 309.498 206.264 309.694C205.946 309.881 205.699 310.147 205.522 310.492C205.344 310.837 205.256 311.234 205.256 311.682C205.256 312.121 205.34 312.513 205.508 312.858C205.685 313.194 205.932 313.46 206.25 313.656C206.576 313.852 206.945 313.95 207.356 313.95ZM204.066 317.786V308.35H205.326V310.1L205.088 311.71L205.326 313.334V317.786H204.066ZM215.252 315.14C214.599 315.14 214.011 314.986 213.488 314.678C212.965 314.37 212.55 313.955 212.242 313.432C211.934 312.9 211.78 312.307 211.78 311.654C211.78 311.01 211.934 310.431 212.242 309.918C212.55 309.395 212.965 308.98 213.488 308.672C214.011 308.364 214.599 308.21 215.252 308.21C215.896 308.21 216.479 308.364 217.002 308.672C217.534 308.971 217.954 309.381 218.262 309.904C218.57 310.427 218.724 311.01 218.724 311.654C218.724 312.307 218.57 312.9 218.262 313.432C217.954 313.955 217.534 314.37 217.002 314.678C216.479 314.986 215.896 315.14 215.252 315.14ZM215.252 313.922C215.672 313.922 216.045 313.824 216.372 313.628C216.699 313.432 216.955 313.166 217.142 312.83C217.329 312.485 217.422 312.093 217.422 311.654C217.422 311.225 217.324 310.842 217.128 310.506C216.941 310.17 216.685 309.909 216.358 309.722C216.041 309.526 215.672 309.428 215.252 309.428C214.832 309.428 214.459 309.526 214.132 309.722C213.805 309.909 213.549 310.17 213.362 310.506C213.175 310.842 213.082 311.225 213.082 311.654C213.082 312.093 213.175 312.485 213.362 312.83C213.549 313.166 213.805 313.432 214.132 313.628C214.459 313.824 214.832 313.922 215.252 313.922ZM222.258 315.14C221.884 315.14 221.53 315.093 221.194 315C220.867 314.897 220.564 314.757 220.284 314.58C220.004 314.393 219.761 314.174 219.556 313.922L220.368 313.11C220.61 313.409 220.89 313.633 221.208 313.782C221.525 313.922 221.88 313.992 222.272 313.992C222.664 313.992 222.967 313.927 223.182 313.796C223.396 313.656 223.504 313.465 223.504 313.222C223.504 312.979 223.415 312.793 223.238 312.662C223.07 312.522 222.85 312.41 222.58 312.326C222.309 312.233 222.02 312.144 221.712 312.06C221.413 311.967 221.128 311.85 220.858 311.71C220.587 311.57 220.363 311.379 220.186 311.136C220.018 310.893 219.934 310.571 219.934 310.17C219.934 309.769 220.032 309.423 220.228 309.134C220.424 308.835 220.694 308.607 221.04 308.448C221.394 308.289 221.819 308.21 222.314 308.21C222.836 308.21 223.298 308.303 223.7 308.49C224.11 308.667 224.446 308.938 224.708 309.302L223.896 310.114C223.709 309.871 223.476 309.685 223.196 309.554C222.925 309.423 222.617 309.358 222.272 309.358C221.908 309.358 221.628 309.423 221.432 309.554C221.245 309.675 221.152 309.848 221.152 310.072C221.152 310.296 221.236 310.469 221.404 310.59C221.572 310.711 221.791 310.814 222.062 310.898C222.342 310.982 222.631 311.071 222.93 311.164C223.228 311.248 223.513 311.365 223.784 311.514C224.054 311.663 224.274 311.864 224.442 312.116C224.619 312.368 224.708 312.699 224.708 313.11C224.708 313.735 224.484 314.23 224.036 314.594C223.597 314.958 223.004 315.14 222.258 315.14ZM227.14 315V305.564H228.4V315H227.14ZM225.502 309.498V308.35H230.038V309.498H225.502ZM234.199 315V308.35H235.459V315H234.199ZM234.829 307.02C234.595 307.02 234.404 306.945 234.255 306.796C234.105 306.637 234.031 306.441 234.031 306.208C234.031 305.984 234.105 305.797 234.255 305.648C234.404 305.489 234.595 305.41 234.829 305.41C235.062 305.41 235.253 305.489 235.403 305.648C235.552 305.797 235.627 305.984 235.627 306.208C235.627 306.441 235.552 306.637 235.403 306.796C235.253 306.945 235.062 307.02 234.829 307.02ZM239.43 315.14C239.056 315.14 238.702 315.093 238.366 315C238.039 314.897 237.736 314.757 237.456 314.58C237.176 314.393 236.933 314.174 236.728 313.922L237.54 313.11C237.782 313.409 238.062 313.633 238.38 313.782C238.697 313.922 239.052 313.992 239.444 313.992C239.836 313.992 240.139 313.927 240.354 313.796C240.568 313.656 240.676 313.465 240.676 313.222C240.676 312.979 240.587 312.793 240.41 312.662C240.242 312.522 240.022 312.41 239.752 312.326C239.481 312.233 239.192 312.144 238.884 312.06C238.585 311.967 238.3 311.85 238.03 311.71C237.759 311.57 237.535 311.379 237.358 311.136C237.19 310.893 237.106 310.571 237.106 310.17C237.106 309.769 237.204 309.423 237.4 309.134C237.596 308.835 237.866 308.607 238.212 308.448C238.566 308.289 238.991 308.21 239.486 308.21C240.008 308.21 240.47 308.303 240.872 308.49C241.282 308.667 241.618 308.938 241.88 309.302L241.068 310.114C240.881 309.871 240.648 309.685 240.368 309.554C240.097 309.423 239.789 309.358 239.444 309.358C239.08 309.358 238.8 309.423 238.604 309.554C238.417 309.675 238.324 309.848 238.324 310.072C238.324 310.296 238.408 310.469 238.576 310.59C238.744 310.711 238.963 310.814 239.234 310.898C239.514 310.982 239.803 311.071 240.102 311.164C240.4 311.248 240.685 311.365 240.956 311.514C241.226 311.663 241.446 311.864 241.614 312.116C241.791 312.368 241.88 312.699 241.88 313.11C241.88 313.735 241.656 314.23 241.208 314.594C240.769 314.958 240.176 315.14 239.43 315.14ZM249.03 315.14C248.424 315.14 247.873 314.991 247.378 314.692C246.884 314.384 246.492 313.969 246.202 313.446C245.922 312.923 245.782 312.335 245.782 311.682C245.782 311.029 245.922 310.441 246.202 309.918C246.492 309.395 246.879 308.98 247.364 308.672C247.859 308.364 248.414 308.21 249.03 308.21C249.534 308.21 249.982 308.317 250.374 308.532C250.776 308.737 251.098 309.027 251.34 309.4C251.583 309.764 251.718 310.189 251.746 310.674V312.676C251.718 313.152 251.583 313.577 251.34 313.95C251.107 314.323 250.79 314.617 250.388 314.832C249.996 315.037 249.544 315.14 249.03 315.14ZM249.24 313.95C249.866 313.95 250.37 313.74 250.752 313.32C251.135 312.891 251.326 312.345 251.326 311.682C251.326 311.225 251.238 310.828 251.06 310.492C250.892 310.147 250.65 309.881 250.332 309.694C250.015 309.498 249.646 309.4 249.226 309.4C248.806 309.4 248.433 309.498 248.106 309.694C247.789 309.89 247.537 310.161 247.35 310.506C247.173 310.842 247.084 311.229 247.084 311.668C247.084 312.116 247.173 312.513 247.35 312.858C247.537 313.194 247.794 313.46 248.12 313.656C248.447 313.852 248.82 313.95 249.24 313.95ZM251.242 315V313.208L251.48 311.584L251.242 309.974V308.35H252.516V315H251.242ZM257.165 315.14C256.549 315.14 255.998 314.991 255.513 314.692C255.027 314.384 254.64 313.969 254.351 313.446C254.071 312.923 253.931 312.335 253.931 311.682C253.931 311.029 254.071 310.441 254.351 309.918C254.64 309.395 255.027 308.98 255.513 308.672C255.998 308.364 256.549 308.21 257.165 308.21C257.659 308.21 258.107 308.317 258.509 308.532C258.91 308.737 259.232 309.027 259.475 309.4C259.727 309.764 259.867 310.189 259.895 310.674V312.676C259.867 313.152 259.731 313.577 259.489 313.95C259.246 314.323 258.924 314.617 258.523 314.832C258.121 315.037 257.669 315.14 257.165 315.14ZM257.375 313.95C257.795 313.95 258.159 313.852 258.467 313.656C258.784 313.46 259.031 313.194 259.209 312.858C259.386 312.513 259.475 312.121 259.475 311.682C259.475 311.225 259.381 310.828 259.195 310.492C259.017 310.156 258.77 309.89 258.453 309.694C258.145 309.498 257.781 309.4 257.361 309.4C256.941 309.4 256.572 309.498 256.255 309.694C255.937 309.89 255.685 310.161 255.499 310.506C255.321 310.842 255.233 311.229 255.233 311.668C255.233 312.116 255.321 312.513 255.499 312.858C255.685 313.194 255.937 313.46 256.255 313.656C256.581 313.852 256.955 313.95 257.375 313.95ZM260.665 315H259.391V313.208L259.629 311.584L259.391 309.974V305.004H260.665V315ZM265.313 315.14C264.697 315.14 264.147 314.991 263.661 314.692C263.176 314.384 262.789 313.969 262.499 313.446C262.219 312.923 262.079 312.335 262.079 311.682C262.079 311.029 262.219 310.441 262.499 309.918C262.789 309.395 263.176 308.98 263.661 308.672C264.147 308.364 264.697 308.21 265.313 308.21C265.808 308.21 266.256 308.317 266.657 308.532C267.059 308.737 267.381 309.027 267.623 309.4C267.875 309.764 268.015 310.189 268.043 310.674V312.676C268.015 313.152 267.88 313.577 267.637 313.95C267.395 314.323 267.073 314.617 266.671 314.832C266.27 315.037 265.817 315.14 265.313 315.14ZM265.523 313.95C265.943 313.95 266.307 313.852 266.615 313.656C266.933 313.46 267.18 313.194 267.357 312.858C267.535 312.513 267.623 312.121 267.623 311.682C267.623 311.225 267.53 310.828 267.343 310.492C267.166 310.156 266.919 309.89 266.601 309.694C266.293 309.498 265.929 309.4 265.509 309.4C265.089 309.4 264.721 309.498 264.403 309.694C264.086 309.89 263.834 310.161 263.647 310.506C263.47 310.842 263.381 311.229 263.381 311.668C263.381 312.116 263.47 312.513 263.647 312.858C263.834 313.194 264.086 313.46 264.403 313.656C264.73 313.852 265.103 313.95 265.523 313.95ZM268.813 315H267.539V313.208L267.777 311.584L267.539 309.974V305.004H268.813V315ZM273.728 315.14C273.065 315.14 272.468 314.991 271.936 314.692C271.404 314.384 270.984 313.969 270.676 313.446C270.368 312.923 270.214 312.331 270.214 311.668C270.214 311.015 270.363 310.427 270.662 309.904C270.97 309.381 271.38 308.971 271.894 308.672C272.416 308.364 273 308.21 273.644 308.21C274.26 308.21 274.801 308.35 275.268 308.63C275.744 308.91 276.112 309.297 276.374 309.792C276.644 310.287 276.78 310.847 276.78 311.472C276.78 311.565 276.775 311.668 276.766 311.78C276.756 311.883 276.738 312.004 276.71 312.144H271.096V311.094H276.038L275.576 311.5C275.576 311.052 275.496 310.674 275.338 310.366C275.179 310.049 274.955 309.806 274.666 309.638C274.376 309.461 274.026 309.372 273.616 309.372C273.186 309.372 272.808 309.465 272.482 309.652C272.155 309.839 271.903 310.1 271.726 310.436C271.548 310.772 271.46 311.169 271.46 311.626C271.46 312.093 271.553 312.503 271.74 312.858C271.926 313.203 272.192 313.474 272.538 313.67C272.883 313.857 273.28 313.95 273.728 313.95C274.101 313.95 274.442 313.885 274.75 313.754C275.067 313.623 275.338 313.427 275.562 313.166L276.374 313.992C276.056 314.365 275.664 314.65 275.198 314.846C274.74 315.042 274.25 315.14 273.728 315.14ZM280.967 315.14C280.351 315.14 279.801 314.991 279.315 314.692C278.83 314.384 278.443 313.969 278.153 313.446C277.873 312.923 277.733 312.335 277.733 311.682C277.733 311.029 277.873 310.441 278.153 309.918C278.443 309.395 278.83 308.98 279.315 308.672C279.801 308.364 280.351 308.21 280.967 308.21C281.462 308.21 281.91 308.317 282.311 308.532C282.713 308.737 283.035 309.027 283.277 309.4C283.529 309.764 283.669 310.189 283.697 310.674V312.676C283.669 313.152 283.534 313.577 283.291 313.95C283.049 314.323 282.727 314.617 282.325 314.832C281.924 315.037 281.471 315.14 280.967 315.14ZM281.177 313.95C281.597 313.95 281.961 313.852 282.269 313.656C282.587 313.46 282.834 313.194 283.011 312.858C283.189 312.513 283.277 312.121 283.277 311.682C283.277 311.225 283.184 310.828 282.997 310.492C282.82 310.156 282.573 309.89 282.255 309.694C281.947 309.498 281.583 309.4 281.163 309.4C280.743 309.4 280.375 309.498 280.057 309.694C279.74 309.89 279.488 310.161 279.301 310.506C279.124 310.842 279.035 311.229 279.035 311.668C279.035 312.116 279.124 312.513 279.301 312.858C279.488 313.194 279.74 313.46 280.057 313.656C280.384 313.852 280.757 313.95 281.177 313.95ZM284.467 315H283.193V313.208L283.431 311.584L283.193 309.974V305.004H284.467V315ZM286.372 316.54L287.24 314.874L287.688 314.762C287.641 314.865 287.581 314.949 287.506 315.014C287.441 315.079 287.357 315.112 287.254 315.112C287.058 315.112 286.876 315.033 286.708 314.874C286.549 314.706 286.47 314.501 286.47 314.258C286.47 313.987 286.559 313.763 286.736 313.586C286.913 313.399 287.137 313.306 287.408 313.306C287.651 313.306 287.865 313.399 288.052 313.586C288.239 313.763 288.332 313.987 288.332 314.258C288.332 314.361 288.309 314.487 288.262 314.636C288.225 314.776 288.145 314.958 288.024 315.182L287.1 316.932L286.372 316.54ZM295.254 315.056L292.37 308.35H293.77L295.912 313.6H295.464L297.718 308.35H299.118L296.01 315.056H295.254ZM293.35 317.786L295.31 313.768L296.01 315.056L294.75 317.786H293.35ZM302.93 315.14C302.276 315.14 301.688 314.986 301.166 314.678C300.643 314.37 300.228 313.955 299.92 313.432C299.612 312.9 299.458 312.307 299.458 311.654C299.458 311.01 299.612 310.431 299.92 309.918C300.228 309.395 300.643 308.98 301.166 308.672C301.688 308.364 302.276 308.21 302.93 308.21C303.574 308.21 304.157 308.364 304.68 308.672C305.212 308.971 305.632 309.381 305.94 309.904C306.248 310.427 306.402 311.01 306.402 311.654C306.402 312.307 306.248 312.9 305.94 313.432C305.632 313.955 305.212 314.37 304.68 314.678C304.157 314.986 303.574 315.14 302.93 315.14ZM302.93 313.922C303.35 313.922 303.723 313.824 304.05 313.628C304.376 313.432 304.633 313.166 304.82 312.83C305.006 312.485 305.1 312.093 305.1 311.654C305.1 311.225 305.002 310.842 304.806 310.506C304.619 310.17 304.362 309.909 304.036 309.722C303.718 309.526 303.35 309.428 302.93 309.428C302.51 309.428 302.136 309.526 301.81 309.722C301.483 309.909 301.226 310.17 301.04 310.506C300.853 310.842 300.76 311.225 300.76 311.654C300.76 312.093 300.853 312.485 301.04 312.83C301.226 313.166 301.483 313.432 301.81 313.628C302.136 313.824 302.51 313.922 302.93 313.922ZM310.495 315.14C309.954 315.14 309.464 315.019 309.025 314.776C308.596 314.524 308.26 314.179 308.017 313.74C307.775 313.301 307.653 312.793 307.653 312.214V308.35H308.913V312.158C308.913 312.522 308.974 312.839 309.095 313.11C309.226 313.371 309.413 313.572 309.655 313.712C309.898 313.852 310.183 313.922 310.509 313.922C311.004 313.922 311.391 313.768 311.671 313.46C311.951 313.143 312.091 312.709 312.091 312.158V308.35H313.351V312.214C313.351 312.793 313.23 313.301 312.987 313.74C312.745 314.179 312.409 314.524 311.979 314.776C311.559 315.019 311.065 315.14 310.495 315.14ZM314.833 308.378L315.701 306.712L316.149 306.6C316.102 306.703 316.041 306.787 315.967 306.852C315.901 306.917 315.817 306.95 315.715 306.95C315.519 306.95 315.337 306.871 315.169 306.712C315.01 306.544 314.931 306.339 314.931 306.096C314.931 305.835 315.019 305.611 315.197 305.424C315.383 305.237 315.607 305.144 315.869 305.144C316.111 305.144 316.326 305.237 316.513 305.424C316.699 305.611 316.793 305.835 316.793 306.096C316.793 306.199 316.769 306.325 316.723 306.474C316.685 306.614 316.606 306.801 316.485 307.034L315.561 308.77L314.833 308.378ZM318.431 315V305.004H319.691V315H318.431ZM321.534 315V305.004H322.794V315H321.534ZM329.664 315.14C329.291 315.14 328.936 315.093 328.6 315C328.273 314.897 327.97 314.757 327.69 314.58C327.41 314.393 327.167 314.174 326.962 313.922L327.774 313.11C328.017 313.409 328.297 313.633 328.614 313.782C328.931 313.922 329.286 313.992 329.678 313.992C330.07 313.992 330.373 313.927 330.588 313.796C330.803 313.656 330.91 313.465 330.91 313.222C330.91 312.979 330.821 312.793 330.644 312.662C330.476 312.522 330.257 312.41 329.986 312.326C329.715 312.233 329.426 312.144 329.118 312.06C328.819 311.967 328.535 311.85 328.264 311.71C327.993 311.57 327.769 311.379 327.592 311.136C327.424 310.893 327.34 310.571 327.34 310.17C327.34 309.769 327.438 309.423 327.634 309.134C327.83 308.835 328.101 308.607 328.446 308.448C328.801 308.289 329.225 308.21 329.72 308.21C330.243 308.21 330.705 308.303 331.106 308.49C331.517 308.667 331.853 308.938 332.114 309.302L331.302 310.114C331.115 309.871 330.882 309.685 330.602 309.554C330.331 309.423 330.023 309.358 329.678 309.358C329.314 309.358 329.034 309.423 328.838 309.554C328.651 309.675 328.558 309.848 328.558 310.072C328.558 310.296 328.642 310.469 328.81 310.59C328.978 310.711 329.197 310.814 329.468 310.898C329.748 310.982 330.037 311.071 330.336 311.164C330.635 311.248 330.919 311.365 331.19 311.514C331.461 311.663 331.68 311.864 331.848 312.116C332.025 312.368 332.114 312.699 332.114 313.11C332.114 313.735 331.89 314.23 331.442 314.594C331.003 314.958 330.411 315.14 329.664 315.14ZM336.605 315.14C335.942 315.14 335.345 314.991 334.813 314.692C334.281 314.384 333.861 313.969 333.553 313.446C333.245 312.923 333.091 312.331 333.091 311.668C333.091 311.015 333.24 310.427 333.539 309.904C333.847 309.381 334.257 308.971 334.771 308.672C335.293 308.364 335.877 308.21 336.521 308.21C337.137 308.21 337.678 308.35 338.145 308.63C338.621 308.91 338.989 309.297 339.251 309.792C339.521 310.287 339.657 310.847 339.657 311.472C339.657 311.565 339.652 311.668 339.643 311.78C339.633 311.883 339.615 312.004 339.587 312.144H333.973V311.094H338.915L338.453 311.5C338.453 311.052 338.373 310.674 338.215 310.366C338.056 310.049 337.832 309.806 337.543 309.638C337.253 309.461 336.903 309.372 336.493 309.372C336.063 309.372 335.685 309.465 335.359 309.652C335.032 309.839 334.78 310.1 334.603 310.436C334.425 310.772 334.337 311.169 334.337 311.626C334.337 312.093 334.43 312.503 334.617 312.858C334.803 313.203 335.069 313.474 335.415 313.67C335.76 313.857 336.157 313.95 336.605 313.95C336.978 313.95 337.319 313.885 337.627 313.754C337.944 313.623 338.215 313.427 338.439 313.166L339.251 313.992C338.933 314.365 338.541 314.65 338.075 314.846C337.617 315.042 337.127 315.14 336.605 315.14ZM344.11 315.14C343.448 315.14 342.85 314.991 342.318 314.692C341.786 314.384 341.366 313.969 341.058 313.446C340.75 312.923 340.596 312.331 340.596 311.668C340.596 311.015 340.746 310.427 341.044 309.904C341.352 309.381 341.763 308.971 342.276 308.672C342.799 308.364 343.382 308.21 344.026 308.21C344.642 308.21 345.184 308.35 345.65 308.63C346.126 308.91 346.495 309.297 346.756 309.792C347.027 310.287 347.162 310.847 347.162 311.472C347.162 311.565 347.158 311.668 347.148 311.78C347.139 311.883 347.12 312.004 347.092 312.144H341.478V311.094H346.42L345.958 311.5C345.958 311.052 345.879 310.674 345.72 310.366C345.562 310.049 345.338 309.806 345.048 309.638C344.759 309.461 344.409 309.372 343.998 309.372C343.569 309.372 343.191 309.465 342.864 309.652C342.538 309.839 342.286 310.1 342.108 310.436C341.931 310.772 341.842 311.169 341.842 311.626C341.842 312.093 341.936 312.503 342.122 312.858C342.309 313.203 342.575 313.474 342.92 313.67C343.266 313.857 343.662 313.95 344.11 313.95C344.484 313.95 344.824 313.885 345.132 313.754C345.45 313.623 345.72 313.427 345.944 313.166L346.756 313.992C346.439 314.365 346.047 314.65 345.58 314.846C345.123 315.042 344.633 315.14 344.11 315.14ZM356.152 315V311.122C356.152 310.618 355.994 310.203 355.676 309.876C355.359 309.549 354.948 309.386 354.444 309.386C354.108 309.386 353.81 309.461 353.548 309.61C353.287 309.759 353.082 309.965 352.932 310.226C352.783 310.487 352.708 310.786 352.708 311.122L352.19 310.828C352.19 310.324 352.302 309.876 352.526 309.484C352.75 309.092 353.063 308.784 353.464 308.56C353.866 308.327 354.318 308.21 354.822 308.21C355.326 308.21 355.77 308.322 356.152 308.546C356.544 308.77 356.852 309.083 357.076 309.484C357.3 309.885 357.412 310.347 357.412 310.87V315H356.152ZM351.448 315V305.004H352.708V315H351.448ZM362.198 315.14C361.536 315.14 360.938 314.991 360.406 314.692C359.874 314.384 359.454 313.969 359.146 313.446C358.838 312.923 358.684 312.331 358.684 311.668C358.684 311.015 358.834 310.427 359.132 309.904C359.44 309.381 359.851 308.971 360.364 308.672C360.887 308.364 361.47 308.21 362.114 308.21C362.73 308.21 363.272 308.35 363.738 308.63C364.214 308.91 364.583 309.297 364.844 309.792C365.115 310.287 365.25 310.847 365.25 311.472C365.25 311.565 365.246 311.668 365.236 311.78C365.227 311.883 365.208 312.004 365.18 312.144H359.566V311.094H364.508L364.046 311.5C364.046 311.052 363.967 310.674 363.808 310.366C363.65 310.049 363.426 309.806 363.136 309.638C362.847 309.461 362.497 309.372 362.086 309.372C361.657 309.372 361.279 309.465 360.952 309.652C360.626 309.839 360.374 310.1 360.196 310.436C360.019 310.772 359.93 311.169 359.93 311.626C359.93 312.093 360.024 312.503 360.21 312.858C360.397 313.203 360.663 313.474 361.008 313.67C361.354 313.857 361.75 313.95 362.198 313.95C362.572 313.95 362.912 313.885 363.22 313.754C363.538 313.623 363.808 313.427 364.032 313.166L364.844 313.992C364.527 314.365 364.135 314.65 363.668 314.846C363.211 315.042 362.721 315.14 362.198 315.14ZM366.624 315V308.35H367.884V315H366.624ZM367.884 311.206L367.408 310.996C367.408 310.147 367.604 309.47 367.996 308.966C368.388 308.462 368.953 308.21 369.69 308.21C370.026 308.21 370.33 308.271 370.6 308.392C370.871 308.504 371.123 308.695 371.356 308.966L370.53 309.82C370.39 309.671 370.236 309.563 370.068 309.498C369.9 309.433 369.704 309.4 369.48 309.4C369.014 309.4 368.631 309.549 368.332 309.848C368.034 310.147 367.884 310.599 367.884 311.206ZM375.105 315.14C374.442 315.14 373.845 314.991 373.313 314.692C372.781 314.384 372.361 313.969 372.053 313.446C371.745 312.923 371.591 312.331 371.591 311.668C371.591 311.015 371.74 310.427 372.039 309.904C372.347 309.381 372.757 308.971 373.271 308.672C373.793 308.364 374.377 308.21 375.021 308.21C375.637 308.21 376.178 308.35 376.645 308.63C377.121 308.91 377.489 309.297 377.751 309.792C378.021 310.287 378.157 310.847 378.157 311.472C378.157 311.565 378.152 311.668 378.143 311.78C378.133 311.883 378.115 312.004 378.087 312.144H372.473V311.094H377.415L376.953 311.5C376.953 311.052 376.873 310.674 376.715 310.366C376.556 310.049 376.332 309.806 376.043 309.638C375.753 309.461 375.403 309.372 374.993 309.372C374.563 309.372 374.185 309.465 373.859 309.652C373.532 309.839 373.28 310.1 373.103 310.436C372.925 310.772 372.837 311.169 372.837 311.626C372.837 312.093 372.93 312.503 373.117 312.858C373.303 313.203 373.569 313.474 373.915 313.67C374.26 313.857 374.657 313.95 375.105 313.95C375.478 313.95 375.819 313.885 376.127 313.754C376.444 313.623 376.715 313.427 376.939 313.166L377.751 313.992C377.433 314.365 377.041 314.65 376.575 314.846C376.117 315.042 375.627 315.14 375.105 315.14ZM380.636 315.14C380.375 315.14 380.156 315.051 379.978 314.874C379.81 314.687 379.726 314.468 379.726 314.216C379.726 313.955 379.81 313.74 379.978 313.572C380.156 313.395 380.375 313.306 380.636 313.306C380.898 313.306 381.112 313.395 381.28 313.572C381.458 313.74 381.546 313.955 381.546 314.216C381.546 314.468 381.458 314.687 381.28 314.874C381.112 315.051 380.898 315.14 380.636 315.14Z" fill="#999999"/>
<defs>
<clipPath id="clip0_5450_87054">
<rect width="300" height="300" fill="white" transform="translate(41.5)"/>
</clipPath>
</defs>
</svg>
