<svg width="24" height="24" viewBox="0 0 24 24" fill="none" xmlns="http://www.w3.org/2000/svg">
<path d="M21.0741 10.0727L15.1448 4.14258C14.4109 3.41088 13.4169 3 12.3806 3C11.3443 3 10.3503 3.41088 9.61647 4.14258L3.68714 10.0727C3.46859 10.2898 3.29532 10.5482 3.17737 10.8328C3.05942 11.1174 2.99913 11.4226 3.00001 11.7307V19.4048C3.00001 20.0268 3.24709 20.6233 3.68689 21.0631C4.12669 21.5029 4.72319 21.75 5.34516 21.75H19.4161C20.0381 21.75 20.6346 21.5029 21.0744 21.0631C21.5142 20.6233 21.7612 20.0268 21.7612 19.4048V11.7307C21.7621 11.4226 21.7018 11.1174 21.5839 10.8328C21.4659 10.5482 21.2927 10.2898 21.0741 10.0727ZM14.7258 20.1866H10.0355V17.1113C10.0355 16.4893 10.2826 15.8928 10.7224 15.453C11.1622 15.0132 11.7587 14.7661 12.3806 14.7661C13.0026 14.7661 13.5991 15.0132 14.0389 15.453C14.4787 15.8928 14.7258 16.4893 14.7258 17.1113V20.1866ZM20.1978 19.4048C20.1978 19.6122 20.1155 19.811 19.9689 19.9576C19.8223 20.1042 19.6234 20.1866 19.4161 20.1866H16.2892V17.1113C16.2892 16.0747 15.8774 15.0805 15.1444 14.3475C14.4114 13.6145 13.4173 13.2027 12.3806 13.2027C11.344 13.2027 10.3498 13.6145 9.61684 14.3475C8.88383 15.0805 8.47204 16.0747 8.47204 17.1113V20.1866H5.34516C5.13784 20.1866 4.93901 20.1042 4.79241 19.9576C4.64581 19.811 4.56345 19.6122 4.56345 19.4048V11.7307C4.56417 11.5235 4.64646 11.325 4.79249 11.178L10.7218 5.25027C11.1625 4.81168 11.7589 4.56544 12.3806 4.56544C13.0024 4.56544 13.5988 4.81168 14.0394 5.25027L19.9688 11.1804C20.1142 11.3268 20.1965 11.5244 20.1978 11.7307V19.4048Z" fill="white"/>
</svg>
