<svg width="22" height="22" viewBox="0 0 22 22" fill="none" xmlns="http://www.w3.org/2000/svg">
<g clip-path="url(#clip0_2960_46575)">
<path fill-rule="evenodd" clip-rule="evenodd" d="M14.6673 8.25016C14.6673 9.22262 14.281 10.1553 13.5934 10.8429C12.9057 11.5305 11.9731 11.9168 11.0007 11.9168C10.0282 11.9168 9.09556 11.5305 8.40793 10.8429C7.72029 10.1553 7.33398 9.22262 7.33398 8.25016C7.33398 7.2777 7.72029 6.34507 8.40793 5.65744C9.09556 4.9698 10.0282 4.5835 11.0007 4.5835C11.9731 4.5835 12.9057 4.9698 13.5934 5.65744C14.281 6.34507 14.6673 7.2777 14.6673 8.25016ZM12.834 8.25016C12.834 8.73639 12.6408 9.20271 12.297 9.54652C11.9532 9.89034 11.4869 10.0835 11.0007 10.0835C10.5144 10.0835 10.0481 9.89034 9.70429 9.54652C9.36047 9.20271 9.16732 8.73639 9.16732 8.25016C9.16732 7.76393 9.36047 7.29762 9.70429 6.9538C10.0481 6.60998 10.5144 6.41683 11.0007 6.41683C11.4869 6.41683 11.9532 6.60998 12.297 6.9538C12.6408 7.29762 12.834 7.76393 12.834 8.25016Z" fill="black"/>
<path fill-rule="evenodd" clip-rule="evenodd" d="M11.0013 0.916992C5.43255 0.916992 0.917969 5.43158 0.917969 11.0003C0.917969 16.5691 5.43255 21.0837 11.0013 21.0837C16.5701 21.0837 21.0846 16.5691 21.0846 11.0003C21.0846 5.43158 16.5701 0.916992 11.0013 0.916992ZM2.7513 11.0003C2.7513 12.9162 3.40489 14.6798 4.5003 16.0805C5.2696 15.0702 6.26204 14.2515 7.40012 13.6883C8.53819 13.125 9.79107 12.8326 11.0609 12.8337C12.3143 12.8325 13.5514 13.1174 14.678 13.6667C15.8046 14.216 16.7909 15.0153 17.5619 16.0035C18.3561 14.9618 18.8909 13.7459 19.122 12.4565C19.353 11.1671 19.2737 9.84123 18.8906 8.58856C18.5075 7.33589 17.8316 6.19245 16.9188 5.25286C16.0061 4.31327 14.8827 3.60453 13.6417 3.18529C12.4006 2.76605 11.0776 2.64837 9.78201 2.84197C8.48645 3.03557 7.25561 3.53489 6.19134 4.29862C5.12707 5.06236 4.25996 6.06854 3.66176 7.23392C3.06356 8.3993 2.75147 9.69038 2.7513 11.0003ZM11.0013 19.2503C9.10742 19.2532 7.27071 18.6016 5.80197 17.406C6.39315 16.5597 7.18003 15.8687 8.09564 15.3918C9.01126 14.9149 10.0285 14.6663 11.0609 14.667C12.0804 14.6662 13.0853 14.9086 13.9923 15.3741C14.8993 15.8397 15.6821 16.5149 16.2758 17.3437C14.7957 18.5781 12.9287 19.253 11.0013 19.2503Z" fill="black"/>
</g>
<defs>
<clipPath id="clip0_2960_46575">
<rect width="22" height="22" fill="white"/>
</clipPath>
</defs>
</svg>
