<svg width="38" height="38" viewBox="0 0 38 38" fill="none" xmlns="http://www.w3.org/2000/svg">
<circle cx="19" cy="19" r="19" fill="#2F2C9F" fill-opacity="0.06"/>
<path d="M10.0008 24H22.0008C22.2557 24.0003 22.5009 24.0979 22.6862 24.2728C22.8715 24.4478 22.9831 24.687 22.998 24.9414C23.013 25.1958 22.9302 25.4464 22.7666 25.6418C22.603 25.8373 22.3709 25.9629 22.1178 25.993L22.0008 26H10.0008C9.74597 25.9997 9.50081 25.9021 9.31548 25.7272C9.13014 25.5522 9.01861 25.313 9.00367 25.0586C8.98874 24.8042 9.07152 24.5536 9.23511 24.3582C9.3987 24.1627 9.63075 24.0371 9.88385 24.007L10.0008 24ZM10.0008 20H28.0008C28.2557 20.0003 28.5009 20.0979 28.6862 20.2728C28.8715 20.4478 28.9831 20.687 28.998 20.9414C29.013 21.1958 28.9302 21.4464 28.7666 21.6418C28.603 21.8373 28.3709 21.9629 28.1178 21.993L28.0008 22H10.0008C9.74597 21.9997 9.50081 21.9021 9.31548 21.7272C9.13014 21.5522 9.01861 21.313 9.00367 21.0586C8.98874 20.8042 9.07152 20.5536 9.23511 20.3582C9.3987 20.1627 9.63075 20.0371 9.88385 20.007L10.0008 20ZM10.0008 16H28.0008C28.2557 16.0003 28.5009 16.0979 28.6862 16.2728C28.8715 16.4478 28.9831 16.687 28.998 16.9414C29.013 17.1958 28.9302 17.4464 28.7666 17.6418C28.603 17.8373 28.3709 17.9629 28.1178 17.993L28.0008 18H10.0008C9.74597 17.9997 9.50081 17.9021 9.31548 17.7272C9.13014 17.5522 9.01861 17.313 9.00367 17.0586C8.98874 16.8042 9.07152 16.5536 9.23511 16.3582C9.3987 16.1627 9.63075 16.0371 9.88385 16.007L10.0008 16ZM10.0008 12H28.0008C28.2557 12.0003 28.5009 12.0979 28.6862 12.2728C28.8715 12.4478 28.9831 12.687 28.998 12.9414C29.013 13.1958 28.9302 13.4464 28.7666 13.6418C28.603 13.8373 28.3709 13.9629 28.1178 13.993L28.0008 14H10.0008C9.74597 13.9997 9.50081 13.9021 9.31548 13.7272C9.13014 13.5522 9.01861 13.313 9.00367 13.0586C8.98874 12.8042 9.07152 12.5536 9.23511 12.3582C9.3987 12.1627 9.63075 12.0371 9.88385 12.007L10.0008 12Z" fill="#2F2C9F"/>
</svg>
