<svg width="51" height="51" viewBox="0 0 51 51" fill="none" xmlns="http://www.w3.org/2000/svg">
<path d="M50.5 25.5C50.5 39.3071 39.3071 50.5 25.5 50.5C11.6929 50.5 0.5 39.3071 0.5 25.5C0.5 11.6929 11.6929 0.5 25.5 0.5C39.3071 0.5 50.5 11.6929 50.5 25.5ZM6.75 25.5C6.75 35.8553 15.1447 44.25 25.5 44.25C35.8553 44.25 44.25 35.8553 44.25 25.5C44.25 15.1447 35.8553 6.75 25.5 6.75C15.1447 6.75 6.75 15.1447 6.75 25.5Z" fill="#D9D9D9"/>
<path d="M50.5 25.5C50.5 39.3071 39.3071 50.5 25.5 50.5C11.6929 50.5 0.5 39.3071 0.5 25.5C0.5 11.6929 11.6929 0.5 25.5 0.5C39.3071 0.5 50.5 11.6929 50.5 25.5ZM10.5 25.5C10.5 33.7843 17.2157 40.5 25.5 40.5C33.7843 40.5 40.5 33.7843 40.5 25.5C40.5 17.2157 33.7843 10.5 25.5 10.5C17.2157 10.5 10.5 17.2157 10.5 25.5Z" fill="#FA9796"/>
</svg>
