<svg width="51" height="51" viewBox="0 0 51 51" fill="none" xmlns="http://www.w3.org/2000/svg">
<path d="M50.5 25.5C50.5 39.3071 39.3071 50.5 25.5 50.5C11.6929 50.5 0.5 39.3071 0.5 25.5C0.5 11.6929 11.6929 0.5 25.5 0.5C39.3071 0.5 50.5 11.6929 50.5 25.5ZM10.5 25.5C10.5 33.7843 17.2157 40.5 25.5 40.5C33.7843 40.5 40.5 33.7843 40.5 25.5C40.5 17.2157 33.7843 10.5 25.5 10.5C17.2157 10.5 10.5 17.2157 10.5 25.5Z" fill="#D9D9D9"/>
<path d="M25.5 0.5C30.7795 0.5 35.9234 2.17137 40.1946 5.27458C44.4658 8.37778 47.645 12.7535 49.2764 17.7746C50.9079 22.7957 50.9079 28.2043 49.2764 33.2254C47.645 38.2465 44.4658 42.6222 40.1946 45.7254C35.9234 48.8286 30.7795 50.5 25.5 50.5C20.2205 50.5 15.0766 48.8286 10.8054 45.7254C6.53418 42.6222 3.35503 38.2465 1.72359 33.2254C0.0921372 28.2043 0.092138 22.7957 1.72359 17.7746L11.2342 20.8647C10.2553 23.8774 10.2553 27.1226 11.2342 30.1353C12.213 33.1479 14.1205 35.7733 16.6832 37.6353C19.2459 39.4972 22.3323 40.5 25.5 40.5C28.6677 40.5 31.7541 39.4972 34.3168 37.6353C36.8795 35.7733 38.787 33.1479 39.7659 30.1353C40.7447 27.1226 40.7447 23.8774 39.7659 20.8647C38.787 17.8521 36.8795 15.2267 34.3168 13.3647C31.7541 11.5028 28.6677 10.5 25.5 10.5V0.5Z" fill="#F8BB6F"/>
</svg>
