<svg width="24" height="24" viewBox="0 0 24 24" fill="none" xmlns="http://www.w3.org/2000/svg">
<g clip-path="url(#clip0_5302_86197)">
<path d="M13.4239 14.9269C13.2444 14.5401 13.1901 14.1177 12.9855 13.7343C12.4427 12.7147 11.6171 11.9733 10.4666 11.5612C8.16544 10.7365 5.56505 11.6403 4.50271 13.6428C4.17053 14.269 3.98901 14.9294 3.98731 15.6247C3.98188 18.2829 3.98075 20.9411 3.98392 23.5995C3.98392 23.9938 3.98392 23.9979 3.55199 23.9988C2.50152 24.0017 1.45105 24.0017 0.400577 23.9988C0.00291848 23.9988 0.00325809 23.9957 0.00325809 23.6418V3.53913C0.00325809 2.46506 0.0141148 1.39161 -0.00183223 0.316289C-0.00590382 0.0570301 0.0924938 -0.0024159 0.350022 7.39881e-05C1.44867 0.00972229 2.54766 0.0128346 3.64631 7.39881e-05C3.92692 -0.000859719 3.98969 0.0918885 3.98969 0.332162C3.98064 2.97912 3.9777 5.62618 3.98086 8.27334C3.98086 8.32874 3.97815 8.38445 3.98086 8.43954C3.99477 8.74579 4.05076 8.7819 4.33984 8.63468C5.69704 7.94779 7.14992 7.57959 8.69678 7.56279C9.75472 7.55158 10.7869 7.73459 11.7793 8.07228C13.1755 8.54723 14.3458 9.32656 15.3348 10.3415C15.3641 10.3767 15.3903 10.4139 15.4132 10.4529C15.3637 10.5276 15.3192 10.6057 15.2636 10.6767C14.5555 11.5793 13.9827 12.5441 13.7048 13.6369C13.5959 14.0636 13.5165 14.4968 13.4239 14.9269Z" fill="#8BAFFF"/>
<path d="M13.4258 14.9258C13.5184 14.4957 13.5978 14.0625 13.7064 13.6358C13.9843 12.5433 14.557 11.5788 15.2651 10.6756C15.3208 10.6046 15.3669 10.5265 15.4148 10.4518C15.8921 10.0472 16.3309 9.60369 16.8517 9.24204C18.1933 8.31144 19.6923 7.76491 21.3729 7.62361C22.1617 7.55763 22.9377 7.60712 23.714 7.712C23.8877 7.73566 24.0011 7.76927 23.9994 7.9694C23.9899 9.13186 23.9929 10.2943 23.9902 11.4568C23.9902 11.4758 23.9709 11.4951 23.9478 11.5377C23.5528 11.4328 23.1552 11.3214 22.7375 11.2725C19.9468 10.9461 17.4421 12.9364 17.4299 15.5231C17.4173 18.2243 17.4265 20.9258 17.4254 23.6273C17.4254 23.998 17.4237 23.9977 17.0084 23.9977H13.7149C13.6314 23.9977 13.5452 24.0164 13.4258 23.9535V14.9258Z" fill="#2F2C9F"/>
<path d="M17.4217 5.78184C17.4217 6.76659 16.5395 7.59261 15.4789 7.59697C14.3459 7.60164 13.4431 6.80892 13.4356 5.80114C13.4271 4.80145 14.3422 3.96298 15.4398 3.96485C16.5242 3.96609 17.4214 4.78869 17.4217 5.78184Z" fill="#2F2C9F"/>
</g>
<defs>
<clipPath id="clip0_5302_86197">
<rect width="24" height="24" fill="white"/>
</clipPath>
</defs>
</svg>
