<svg width="222" height="246" viewBox="0 0 222 246" fill="none" xmlns="http://www.w3.org/2000/svg">
<g opacity="0.05" clip-path="url(#clip0_391_385)">
<path d="M166.046 108.394C161.743 110.233 157.044 110.79 152.778 112.887C141.435 118.451 133.187 126.913 128.603 138.706C119.427 162.293 129.483 188.947 151.76 199.836C158.727 203.241 166.074 205.101 173.809 205.119C203.381 205.174 232.955 205.186 262.529 205.153C266.916 205.153 266.961 205.153 266.971 209.581C267.004 220.348 267.004 231.115 266.971 241.883C266.971 245.959 266.937 245.955 263 245.955L39.3572 245.955C27.4082 245.955 15.466 245.844 3.50309 246.007C0.618835 246.049 -0.0425019 245.041 -0.014802 242.401C0.0925348 231.14 0.127159 219.875 -0.0148035 208.614C-0.0251911 205.738 1.00663 205.094 3.67968 205.094C33.1271 205.187 62.5756 205.217 92.0253 205.185C92.6416 205.185 93.2614 205.213 93.8742 205.185C97.2813 205.042 97.683 204.468 96.0452 201.505C88.4035 187.594 84.3074 172.702 84.1204 156.847C83.9957 146.003 86.0317 135.423 89.7885 125.251C95.0723 110.939 103.742 98.9444 115.034 88.8066C115.425 88.5064 115.84 88.2378 116.273 88.0032C117.104 88.511 117.973 88.9665 118.763 89.5369C128.804 96.7951 139.538 102.666 151.694 105.514C156.442 106.63 161.261 107.444 166.046 108.394Z" fill="#00C9FF"/>
<path d="M166.048 108.393C161.263 107.444 156.443 106.63 151.696 105.517C139.542 102.669 128.812 96.7981 118.764 89.5399C117.975 88.9696 117.105 88.4966 116.274 88.0062C111.773 83.1129 106.839 78.6161 102.816 73.2777C92.4629 59.5264 86.3827 44.1614 84.8107 26.9357C84.0767 18.8498 84.6272 10.896 85.7941 2.93879C86.0572 1.15814 86.4312 -0.00346383 88.6576 0.0139235C101.59 0.111304 114.522 0.0800081 127.455 0.107832C127.666 0.107832 127.881 0.306067 128.355 0.542562C127.188 4.59074 125.949 8.66676 125.405 12.948C121.773 41.553 143.916 67.2263 172.692 67.3515C202.743 67.4801 232.798 67.3862 262.852 67.3967C266.976 67.3967 266.973 67.414 266.973 71.6709L266.973 105.43C266.973 106.286 267.18 107.169 266.481 108.393L166.048 108.393Z" fill="#0036BF"/>
<path d="M64.3293 67.428C75.2847 67.428 84.4741 76.4703 84.5226 87.342C84.5745 98.9544 75.7556 108.209 64.544 108.285C53.4225 108.372 44.0945 98.9927 44.1153 87.7419C44.1291 76.6268 53.2805 67.4315 64.3293 67.428Z" fill="#0036BF"/>
</g>
<defs>
<clipPath id="clip0_391_385">
<rect width="246" height="267" fill="white" transform="translate(0 246) rotate(-90)"/>
</clipPath>
</defs>
</svg>
