<svg width="24" height="24" viewBox="0 0 24 24" fill="none" xmlns="http://www.w3.org/2000/svg">
<path d="M11.0771 7.86286C11.2113 7.72873 11.2866 7.54682 11.2866 7.35714C11.2866 7.16746 11.2113 6.98555 11.0771 6.85143C10.943 6.7173 10.7611 6.64195 10.5714 6.64195C10.3817 6.64195 10.1998 6.7173 10.0657 6.85143L8.04857 8.86857L7.48143 8.35143C7.34051 8.23098 7.15829 8.17004 6.97327 8.18148C6.78825 8.19291 6.61492 8.27583 6.48991 8.41271C6.36489 8.54959 6.298 8.72971 6.30335 8.91501C6.30869 9.10031 6.38587 9.27627 6.51857 9.40571L7.59 10.3843C7.72576 10.5079 7.90389 10.5745 8.08743 10.5702C8.27098 10.566 8.44583 10.4912 8.57571 10.3614L11.0757 7.86143L11.0771 7.86286ZM11.0771 13.9943C11.1437 14.0606 11.1964 14.1395 11.2324 14.2262C11.2685 14.313 11.287 14.406 11.287 14.5C11.287 14.594 11.2685 14.687 11.2324 14.7738C11.1964 14.8605 11.1437 14.9394 11.0771 15.0057L8.57714 17.5057C8.44701 17.6357 8.27175 17.7105 8.08787 17.7145C7.90399 17.7184 7.72565 17.6514 7.59 17.5271L6.51857 16.5486C6.38587 16.4191 6.30869 16.2432 6.30335 16.0579C6.298 15.8726 6.36489 15.6925 6.48991 15.5556C6.61492 15.4187 6.78825 15.3358 6.97327 15.3243C7.15829 15.3129 7.34051 15.3738 7.48143 15.4943L8.04857 16.0129L10.0657 13.9943C10.1321 13.9278 10.2109 13.875 10.2977 13.839C10.3844 13.803 10.4775 13.7844 10.5714 13.7844C10.6654 13.7844 10.7584 13.803 10.8452 13.839C10.932 13.875 11.0108 13.9278 11.0771 13.9943ZM13.4286 14.8571C13.2391 14.8571 13.0574 14.9324 12.9235 15.0664C12.7895 15.2003 12.7143 15.382 12.7143 15.5714C12.7143 15.7609 12.7895 15.9426 12.9235 16.0765C13.0574 16.2105 13.2391 16.2857 13.4286 16.2857H17C17.1894 16.2857 17.3711 16.2105 17.5051 16.0765C17.639 15.9426 17.7143 15.7609 17.7143 15.5714C17.7143 15.382 17.639 15.2003 17.5051 15.0664C17.3711 14.9324 17.1894 14.8571 17 14.8571H13.4286ZM12.7143 8.42857C12.7143 8.23913 12.7895 8.05745 12.9235 7.9235C13.0574 7.78954 13.2391 7.71429 13.4286 7.71429H17C17.1894 7.71429 17.3711 7.78954 17.5051 7.9235C17.639 8.05745 17.7143 8.23913 17.7143 8.42857C17.7143 8.61801 17.639 8.79969 17.5051 8.93365C17.3711 9.0676 17.1894 9.14286 17 9.14286H13.4286C13.2391 9.14286 13.0574 9.0676 12.9235 8.93365C12.7895 8.79969 12.7143 8.61801 12.7143 8.42857ZM6.28571 2C5.14907 2 4.05898 2.45153 3.25526 3.25526C2.45153 4.05898 2 5.14907 2 6.28571V17.7143C2 18.8509 2.45153 19.941 3.25526 20.7447C4.05898 21.5485 5.14907 22 6.28571 22H17.7143C18.8509 22 19.941 21.5485 20.7447 20.7447C21.5485 19.941 22 18.8509 22 17.7143V6.28571C22 5.14907 21.5485 4.05898 20.7447 3.25526C19.941 2.45153 18.8509 2 17.7143 2H6.28571ZM3.42857 6.28571C3.42857 5.52795 3.72959 4.80123 4.26541 4.26541C4.80123 3.72959 5.52795 3.42857 6.28571 3.42857H17.7143C18.472 3.42857 19.1988 3.72959 19.7346 4.26541C20.2704 4.80123 20.5714 5.52795 20.5714 6.28571V17.7143C20.5714 18.472 20.2704 19.1988 19.7346 19.7346C19.1988 20.2704 18.472 20.5714 17.7143 20.5714H6.28571C5.52795 20.5714 4.80123 20.2704 4.26541 19.7346C3.72959 19.1988 3.42857 18.472 3.42857 17.7143V6.28571Z" fill="white"/>
</svg>
