<svg width="24" height="21" viewBox="0 0 24 21" fill="none" xmlns="http://www.w3.org/2000/svg">
<g clip-path="url(#clip0_1781_16697)">
<path d="M13.577 10.4831L15.9166 13.1871L19.0628 15.2198L19.6101 10.5001L19.0628 5.88696L15.8563 7.67265L13.577 10.4831Z" fill="#00832D"/>
<path d="M0.000732422 14.7806V18.8024C0.000732422 19.7206 0.737944 20.4662 1.64633 20.4662H5.62394L6.44758 17.4275L5.62394 14.7806L2.89502 13.9478L0.000826167 14.7806H0.000732422Z" fill="#0066DA"/>
<path d="M5.62394 0.5L0.000732422 6.18569L2.89521 7.01649L5.62394 6.18569L6.43258 3.57479L5.62394 0.5Z" fill="#E94235"/>
<path d="M0.000854492 14.7823H5.62397V6.18555H0.000854492V14.7823Z" fill="#2684FC"/>
<path d="M22.655 2.90735L19.0627 5.88707V15.2198L22.6698 18.211C23.2097 18.6387 23.9996 18.249 23.9996 17.5549V3.5502C23.9996 2.84849 23.1909 2.46062 22.6549 2.90745" fill="#00AC47"/>
<path d="M13.577 10.4832V14.7806H5.62384V20.4663H17.4174C18.3257 20.4663 19.0629 19.7207 19.0629 18.8024V15.2198L13.577 10.4832Z" fill="#00AC47"/>
<path d="M17.4174 0.5H5.62384V6.18569H13.577V10.4831L19.063 5.88692V2.16398C19.063 1.2455 18.3257 0.500095 17.4174 0.500095" fill="#FFBA00"/>
</g>
<defs>
<clipPath id="clip0_1781_16697">
<rect width="24" height="20" fill="white" transform="translate(0 0.5)"/>
</clipPath>
</defs>
</svg>
