<svg width="16" height="16" viewBox="0 0 16 16" fill="none" xmlns="http://www.w3.org/2000/svg">
<path d="M5.22165 10.7797C5.06675 10.6245 4.92388 10.4578 4.79429 10.281C4.74272 10.2102 4.7056 10.13 4.68505 10.0448C4.66449 9.95968 4.66091 9.87134 4.6745 9.78482C4.68809 9.6983 4.71858 9.61531 4.76425 9.54058C4.80991 9.46584 4.86985 9.40084 4.94063 9.34927C5.01142 9.2977 5.09167 9.26058 5.1768 9.24002C5.26194 9.21947 5.35028 9.21588 5.4368 9.22947C5.52332 9.24306 5.60631 9.27356 5.68105 9.31922C5.75578 9.36489 5.82078 9.42482 5.87235 9.49561C5.95836 9.61428 6.05503 9.72829 6.1637 9.8363C6.69907 10.3717 7.41044 10.6663 8.16715 10.6663C8.92386 10.6663 9.6359 10.3717 10.1706 9.8363L13.8375 6.16942C14.9422 5.06469 14.9422 3.26659 13.8375 2.16186C12.7327 1.05713 10.9346 1.05713 9.82991 2.16186L9.12454 2.86723C9.06264 2.92913 8.98915 2.97823 8.90828 3.01173C8.8274 3.04523 8.74072 3.06247 8.65318 3.06247C8.56564 3.06247 8.47896 3.04523 8.39808 3.01173C8.3172 2.97823 8.24372 2.92913 8.18182 2.86723C8.11992 2.80533 8.07082 2.73184 8.03732 2.65097C8.00382 2.57009 7.98658 2.48341 7.98658 2.39587C7.98658 2.30833 8.00382 2.22165 8.03732 2.14077C8.07082 2.05989 8.11992 1.98641 8.18182 1.92451L8.88719 1.21913C9.66908 0.43847 10.7288 0 11.8337 0C12.9386 0 13.9983 0.43847 14.7802 1.21913C15.5605 2.00119 15.9988 3.06086 15.9988 4.16564C15.9988 5.27042 15.5605 6.33008 14.7802 7.11214L11.1133 10.779C10.3266 11.5664 9.27988 11.9998 8.16715 11.9998C7.05442 11.9998 6.00769 11.5664 5.22165 10.7797ZM4.16692 16C5.28032 16 6.32638 15.5666 7.11309 14.7792L7.81846 14.0739C7.88036 14.012 7.92947 13.9385 7.96297 13.8576C7.99647 13.7767 8.01371 13.6901 8.01371 13.6025C8.01371 13.515 7.99647 13.4283 7.96297 13.3474C7.92947 13.2665 7.88036 13.1931 7.81846 13.1312C7.75656 13.0693 7.68308 13.0201 7.6022 12.9866C7.52133 12.9531 7.43464 12.9359 7.3471 12.9359C7.25956 12.9359 7.17288 12.9531 7.09201 12.9866C7.01113 13.0201 6.93764 13.0693 6.87574 13.1312L6.1697 13.8365C5.63434 14.3719 4.92297 14.6666 4.16625 14.6666C3.40955 14.6666 2.69817 14.3719 2.16281 13.8365C1.62744 13.3012 1.33276 12.5898 1.33276 11.8331C1.33276 11.0764 1.62744 10.3643 2.16281 9.82963L5.82968 6.16275C6.36505 5.62739 7.07642 5.3327 7.83313 5.3327C8.58984 5.3327 9.30188 5.62739 9.83658 6.16275C9.94325 6.27009 10.0406 6.3841 10.1273 6.50277C10.1787 6.5736 10.2437 6.6336 10.3183 6.67934C10.393 6.72507 10.476 6.75566 10.5624 6.76934C10.6489 6.78302 10.7373 6.77953 10.8224 6.75908C10.9075 6.73862 10.9878 6.70159 11.0587 6.65011C11.1295 6.59863 11.1895 6.5337 11.2352 6.45904C11.281 6.38437 11.3115 6.30142 11.3252 6.21493C11.3389 6.12845 11.3354 6.04011 11.315 5.95497C11.2945 5.86983 11.2575 5.78956 11.206 5.71873C11.0773 5.54178 10.9348 5.37526 10.78 5.2207C9.99259 4.43265 8.94586 3.99929 7.83313 3.99929C6.7204 3.99929 5.67368 4.43265 4.88696 5.22003L1.22075 8.88691C0.832497 9.27282 0.52468 9.73193 0.315134 10.2377C0.105589 10.7434 -0.00151912 11.2857 1.62764e-05 11.8331C1.62764e-05 12.9458 0.433374 13.9925 1.22075 14.7792C1.60664 15.1675 2.06575 15.4754 2.57148 15.6849C3.07721 15.8945 3.6195 16.0016 4.16692 16Z" fill="#666666"/>
</svg>
