<svg width="300" height="225" viewBox="0 0 300 225" fill="none" xmlns="http://www.w3.org/2000/svg">
<path d="M221.078 89.6304L221 89.2585C221.242 89.2064 221.48 89.1506 221.718 89.0874L221.811 89.4593C221.558 89.5225 221.324 89.5783 221.078 89.6304Z" fill="#263238"/>
<path d="M223.25 89.0316L223.131 88.682C223.596 88.5221 224.06 88.3473 224.51 88.1576L224.655 88.4998C224.198 88.6931 223.726 88.8717 223.25 89.0316ZM226.02 87.8452L225.853 87.518C226.288 87.2911 226.723 87.0457 227.136 86.7742L227.329 87.0903C226.905 87.3841 226.463 87.6333 226.02 87.8452ZM228.579 86.2721L228.359 85.9709C228.761 85.6771 229.148 85.3685 229.512 85.0524L229.758 85.3313C229.367 85.6697 228.995 85.9858 228.575 86.287L228.579 86.2721ZM230.847 84.2937L230.576 84.0371C230.918 83.6652 231.242 83.2933 231.539 82.9214L231.833 83.1483C231.524 83.5574 231.193 83.9404 230.855 84.3086L230.847 84.2937ZM232.688 81.9136L232.372 81.7165C232.629 81.3011 232.858 80.8687 233.056 80.4224L233.399 80.5748C233.188 81.0402 232.95 81.4922 232.685 81.9285L232.688 81.9136ZM233.919 79.1542L233.547 79.0501C233.683 78.5835 233.784 78.1074 233.849 77.6258L234.22 77.6741C234.159 78.1798 234.057 78.6797 233.915 79.1691L233.919 79.1542ZM234.332 76.1791H233.96V76.0713C233.96 75.6213 233.934 75.1639 233.889 74.7139L234.261 74.6767C234.31 75.1399 234.335 75.6054 234.336 76.0713L234.332 76.1791ZM233.663 73.2672C233.562 72.7878 233.438 72.3136 233.291 71.8466L233.663 71.7351C233.815 72.2185 233.945 72.7094 234.034 73.1891L233.663 73.2672ZM232.781 70.4669C232.603 70.0281 232.409 69.5781 232.171 69.1244L232.506 68.9571C232.733 69.4182 232.941 69.8793 233.123 70.3256L232.781 70.4669ZM231.48 67.8154C231.249 67.41 230.996 66.9823 230.736 66.5435L231.052 66.3464C231.323 66.7889 231.58 67.2203 231.796 67.6331L231.48 67.8154ZM229.925 65.2902C229.654 64.8812 229.378 64.4684 229.096 64.0556L229.404 63.8473C229.687 64.2601 229.962 64.6729 230.234 65.0894L229.925 65.2902ZM228.252 62.8283C227.973 62.4193 227.69 62.0065 227.415 61.5974L227.724 61.3891C227.999 61.7982 228.278 62.211 228.557 62.6164L228.252 62.8283ZM226.589 60.3516C226.318 59.9351 226.054 59.5111 225.793 59.0871L226.11 58.8938C226.37 59.3177 226.634 59.7342 226.902 60.1507L226.589 60.3516ZM225.038 57.7967C224.786 57.3467 224.551 56.9004 224.339 56.4728L224.674 56.3054C224.882 56.7294 225.117 57.1682 225.362 57.6145L225.038 57.7967ZM223.718 55.1191C223.521 54.6542 223.346 54.1819 223.183 53.7208L223.555 53.6018C223.711 54.0518 223.886 54.5166 224.079 54.9741L223.718 55.1191ZM222.751 52.2816C222.629 51.7981 222.521 51.3035 222.439 50.794L222.811 50.7345C222.893 51.2106 222.993 51.694 223.116 52.17L222.751 52.2816ZM222.253 49.3065C222.216 48.8491 222.197 48.3879 222.197 47.9268V47.8041H222.569V47.9231C222.569 48.3731 222.569 48.8268 222.625 49.273L222.253 49.3065ZM222.625 46.3314L222.253 46.2942C222.253 46.1938 222.272 46.0897 222.283 45.9818C222.327 45.5839 222.383 45.186 222.45 44.8067L222.822 44.8699C222.759 45.2418 222.703 45.6322 222.658 46.0227C222.673 46.138 222.673 46.2384 222.644 46.3425L222.625 46.3314ZM223.142 43.4381L222.77 43.3377C222.908 42.8468 223.067 42.3671 223.246 41.9096L223.592 42.0435C223.423 42.504 223.279 42.9733 223.16 43.4493L223.142 43.4381ZM241.673 41.27C241.465 41.27 241.249 41.2402 241.037 41.2105C240.747 41.1696 240.457 41.1212 240.171 41.0655L240.245 40.6936C240.52 40.7456 240.807 40.794 241.089 40.8349C241.29 40.8609 241.495 40.8795 241.692 40.8907L241.673 41.27ZM243.202 41.1547L243.123 40.7828C243.59 40.6865 244.038 40.513 244.447 40.2696L244.641 40.5857C244.203 40.8568 243.723 41.0528 243.22 41.1659L243.202 41.1547ZM224.213 40.7122L223.882 40.5374C224.119 40.0939 224.381 39.6642 224.667 39.2506L224.972 39.4626C224.7 39.8676 224.453 40.2886 224.232 40.7233L224.213 40.7122ZM238.717 40.6899C238.236 40.5376 237.765 40.36 237.303 40.1581L237.456 39.8159C237.903 40.0146 238.361 40.1872 238.828 40.3328L238.717 40.6899ZM245.782 39.5296L245.474 39.3213C245.739 38.9372 245.895 38.4889 245.927 38.0234L246.299 38.0495C246.268 38.5829 246.093 39.0981 245.794 39.5407L245.782 39.5296ZM235.965 39.4738C235.529 39.2208 235.108 38.944 234.704 38.6445L234.923 38.347C235.317 38.6374 235.727 38.9056 236.151 39.1502L235.965 39.4738ZM225.886 38.3135L225.611 38.0643C225.948 37.6898 226.307 37.3359 226.686 37.0044L226.931 37.2834C226.567 37.6098 226.221 37.9575 225.898 38.3246L225.886 38.3135ZM233.544 37.685C233.173 37.3438 232.822 36.9825 232.491 36.6028L232.77 36.3574C233.092 36.7262 233.433 37.0775 233.793 37.4098L233.544 37.685ZM245.649 36.6772C245.435 36.2522 245.141 35.8731 244.782 35.5615L245.027 35.2826C245.423 35.6244 245.747 36.04 245.983 36.5061L245.649 36.6772ZM228.088 36.3834L227.876 36.0784C228.292 35.7944 228.723 35.5325 229.166 35.2938L229.341 35.621C228.914 35.8571 228.499 36.1153 228.099 36.3945L228.088 36.3834ZM231.561 35.4165C231.42 35.2157 231.282 35.0111 231.152 34.7992L230.669 34.9888L230.528 34.6467L230.955 34.4756C230.888 34.364 230.821 34.2525 230.758 34.1409L231.082 33.9587C231.156 34.0888 231.23 34.219 231.309 34.3306C231.517 34.2562 231.729 34.1855 231.944 34.1186L232.052 34.4905C231.87 34.5463 231.68 34.6058 231.509 34.669C231.625 34.8512 231.744 35.0409 231.881 35.2008L231.561 35.4165ZM243.585 34.7768C243.225 34.5975 242.852 34.4458 242.469 34.3231L242.223 34.245L242.331 33.8731L242.584 33.955C242.983 34.082 243.371 34.2399 243.744 34.4273L243.585 34.7768ZM233.477 34.1112L233.399 33.7393C233.878 33.6314 234.377 33.5422 234.886 33.4715L234.942 33.8434C234.451 33.9215 233.964 34.0145 233.488 34.1223L233.477 34.1112ZM240.803 33.9103C240.338 33.8285 239.847 33.7653 239.345 33.7207L239.375 33.3488C239.892 33.3934 240.394 33.4566 240.862 33.5422L240.803 33.9103ZM236.396 33.6946L236.37 33.3228C236.812 33.2967 237.255 33.2818 237.694 33.2818H237.876V33.6537H237.698C237.277 33.6649 236.839 33.676 236.407 33.7058L236.396 33.6946ZM230.111 32.8058C229.91 32.3521 229.739 31.8798 229.572 31.4001L229.944 31.2848C230.1 31.7534 230.275 32.2145 230.468 32.6571L230.111 32.8058ZM229.17 29.9497C229.059 29.47 228.966 28.9717 228.895 28.4622L229.267 28.4101C229.338 28.901 229.427 29.3882 229.535 29.8605L229.17 29.9497ZM228.754 26.9746C228.735 26.6399 228.724 26.2978 228.724 25.9557C228.724 25.7957 228.724 25.6321 228.724 25.4722H229.096C229.096 25.6321 229.096 25.7883 229.096 25.9482C229.096 26.2829 229.096 26.6213 229.122 26.9449L228.754 26.9746ZM229.196 23.9995L228.824 23.9623C228.876 23.4714 228.947 22.9694 229.033 22.4748L229.404 22.538C229.304 23.0326 229.233 23.5086 229.185 24.007L229.196 23.9995ZM229.706 21.0951L229.334 21.0058C229.453 20.5261 229.59 20.0426 229.743 19.5592L230.115 19.6745C229.947 20.1616 229.81 20.6339 229.695 21.1025L229.706 21.0951ZM230.598 18.2799L230.252 18.146C230.435 17.6812 230.624 17.2163 230.851 16.7663L231.186 16.9299C230.963 17.3762 230.766 17.8299 230.587 18.3022L230.598 18.2799ZM231.878 15.6283L231.554 15.4387C231.807 15.011 232.078 14.5833 232.361 14.1742L232.666 14.3862C232.376 14.7953 232.112 15.2118 231.866 15.6358L231.878 15.6283ZM233.555 13.2073L233.265 12.973C233.577 12.6012 233.912 12.207 234.258 11.8574L234.525 12.114C234.176 12.4636 233.849 12.8355 233.544 13.2148L233.555 13.2073ZM235.578 11.0653L235.329 10.7901C235.701 10.4591 236.072 10.1318 236.47 9.81572L236.701 10.1095C236.303 10.4256 235.924 10.7492 235.567 11.0727L235.578 11.0653ZM237.887 9.22814L237.675 8.91947C238.081 8.64055 238.505 8.36536 238.936 8.10504L239.126 8.42114C238.694 8.68518 238.293 8.95666 237.876 9.23558L237.887 9.22814ZM240.412 7.69224L240.238 7.36498C240.676 7.13069 241.13 6.90756 241.584 6.6993L241.74 7.03772C241.268 7.24969 240.833 7.47283 240.401 7.69968L240.412 7.69224ZM243.101 6.45757L242.963 6.108C243.432 5.92577 243.904 5.73611 244.373 5.59851L244.492 5.9704C244.02 6.11172 243.551 6.28279 243.09 6.46501L243.101 6.45757Z" fill="#263238"/>
<path d="M245.968 5.51683L245.875 5.14495C246.336 5.02594 246.619 4.97388 246.619 4.97388L246.686 5.34576C246.686 5.34576 246.418 5.40155 245.968 5.51683Z" fill="#263238"/>
<path d="M252.543 3.11442C251.595 0.176509 245.243 1.23267 246.482 5.07427C247.72 8.91587 253.492 6.05606 252.543 3.11442Z" fill="#263238"/>
<path d="M243.026 1.93918C243.075 0.648726 244.867 -0.344216 247.404 0.113206C249.94 0.570628 252.324 2.28131 252.324 2.28131C252.324 2.28131 249.821 3.79862 247.258 4.07753C244.696 4.35645 242.978 3.22591 243.026 1.93918Z" fill="#EBEBEB"/>
<path d="M252.323 2.27396C251.007 2.27396 249.694 2.23677 248.381 2.19586C247.069 2.15496 245.752 2.08802 244.439 1.98389C245.756 1.98389 247.072 2.01736 248.385 2.05826C249.698 2.09917 251.014 2.16611 252.323 2.27396Z" fill="#263238"/>
<path d="M245.574 0.790039C246.322 1.14758 247.026 1.58793 247.675 2.1028C247.301 1.9273 246.939 1.72857 246.589 1.50778C246.237 1.28851 245.898 1.04886 245.574 0.790039Z" fill="#263238"/>
<path d="M249.021 2.15112C248.349 2.69635 247.619 3.16764 246.846 3.55686C247.522 3.01096 248.255 2.53965 249.032 2.15112H249.021Z" fill="#263238"/>
<path d="M249.404 1.42603C249.78 1.60622 250.108 1.87099 250.364 2.19955C250.176 2.11099 250 1.99984 249.839 1.86857C249.678 1.73812 249.532 1.58965 249.404 1.42603Z" fill="#263238"/>
<path d="M245.444 9.58152C246.236 10.6005 248.27 10.355 250.059 8.50304C251.847 6.65104 252.796 3.8656 252.796 3.8656C252.796 3.8656 249.865 4.08873 247.63 5.35315C245.395 6.61757 244.648 8.55883 245.444 9.58152Z" fill="#EBEBEB"/>
<path d="M252.796 3.8656C251.725 4.60938 250.683 5.43497 249.638 6.23453C248.593 7.03409 247.571 7.85968 246.57 8.7113C247.641 7.96752 248.683 7.14565 249.724 6.34609C250.765 5.54653 251.78 4.72094 252.796 3.8656Z" fill="#263238"/>
<path d="M248.178 9.00506C248.377 8.64383 248.554 8.27131 248.71 7.8894C248.868 7.50643 249.002 7.11394 249.111 6.71423C248.912 7.07517 248.734 7.44773 248.579 7.8299C248.423 8.21344 248.289 8.60583 248.178 9.00506Z" fill="#263238"/>
<path d="M250.193 5.89607C249.323 5.84955 248.45 5.89568 247.59 6.03367C248.023 6.0597 248.458 6.0597 248.891 6.03367C249.328 6.0124 249.762 5.96646 250.193 5.89607Z" fill="#263238"/>
<path d="M250.91 6.26432C251.01 6.08066 251.087 5.88594 251.141 5.68417C251.196 5.48389 251.228 5.27806 251.237 5.07056C251.04 5.4387 250.928 5.84681 250.91 6.26432Z" fill="#263238"/>
<path d="M252.542 3.11429C252.332 3.18249 252.107 3.18682 251.894 3.12675C251.682 3.06668 251.492 2.9449 251.349 2.77684C251.205 2.60877 251.115 2.40198 251.09 2.18266C251.064 1.96333 251.104 1.74133 251.205 1.54476C251.305 1.3482 251.462 1.18592 251.655 1.07848C251.848 0.971031 252.068 0.923251 252.288 0.941187C252.508 0.959124 252.718 1.04197 252.891 1.17923C253.064 1.3165 253.193 1.50201 253.26 1.71227C253.35 1.99337 253.325 2.29877 253.191 2.56156C253.056 2.82435 252.823 3.02311 252.542 3.11429Z" fill="#455A64"/>
<path d="M253.229 5.23781C253.019 5.30573 252.793 5.30989 252.581 5.24977C252.369 5.18965 252.179 5.06794 252.036 4.90003C251.893 4.73212 251.803 4.52555 251.777 4.30643C251.751 4.08732 251.791 3.86549 251.892 3.669C251.992 3.47251 252.148 3.31017 252.341 3.20251C252.533 3.09486 252.754 3.04671 252.973 3.06417C253.193 3.08162 253.403 3.16389 253.576 3.30057C253.75 3.43725 253.878 3.62221 253.946 3.83207C253.992 3.9715 254.009 4.11847 253.997 4.26459C253.986 4.41071 253.945 4.55312 253.879 4.68367C253.812 4.81422 253.72 4.93035 253.609 5.02543C253.497 5.12051 253.368 5.19268 253.229 5.23781Z" fill="#455A64"/>
<path d="M230.872 176H69.543L92.8676 43.7034H254.197L230.872 176Z" fill="#E2E2E2"/>
<path d="M148.084 30H95.287L92.8672 43.7035H149.371L148.084 30Z" fill="#E2E2E2"/>
<g opacity="0.1">
<path d="M230.87 176H69.541L92.8656 43.7035H254.195L230.87 176Z" fill="#222222"/>
<path d="M148.082 30H95.2851L92.8652 43.7035H149.369L148.082 30Z" fill="#222222"/>
</g>
<path d="M89.589 35.5916C89.236 34.0763 89.236 32.5001 89.589 30.9849C89.9421 32.5001 89.9421 34.0763 89.589 35.5916Z" fill="#263238"/>
<path d="M84.8965 36.9472C84.3574 36.3881 83.8929 35.7617 83.5145 35.0833C83.1177 34.4192 82.8063 33.7075 82.5879 32.9653C83.1286 33.5211 83.5933 34.1461 83.9699 34.8239C84.3658 35.4904 84.6771 36.2037 84.8965 36.9472Z" fill="#263238"/>
<path d="M81.5086 40.4681C80.0208 40.0157 78.6567 39.2277 77.5215 38.1648C78.2638 38.3806 78.9756 38.6902 79.6395 39.0861C80.3178 39.4669 80.9458 39.9312 81.5086 40.4681Z" fill="#263238"/>
<path d="M80.3215 45.2125C78.8063 45.5656 77.2301 45.5656 75.7148 45.2125C77.2301 44.8595 78.8063 44.8595 80.3215 45.2125Z" fill="#263238"/>
<path d="M81.6987 49.9041C81.1372 50.4404 80.5111 50.9046 79.8348 51.2861C79.1709 51.682 78.4591 51.9916 77.7168 52.2074C78.2759 51.6682 78.9024 51.2037 79.5807 50.8254C80.2436 50.4275 80.9556 50.1178 81.6987 49.9041Z" fill="#263238"/>
<path d="M85.2154 53.2876C84.7647 54.7777 83.9765 56.1439 82.9121 57.2801C83.1277 56.5368 83.4392 55.8248 83.8387 55.162C84.2162 54.4813 84.6788 53.8514 85.2154 53.2876Z" fill="#263238"/>
<path d="M89.9595 54.4578C90.1442 55.2114 90.2331 55.9853 90.2243 56.7611C90.2357 57.5371 90.1467 58.3113 89.9595 59.0645C89.7698 58.3118 89.6808 57.5372 89.6948 56.7611C89.686 55.9853 89.7749 55.2114 89.9595 54.4578Z" fill="#263238"/>
<path d="M94.6504 53.1288C95.1895 53.6878 95.6541 54.3143 96.0324 54.9926C96.4303 55.6556 96.74 56.3676 96.9537 57.1106C95.8893 55.9745 95.1012 54.6083 94.6504 53.1182V53.1288Z" fill="#263238"/>
<path d="M98.0332 49.5811C98.7762 49.7948 99.4883 50.1045 100.151 50.5024C100.83 50.8807 101.456 51.3452 102.015 51.8844C101.272 51.6706 100.56 51.3609 99.897 50.9631C99.2187 50.5847 98.5923 50.1202 98.0332 49.5811Z" fill="#263238"/>
<path d="M99.2051 44.8367C100.722 44.4838 102.3 44.4838 103.817 44.8367C102.3 45.1896 100.722 45.1896 99.2051 44.8367Z" fill="#263238"/>
<path d="M97.8485 40.1454C98.409 39.6095 99.0353 39.1469 99.7123 38.7687C100.374 38.367 101.086 38.0554 101.83 37.842C100.694 38.9064 99.328 39.6946 97.8379 40.1454H97.8485Z" fill="#263238"/>
<path d="M94.3281 36.7616C94.5461 36.0201 94.8556 35.3086 95.2495 34.6436C95.6278 33.9653 96.0923 33.3388 96.6315 32.7798C96.4177 33.5228 96.108 34.2348 95.7101 34.8978C95.3318 35.5761 94.8673 36.2026 94.3281 36.7616Z" fill="#263238"/>
<path d="M230.633 176H68.9593L46 48.5061H207.679L230.633 176Z" fill="#E2E2E2"/>
<path d="M102.026 126.444C105.737 126.444 108.745 123.435 108.745 119.724C108.745 116.013 105.737 113.005 102.026 113.005C98.315 113.005 95.3066 116.013 95.3066 119.724C95.3066 123.435 98.315 126.444 102.026 126.444Z" fill="#263238"/>
<path d="M155.147 126.444C158.858 126.444 161.867 123.435 161.867 119.724C161.867 116.013 158.858 113.005 155.147 113.005C151.436 113.005 148.428 116.013 148.428 119.724C148.428 123.435 151.436 126.444 155.147 126.444Z" fill="#263238"/>
<path d="M138.239 127.519L137.868 126.815C137.836 126.751 134.363 120.333 127.379 120.333C121.024 120.333 119.436 126.375 119.394 126.634L119.203 127.402L117.662 127.032L117.847 126.259C117.847 126.184 119.743 118.745 127.379 118.745C135.321 118.745 139.118 125.777 139.276 126.078L139.647 126.777L138.239 127.519Z" fill="#263238"/>
<path d="M73.0337 218V204H74.6337L75.3337 206.64V218H73.0337ZM82.7337 218L74.3537 207.06L74.6337 204L83.0137 214.94L82.7337 218ZM82.7337 218L82.0337 215.54V204H84.3337V218H82.7337ZM91.4696 218.2C90.5363 218.2 89.6896 217.98 88.9296 217.54C88.1696 217.087 87.5629 216.48 87.1096 215.72C86.6696 214.96 86.4496 214.113 86.4496 213.18C86.4496 212.247 86.6696 211.407 87.1096 210.66C87.5629 209.913 88.1696 209.32 88.9296 208.88C89.6896 208.427 90.5363 208.2 91.4696 208.2C92.4163 208.2 93.2696 208.42 94.0296 208.86C94.7896 209.3 95.3896 209.9 95.8296 210.66C96.2829 211.407 96.5096 212.247 96.5096 213.18C96.5096 214.113 96.2829 214.96 95.8296 215.72C95.3896 216.48 94.7896 217.087 94.0296 217.54C93.2696 217.98 92.4163 218.2 91.4696 218.2ZM91.4696 216.08C92.0163 216.08 92.4963 215.96 92.9096 215.72C93.3363 215.467 93.6629 215.12 93.8896 214.68C94.1296 214.24 94.2496 213.74 94.2496 213.18C94.2496 212.62 94.1296 212.127 93.8896 211.7C93.6496 211.273 93.3229 210.94 92.9096 210.7C92.4963 210.447 92.0163 210.32 91.4696 210.32C90.9363 210.32 90.4563 210.447 90.0296 210.7C89.6163 210.94 89.2896 211.273 89.0496 211.7C88.8229 212.127 88.7096 212.62 88.7096 213.18C88.7096 213.74 88.8229 214.24 89.0496 214.68C89.2896 215.12 89.6163 215.467 90.0296 215.72C90.4563 215.96 90.9363 216.08 91.4696 216.08ZM104.223 212.06V210.16H107.763C108.47 210.16 109.016 209.98 109.403 209.62C109.803 209.247 110.003 208.733 110.003 208.08C110.003 207.493 109.81 207 109.423 206.6C109.036 206.2 108.49 206 107.783 206H104.223V204H107.883C108.763 204 109.536 204.18 110.203 204.54C110.87 204.887 111.383 205.367 111.743 205.98C112.116 206.58 112.303 207.267 112.303 208.04C112.303 208.853 112.116 209.56 111.743 210.16C111.383 210.76 110.87 211.227 110.203 211.56C109.536 211.893 108.763 212.06 107.883 212.06H104.223ZM102.643 218V204H104.943V218H102.643ZM110.323 218L105.423 211.92L107.563 211.14L113.223 218H110.323ZM118.795 218.2C117.835 218.2 116.969 217.987 116.195 217.56C115.435 217.12 114.829 216.52 114.375 215.76C113.935 215 113.715 214.147 113.715 213.2C113.715 212.253 113.935 211.407 114.375 210.66C114.815 209.9 115.409 209.3 116.155 208.86C116.915 208.42 117.755 208.2 118.675 208.2C119.569 208.2 120.355 208.407 121.035 208.82C121.729 209.233 122.269 209.8 122.655 210.52C123.055 211.24 123.255 212.06 123.255 212.98C123.255 213.14 123.242 213.307 123.215 213.48C123.202 213.64 123.175 213.82 123.135 214.02H115.255V212.22H121.995L121.175 212.94C121.149 212.353 121.035 211.86 120.835 211.46C120.635 211.06 120.349 210.753 119.975 210.54C119.615 210.327 119.169 210.22 118.635 210.22C118.075 210.22 117.589 210.34 117.175 210.58C116.762 210.82 116.442 211.16 116.215 211.6C115.989 212.027 115.875 212.54 115.875 213.14C115.875 213.74 115.995 214.267 116.235 214.72C116.475 215.173 116.815 215.527 117.255 215.78C117.695 216.02 118.202 216.14 118.775 216.14C119.269 216.14 119.722 216.053 120.135 215.88C120.562 215.707 120.922 215.453 121.215 215.12L122.615 216.54C122.149 217.087 121.582 217.5 120.915 217.78C120.249 218.06 119.542 218.2 118.795 218.2ZM129.439 218.2C128.492 218.2 127.632 217.98 126.859 217.54C126.099 217.1 125.499 216.5 125.059 215.74C124.619 214.98 124.399 214.133 124.399 213.2C124.399 212.253 124.619 211.407 125.059 210.66C125.499 209.9 126.099 209.3 126.859 208.86C127.632 208.42 128.492 208.2 129.439 208.2C130.185 208.2 130.879 208.347 131.519 208.64C132.172 208.92 132.725 209.327 133.179 209.86L131.739 211.32C131.459 210.987 131.119 210.74 130.719 210.58C130.332 210.407 129.905 210.32 129.439 210.32C128.892 210.32 128.405 210.447 127.979 210.7C127.565 210.94 127.239 211.273 126.999 211.7C126.772 212.127 126.659 212.627 126.659 213.2C126.659 213.76 126.772 214.26 126.999 214.7C127.239 215.127 127.565 215.467 127.979 215.72C128.405 215.96 128.892 216.08 129.439 216.08C129.905 216.08 130.332 216 130.719 215.84C131.119 215.667 131.459 215.413 131.739 215.08L133.179 216.54C132.725 217.073 132.172 217.487 131.519 217.78C130.879 218.06 130.185 218.2 129.439 218.2ZM138.97 218.2C138.036 218.2 137.19 217.98 136.43 217.54C135.67 217.087 135.063 216.48 134.61 215.72C134.17 214.96 133.95 214.113 133.95 213.18C133.95 212.247 134.17 211.407 134.61 210.66C135.063 209.913 135.67 209.32 136.43 208.88C137.19 208.427 138.036 208.2 138.97 208.2C139.916 208.2 140.77 208.42 141.53 208.86C142.29 209.3 142.89 209.9 143.33 210.66C143.783 211.407 144.01 212.247 144.01 213.18C144.01 214.113 143.783 214.96 143.33 215.72C142.89 216.48 142.29 217.087 141.53 217.54C140.77 217.98 139.916 218.2 138.97 218.2ZM138.97 216.08C139.516 216.08 139.996 215.96 140.41 215.72C140.836 215.467 141.163 215.12 141.39 214.68C141.63 214.24 141.75 213.74 141.75 213.18C141.75 212.62 141.63 212.127 141.39 211.7C141.15 211.273 140.823 210.94 140.41 210.7C139.996 210.447 139.516 210.32 138.97 210.32C138.436 210.32 137.956 210.447 137.53 210.7C137.116 210.94 136.79 211.273 136.55 211.7C136.323 212.127 136.21 212.62 136.21 213.18C136.21 213.74 136.323 214.24 136.55 214.68C136.79 215.12 137.116 215.467 137.53 215.72C137.956 215.96 138.436 216.08 138.97 216.08ZM145.839 218V208.4H148.039V218H145.839ZM148.039 212.66L147.279 212.28C147.279 211.067 147.546 210.087 148.079 209.34C148.626 208.58 149.446 208.2 150.539 208.2C151.019 208.2 151.452 208.287 151.839 208.46C152.226 208.633 152.586 208.913 152.919 209.3L151.479 210.78C151.306 210.593 151.112 210.46 150.899 210.38C150.686 210.3 150.439 210.26 150.159 210.26C149.546 210.26 149.039 210.453 148.639 210.84C148.239 211.227 148.039 211.833 148.039 212.66ZM157.711 218.2C156.844 218.2 156.057 217.98 155.351 217.54C154.657 217.1 154.104 216.507 153.691 215.76C153.291 215 153.091 214.153 153.091 213.22C153.091 212.273 153.291 211.427 153.691 210.68C154.104 209.92 154.657 209.32 155.351 208.88C156.057 208.427 156.844 208.2 157.711 208.2C158.444 208.2 159.091 208.36 159.651 208.68C160.224 208.987 160.677 209.413 161.011 209.96C161.344 210.507 161.511 211.127 161.511 211.82V214.58C161.511 215.273 161.344 215.893 161.011 216.44C160.691 216.987 160.244 217.42 159.671 217.74C159.097 218.047 158.444 218.2 157.711 218.2ZM158.071 216.12C158.617 216.12 159.091 216 159.491 215.76C159.904 215.507 160.224 215.16 160.451 214.72C160.677 214.28 160.791 213.773 160.791 213.2C160.791 212.627 160.677 212.12 160.451 211.68C160.224 211.24 159.904 210.9 159.491 210.66C159.091 210.407 158.617 210.28 158.071 210.28C157.537 210.28 157.064 210.407 156.651 210.66C156.251 210.9 155.931 211.24 155.691 211.68C155.464 212.12 155.351 212.627 155.351 213.2C155.351 213.773 155.464 214.28 155.691 214.72C155.931 215.16 156.251 215.507 156.651 215.76C157.064 216 157.537 216.12 158.071 216.12ZM162.851 218H160.651V215.42L161.031 213.08L160.651 210.76V203.6H162.851V218ZM169.596 218V204H171.896V218H169.596ZM171.176 212V209.9H178.296V212H171.176ZM171.176 206.1V204H178.636V206.1H171.176ZM184.653 218.2C183.72 218.2 182.873 217.98 182.113 217.54C181.353 217.087 180.747 216.48 180.293 215.72C179.853 214.96 179.633 214.113 179.633 213.18C179.633 212.247 179.853 211.407 180.293 210.66C180.747 209.913 181.353 209.32 182.113 208.88C182.873 208.427 183.72 208.2 184.653 208.2C185.6 208.2 186.453 208.42 187.213 208.86C187.973 209.3 188.573 209.9 189.013 210.66C189.467 211.407 189.693 212.247 189.693 213.18C189.693 214.113 189.467 214.96 189.013 215.72C188.573 216.48 187.973 217.087 187.213 217.54C186.453 217.98 185.6 218.2 184.653 218.2ZM184.653 216.08C185.2 216.08 185.68 215.96 186.093 215.72C186.52 215.467 186.847 215.12 187.073 214.68C187.313 214.24 187.433 213.74 187.433 213.18C187.433 212.62 187.313 212.127 187.073 211.7C186.833 211.273 186.507 210.94 186.093 210.7C185.68 210.447 185.2 210.32 184.653 210.32C184.12 210.32 183.64 210.447 183.213 210.7C182.8 210.94 182.473 211.273 182.233 211.7C182.007 212.127 181.893 212.62 181.893 213.18C181.893 213.74 182.007 214.24 182.233 214.68C182.473 215.12 182.8 215.467 183.213 215.72C183.64 215.96 184.12 216.08 184.653 216.08ZM195.463 218.2C194.649 218.2 193.923 218.02 193.283 217.66C192.656 217.3 192.163 216.807 191.803 216.18C191.456 215.54 191.283 214.807 191.283 213.98V208.4H193.483V213.88C193.483 214.347 193.556 214.747 193.703 215.08C193.863 215.4 194.089 215.647 194.383 215.82C194.689 215.993 195.049 216.08 195.463 216.08C196.103 216.08 196.589 215.893 196.923 215.52C197.269 215.133 197.443 214.587 197.443 213.88V208.4H199.643V213.98C199.643 214.82 199.463 215.56 199.103 216.2C198.756 216.827 198.269 217.32 197.643 217.68C197.016 218.027 196.289 218.2 195.463 218.2ZM208.435 218V212.46C208.435 211.82 208.228 211.293 207.815 210.88C207.415 210.467 206.895 210.26 206.255 210.26C205.828 210.26 205.448 210.353 205.115 210.54C204.781 210.727 204.521 210.987 204.335 211.32C204.148 211.653 204.055 212.033 204.055 212.46L203.195 211.98C203.195 211.247 203.355 210.6 203.675 210.04C203.995 209.467 204.435 209.02 204.995 208.7C205.568 208.367 206.208 208.2 206.915 208.2C207.635 208.2 208.275 208.387 208.835 208.76C209.395 209.12 209.835 209.593 210.155 210.18C210.475 210.753 210.635 211.353 210.635 211.98V218H208.435ZM201.855 218V208.4H204.055V218H201.855ZM216.89 218.2C216.024 218.2 215.237 217.98 214.53 217.54C213.837 217.1 213.284 216.507 212.87 215.76C212.47 215 212.27 214.153 212.27 213.22C212.27 212.273 212.47 211.427 212.87 210.68C213.284 209.92 213.837 209.32 214.53 208.88C215.237 208.427 216.024 208.2 216.89 208.2C217.624 208.2 218.27 208.36 218.83 208.68C219.404 208.987 219.857 209.413 220.19 209.96C220.524 210.507 220.69 211.127 220.69 211.82V214.58C220.69 215.273 220.524 215.893 220.19 216.44C219.87 216.987 219.424 217.42 218.85 217.74C218.277 218.047 217.624 218.2 216.89 218.2ZM217.25 216.12C217.797 216.12 218.27 216 218.67 215.76C219.084 215.507 219.404 215.16 219.63 214.72C219.857 214.28 219.97 213.773 219.97 213.2C219.97 212.627 219.857 212.12 219.63 211.68C219.404 211.24 219.084 210.9 218.67 210.66C218.27 210.407 217.797 210.28 217.25 210.28C216.717 210.28 216.244 210.407 215.83 210.66C215.43 210.9 215.11 211.24 214.87 211.68C214.644 212.12 214.53 212.627 214.53 213.2C214.53 213.773 214.644 214.28 214.87 214.72C215.11 215.16 215.43 215.507 215.83 215.76C216.244 216 216.717 216.12 217.25 216.12ZM222.03 218H219.83V215.42L220.21 213.08L219.83 210.76V203.6H222.03V218ZM224.952 213.36L224.652 203.6H226.952L226.652 213.36H224.952ZM225.792 218.2C225.365 218.2 225.012 218.06 224.732 217.78C224.465 217.487 224.332 217.133 224.332 216.72C224.332 216.293 224.465 215.94 224.732 215.66C225.012 215.38 225.365 215.24 225.792 215.24C226.219 215.24 226.565 215.38 226.832 215.66C227.112 215.94 227.252 216.293 227.252 216.72C227.252 217.133 227.112 217.487 226.832 217.78C226.565 218.06 226.219 218.2 225.792 218.2Z" fill="#444444"/>
</svg>
