<svg width="18" height="18" viewBox="0 0 18 18" fill="none" xmlns="http://www.w3.org/2000/svg">
<path d="M11.4375 11.8125C11.13 11.8125 10.875 12.0675 10.875 12.375V13.5C10.875 14.0175 10.455 14.4375 9.9375 14.4375H4.3125C3.795 14.4375 3.375 14.0175 3.375 13.5V4.5C3.375 3.9825 3.795 3.5625 4.3125 3.5625H6.75V7.125C6.75 7.4325 7.005 7.6875 7.3125 7.6875H10.875V8.625C10.875 8.9325 11.13 9.1875 11.4375 9.1875C11.745 9.1875 12 8.9325 12 8.625V7.125C12 6.975 11.94 6.8325 11.835 6.7275L7.71 2.6025C7.60461 2.49698 7.46163 2.43763 7.3125 2.4375H4.3125C3.1725 2.4375 2.25 3.36 2.25 4.5V13.5C2.25 14.64 3.1725 15.5625 4.3125 15.5625H9.9375C11.0775 15.5625 12 14.64 12 13.5V12.375C12 12.0675 11.745 11.8125 11.4375 11.8125ZM7.875 4.3575L10.08 6.5625H7.875V4.3575ZM15.705 10.7175C15.675 10.785 15.6375 10.845 15.585 10.8975L13.335 13.1475C13.2225 13.26 13.08 13.3125 12.9375 13.3125C12.795 13.3125 12.6525 13.26 12.54 13.1475C12.4354 13.0416 12.3767 12.8988 12.3767 12.75C12.3767 12.6012 12.4354 12.4584 12.54 12.3525L13.83 11.0625H7.3125C7.005 11.0625 6.75 10.8075 6.75 10.5C6.75 10.1925 7.005 9.9375 7.3125 9.9375H13.83L12.54 8.6475C12.3225 8.43 12.3225 8.07 12.54 7.8525C12.7575 7.635 13.1175 7.635 13.335 7.8525L15.585 10.1025C15.6375 10.155 15.675 10.215 15.705 10.2825C15.765 10.4175 15.765 10.575 15.705 10.71V10.7175Z" fill="#2F2C9F"/>
</svg>
