<svg width="18" height="18" viewBox="0 0 18 18" fill="none" xmlns="http://www.w3.org/2000/svg">
<path d="M9.33 11.0625H2.8125C2.505 11.0625 2.25 10.8075 2.25 10.5C2.25 10.1925 2.505 9.9375 2.8125 9.9375H9.33L8.04 8.6475C7.8225 8.43 7.8225 8.07 8.04 7.8525C8.2575 7.635 8.6175 7.635 8.835 7.8525L11.085 10.1025C11.1375 10.155 11.175 10.215 11.205 10.2825C11.265 10.4175 11.265 10.575 11.205 10.71C11.175 10.7775 11.1375 10.8375 11.085 10.89L8.835 13.14C8.7225 13.2525 8.58 13.305 8.4375 13.305C8.295 13.305 8.1525 13.2525 8.04 13.14C7.93539 13.0341 7.87672 12.8913 7.87672 12.7425C7.87672 12.5937 7.93539 12.4509 8.04 12.345L9.33 11.055V11.0625ZM15.75 7.125V13.5C15.75 14.64 14.8275 15.5625 13.6875 15.5625H8.0625C6.9225 15.5625 6 14.64 6 13.5V12.75C6 12.4425 6.255 12.1875 6.5625 12.1875C6.87 12.1875 7.125 12.4425 7.125 12.75V13.5C7.125 14.0175 7.545 14.4375 8.0625 14.4375H13.6875C14.205 14.4375 14.625 14.0175 14.625 13.5V7.6875H11.0625C10.755 7.6875 10.5 7.4325 10.5 7.125V3.5625H8.0625C7.545 3.5625 7.125 3.9825 7.125 4.5V8.25C7.125 8.5575 6.87 8.8125 6.5625 8.8125C6.255 8.8125 6 8.5575 6 8.25V4.5C6 3.36 6.9225 2.4375 8.0625 2.4375H11.0625C11.2125 2.4375 11.355 2.4975 11.46 2.6025L15.585 6.7275C15.69 6.8325 15.75 6.975 15.75 7.125ZM11.625 6.5625H13.83L11.625 4.3575V6.5625Z" fill="#2F2C9F"/>
</svg>
