<svg width="46" height="46" viewBox="0 0 46 46" fill="none" xmlns="http://www.w3.org/2000/svg">
<rect width="46" height="46" rx="23" fill="#EBF1FF"/>
<g clip-path="url(#clip0_4892_84368)">
<path d="M37.9835 22.2073C37.9508 21.7101 37.4815 21.3888 36.9859 21.441L35.8953 21.5558C35.3864 21.6093 35 22.0385 35 22.5503V23C35 29.6 29.6 35 23 35C16.4 35 11 29.6 11 23C11 16.4 16.4 11 23 11H23.295C23.8088 11 24.2389 10.6107 24.2901 10.0995L24.3901 9.0995C24.4489 8.51082 23.9866 8 23.395 8H23C14.75 8 8 14.75 8 23C8 31.25 14.75 38 23 38C31.25 38 38 31.25 38 23C38 22.7123 38 22.4591 37.9835 22.2073Z" fill="#8BAFFF"/>
<path d="M29 8V11H32.9L27.5 16.4L29.6 18.5L35 13.1V17H38V8H29Z" fill="#8BAFFF"/>
<path d="M25 22.5C24.4477 22.5 24 22.0523 24 21.5V16C24 15.4477 23.5523 15 23 15H22C21.4477 15 21 15.4477 21 16V24.5C21 25.0523 21.4477 25.5 22 25.5H27.5C28.0523 25.5 28.5 25.0523 28.5 24.5V23.5C28.5 22.9477 28.0523 22.5 27.5 22.5H25Z" fill="#8BAFFF"/>
</g>
<defs>
<clipPath id="clip0_4892_84368">
<rect width="30" height="30" fill="white" transform="translate(8 8)"/>
</clipPath>
</defs>
</svg>
