<svg width="18" height="19" viewBox="0 0 18 19" fill="none" xmlns="http://www.w3.org/2000/svg">
<path d="M13.6875 8.3125C13.8698 8.3125 14.0447 8.24007 14.1736 8.11114C14.3026 7.98221 14.375 7.80734 14.375 7.625V4.1875C14.375 3.6405 14.1577 3.11589 13.7709 2.7291C13.3841 2.3423 12.8595 2.125 12.3125 2.125H11.625C11.5418 1.54809 11.2519 1.021 10.8094 0.641667C10.3668 0.262329 9.80161 0.0565304 9.21875 0.0625044H5.78125C5.2043 0.0648297 4.64739 0.27438 4.21202 0.652965C3.77664 1.03155 3.49179 1.55397 3.40938 2.125H2.6875C2.14049 2.125 1.61589 2.3423 1.22909 2.7291C0.842299 3.11589 0.625 3.6405 0.625 4.1875V15.875C0.625 16.422 0.842299 16.9466 1.22909 17.3334C1.61589 17.7202 2.14049 17.9375 2.6875 17.9375H6.8125C6.99484 17.9375 7.1697 17.8651 7.29864 17.7361C7.42757 17.6072 7.5 17.4323 7.5 17.25C7.5 17.0677 7.42757 16.8928 7.29864 16.7639C7.1697 16.6349 6.99484 16.5625 6.8125 16.5625H2.6875C2.50516 16.5625 2.3303 16.4901 2.20136 16.3611C2.07243 16.2322 2 16.0573 2 15.875V4.1875C2 4.00517 2.07243 3.8303 2.20136 3.70137C2.3303 3.57244 2.50516 3.5 2.6875 3.5H3.61563C3.81016 3.91012 4.11673 4.25685 4.49993 4.50016C4.88313 4.74346 5.32734 4.87341 5.78125 4.875H9.21875C9.67266 4.87341 10.1169 4.74346 10.5001 4.50016C10.8833 4.25685 11.1898 3.91012 11.3844 3.5H12.3125C12.4948 3.5 12.6697 3.57244 12.7986 3.70137C12.9276 3.8303 13 4.00517 13 4.1875V7.625C13 7.80734 13.0724 7.98221 13.2014 8.11114C13.3303 8.24007 13.5052 8.3125 13.6875 8.3125ZM9.21875 3.5H5.78125C5.50775 3.5 5.24544 3.39136 5.05205 3.19796C4.85865 3.00456 4.75 2.74226 4.75 2.46875C4.75 2.19525 4.85865 1.93295 5.05205 1.73955C5.24544 1.54615 5.50775 1.4375 5.78125 1.4375H9.21875C9.49225 1.4375 9.75456 1.54615 9.94795 1.73955C10.1413 1.93295 10.25 2.19525 10.25 2.46875C10.25 2.74226 10.1413 3.00456 9.94795 3.19796C9.75456 3.39136 9.49225 3.5 9.21875 3.5Z" fill="black"/>
<path d="M11.625 6.9375C11.625 6.75516 11.5526 6.5803 11.4236 6.45136C11.2947 6.32243 11.1198 6.25 10.9375 6.25H4.0625C3.88016 6.25 3.7053 6.32243 3.57636 6.45136C3.44743 6.5803 3.375 6.75516 3.375 6.9375C3.375 7.11984 3.44743 7.2947 3.57636 7.42364C3.7053 7.55257 3.88016 7.625 4.0625 7.625H10.9375C11.1198 7.625 11.2947 7.55257 11.4236 7.42364C11.5526 7.2947 11.625 7.11984 11.625 6.9375ZM9.5625 9.6875C9.5625 9.50516 9.49007 9.33029 9.36114 9.20136C9.23221 9.07243 9.05734 9 8.875 9H4.0625C3.88016 9 3.7053 9.07243 3.57636 9.20136C3.44743 9.33029 3.375 9.50516 3.375 9.6875C3.375 9.86984 3.44743 10.0447 3.57636 10.1736C3.7053 10.3026 3.88016 10.375 4.0625 10.375H8.875C9.05734 10.375 9.23221 10.3026 9.36114 10.1736C9.49007 10.0447 9.5625 9.86984 9.5625 9.6875ZM4.0625 11.75C3.88016 11.75 3.7053 11.8224 3.57636 11.9514C3.44743 12.0803 3.375 12.2552 3.375 12.4375C3.375 12.6198 3.44743 12.7947 3.57636 12.9236C3.7053 13.0526 3.88016 13.125 4.0625 13.125H6.8125C6.99484 13.125 7.1697 13.0526 7.29864 12.9236C7.42757 12.7947 7.5 12.6198 7.5 12.4375C7.5 12.2552 7.42757 12.0803 7.29864 11.9514C7.1697 11.8224 6.99484 11.75 6.8125 11.75H4.0625ZM12.6562 9.6875C11.7724 9.6875 10.9084 9.94959 10.1735 10.4406C9.43866 10.9317 8.86589 11.6296 8.52766 12.4461C8.18943 13.2627 8.10094 14.1612 8.27337 15.0281C8.44579 15.8949 8.8714 16.6912 9.49637 17.3161C10.1213 17.9411 10.9176 18.3667 11.7844 18.5391C12.6513 18.7116 13.5498 18.6231 14.3664 18.2848C15.1829 17.9466 15.8808 17.3738 16.3719 16.639C16.8629 15.9041 17.125 15.0401 17.125 14.1562C17.1232 12.9716 16.6518 11.836 15.8141 10.9984C14.9765 10.1607 13.8409 9.68932 12.6562 9.6875ZM12.6562 17.25C12.0444 17.25 11.4462 17.0686 10.9375 16.7286C10.4287 16.3887 10.0322 15.9055 9.798 15.3402C9.56384 14.7749 9.50257 14.1528 9.62195 13.5527C9.74132 12.9526 10.036 12.4013 10.4686 11.9686C10.9013 11.536 11.4526 11.2413 12.0527 11.1219C12.6528 11.0026 13.2749 11.0638 13.8402 11.298C14.4055 11.5322 14.8887 11.9287 15.2286 12.4375C15.5686 12.9462 15.75 13.5444 15.75 14.1562C15.7482 14.9762 15.4217 15.7621 14.8419 16.3419C14.2621 16.9217 13.4762 17.2482 12.6562 17.25Z" fill="black"/>
<path d="M13.6892 12.6369L12.1149 14.2181L11.5717 13.6681C11.4423 13.5387 11.2667 13.4659 11.0836 13.4659C10.9005 13.4659 10.725 13.5387 10.5955 13.6681C10.466 13.7976 10.3933 13.9732 10.3933 14.1563C10.3933 14.3393 10.466 14.5149 10.5955 14.6444L11.6267 15.6756C11.6907 15.7401 11.7667 15.7912 11.8505 15.8261C11.9343 15.861 12.0241 15.879 12.1149 15.879C12.2056 15.879 12.2955 15.861 12.3793 15.8261C12.463 15.7912 12.5391 15.7401 12.603 15.6756L14.6655 13.6131C14.795 13.4837 14.8677 13.3081 14.8677 13.125C14.8677 12.9419 14.795 12.7663 14.6655 12.6369C14.536 12.5074 14.3605 12.4347 14.1774 12.4347C13.9943 12.4347 13.8187 12.5074 13.6892 12.6369Z" fill="black"/>
</svg>
