<svg width="22" height="22" viewBox="0 0 22 22" fill="none" xmlns="http://www.w3.org/2000/svg">
<path d="M13.5929 9.00939C14.2805 8.32176 14.6668 7.38913 14.6668 6.41667C14.6668 5.44421 14.2805 4.51157 13.5929 3.82394C12.9053 3.13631 11.9726 2.75 11.0002 2.75C10.0277 2.75 9.09507 3.13631 8.40744 3.82394C7.7198 4.51157 7.3335 5.44421 7.3335 6.41667C7.3335 7.38913 7.7198 8.32176 8.40744 9.00939C9.09507 9.69703 10.0277 10.0833 11.0002 10.0833C11.9726 10.0833 12.9053 9.69703 13.5929 9.00939Z" stroke="#222222" stroke-width="1.83333" stroke-linecap="round" stroke-linejoin="round"/>
<path d="M6.46289 14.7127C7.66625 13.5094 9.29836 12.8333 11.0002 12.8333C12.702 12.8333 14.3341 13.5094 15.5374 14.7127C16.7408 15.9161 17.4168 17.5482 17.4168 19.25H4.5835C4.5835 17.5482 5.25954 15.9161 6.46289 14.7127Z" stroke="#222222" stroke-width="1.83333" stroke-linecap="round" stroke-linejoin="round"/>
</svg>
