<svg width="20" height="14" viewBox="0 0 20 14" fill="none" xmlns="http://www.w3.org/2000/svg">
<rect width="20" height="14" fill="#C7C7C7"/>
<g id="employee management">
<path d="M-1766 -707C-1766 -708.105 -1765.1 -709 -1764 -709H10201C10202.1 -709 10203 -708.105 10203 -707V10525C10203 10526.1 10202.1 10527 10201 10527H-1764C-1765.1 10527 -1766 10526.1 -1766 10525V-707Z" fill="#E5E5E5"/>
<g id="employee management_2" clip-path="url(#clip0_732_2312)">
<rect width="1440" height="786" transform="translate(-1247 -373)" fill="#F9F9F9"/>
<g id="Frame 1287">
<g id="Frame 678">
<g id="Employee table row">
<g id="Employee table">
<rect width="177" height="44" transform="translate(-20 -15)" fill="white"/>
<g id="Frame 553">
<g id="ph:eye-bold">
<path id="Vector" d="M19.6093 6.61953C19.5804 6.55625 18.896 5.03672 17.3843 3.525C15.3617 1.50547 12.8124 0.4375 9.99994 0.4375C7.18744 0.4375 4.63822 1.50547 2.61791 3.525C1.10619 5.03672 0.421816 6.55625 0.390566 6.61953C0.337638 6.73953 0.310303 6.86924 0.310303 7.00039C0.310303 7.13154 0.337638 7.26125 0.390566 7.38125C0.419472 7.44531 1.10385 8.96406 2.61635 10.4758C4.63822 12.4953 7.18744 13.5625 9.99994 13.5625C12.8124 13.5625 15.3617 12.4953 17.3812 10.4758C18.8937 8.96406 19.5781 7.44531 19.607 7.38125C19.6603 7.26142 19.688 7.13179 19.6884 7.00064C19.6888 6.86949 19.6619 6.73969 19.6093 6.61953ZM16.0109 9.19766C14.3335 10.8492 12.3117 11.6875 9.99994 11.6875C7.68822 11.6875 5.66635 10.8492 3.99135 9.19687C3.33224 8.54471 2.76528 7.80559 2.30619 7C2.76542 6.19474 3.33236 5.45589 3.99135 4.80391C5.66713 3.15078 7.68822 2.3125 9.99994 2.3125C12.3117 2.3125 14.3328 3.15078 16.0085 4.80391C16.6676 5.45583 17.2345 6.19469 17.6937 7C17.2345 7.80554 16.6676 8.54465 16.0085 9.19687L16.0109 9.19766ZM9.99994 3.5625C9.32007 3.5625 8.65546 3.76411 8.09017 4.14182C7.52487 4.51954 7.08428 5.0564 6.82411 5.68453C6.56393 6.31265 6.49585 7.00381 6.62849 7.67062C6.76113 8.33743 7.08852 8.94994 7.56926 9.43068C8.05 9.91142 8.66251 10.2388 9.32932 10.3714C9.99613 10.5041 10.6873 10.436 11.3154 10.1758C11.9435 9.91566 12.4804 9.47507 12.8581 8.90977C13.2358 8.34448 13.4374 7.67987 13.4374 7C13.4364 6.08864 13.0739 5.21489 12.4295 4.57046C11.785 3.92603 10.9113 3.56353 9.99994 3.5625ZM9.99994 8.5625C9.69091 8.5625 9.38881 8.47086 9.13186 8.29917C8.87491 8.12748 8.67464 7.88345 8.55638 7.59794C8.43812 7.31243 8.40717 6.99827 8.46746 6.69517C8.52775 6.39208 8.67657 6.11367 8.89509 5.89515C9.11361 5.67663 9.39202 5.52781 9.69511 5.46752C9.99821 5.40723 10.3124 5.43818 10.5979 5.55644C10.8834 5.6747 11.1274 5.87497 11.2991 6.13192C11.4708 6.38887 11.5624 6.69097 11.5624 7C11.5624 7.4144 11.3978 7.81183 11.1048 8.10485C10.8118 8.39788 10.4143 8.5625 9.99994 8.5625Z" fill="#999999"/>
</g>
</g>
</g>
</g>
</g>
</g>
</g>
<path d="M-1764 -708H10201V-710H-1764V-708ZM10202 -707V10525H10204V-707H10202ZM10201 10526H-1764V10528H10201V10526ZM-1765 10525V-707H-1767V10525H-1765ZM-1764 10526C-1764.55 10526 -1765 10525.6 -1765 10525H-1767C-1767 10526.7 -1765.66 10528 -1764 10528V10526ZM10202 10525C10202 10525.6 10201.6 10526 10201 10526V10528C10202.7 10528 10204 10526.7 10204 10525H10202ZM10201 -708C10201.6 -708 10202 -707.552 10202 -707H10204C10204 -708.657 10202.7 -710 10201 -710V-708ZM-1764 -710C-1765.66 -710 -1767 -708.657 -1767 -707H-1765C-1765 -707.552 -1764.55 -708 -1764 -708V-710Z" fill="black" fill-opacity="0.1"/>
</g>
<defs>
<clipPath id="clip0_732_2312">
<rect width="1440" height="786" fill="white" transform="translate(-1247 -373)"/>
</clipPath>
</defs>
</svg>
