<svg width="48" height="48" viewBox="0 0 48 48" fill="none" xmlns="http://www.w3.org/2000/svg">
<rect width="48" height="48" fill="#C7C7C7"/>
<path d="M-12436 -1755C-12436 -1756.1 -12435.1 -1757 -12434 -1757H933C934.104 -1757 935 -1756.1 935 -1755V9408C935 9409.1 934.105 9410 933 9410H-12434C-12435.1 9410 -12436 9409.1 -12436 9408V-1755Z" fill="#E5E5E5"/>
<g clip-path="url(#clip0_3210_46238)">
<rect width="1440" height="823" transform="translate(-697 -315)" fill="#F9F9F9"/>
<rect width="220" height="44" transform="translate(-70 -1)" fill="white"/>
<path d="M-46.15 26.14C-46.9153 26.14 -47.5687 26 -48.11 25.72C-48.6513 25.44 -49.132 25.034 -49.552 24.502L-48.656 23.606C-48.348 24.0353 -47.9933 24.362 -47.592 24.586C-47.1907 24.8007 -46.696 24.908 -46.108 24.908C-45.5293 24.908 -45.0673 24.782 -44.722 24.53C-44.3673 24.278 -44.19 23.9327 -44.19 23.494C-44.19 23.13 -44.274 22.836 -44.442 22.612C-44.61 22.388 -44.8387 22.206 -45.128 22.066C-45.408 21.9167 -45.716 21.786 -46.052 21.674C-46.388 21.5527 -46.724 21.4267 -47.06 21.296C-47.396 21.156 -47.704 20.988 -47.984 20.792C-48.264 20.5867 -48.4927 20.3207 -48.67 19.994C-48.838 19.6673 -48.922 19.2567 -48.922 18.762C-48.922 18.2113 -48.7913 17.7447 -48.53 17.362C-48.2593 16.97 -47.8953 16.6713 -47.438 16.466C-46.9713 16.2513 -46.4487 16.144 -45.87 16.144C-45.2353 16.144 -44.666 16.27 -44.162 16.522C-43.658 16.7647 -43.2473 17.0867 -42.93 17.488L-43.826 18.384C-44.1153 18.048 -44.428 17.796 -44.764 17.628C-45.0907 17.46 -45.4687 17.376 -45.898 17.376C-46.4207 17.376 -46.836 17.4927 -47.144 17.726C-47.452 17.95 -47.606 18.2673 -47.606 18.678C-47.606 19.0047 -47.522 19.2707 -47.354 19.476C-47.1767 19.672 -46.948 19.84 -46.668 19.98C-46.388 20.12 -46.08 20.2507 -45.744 20.372C-45.3987 20.484 -45.058 20.61 -44.722 20.75C-44.386 20.89 -44.078 21.0673 -43.798 21.282C-43.518 21.4967 -43.294 21.7767 -43.126 22.122C-42.9487 22.458 -42.86 22.8827 -42.86 23.396C-42.86 24.2547 -43.1587 24.9267 -43.756 25.412C-44.344 25.8973 -45.142 26.14 -46.15 26.14ZM-38.3681 26.14C-39.0214 26.14 -39.6094 25.986 -40.1321 25.678C-40.6547 25.37 -41.0701 24.9547 -41.3781 24.432C-41.6861 23.9 -41.8401 23.3073 -41.8401 22.654C-41.8401 22.01 -41.6861 21.4313 -41.3781 20.918C-41.0701 20.3953 -40.6547 19.98 -40.1321 19.672C-39.6094 19.364 -39.0214 19.21 -38.3681 19.21C-37.7241 19.21 -37.1407 19.364 -36.6181 19.672C-36.0861 19.9707 -35.6661 20.3813 -35.3581 20.904C-35.0501 21.4267 -34.8961 22.01 -34.8961 22.654C-34.8961 23.3073 -35.0501 23.9 -35.3581 24.432C-35.6661 24.9547 -36.0861 25.37 -36.6181 25.678C-37.1407 25.986 -37.7241 26.14 -38.3681 26.14ZM-38.3681 24.922C-37.9481 24.922 -37.5747 24.824 -37.2481 24.628C-36.9214 24.432 -36.6647 24.166 -36.4781 23.83C-36.2914 23.4847 -36.1981 23.0927 -36.1981 22.654C-36.1981 22.2247 -36.2961 21.842 -36.4921 21.506C-36.6787 21.17 -36.9354 20.9087 -37.2621 20.722C-37.5794 20.526 -37.9481 20.428 -38.3681 20.428C-38.7881 20.428 -39.1614 20.526 -39.4881 20.722C-39.8147 20.9087 -40.0714 21.17 -40.2581 21.506C-40.4447 21.842 -40.5381 22.2247 -40.5381 22.654C-40.5381 23.0927 -40.4447 23.4847 -40.2581 23.83C-40.0714 24.166 -39.8147 24.432 -39.4881 24.628C-39.1614 24.824 -38.7881 24.922 -38.3681 24.922ZM-32.7295 26V18.356C-32.7295 17.8613 -32.6221 17.432 -32.4075 17.068C-32.1928 16.6947 -31.8988 16.4007 -31.5255 16.186C-31.1428 15.9713 -30.6995 15.864 -30.1955 15.864C-29.8128 15.864 -29.4815 15.9293 -29.2015 16.06C-28.9215 16.1907 -28.6648 16.382 -28.4315 16.634L-29.2575 17.446C-29.3788 17.3153 -29.5141 17.2173 -29.6635 17.152C-29.8128 17.0773 -29.9948 17.04 -30.2095 17.04C-30.6108 17.04 -30.9235 17.1567 -31.1475 17.39C-31.3621 17.6233 -31.4695 17.9453 -31.4695 18.356V26H-32.7295ZM-34.3675 20.498V19.35H-29.3555V20.498H-34.3675ZM-27.4642 26V16.564H-26.2042V26H-27.4642ZM-29.1022 20.498V19.35H-24.5662V20.498H-29.1022ZM-21.4279 26L-24.0599 19.35H-22.7439L-20.8399 24.53H-21.2599L-19.3699 19.35H-18.6419L-16.7519 24.53H-17.1719L-15.2679 19.35H-13.9519L-16.5699 26H-17.3119L-19.2299 20.974H-18.7679L-20.6999 26H-21.4279ZM-10.1953 26.14C-10.8019 26.14 -11.3526 25.9907 -11.8473 25.692C-12.3419 25.384 -12.7339 24.9687 -13.0233 24.446C-13.3033 23.9233 -13.4433 23.3353 -13.4433 22.682C-13.4433 22.0287 -13.3033 21.4407 -13.0233 20.918C-12.7339 20.3953 -12.3466 19.98 -11.8613 19.672C-11.3666 19.364 -10.8113 19.21 -10.1953 19.21C-9.69127 19.21 -9.24327 19.3173 -8.85127 19.532C-8.44993 19.7373 -8.12793 20.0267 -7.88527 20.4C-7.6426 20.764 -7.50727 21.1887 -7.47927 21.674V23.676C-7.50727 24.152 -7.6426 24.5767 -7.88527 24.95C-8.1186 25.3233 -8.43593 25.6173 -8.83727 25.832C-9.22927 26.0373 -9.68193 26.14 -10.1953 26.14ZM-9.98527 24.95C-9.35993 24.95 -8.85593 24.74 -8.47327 24.32C-8.0906 23.8907 -7.89927 23.3447 -7.89927 22.682C-7.89927 22.2247 -7.98793 21.828 -8.16527 21.492C-8.33327 21.1467 -8.57593 20.8807 -8.89327 20.694C-9.2106 20.498 -9.57927 20.4 -9.99927 20.4C-10.4193 20.4 -10.7926 20.498 -11.1193 20.694C-11.4366 20.89 -11.6886 21.1607 -11.8753 21.506C-12.0526 21.842 -12.1413 22.2293 -12.1413 22.668C-12.1413 23.116 -12.0526 23.5127 -11.8753 23.858C-11.6886 24.194 -11.4319 24.46 -11.1053 24.656C-10.7786 24.852 -10.4053 24.95 -9.98527 24.95ZM-7.98327 26V24.208L-7.74527 22.584L-7.98327 20.974V19.35H-6.70927V26H-7.98327ZM-4.87483 26V19.35H-3.61483V26H-4.87483ZM-3.61483 22.206L-4.09083 21.996C-4.09083 21.1467 -3.89483 20.47 -3.50283 19.966C-3.11083 19.462 -2.54616 19.21 -1.80883 19.21C-1.47283 19.21 -1.16949 19.2707 -0.898828 19.392C-0.628161 19.504 -0.376161 19.6953 -0.142828 19.966L-0.968828 20.82C-1.10883 20.6707 -1.26283 20.5633 -1.43083 20.498C-1.59883 20.4327 -1.79483 20.4 -2.01883 20.4C-2.48549 20.4 -2.86816 20.5493 -3.16683 20.848C-3.46549 21.1467 -3.61483 21.5993 -3.61483 22.206ZM3.60556 26.14C2.9429 26.14 2.34556 25.9907 1.81356 25.692C1.28156 25.384 0.861563 24.9687 0.553563 24.446C0.245563 23.9233 0.0915625 23.3307 0.0915625 22.668C0.0915625 22.0147 0.240896 21.4267 0.539563 20.904C0.847563 20.3813 1.25823 19.9707 1.77156 19.672C2.29423 19.364 2.87756 19.21 3.52156 19.21C4.13756 19.21 4.6789 19.35 5.14556 19.63C5.62156 19.91 5.99023 20.2973 6.25156 20.792C6.52223 21.2867 6.65756 21.8467 6.65756 22.472C6.65756 22.5653 6.6529 22.668 6.64356 22.78C6.63423 22.8827 6.61556 23.004 6.58756 23.144H0.973563V22.094H5.91556L5.45356 22.5C5.45356 22.052 5.37423 21.674 5.21556 21.366C5.0569 21.0487 4.8329 20.806 4.54356 20.638C4.25423 20.4607 3.90423 20.372 3.49356 20.372C3.06423 20.372 2.68623 20.4653 2.35956 20.652C2.0329 20.8387 1.7809 21.1 1.60356 21.436C1.42623 21.772 1.33756 22.1687 1.33756 22.626C1.33756 23.0927 1.4309 23.5033 1.61756 23.858C1.80423 24.2033 2.07023 24.474 2.41556 24.67C2.7609 24.8567 3.15756 24.95 3.60556 24.95C3.9789 24.95 4.31956 24.8847 4.62756 24.754C4.9449 24.6233 5.21556 24.4273 5.43956 24.166L6.25156 24.992C5.93423 25.3653 5.54223 25.65 5.07556 25.846C4.61823 26.042 4.12823 26.14 3.60556 26.14ZM12.0355 26V24.796H14.7375C15.4562 24.796 16.0862 24.642 16.6275 24.334C17.1689 24.0167 17.5889 23.5827 17.8875 23.032C18.1955 22.4813 18.3495 21.8467 18.3495 21.128C18.3495 20.4187 18.1955 19.7887 17.8875 19.238C17.5795 18.6873 17.1549 18.258 16.6135 17.95C16.0722 17.642 15.4469 17.488 14.7375 17.488H12.0495V16.284H14.7655C15.4749 16.284 16.1282 16.4053 16.7255 16.648C17.3322 16.8907 17.8549 17.2313 18.2935 17.67C18.7415 18.1087 19.0869 18.622 19.3295 19.21C19.5815 19.798 19.7075 20.442 19.7075 21.142C19.7075 21.8327 19.5815 22.4767 19.3295 23.074C19.0869 23.662 18.7462 24.1753 18.3075 24.614C17.8689 25.0527 17.3462 25.3933 16.7395 25.636C16.1422 25.8787 15.4935 26 14.7935 26H12.0355ZM11.1675 26V16.284H12.4835V26H11.1675ZM24.3868 26.14C23.7241 26.14 23.1268 25.9907 22.5948 25.692C22.0628 25.384 21.6428 24.9687 21.3348 24.446C21.0268 23.9233 20.8728 23.3307 20.8728 22.668C20.8728 22.0147 21.0221 21.4267 21.3208 20.904C21.6288 20.3813 22.0395 19.9707 22.5528 19.672C23.0755 19.364 23.6588 19.21 24.3028 19.21C24.9188 19.21 25.4601 19.35 25.9268 19.63C26.4028 19.91 26.7715 20.2973 27.0328 20.792C27.3035 21.2867 27.4388 21.8467 27.4388 22.472C27.4388 22.5653 27.4341 22.668 27.4248 22.78C27.4155 22.8827 27.3968 23.004 27.3688 23.144H21.7548V22.094H26.6968L26.2348 22.5C26.2348 22.052 26.1555 21.674 25.9968 21.366C25.8381 21.0487 25.6141 20.806 25.3248 20.638C25.0355 20.4607 24.6855 20.372 24.2748 20.372C23.8455 20.372 23.4675 20.4653 23.1408 20.652C22.8141 20.8387 22.5621 21.1 22.3848 21.436C22.2075 21.772 22.1188 22.1687 22.1188 22.626C22.1188 23.0927 22.2121 23.5033 22.3988 23.858C22.5855 24.2033 22.8515 24.474 23.1968 24.67C23.5421 24.8567 23.9388 24.95 24.3868 24.95C24.7601 24.95 25.1008 24.8847 25.4088 24.754C25.7261 24.6233 25.9968 24.4273 26.2208 24.166L27.0328 24.992C26.7155 25.3653 26.3235 25.65 25.8568 25.846C25.3995 26.042 24.9095 26.14 24.3868 26.14ZM30.9853 26L27.9333 19.35H29.3333L31.7833 24.964H30.9713L33.4353 19.35H34.7793L31.7273 26H30.9853ZM38.6739 26.14C38.0113 26.14 37.4139 25.9907 36.8819 25.692C36.3499 25.384 35.9299 24.9687 35.6219 24.446C35.3139 23.9233 35.1599 23.3307 35.1599 22.668C35.1599 22.0147 35.3093 21.4267 35.6079 20.904C35.9159 20.3813 36.3266 19.9707 36.8399 19.672C37.3626 19.364 37.9459 19.21 38.5899 19.21C39.2059 19.21 39.7473 19.35 40.2139 19.63C40.6899 19.91 41.0586 20.2973 41.3199 20.792C41.5906 21.2867 41.7259 21.8467 41.7259 22.472C41.7259 22.5653 41.7213 22.668 41.7119 22.78C41.7026 22.8827 41.6839 23.004 41.6559 23.144H36.0419V22.094H40.9839L40.5219 22.5C40.5219 22.052 40.4426 21.674 40.2839 21.366C40.1253 21.0487 39.9013 20.806 39.6119 20.638C39.3226 20.4607 38.9726 20.372 38.5619 20.372C38.1326 20.372 37.7546 20.4653 37.4279 20.652C37.1013 20.8387 36.8493 21.1 36.6719 21.436C36.4946 21.772 36.4059 22.1687 36.4059 22.626C36.4059 23.0927 36.4993 23.5033 36.6859 23.858C36.8726 24.2033 37.1386 24.474 37.4839 24.67C37.8293 24.8567 38.2259 24.95 38.6739 24.95C39.0473 24.95 39.3879 24.8847 39.6959 24.754C40.0133 24.6233 40.2839 24.4273 40.5079 24.166L41.3199 24.992C41.0026 25.3653 40.6106 25.65 40.1439 25.846C39.6866 26.042 39.1966 26.14 38.6739 26.14ZM43.0998 26V16.004H44.3598V26H43.0998ZM49.2413 26.14C48.588 26.14 48 25.986 47.4773 25.678C46.9546 25.37 46.5393 24.9547 46.2313 24.432C45.9233 23.9 45.7693 23.3073 45.7693 22.654C45.7693 22.01 45.9233 21.4313 46.2313 20.918C46.5393 20.3953 46.9546 19.98 47.4773 19.672C48 19.364 48.588 19.21 49.2413 19.21C49.8853 19.21 50.4686 19.364 50.9913 19.672C51.5233 19.9707 51.9433 20.3813 52.2513 20.904C52.5593 21.4267 52.7133 22.01 52.7133 22.654C52.7133 23.3073 52.5593 23.9 52.2513 24.432C51.9433 24.9547 51.5233 25.37 50.9913 25.678C50.4686 25.986 49.8853 26.14 49.2413 26.14ZM49.2413 24.922C49.6613 24.922 50.0346 24.824 50.3613 24.628C50.688 24.432 50.9446 24.166 51.1313 23.83C51.318 23.4847 51.4113 23.0927 51.4113 22.654C51.4113 22.2247 51.3133 21.842 51.1173 21.506C50.9306 21.17 50.674 20.9087 50.3473 20.722C50.03 20.526 49.6613 20.428 49.2413 20.428C48.8213 20.428 48.448 20.526 48.1213 20.722C47.7946 20.9087 47.538 21.17 47.3513 21.506C47.1646 21.842 47.0713 22.2247 47.0713 22.654C47.0713 23.0927 47.1646 23.4847 47.3513 23.83C47.538 24.166 47.7946 24.432 48.1213 24.628C48.448 24.824 48.8213 24.922 49.2413 24.922ZM57.633 26.14C57.129 26.14 56.6717 26.0373 56.261 25.832C55.8597 25.6173 55.5377 25.3233 55.295 24.95C55.0523 24.5767 54.917 24.152 54.889 23.676V21.674C54.917 21.1887 55.0523 20.764 55.295 20.4C55.547 20.0267 55.8737 19.7373 56.275 19.532C56.6857 19.3173 57.1383 19.21 57.633 19.21C58.2397 19.21 58.7857 19.364 59.271 19.672C59.7657 19.98 60.153 20.3953 60.433 20.918C60.713 21.4407 60.853 22.0287 60.853 22.682C60.853 23.3353 60.713 23.9233 60.433 24.446C60.153 24.9687 59.7657 25.384 59.271 25.692C58.7857 25.9907 58.2397 26.14 57.633 26.14ZM57.423 24.95C57.843 24.95 58.2117 24.852 58.529 24.656C58.8463 24.46 59.0983 24.194 59.285 23.858C59.4717 23.5127 59.565 23.116 59.565 22.668C59.565 22.2293 59.4717 21.8373 59.285 21.492C59.0983 21.1467 58.8463 20.8807 58.529 20.694C58.2117 20.498 57.8477 20.4 57.437 20.4C57.017 20.4 56.6483 20.498 56.331 20.694C56.0137 20.8807 55.7663 21.1467 55.589 21.492C55.4117 21.8373 55.323 22.234 55.323 22.682C55.323 23.1207 55.407 23.5127 55.575 23.858C55.7523 24.194 55.9997 24.46 56.317 24.656C56.6437 24.852 57.0123 24.95 57.423 24.95ZM54.133 28.786V19.35H55.393V21.1L55.155 22.71L55.393 24.334V28.786H54.133ZM65.3614 26.14C64.6988 26.14 64.1014 25.9907 63.5694 25.692C63.0374 25.384 62.6174 24.9687 62.3094 24.446C62.0014 23.9233 61.8474 23.3307 61.8474 22.668C61.8474 22.0147 61.9968 21.4267 62.2954 20.904C62.6034 20.3813 63.0141 19.9707 63.5274 19.672C64.0501 19.364 64.6334 19.21 65.2774 19.21C65.8934 19.21 66.4348 19.35 66.9014 19.63C67.3774 19.91 67.7461 20.2973 68.0074 20.792C68.2781 21.2867 68.4134 21.8467 68.4134 22.472C68.4134 22.5653 68.4088 22.668 68.3994 22.78C68.3901 22.8827 68.3714 23.004 68.3434 23.144H62.7294V22.094H67.6714L67.2094 22.5C67.2094 22.052 67.1301 21.674 66.9714 21.366C66.8128 21.0487 66.5888 20.806 66.2994 20.638C66.0101 20.4607 65.6601 20.372 65.2494 20.372C64.8201 20.372 64.4421 20.4653 64.1154 20.652C63.7888 20.8387 63.5368 21.1 63.3594 21.436C63.1821 21.772 63.0934 22.1687 63.0934 22.626C63.0934 23.0927 63.1868 23.5033 63.3734 23.858C63.5601 24.2033 63.8261 24.474 64.1714 24.67C64.5168 24.8567 64.9134 24.95 65.3614 24.95C65.7348 24.95 66.0754 24.8847 66.3834 24.754C66.7008 24.6233 66.9714 24.4273 67.1954 24.166L68.0074 24.992C67.6901 25.3653 67.2981 25.65 66.8314 25.846C66.3741 26.042 65.8841 26.14 65.3614 26.14ZM69.7873 26V19.35H71.0473V26H69.7873ZM71.0473 22.206L70.5713 21.996C70.5713 21.1467 70.7673 20.47 71.1593 19.966C71.5513 19.462 72.1159 19.21 72.8533 19.21C73.1893 19.21 73.4926 19.2707 73.7633 19.392C74.0339 19.504 74.2859 19.6953 74.5193 19.966L73.6933 20.82C73.5533 20.6707 73.3993 20.5633 73.2313 20.498C73.0633 20.4327 72.8673 20.4 72.6433 20.4C72.1766 20.4 71.7939 20.5493 71.4953 20.848C71.1966 21.1467 71.0473 21.5993 71.0473 22.206Z" fill="#555555"/>
<g filter="url(#filter0_b_3210_46238)">
<rect x="-697" y="-315" width="1440" height="823" fill="#222222" fill-opacity="0.7"/>
</g>
<g clip-path="url(#clip1_3210_46238)">
<rect x="-191" y="-72" width="429" height="336" rx="8" fill="white"/>
<path d="M-171 -44C-171 -48.4183 -167.418 -52 -163 -52H211C215.418 -52 219 -48.4183 219 -44V92C219 96.4183 215.418 100 211 100H-163C-167.418 100 -171 96.4183 -171 92V-44Z" fill="#FA9796" fill-opacity="0.4"/>
<path d="M26.3346 26.3334H21.668V12.3334H26.3346M26.3346 35.6668H21.668V31.0001H26.3346M24.0013 0.666748C20.9371 0.666748 17.903 1.27028 15.072 2.44289C12.2411 3.6155 9.66885 5.33422 7.50214 7.50092C3.1263 11.8768 0.667969 17.8117 0.667969 24.0001C0.667969 30.1885 3.1263 36.1234 7.50214 40.4992C9.66885 42.6659 12.2411 44.3847 15.072 45.5573C17.903 46.7299 20.9371 47.3334 24.0013 47.3334C30.1897 47.3334 36.1246 44.8751 40.5005 40.4992C44.8763 36.1234 47.3346 30.1885 47.3346 24.0001C47.3346 20.9359 46.7311 17.9017 45.5585 15.0708C44.3859 12.2399 42.6672 9.66762 40.5005 7.50092C38.3338 5.33422 35.7615 3.6155 32.9306 2.44289C30.0997 1.27028 27.0655 0.666748 24.0013 0.666748Z" fill="#CB1E0F"/>
</g>
</g>
<path d="M-12434 -1756H933V-1758H-12434V-1756ZM934 -1755V9408H936V-1755H934ZM933 9409H-12434V9411H933V9409ZM-12435 9408V-1755H-12437V9408H-12435ZM-12434 9409C-12434.6 9409 -12435 9408.55 -12435 9408H-12437C-12437 9409.66 -12435.7 9411 -12434 9411V9409ZM934 9408C934 9408.55 933.552 9409 933 9409V9411C934.657 9411 936 9409.66 936 9408H934ZM933 -1756C933.552 -1756 934 -1755.55 934 -1755H936C936 -1756.66 934.656 -1758 933 -1758V-1756ZM-12434 -1758C-12435.7 -1758 -12437 -1756.66 -12437 -1755H-12435C-12435 -1755.55 -12434.6 -1756 -12434 -1756V-1758Z" fill="black" fill-opacity="0.1"/>
<defs>
<filter id="filter0_b_3210_46238" x="-707" y="-325" width="1460" height="843" filterUnits="userSpaceOnUse" color-interpolation-filters="sRGB">
<feFlood flood-opacity="0" result="BackgroundImageFix"/>
<feGaussianBlur in="BackgroundImageFix" stdDeviation="5"/>
<feComposite in2="SourceAlpha" operator="in" result="effect1_backgroundBlur_3210_46238"/>
<feBlend mode="normal" in="SourceGraphic" in2="effect1_backgroundBlur_3210_46238" result="shape"/>
</filter>
<clipPath id="clip0_3210_46238">
<rect width="1440" height="823" fill="white" transform="translate(-697 -315)"/>
</clipPath>
<clipPath id="clip1_3210_46238">
<rect x="-191" y="-72" width="429" height="336" rx="8" fill="white"/>
</clipPath>
</defs>
</svg>
