<svg width="12" height="12" viewBox="0 0 12 12" fill="none" xmlns="http://www.w3.org/2000/svg">
<rect width="12" height="12" fill="#C7C7C7"/>
<path d="M-1554 -568C-1554 -569.105 -1553.1 -570 -1552 -570H10413C10414.1 -570 10415 -569.105 10415 -568V10664C10415 10665.1 10414.1 10666 10413 10666H-1552C-1553.1 10666 -1554 10665.1 -1554 10664V-568Z" fill="#E5E5E5"/>
<g clip-path="url(#clip0_3210_46238)">
<rect width="1440" height="823" transform="translate(-983 -166)" fill="#F9F9F9"/>
<rect x="-44" y="-16" width="72" height="44" rx="8" fill="white"/>
<path d="M3.5 0H2C1.46957 0 0.960859 0.210714 0.585786 0.585786C0.210714 0.960859 0 1.46957 0 2L0 3.5C0 4.03043 0.210714 4.53914 0.585786 4.91421C0.960859 5.28929 1.46957 5.5 2 5.5H3.5C4.03043 5.5 4.53914 5.28929 4.91421 4.91421C5.28929 4.53914 5.5 4.03043 5.5 3.5V2C5.5 1.46957 5.28929 0.960859 4.91421 0.585786C4.53914 0.210714 4.03043 0 3.5 0ZM4.5 3.5C4.5 3.76522 4.39464 4.01957 4.20711 4.20711C4.01957 4.39464 3.76522 4.5 3.5 4.5H2C1.73478 4.5 1.48043 4.39464 1.29289 4.20711C1.10536 4.01957 1 3.76522 1 3.5V2C1 1.73478 1.10536 1.48043 1.29289 1.29289C1.48043 1.10536 1.73478 1 2 1H3.5C3.76522 1 4.01957 1.10536 4.20711 1.29289C4.39464 1.48043 4.5 1.73478 4.5 2V3.5ZM10 0H8.5C7.96957 0 7.46086 0.210714 7.08579 0.585786C6.71071 0.960859 6.5 1.46957 6.5 2V3.5C6.5 4.03043 6.71071 4.53914 7.08579 4.91421C7.46086 5.28929 7.96957 5.5 8.5 5.5H10C10.5304 5.5 11.0391 5.28929 11.4142 4.91421C11.7893 4.53914 12 4.03043 12 3.5V2C12 1.46957 11.7893 0.960859 11.4142 0.585786C11.0391 0.210714 10.5304 0 10 0ZM11 3.5C11 3.76522 10.8946 4.01957 10.7071 4.20711C10.5196 4.39464 10.2652 4.5 10 4.5H8.5C8.23478 4.5 7.98043 4.39464 7.79289 4.20711C7.60536 4.01957 7.5 3.76522 7.5 3.5V2C7.5 1.73478 7.60536 1.48043 7.79289 1.29289C7.98043 1.10536 8.23478 1 8.5 1H10C10.2652 1 10.5196 1.10536 10.7071 1.29289C10.8946 1.48043 11 1.73478 11 2V3.5ZM3.5 6.5H2C1.46957 6.5 0.960859 6.71071 0.585786 7.08579C0.210714 7.46086 0 7.96957 0 8.5L0 10C0 10.5304 0.210714 11.0391 0.585786 11.4142C0.960859 11.7893 1.46957 12 2 12H3.5C4.03043 12 4.53914 11.7893 4.91421 11.4142C5.28929 11.0391 5.5 10.5304 5.5 10V8.5C5.5 7.96957 5.28929 7.46086 4.91421 7.08579C4.53914 6.71071 4.03043 6.5 3.5 6.5ZM4.5 10C4.5 10.2652 4.39464 10.5196 4.20711 10.7071C4.01957 10.8946 3.76522 11 3.5 11H2C1.73478 11 1.48043 10.8946 1.29289 10.7071C1.10536 10.5196 1 10.2652 1 10V8.5C1 8.23478 1.10536 7.98043 1.29289 7.79289C1.48043 7.60536 1.73478 7.5 2 7.5H3.5C3.76522 7.5 4.01957 7.60536 4.20711 7.79289C4.39464 7.98043 4.5 8.23478 4.5 8.5V10ZM10 6.5H8.5C7.96957 6.5 7.46086 6.71071 7.08579 7.08579C6.71071 7.46086 6.5 7.96957 6.5 8.5V10C6.5 10.5304 6.71071 11.0391 7.08579 11.4142C7.46086 11.7893 7.96957 12 8.5 12H10C10.5304 12 11.0391 11.7893 11.4142 11.4142C11.7893 11.0391 12 10.5304 12 10V8.5C12 7.96957 11.7893 7.46086 11.4142 7.08579C11.0391 6.71071 10.5304 6.5 10 6.5ZM11 10C11 10.2652 10.8946 10.5196 10.7071 10.7071C10.5196 10.8946 10.2652 11 10 11H8.5C8.23478 11 7.98043 10.8946 7.79289 10.7071C7.60536 10.5196 7.5 10.2652 7.5 10V8.5C7.5 8.23478 7.60536 7.98043 7.79289 7.79289C7.98043 7.60536 8.23478 7.5 8.5 7.5H10C10.2652 7.5 10.5196 7.60536 10.7071 7.79289C10.8946 7.98043 11 8.23478 11 8.5V10Z" fill="#B4B4B4"/>
</g>
<path d="M-1552 -569H10413V-571H-1552V-569ZM10414 -568V10664H10416V-568H10414ZM10413 10665H-1552V10667H10413V10665ZM-1553 10664V-568H-1555V10664H-1553ZM-1552 10665C-1552.55 10665 -1553 10664.6 -1553 10664H-1555C-1555 10665.7 -1553.66 10667 -1552 10667V10665ZM10414 10664C10414 10664.6 10413.6 10665 10413 10665V10667C10414.7 10667 10416 10665.7 10416 10664H10414ZM10413 -569C10413.6 -569 10414 -568.552 10414 -568H10416C10416 -569.657 10414.7 -571 10413 -571V-569ZM-1552 -571C-1553.66 -571 -1555 -569.657 -1555 -568H-1553C-1553 -568.552 -1552.55 -569 -1552 -569V-571Z" fill="black" fill-opacity="0.1"/>
<defs>
<clipPath id="clip0_3210_46238">
<rect width="1440" height="823" fill="white" transform="translate(-983 -166)"/>
</clipPath>
</defs>
</svg>
